<svg width="24" height="25" viewBox="0 0 24 25" fill="none" xmlns="http://www.w3.org/2000/svg">
<path d="M12 4.85925C12.2652 4.85925 12.5196 4.96461 12.7071 5.15215C12.8946 5.33968 13 5.59404 13 5.85925V11.8593H19C19.2652 11.8593 19.5196 11.9646 19.7071 12.1521C19.8946 12.3397 20 12.594 20 12.8593C20 13.1245 19.8946 13.3788 19.7071 13.5664C19.5196 13.7539 19.2652 13.8593 19 13.8593H13V19.8593C13 20.1245 12.8946 20.3788 12.7071 20.5664C12.5196 20.7539 12.2652 20.8593 12 20.8593C11.7348 20.8593 11.4804 20.7539 11.2929 20.5664C11.1054 20.3788 11 20.1245 11 19.8593V13.8593H5C4.73478 13.8593 4.48043 13.7539 4.29289 13.5664C4.10536 13.3788 4 13.1245 4 12.8593C4 12.594 4.10536 12.3397 4.29289 12.1521C4.48043 11.9646 4.73478 11.8593 5 11.8593H11V5.85925C11 5.59404 11.1054 5.33968 11.2929 5.15215C11.4804 4.96461 11.7348 4.85925 12 4.85925Z" fill="#7B7A7A"/>
</svg>
