<svg width="24" height="22" viewBox="0 0 24 22" fill="none" xmlns="http://www.w3.org/2000/svg">
<path d="M10.2542 19.5574C10.2542 19.983 10.4382 20.3911 10.7657 20.692C11.0931 20.9929 11.5373 21.162 12.0004 21.162C12.4635 21.162 12.9076 20.9929 13.2351 20.692C13.5626 20.3911 13.7465 19.983 13.7465 19.5574V12.6045H21.3132C21.7763 12.6045 22.2205 12.4354 22.5479 12.1345C22.8754 11.8336 23.0594 11.4255 23.0594 10.9999C23.0594 10.5744 22.8754 10.1663 22.5479 9.86535C22.2205 9.56444 21.7763 9.39539 21.3132 9.39539H13.7465V2.44242C13.7465 2.01687 13.5626 1.60875 13.2351 1.30785C12.9076 1.00694 12.4635 0.837891 12.0004 0.837891C11.5373 0.837891 11.0931 1.00694 10.7657 1.30785C10.4382 1.60875 10.2542 2.01687 10.2542 2.44242V9.39539H2.68756C2.22445 9.39539 1.78031 9.56444 1.45284 9.86535C1.12538 10.1663 0.941406 10.5744 0.941406 10.9999C0.941406 11.4255 1.12538 11.8336 1.45284 12.1345C1.78031 12.4354 2.22445 12.6045 2.68756 12.6045H10.2542V19.5574Z" fill="#C7C4C2"/>
</svg>
