<svg width="168" height="308" viewBox="0 0 168 308" fill="none" xmlns="http://www.w3.org/2000/svg">
<circle cx="142.002" cy="15.4165" r="13.4038" transform="rotate(90 142.002 15.4165)" fill="#FFF5E7" stroke="#ECB22E" stroke-width="0.415949"/>
<circle cx="109.422" cy="15.1948" r="13.4038" transform="rotate(90 109.422 15.1948)" fill="#FFF5E7" stroke="#ECB22E" stroke-width="0.415949"/>
<circle cx="79.9805" cy="15.4165" r="13.4038" transform="rotate(90 79.9805 15.4165)" fill="#FFF5E7" stroke="#ECB22E" stroke-width="0.415949"/>
<circle cx="47.6249" cy="14.4409" r="13.4038" transform="rotate(90 47.6249 14.4409)" fill="#FFF5E7" stroke="#ECB22E" stroke-width="0.415949"/>
<circle cx="54.7101" cy="294.107" r="13.4038" transform="rotate(90 54.7101 294.107)" fill="#FFF5E7" stroke="#ECB22E" stroke-width="0.415949"/>
<circle cx="19.0895" cy="15.4145" r="13.4038" transform="rotate(90 19.0895 15.4145)" fill="#FFF5E7" stroke="#ECB22E" stroke-width="0.415949"/>
<circle cx="19.5243" cy="294.328" r="13.4038" transform="rotate(90 19.5243 294.328)" fill="#FFF5E7" stroke="#ECB22E" stroke-width="0.415949"/>
<rect x="166.62" y="14.8564" width="274.53" height="166.082" rx="4.15949" transform="rotate(90 166.62 14.8564)" fill="#FFF6E2" stroke="#ECB22E" stroke-width="0.831898"/>
<path d="M62.5026 161.438L62.5026 145.347H68.6624C69.8252 145.347 70.7916 145.53 71.5616 145.897C72.3368 146.258 72.9156 146.753 73.2979 147.382C73.6855 148.01 73.8793 148.722 73.8793 149.519C73.8793 150.173 73.7536 150.734 73.5022 151.2C73.2508 151.661 72.913 152.035 72.4887 152.324C72.0644 152.612 71.5904 152.819 71.0666 152.944V153.101C71.6375 153.133 72.1849 153.308 72.7087 153.628C73.2377 153.942 73.6698 154.387 74.0051 154.963C74.3403 155.54 74.5079 156.236 74.5079 157.053C74.5079 157.886 74.3062 158.635 73.9029 159.3C73.4996 159.96 72.892 160.482 72.0801 160.864C71.2682 161.246 70.2469 161.438 69.0159 161.438H62.5026ZM65.4175 159.002H68.5524C69.6105 159.002 70.3726 158.8 70.8387 158.397C71.3102 157.988 71.5459 157.465 71.5459 156.826C71.5459 156.349 71.428 155.919 71.1923 155.537C70.9566 155.149 70.6214 154.846 70.1866 154.626C69.7519 154.4 69.2333 154.288 68.631 154.288H65.4175V159.002ZM65.4175 152.19H68.301C68.8038 152.19 69.2569 152.098 69.6602 151.915C70.0635 151.726 70.3804 151.462 70.6109 151.121C70.8466 150.776 70.9644 150.367 70.9644 149.896C70.9644 149.272 70.7445 148.759 70.3045 148.356C69.8697 147.953 69.2228 147.751 68.3638 147.751H65.4175V152.19ZM79.11 161.438H75.9987L81.6635 145.347H85.262L90.9346 161.438H87.8233L83.5256 148.647H83.3999L79.11 161.438ZM79.2122 155.128H87.6976V157.47H79.2122V155.128ZM93.054 161.438V145.347H99.0881C100.324 145.347 101.361 145.561 102.199 145.991C103.043 146.42 103.679 147.023 104.109 147.798C104.543 148.568 104.761 149.466 104.761 150.493C104.761 151.525 104.541 152.42 104.101 153.18C103.666 153.934 103.024 154.518 102.176 154.932C101.327 155.341 100.285 155.545 99.0488 155.545H94.7511V153.125H98.6559C99.3788 153.125 99.9707 153.025 100.432 152.826C100.893 152.622 101.233 152.326 101.453 151.939C101.678 151.546 101.791 151.064 101.791 150.493C101.791 149.922 101.678 149.435 101.453 149.032C101.228 148.623 100.885 148.314 100.424 148.104C99.9628 147.89 99.3683 147.782 98.6402 147.782H95.9689V161.438H93.054ZM101.367 154.146L105.35 161.438H102.097L98.1845 154.146H101.367Z" fill="#ECB22E"/>
</svg>
