<svg width="240" height="131" viewBox="0 0 240 131" fill="none" xmlns="http://www.w3.org/2000/svg">
<circle cx="228.153" cy="110.914" r="10.4142" transform="rotate(-180 228.153 110.914)" fill="#FFF5E7" stroke="#ECB22E" stroke-width="0.323175"/>
<circle cx="228.325" cy="85.601" r="10.4142" transform="rotate(-180 228.325 85.601)" fill="#FFF5E7" stroke="#ECB22E" stroke-width="0.323175"/>
<circle cx="228.153" cy="62.726" r="10.4142" transform="rotate(-180 228.153 62.726)" fill="#FFF5E7" stroke="#ECB22E" stroke-width="0.323175"/>
<circle cx="228.911" cy="37.5873" r="10.4142" transform="rotate(-180 228.911 37.5873)" fill="#FFF5E7" stroke="#ECB22E" stroke-width="0.323175"/>
<circle cx="11.6218" cy="43.0922" r="10.4142" transform="rotate(-180 11.6218 43.0922)" fill="#FFF5E7" stroke="#ECB22E" stroke-width="0.323175"/>
<circle cx="228.154" cy="15.4164" r="10.4142" transform="rotate(-180 228.154 15.4164)" fill="#FFF5E7" stroke="#ECB22E" stroke-width="0.323175"/>
<circle cx="11.45" cy="15.7543" r="10.4142" transform="rotate(-180 11.45 15.7543)" fill="#FFF5E7" stroke="#ECB22E" stroke-width="0.323175"/>
<rect x="228.589" y="130.041" width="213.298" height="129.039" rx="3.23175" transform="rotate(-180 228.589 130.041)" fill="#FFF6E2" stroke="#ECB22E" stroke-width="0.646351"/>
<path d="M104.28 72.0215V59.5196H109.065C109.969 59.5196 110.72 59.662 111.318 59.9469C111.92 60.2277 112.37 60.6123 112.667 61.1006C112.968 61.589 113.119 62.1424 113.119 62.761C113.119 63.2697 113.021 63.7052 112.826 64.0674C112.63 64.4255 112.368 64.7165 112.038 64.9403C111.709 65.1641 111.34 65.3249 110.933 65.4226V65.5447C111.377 65.5691 111.802 65.7054 112.209 65.9537C112.62 66.1978 112.956 66.5437 113.216 66.9914C113.477 67.4391 113.607 67.9803 113.607 68.6152C113.607 69.2623 113.45 69.8442 113.137 70.3611C112.824 70.8738 112.352 71.2788 111.721 71.5759C111.09 71.8729 110.297 72.0215 109.34 72.0215H104.28ZM106.544 70.1291H108.98C109.802 70.1291 110.394 69.9724 110.756 69.6591C111.123 69.3416 111.306 68.9347 111.306 68.4382C111.306 68.0678 111.214 67.7341 111.031 67.437C110.848 67.1359 110.587 66.8998 110.25 66.7289C109.912 66.5539 109.509 66.4664 109.041 66.4664H106.544V70.1291ZM106.544 64.8365H108.785C109.175 64.8365 109.527 64.7653 109.841 64.6229C110.154 64.4764 110.4 64.2709 110.579 64.0063C110.762 63.7377 110.854 63.4203 110.854 63.054C110.854 62.5697 110.683 62.1709 110.341 61.8576C110.003 61.5442 109.501 61.3875 108.833 61.3875H106.544V64.8365ZM117.183 72.0215H114.765L119.167 59.5196H121.963L126.37 72.0215H123.953L120.614 62.0834H120.516L117.183 72.0215ZM117.262 67.1196H123.855V68.9387H117.262V67.1196ZM128.017 72.0215V59.5196H132.705C133.665 59.5196 134.471 59.6864 135.122 60.0201C135.778 60.3538 136.272 60.8218 136.606 61.4241C136.943 62.0224 137.112 62.7203 137.112 63.518C137.112 64.3197 136.941 65.0156 136.6 65.6057C136.262 66.1917 135.763 66.6455 135.104 66.967C134.445 67.2844 133.635 67.4431 132.674 67.4431H129.335V65.563H132.369C132.931 65.563 133.391 65.4856 133.749 65.331C134.107 65.1723 134.371 64.9423 134.542 64.6412C134.717 64.336 134.805 63.9616 134.805 63.518C134.805 63.0744 134.717 62.6959 134.542 62.3825C134.367 62.0651 134.101 61.825 133.743 61.6622C133.385 61.4954 132.923 61.4119 132.357 61.4119H130.281V72.0215H128.017ZM134.475 66.3565L137.57 72.0215H135.043L132.003 66.3565H134.475Z" fill="#ECB22E"/>
</svg>
