<svg width="23" height="23" viewBox="0 0 23 23" fill="none" xmlns="http://www.w3.org/2000/svg">
<path d="M18.5484 8.1554C18.7459 8.1554 18.9354 8.23387 19.0751 8.37355C19.2147 8.51324 19.2932 8.70269 19.2932 8.90023C19.2932 9.09777 19.2147 9.28722 19.0751 9.4269C18.9354 9.56659 18.7459 9.64506 18.5484 9.64506H17.8036L17.8013 9.69794L17.1064 19.4337C17.0796 19.8095 16.9115 20.1612 16.6357 20.418C16.36 20.6748 15.9972 20.8176 15.6204 20.8175H9.55825C9.18147 20.8176 8.81869 20.6748 8.54296 20.418C8.26724 20.1612 8.09907 19.8095 8.07231 19.4337L7.37739 9.69869C7.37626 9.68084 7.37576 9.66295 7.3759 9.64506H6.63106C6.43352 9.64506 6.24407 9.56659 6.10439 9.4269C5.9647 9.28722 5.88623 9.09777 5.88623 8.90023C5.88623 8.70269 5.9647 8.51324 6.10439 8.37355C6.24407 8.23387 6.43352 8.1554 6.63106 8.1554H18.5484ZM16.3117 9.64506H8.86779L9.559 19.3279H15.6204L16.3117 9.64506ZM14.0794 5.9209C14.2769 5.9209 14.4664 5.99937 14.6061 6.13905C14.7457 6.27874 14.8242 6.46819 14.8242 6.66573C14.8242 6.86327 14.7457 7.05272 14.6061 7.19241C14.4664 7.33209 14.2769 7.41056 14.0794 7.41056H11.1001C10.9025 7.41056 10.7131 7.33209 10.5734 7.19241C10.4337 7.05272 10.3552 6.86327 10.3552 6.66573C10.3552 6.46819 10.4337 6.27874 10.5734 6.13905C10.7131 5.99937 10.9025 5.9209 11.1001 5.9209H14.0794Z" fill="white"/>
</svg>
