<svg width="24" height="25" viewBox="0 0 24 25" fill="none" xmlns="http://www.w3.org/2000/svg">
<g clip-path="url(#clip0_18_34741)">
<path d="M20 5.89087C20.2652 5.89087 20.5196 5.99623 20.7071 6.18376C20.8946 6.3713 21 6.62565 21 6.89087C21 7.15609 20.8946 7.41044 20.7071 7.59798C20.5196 7.78551 20.2652 7.89087 20 7.89087H19L18.997 7.96187L18.064 21.0329C18.0281 21.5375 17.8023 22.0097 17.4321 22.3544C17.0619 22.6992 16.5749 22.8909 16.069 22.8909H7.93C7.42414 22.8909 6.93707 22.6992 6.56688 22.3544C6.1967 22.0097 5.97092 21.5375 5.935 21.0329L5.002 7.96287C5.00048 7.9389 4.99982 7.91489 5 7.89087H4C3.73478 7.89087 3.48043 7.78551 3.29289 7.59798C3.10536 7.41044 3 7.15609 3 6.89087C3 6.62565 3.10536 6.3713 3.29289 6.18376C3.48043 5.99623 3.73478 5.89087 4 5.89087H20ZM16.997 7.89087H7.003L7.931 20.8909H16.069L16.997 7.89087ZM14 2.89087C14.2652 2.89087 14.5196 2.99623 14.7071 3.18376C14.8946 3.3713 15 3.62565 15 3.89087C15 4.15609 14.8946 4.41044 14.7071 4.59798C14.5196 4.78551 14.2652 4.89087 14 4.89087H10C9.73478 4.89087 9.48043 4.78551 9.29289 4.59798C9.10536 4.41044 9 4.15609 9 3.89087C9 3.62565 9.10536 3.3713 9.29289 3.18376C9.48043 2.99623 9.73478 2.89087 10 2.89087H14Z" fill="#7B7A7A"/>
</g>
<defs>
<clipPath id="clip0_18_34741">
<rect width="24" height="24" fill="white" transform="translate(0 0.890869)"/>
</clipPath>
</defs>
</svg>
