<svg width="28" height="28" viewBox="0 0 28 28" fill="none" xmlns="http://www.w3.org/2000/svg">
<path d="M23.7031 11.9375V22.0625C23.7031 22.6219 23.4809 23.1585 23.0853 23.554C22.6897 23.9496 22.1532 24.1719 21.5938 24.1719H6.40625C5.84681 24.1719 5.31028 23.9496 4.9147 23.554C4.51911 23.1585 4.29688 22.6219 4.29688 22.0625V11.9375C4.29688 11.3781 4.51911 10.8415 4.9147 10.4459C5.31028 10.0504 5.84681 9.82812 6.40625 9.82812H8.9375C9.27316 9.82812 9.59508 9.96146 9.83243 10.1988C10.0698 10.4362 10.2031 10.7581 10.2031 11.0937C10.2031 11.4294 10.0698 11.7513 9.83243 11.9887C9.59508 12.226 9.27316 12.3594 8.9375 12.3594H6.82812V21.6406H21.1719V12.3594H19.0625C18.7268 12.3594 18.4049 12.226 18.1676 11.9887C17.9302 11.7513 17.7969 11.4294 17.7969 11.0937C17.7969 10.7581 17.9302 10.4362 18.1676 10.1988C18.4049 9.96146 18.7268 9.82812 19.0625 9.82812H21.5938C22.1532 9.82812 22.6897 10.0504 23.0853 10.4459C23.4809 10.8415 23.7031 11.3781 23.7031 11.9375ZM10.6767 7.77042L12.7344 5.71483V14.4687C12.7344 14.8044 12.8677 15.1263 13.1051 15.3637C13.3424 15.601 13.6643 15.7344 14 15.7344C14.3357 15.7344 14.6576 15.601 14.8949 15.3637C15.1323 15.1263 15.2656 14.8044 15.2656 14.4687V5.71483L17.3233 7.77358C17.441 7.89131 17.5808 7.9847 17.7346 8.04841C17.8885 8.11213 18.0533 8.14492 18.2198 8.14492C18.3863 8.14492 18.5512 8.11213 18.705 8.04841C18.8588 7.9847 18.9986 7.89131 19.1163 7.77358C19.234 7.65586 19.3274 7.51609 19.3911 7.36227C19.4548 7.20846 19.4876 7.04359 19.4876 6.8771C19.4876 6.71061 19.4548 6.54575 19.3911 6.39193C19.3274 6.23811 19.234 6.09834 19.1163 5.98062L14.8975 1.76187C14.78 1.64388 14.6402 1.55026 14.4864 1.48638C14.3326 1.4225 14.1676 1.38962 14.0011 1.38962C13.8345 1.38962 13.6695 1.4225 13.5157 1.48638C13.3619 1.55026 13.2222 1.64388 13.1046 1.76187L8.88582 5.98062C8.76809 6.09834 8.67471 6.23811 8.61099 6.39193C8.54728 6.54575 8.51448 6.71061 8.51448 6.8771C8.51448 7.21335 8.64806 7.53582 8.88582 7.77358C9.12358 8.01135 9.44606 8.14492 9.7823 8.14492C10.1186 8.14492 10.441 8.01135 10.6788 7.77358L10.6767 7.77042Z" fill="#C7C4C2"/>
</svg>
