<svg width="20" height="21" viewBox="0 0 20 21" fill="none" xmlns="http://www.w3.org/2000/svg">
<g clip-path="url(#clip0_18_34762)">
<path d="M9.2234 4.24487H3.35398C2.90922 4.24487 2.48267 4.42155 2.16818 4.73605C1.85368 5.05054 1.677 5.47709 1.677 5.92185V17.6607C1.677 18.1055 1.85368 18.532 2.16818 18.8465C2.48267 19.161 2.90922 19.3377 3.35398 19.3377H15.0928C15.5376 19.3377 15.9641 19.161 16.2786 18.8465C16.5931 18.532 16.7698 18.1055 16.7698 17.6607V11.7913" stroke="#7B7A7A" stroke-width="2" stroke-linecap="round" stroke-linejoin="round"/>
<path d="M15.5119 2.98703C15.8455 2.65346 16.2979 2.46606 16.7696 2.46606C17.2414 2.46606 17.6938 2.65346 18.0274 2.98703C18.3609 3.32061 18.5483 3.77303 18.5483 4.24477C18.5483 4.71651 18.3609 5.16893 18.0274 5.5025L10.0617 13.4681L6.70776 14.3066L7.54625 10.9527L15.5119 2.98703Z" stroke="#7B7A7A" stroke-width="2" stroke-linecap="round" stroke-linejoin="round"/>
</g>
<defs>
<clipPath id="clip0_18_34762">
<rect width="20" height="20" fill="white" transform="translate(0 0.890869)"/>
</clipPath>
</defs>
</svg>
