<svg width="74" height="57" viewBox="0 0 74 57" fill="none" xmlns="http://www.w3.org/2000/svg">
<path d="M73.6174 16.904C73.6174 22.3772 68.9622 26.827 63.2032 26.827C57.4443 26.827 52.789 22.3772 52.789 16.904C52.789 11.4308 57.4443 6.98092 63.2032 6.98092C68.9622 6.98092 73.6174 11.4308 73.6174 16.904Z" fill="#FFF5E7" stroke="#ECB22E" stroke-width="0.323175"/>
<path d="M21.7419 14.4964C21.7419 20.224 17.0799 24.8683 11.3277 24.8683C5.5755 24.8683 0.91351 20.224 0.91351 14.4964C0.91351 8.76876 5.5755 4.12448 11.3277 4.12448C17.0799 4.12448 21.7419 8.76876 21.7419 14.4964Z" fill="#FFF5E7" stroke="#ECB22E" stroke-width="0.323175"/>
<path d="M73.6174 41.5977C73.6174 46.988 68.9645 51.3745 63.2032 51.3745C57.442 51.3745 52.789 46.988 52.789 41.5977C52.789 36.2073 57.442 31.8208 63.2032 31.8208C68.9645 31.8208 73.6174 36.2073 73.6174 41.5977Z" fill="#FFF5E7" stroke="#ECB22E" stroke-width="0.323175"/>
<path d="M21.7419 38.4612C21.7419 44.1889 17.0799 48.8332 11.3277 48.8332C5.5755 48.8332 0.91351 44.1889 0.91351 38.4612C0.91351 32.7336 5.5755 28.0893 11.3277 28.0893C17.0799 28.0893 21.7419 32.7336 21.7419 38.4612Z" fill="#FFF5E7" stroke="#ECB22E" stroke-width="0.323175"/>
<rect x="11.651" y="1.05364" width="48.2799" height="55.5206" rx="3.23175" fill="#FFF6E2" stroke="#ECB22E" stroke-width="0.646351"/>
<path d="M31.9872 35.0684V22.5664H39.9962V24.4649H34.2519V27.859H39.4468V29.7575H34.2519V35.0684H31.9872Z" fill="#ECB22E"/>
</svg>
