<svg width="73" height="95" viewBox="0 0 73 95" fill="none" xmlns="http://www.w3.org/2000/svg">
<path d="M20.8588 0.954166C27.9031 0.954166 33.6304 6.94582 33.6304 14.358C33.6304 21.7701 27.9031 27.7618 20.8588 27.7618C13.8144 27.7618 8.08709 21.7701 8.08709 14.358C8.08709 6.94582 13.8144 0.954166 20.8588 0.954166Z" fill="#FFF5E7" stroke="#ECB22E" stroke-width="0.415949"/>
<path d="M17.76 67.7217C25.1319 67.7217 31.1094 73.722 31.1094 81.1255C31.1094 88.529 25.1319 94.5293 17.76 94.5293C10.3882 94.5293 4.41067 88.529 4.41067 81.1255C4.41067 73.722 10.3882 67.7217 17.76 67.7217Z" fill="#FFF5E7" stroke="#ECB22E" stroke-width="0.415949"/>
<path d="M52.6412 0.954166C59.5789 0.954166 65.2247 6.94288 65.2247 14.358C65.2247 21.773 59.5789 27.7618 52.6412 27.7618C45.7035 27.7618 40.0577 21.773 40.0577 14.358C40.0577 6.94288 45.7035 0.954166 52.6412 0.954166Z" fill="#FFF5E7" stroke="#ECB22E" stroke-width="0.415949"/>
<path d="M48.6044 67.7217C55.9763 67.7217 61.9538 73.722 61.9538 81.1255C61.9538 88.529 55.9763 94.5293 48.6044 94.5293C41.2326 94.5293 35.2551 88.529 35.2551 81.1255C35.2551 73.722 41.2326 67.7217 48.6044 67.7217Z" fill="#FFF5E7" stroke="#ECB22E" stroke-width="0.415949"/>
<rect x="0.458185" y="80.71" width="62.1396" height="71.4589" rx="4.15949" transform="rotate(-90 0.458185 80.71)" fill="#FFF6E2" stroke="#ECB22E" stroke-width="0.831898"/>
<path d="M28.9432 59.0117V42.9209H39.2514V45.3644H31.8581V49.7328H38.5443V52.1763H31.8581V59.0117H28.9432Z" fill="#ECB22E"/>
</svg>
