<svg width="20" height="21" viewBox="0 0 20 21" fill="none" xmlns="http://www.w3.org/2000/svg">
<path fill-rule="evenodd" clip-rule="evenodd" d="M9.91666 7.34928C9.91666 6.49784 10.6069 5.80762 11.4583 5.80762C12.3098 5.80762 13 6.49784 13 7.34928C13 8.20072 12.3098 8.89095 11.4583 8.89095C10.6069 8.89095 9.91666 8.20072 9.91666 7.34928ZM8.50983 8.09928C8.84385 9.41646 10.0373 10.3909 11.4583 10.3909C12.8794 10.3909 14.0728 9.41646 14.4068 8.09928H17.5C17.9142 8.09928 18.25 7.7635 18.25 7.34928C18.25 6.93507 17.9142 6.59928 17.5 6.59928H14.4068C14.0728 5.28211 12.8794 4.30762 11.4583 4.30762C10.0373 4.30762 8.84385 5.28211 8.50983 6.59928H2.5C2.08579 6.59928 1.75 6.93507 1.75 7.34928C1.75 7.7635 2.08579 8.09928 2.5 8.09928H8.50983ZM4.91667 14.0159C4.91667 13.1645 5.60689 12.4743 6.45833 12.4743C7.30977 12.4743 8 13.1645 8 14.0159C8 14.8674 7.30977 15.5576 6.45833 15.5576C5.60689 15.5576 4.91667 14.8674 4.91667 14.0159ZM6.45833 17.0576C5.03729 17.0576 3.84385 16.0831 3.50983 14.7659H2.5C2.08579 14.7659 1.75 14.4302 1.75 14.0159C1.75 13.6017 2.08579 13.2659 2.5 13.2659H3.50983C3.84385 11.9488 5.03729 10.9743 6.45833 10.9743C7.87937 10.9743 9.07281 11.9488 9.40683 13.2659H17.5C17.9142 13.2659 18.25 13.6017 18.25 14.0159C18.25 14.4302 17.9142 14.7659 17.5 14.7659H9.40683C9.07281 16.0831 7.87937 17.0576 6.45833 17.0576Z" fill="#37383A"/>
</svg>
