<svg width="22" height="22" viewBox="0 0 22 22" fill="none" xmlns="http://www.w3.org/2000/svg">
<path d="M13.069 17.3047C13.069 17.8487 12.7122 18.5621 12.2574 18.8385L11.0001 19.65C9.83196 20.3723 8.209 19.5608 8.209 18.1162V13.3454C8.209 12.7123 7.85231 11.9008 7.4867 11.455L4.06243 7.85238C3.60765 7.39759 3.25098 6.59504 3.25098 6.05109V3.98226C3.25098 2.90327 4.06247 2.0918 5.05229 2.0918H16.948C17.9378 2.0918 18.7493 2.90326 18.7493 3.89309V5.87273C18.7493 6.59503 18.2945 7.49569 17.8486 7.94156" stroke="#C7C4C2" stroke-width="2.0064" stroke-miterlimit="10" stroke-linecap="round" stroke-linejoin="round"/>
<path d="M14.6289 15.0306C16.2049 15.0306 17.4825 13.753 17.4825 12.177C17.4825 10.6011 16.2049 9.32349 14.6289 9.32349C13.053 9.32349 11.7754 10.6011 11.7754 12.177C11.7754 13.753 13.053 15.0306 14.6289 15.0306Z" stroke="#C7C4C2" stroke-width="2.0064" stroke-linecap="round" stroke-linejoin="round"/>
<path d="M18.0177 15.5656L17.126 14.6738" stroke="#C7C4C2" stroke-width="2.0064" stroke-linecap="round" stroke-linejoin="round"/>
</svg>
