<svg width="24" height="25" viewBox="0 0 24 25" fill="none" xmlns="http://www.w3.org/2000/svg">
<path fill-rule="evenodd" clip-rule="evenodd" d="M19.75 11.3909C20.1642 11.3909 20.5 11.0551 20.5 10.6409C20.5 10.2267 20.1642 9.89087 19.75 9.89087H3.75C3.33579 9.89087 3 10.2267 3 10.6409C3 11.0551 3.33579 11.3909 3.75 11.3909L19.75 11.3909ZM19.75 15.3909C20.1642 15.3909 20.5 15.0551 20.5 14.6409C20.5 14.2267 20.1642 13.8909 19.75 13.8909L3.75 13.8909C3.33579 13.8909 3 14.2267 3 14.6409C3 15.0551 3.33579 15.3909 3.75 15.3909L19.75 15.3909Z" fill="#A7A7A7"/>
</svg>
