<svg width="93" height="52" viewBox="0 0 93 52" fill="none" xmlns="http://www.w3.org/2000/svg">
<circle cx="81.7995" cy="26.1393" r="10.4142" fill="#FFF5E7" stroke="#ECB22E" stroke-width="0.323175"/>
<circle cx="11.5543" cy="26.1393" r="10.4142" fill="#FFF5E7" stroke="#ECB22E" stroke-width="0.323175"/>
<rect x="9.84906" y="0.829035" width="71.6263" height="50.6224" rx="3.23175" fill="#FFF6E2" stroke="#ECB22E" stroke-width="0.646351"/>
<path d="M29.6062 32.7568V20.2549H31.871V25.5475H37.6641V20.2549H39.935V32.7568H37.6641V27.446H31.871V32.7568H29.6062ZM48.2767 28.8134V23.3804H50.4865V32.7568H48.3438V31.0903H48.2462C48.0346 31.6153 47.6866 32.0446 47.2023 32.3784C46.7221 32.7121 46.13 32.8789 45.4259 32.8789C44.8114 32.8789 44.2681 32.7426 43.796 32.4699C43.328 32.1932 42.9618 31.7923 42.6972 31.2673C42.4327 30.7383 42.3004 30.0994 42.3004 29.3505V23.3804H44.5102V29.0087C44.5102 29.6029 44.673 30.0749 44.9986 30.4249C45.3242 30.7749 45.7515 30.9499 46.2805 30.9499C46.6061 30.9499 46.9215 30.8706 47.2267 30.7118C47.532 30.5531 47.7822 30.3171 47.9776 30.0037C48.177 29.6863 48.2767 29.2895 48.2767 28.8134ZM57.441 23.3804V25.0896H52.0508V23.3804H57.441ZM53.3816 21.1339H55.5914V29.9366C55.5914 30.2337 55.6361 30.4616 55.7257 30.6203C55.8193 30.7749 55.9414 30.8807 56.0919 30.9377C56.2425 30.9947 56.4094 31.0232 56.5925 31.0232C56.7309 31.0232 56.857 31.013 56.971 30.9926C57.089 30.9723 57.1785 30.954 57.2396 30.9377L57.6119 32.6653C57.4939 32.706 57.325 32.7507 57.1053 32.7996C56.8896 32.8484 56.6251 32.8769 56.3117 32.885C55.7582 32.9013 55.2597 32.8179 54.8161 32.6347C54.3725 32.4475 54.0205 32.1586 53.76 31.7679C53.5036 31.3772 53.3775 30.8889 53.3816 30.3028V21.1339ZM59.2891 32.7568V23.3804H61.499V32.7568H59.2891ZM60.4002 22.0496C60.0502 22.0496 59.749 21.9336 59.4967 21.7017C59.2444 21.4656 59.1182 21.1828 59.1182 20.8531C59.1182 20.5194 59.2444 20.2366 59.4967 20.0046C59.749 19.7686 60.0502 19.6506 60.4002 19.6506C60.7542 19.6506 61.0554 19.7686 61.3036 20.0046C61.5559 20.2366 61.6821 20.5194 61.6821 20.8531C61.6821 21.1828 61.5559 21.4656 61.3036 21.7017C61.0554 21.9336 60.7542 22.0496 60.4002 22.0496Z" fill="#ECB22E"/>
</svg>
