<svg width="67" height="118" viewBox="0 0 67 118" fill="none" xmlns="http://www.w3.org/2000/svg">
<circle cx="33.5996" cy="13.8814" r="13.4038" transform="rotate(-90 33.5996 13.8814)" fill="#FFF5E7" stroke="#ECB22E" stroke-width="0.415949"/>
<circle cx="33.5996" cy="104.292" r="13.4038" transform="rotate(-90 33.5996 104.292)" fill="#FFF5E7" stroke="#ECB22E" stroke-width="0.415949"/>
<rect x="1.02355" y="106.486" width="92.1879" height="65.1545" rx="4.15949" transform="rotate(-90 1.02355 106.486)" fill="#FFF6E2" stroke="#ECB22E" stroke-width="0.831898"/>
<path d="M12.6757 67.6445V51.5537H15.5906V58.3656H23.0468V51.5537H25.9695V67.6445H23.0468V60.8091H15.5906V67.6445H12.6757ZM36.7059 62.569V55.5764H39.5501V67.6445H36.7923V65.4996H36.6666C36.3943 66.1753 35.9464 66.7279 35.3231 67.1574C34.705 67.5869 33.9429 67.8017 33.0368 67.8017C32.2458 67.8017 31.5466 67.6262 30.939 67.2753C30.3366 66.9191 29.8652 66.4031 29.5247 65.7275C29.1843 65.0465 29.014 64.2242 29.014 63.2604V55.5764H31.8582V62.8204C31.8582 63.5852 32.0677 64.1928 32.4868 64.6432C32.9058 65.0937 33.4558 65.3189 34.1367 65.3189C34.5558 65.3189 34.9617 65.2168 35.3545 65.0125C35.7474 64.8082 36.0695 64.5044 36.3209 64.1011C36.5776 63.6925 36.7059 63.1818 36.7059 62.569ZM48.501 55.5764V57.7763H41.5634V55.5764H48.501ZM43.2762 52.6851H46.1204V64.0147C46.1204 64.397 46.178 64.6904 46.2932 64.8946C46.4137 65.0937 46.5709 65.2299 46.7647 65.3032C46.9585 65.3765 47.1732 65.4132 47.4089 65.4132C47.587 65.4132 47.7494 65.4001 47.896 65.3739C48.0479 65.3477 48.1632 65.3241 48.2417 65.3032L48.721 67.5267C48.5691 67.5791 48.3517 67.6367 48.0689 67.6995C47.7913 67.7624 47.4508 67.799 47.0475 67.8095C46.3351 67.8305 45.6935 67.7231 45.1226 67.4874C44.5516 67.2465 44.0986 66.8746 43.7633 66.3717C43.4333 65.8689 43.271 65.2403 43.2762 64.4861V52.6851ZM50.8797 67.6445V55.5764H53.7239V67.6445H50.8797ZM52.3096 53.8636C51.8592 53.8636 51.4716 53.7143 51.1468 53.4158C50.8221 53.112 50.6597 52.7479 50.6597 52.3237C50.6597 51.8941 50.8221 51.5301 51.1468 51.2316C51.4716 50.9278 51.8592 50.7759 52.3096 50.7759C52.7653 50.7759 53.1529 50.9278 53.4724 51.2316C53.7972 51.5301 53.9596 51.8941 53.9596 52.3237C53.9596 52.7479 53.7972 53.112 53.4724 53.4158C53.1529 53.7143 52.7653 53.8636 52.3096 53.8636Z" fill="#ECB22E"/>
</svg>
