<svg width="104" height="206" viewBox="0 0 104 206" fill="none" xmlns="http://www.w3.org/2000/svg">
<circle cx="14.4528" cy="26.4409" r="13.4038" fill="#FFF5E7" stroke="#ECB22E" stroke-width="0.415949"/>
<circle cx="89.6521" cy="22.7094" r="13.4038" fill="#FFF5E7" stroke="#ECB22E" stroke-width="0.415949"/>
<circle cx="14.674" cy="56.8002" r="13.4038" fill="#FFF5E7" stroke="#ECB22E" stroke-width="0.415949"/>
<circle cx="89.8732" cy="53.5278" r="13.4038" fill="#FFF5E7" stroke="#ECB22E" stroke-width="0.415949"/>
<circle cx="14.4528" cy="89.3774" r="13.4038" fill="#FFF5E7" stroke="#ECB22E" stroke-width="0.415949"/>
<circle cx="90.0944" cy="86.4008" r="13.4038" fill="#FFF5E7" stroke="#ECB22E" stroke-width="0.415949"/>
<circle cx="14.674" cy="118.82" r="13.4038" fill="#FFF5E7" stroke="#ECB22E" stroke-width="0.415949"/>
<circle cx="90.3156" cy="115.842" r="13.4038" fill="#FFF5E7" stroke="#ECB22E" stroke-width="0.415949"/>
<circle cx="13.6998" cy="151.176" r="13.4038" fill="#FFF5E7" stroke="#ECB22E" stroke-width="0.415949"/>
<circle cx="89.8744" cy="144.525" r="13.4038" fill="#FFF5E7" stroke="#ECB22E" stroke-width="0.415949"/>
<circle cx="14.674" cy="179.711" r="13.4038" fill="#FFF5E7" stroke="#ECB22E" stroke-width="0.415949"/>
<circle cx="90.0956" cy="179.711" r="13.4038" fill="#FFF5E7" stroke="#ECB22E" stroke-width="0.415949"/>
<rect x="14.115" y="0.962824" width="71.8062" height="203.813" rx="4.15949" fill="#FFF6E2" stroke="#ECB22E" stroke-width="0.831898"/>
<path d="M36.9313 166.832V150.741H39.8462V158.134H40.0426L46.3202 150.741H49.8794L43.6567 157.962L49.9344 166.832H46.4302L41.6297 159.934L39.8462 162.039V166.832H36.9313ZM51.7473 166.832V164.726L57.3336 159.25C57.8678 158.711 58.313 158.231 58.6692 157.812C59.0254 157.393 59.2925 156.987 59.4706 156.595C59.6487 156.202 59.7378 155.783 59.7378 155.337C59.7378 154.829 59.6225 154.395 59.3921 154.033C59.1616 153.667 58.8447 153.384 58.4414 153.185C58.0381 152.986 57.5797 152.886 57.0664 152.886C56.5374 152.886 56.0738 152.996 55.6758 153.216C55.2777 153.431 54.9686 153.737 54.7487 154.135C54.5339 154.533 54.4265 155.007 54.4265 155.557H51.6531C51.6531 154.536 51.8861 153.648 52.3523 152.894C52.8185 152.14 53.4601 151.556 54.2772 151.142C55.0996 150.728 56.0424 150.521 57.1057 150.521C58.1847 150.521 59.1328 150.723 59.9499 151.126C60.767 151.529 61.4008 152.082 61.8513 152.784C62.307 153.486 62.5348 154.287 62.5348 155.188C62.5348 155.791 62.4196 156.382 62.1891 156.964C61.9586 157.545 61.5527 158.189 60.9713 158.897C60.3951 159.604 59.5859 160.46 58.5435 161.466L55.77 164.286V164.396H62.7784V166.832H51.7473Z" fill="#ECB22E"/>
<path d="M36.43 108.423V92.332H39.3449V99.7253H39.5414L45.819 92.332H49.3781L43.1555 99.5525L49.4331 108.423H45.929L41.1284 101.525L39.3449 103.63V108.423H36.43ZM57.0209 108.643C55.8895 108.643 54.8838 108.449 54.0039 108.061C53.1291 107.674 52.4377 107.134 51.9297 106.443C51.4216 105.752 51.1518 104.953 51.1204 104.047H54.0746C54.1008 104.481 54.2448 104.861 54.5067 105.186C54.7686 105.505 55.1169 105.754 55.5517 105.932C55.9864 106.11 56.4735 106.199 57.013 106.199C57.5892 106.199 58.0999 106.1 58.5451 105.901C58.9904 105.697 59.3387 105.414 59.5901 105.052C59.8415 104.691 59.9646 104.274 59.9594 103.803C59.9646 103.316 59.8389 102.886 59.5822 102.514C59.3256 102.143 58.9537 101.852 58.4666 101.642C57.9847 101.433 57.4033 101.328 56.7223 101.328H55.3003V99.081H56.7223C57.2828 99.081 57.7725 98.9841 58.1916 98.7903C58.6158 98.5965 58.9485 98.3242 59.1894 97.9732C59.4303 97.6171 59.5482 97.2059 59.543 96.7397C59.5482 96.284 59.4461 95.8885 59.2365 95.5533C59.0323 95.2129 58.7416 94.9483 58.3644 94.7598C57.9925 94.5712 57.5552 94.4769 57.0523 94.4769C56.56 94.4769 56.1043 94.566 55.6852 94.7441C55.2662 94.9221 54.9284 95.1762 54.6717 95.5062C54.415 95.8309 54.2789 96.2185 54.2631 96.669H51.4582C51.4792 95.7681 51.7385 94.9771 52.2361 94.2962C52.7389 93.6101 53.4094 93.0758 54.2474 92.6934C55.0855 92.3058 56.0257 92.112 57.068 92.112C58.1418 92.112 59.0742 92.3137 59.8651 92.717C60.6612 93.1151 61.2767 93.652 61.7114 94.3276C62.1462 95.0033 62.3636 95.7497 62.3636 96.5669C62.3688 97.473 62.1017 98.2325 61.5622 98.8453C61.0279 99.4582 60.326 99.8589 59.4565 100.047V100.173C60.5879 100.33 61.4548 100.749 62.0572 101.43C62.6647 102.106 62.9659 102.947 62.9607 103.952C62.9607 104.853 62.704 105.66 62.1907 106.372C61.6826 107.079 60.9808 107.635 60.0851 108.038C59.1946 108.441 58.1732 108.643 57.0209 108.643Z" fill="#ECB22E"/>
<path d="M36.43 46.0635V29.9726H39.3449V37.3659H39.5414L45.819 29.9726H49.3781L43.1555 37.1931L49.4331 46.0635H45.929L41.1284 39.1652L39.3449 41.2708V46.0635H36.43ZM50.9554 43.0779V40.7601L57.783 29.9726H59.7158V33.2725H58.5373L53.941 40.5558V40.6815H63.4714V43.0779H50.9554ZM58.6316 46.0635V42.3708L58.663 41.3336V29.9726H61.4129V46.0635H58.6316Z" fill="#ECB22E"/>
</svg>
