<svg width="160" height="82" viewBox="0 0 160 82" fill="none" xmlns="http://www.w3.org/2000/svg">
<circle cx="139.718" cy="11.7164" r="10.4142" transform="rotate(90 139.718 11.7164)" fill="#FFF5E7" stroke="#ECB22E" stroke-width="0.323175"/>
<circle cx="142.617" cy="70.1432" r="10.4142" transform="rotate(90 142.617 70.1432)" fill="#FFF5E7" stroke="#ECB22E" stroke-width="0.323175"/>
<circle cx="116.13" cy="11.8883" r="10.4142" transform="rotate(90 116.13 11.8883)" fill="#FFF5E7" stroke="#ECB22E" stroke-width="0.323175"/>
<circle cx="118.672" cy="70.315" r="10.4142" transform="rotate(90 118.672 70.315)" fill="#FFF5E7" stroke="#ECB22E" stroke-width="0.323175"/>
<circle cx="90.8177" cy="11.7164" r="10.4142" transform="rotate(90 90.8177 11.7164)" fill="#FFF5E7" stroke="#ECB22E" stroke-width="0.323175"/>
<circle cx="93.1308" cy="70.4869" r="10.4142" transform="rotate(90 93.1308 70.4869)" fill="#FFF5E7" stroke="#ECB22E" stroke-width="0.323175"/>
<circle cx="67.9427" cy="11.8883" r="10.4142" transform="rotate(90 67.9427 11.8883)" fill="#FFF5E7" stroke="#ECB22E" stroke-width="0.323175"/>
<circle cx="70.2558" cy="70.6588" r="10.4142" transform="rotate(90 70.2558 70.6588)" fill="#FFF5E7" stroke="#ECB22E" stroke-width="0.323175"/>
<circle cx="42.8034" cy="11.1305" r="10.4142" transform="rotate(90 42.8034 11.1305)" fill="#FFF5E7" stroke="#ECB22E" stroke-width="0.323175"/>
<circle cx="47.9707" cy="70.315" r="10.4142" transform="rotate(90 47.9707 70.315)" fill="#FFF5E7" stroke="#ECB22E" stroke-width="0.323175"/>
<circle cx="20.6328" cy="11.8873" r="10.4142" transform="rotate(90 20.6328 11.8873)" fill="#FFF5E7" stroke="#ECB22E" stroke-width="0.323175"/>
<circle cx="20.6328" cy="70.4869" r="10.4142" transform="rotate(90 20.6328 70.4869)" fill="#FFF5E7" stroke="#ECB22E" stroke-width="0.323175"/>
<rect x="159.513" y="11.4531" width="55.7905" height="158.355" rx="3.23175" transform="rotate(90 159.513 11.4531)" fill="#FFF6E2" stroke="#ECB22E" stroke-width="0.646351"/>
<path d="M26.4339 45.8398L26.4339 33.3379L28.6986 33.3379L28.6986 39.0822L28.8512 39.0822L33.7287 33.3379L36.494 33.3379L31.6593 38.9479L36.5368 45.8398L33.8142 45.8398L30.0843 40.4801L28.6986 42.1161L28.6986 45.8398L26.4339 45.8398ZM37.9454 45.8398L37.9454 44.2039L42.2856 39.949C42.7007 39.5299 43.0467 39.1575 43.3234 38.8319C43.6001 38.5064 43.8077 38.191 43.946 37.8857C44.0844 37.5805 44.1536 37.2549 44.1536 36.909C44.1536 36.5143 44.0641 36.1765 43.885 35.8957C43.7059 35.6108 43.4597 35.391 43.1464 35.2364C42.833 35.0818 42.4769 35.0044 42.0781 35.0044C41.667 35.0044 41.3069 35.0899 40.9976 35.2608C40.6883 35.4277 40.4482 35.6657 40.2773 35.975C40.1104 36.2843 40.027 36.6526 40.027 37.0799L37.8721 37.0799C37.8721 36.2864 38.0532 35.5966 38.4154 35.0105C38.7776 34.4245 39.2761 33.9707 39.911 33.6492C40.5499 33.3277 41.2825 33.167 42.1086 33.167C42.9469 33.167 43.6835 33.3237 44.3184 33.637C44.9533 33.9504 45.4457 34.3797 45.7957 34.9251C46.1498 35.4704 46.3268 36.0931 46.3268 36.793C46.3268 37.261 46.2372 37.7209 46.0582 38.1726C45.8791 38.6244 45.5637 39.1249 45.112 39.6743C44.6643 40.2237 44.0356 40.8891 43.2257 41.6705L41.0708 43.862L41.0708 43.9475L46.516 43.9475L46.516 45.8398L37.9454 45.8398Z" fill="#ECB22E"/>
<path d="M71.4265 45.8389L71.4266 33.3369L73.6913 33.3369L73.6913 39.0812L73.8439 39.0812L78.7214 33.3369L81.4867 33.3369L76.652 38.9469L81.5294 45.8389L78.8068 45.8389L75.077 40.4792L73.6913 42.1151L73.6913 45.8389L71.4265 45.8389ZM87.4248 46.0098C86.5458 46.0098 85.7644 45.8592 85.0807 45.5581C84.4011 45.2569 83.8639 44.8377 83.4691 44.3005C83.0744 43.7634 82.8648 43.1427 82.8404 42.4387L85.1356 42.4387C85.156 42.7765 85.2679 43.0715 85.4714 43.3238C85.6749 43.5721 85.9455 43.7654 86.2833 43.9038C86.6211 44.0421 86.9995 44.1113 87.4187 44.1113C87.8664 44.1113 88.2632 44.034 88.6091 43.8793C88.955 43.7206 89.2256 43.5009 89.421 43.2201C89.6163 42.9393 89.7119 42.6157 89.7079 42.2494C89.7119 41.871 89.6143 41.5373 89.4149 41.2483C89.2155 40.9594 88.9265 40.7335 88.548 40.5707C88.1736 40.4079 87.7219 40.3265 87.1928 40.3265L86.0879 40.3265L86.0879 38.5807L87.1928 38.5807C87.6283 38.5807 88.0088 38.5054 88.3344 38.3548C88.664 38.2042 88.9224 37.9926 89.1096 37.7199C89.2968 37.4432 89.3884 37.1237 89.3843 36.7615C89.3884 36.4075 89.3091 36.1002 89.1463 35.8398C88.9876 35.5752 88.7617 35.3697 88.4687 35.2232C88.1797 35.0767 87.8399 35.0035 87.4492 35.0035C87.0667 35.0035 86.7126 35.0726 86.3871 35.211C86.0615 35.3494 85.799 35.5468 85.5996 35.8031C85.4002 36.0555 85.2944 36.3566 85.2821 36.7066L83.1029 36.7066C83.1191 36.0066 83.3206 35.3921 83.7072 34.8631C84.0979 34.3299 84.6188 33.9148 85.2699 33.6177C85.9211 33.3166 86.6516 33.166 87.4614 33.166C88.2957 33.166 89.0201 33.3227 89.6346 33.6361C90.2532 33.9453 90.7314 34.3625 91.0692 34.8875C91.407 35.4125 91.5758 35.9924 91.5758 36.6272C91.5799 37.3313 91.3724 37.9214 90.9532 38.3975C90.5381 38.8737 89.9928 39.185 89.3172 39.3315L89.3172 39.4292C90.1962 39.5513 90.8698 39.8768 91.3378 40.4059C91.8098 40.9309 92.0439 41.5841 92.0398 42.3654C92.0398 43.0654 91.8404 43.6921 91.4415 44.2456C91.0468 44.795 90.5015 45.2264 89.8055 45.5398C89.1137 45.8531 88.3201 46.0098 87.4248 46.0098Z" fill="#ECB22E"/>
<path d="M119.878 45.8389L119.878 33.3369L122.142 33.3369L122.142 39.0812L122.295 39.0812L127.173 33.3369L129.938 33.3369L125.103 38.9469L129.981 45.8389L127.258 45.8389L123.528 40.4792L122.142 42.1151L122.142 45.8389L119.878 45.8389ZM131.163 43.5192L131.163 41.7184L136.468 33.3369L137.97 33.3369L137.97 35.9008L137.054 35.9008L133.483 41.5596L133.483 41.6573L140.888 41.6573L140.888 43.5192L131.163 43.5192ZM137.127 45.8389L137.127 42.9698L137.152 42.164L137.152 33.3369L139.288 33.3369L139.288 45.8389L137.127 45.8389Z" fill="#ECB22E"/>
</svg>
