<svg width="52" height="51" viewBox="0 0 52 51" fill="none" xmlns="http://www.w3.org/2000/svg">
<path d="M25.9602 0.757431C26.7924 0.757431 27.5905 1.08802 28.179 1.67648C28.7675 2.26494 29.0981 3.06306 29.0981 3.89527V22.7223H47.9251C48.7573 22.7223 49.5554 23.0529 50.1439 23.6413C50.7323 24.2298 51.0629 25.0279 51.0629 25.8601C51.0629 26.6923 50.7323 27.4904 50.1439 28.0789C49.5554 28.6674 48.7573 28.9979 47.9251 28.9979H29.0981V47.825C29.0981 48.6572 28.7675 49.4553 28.179 50.0437C27.5905 50.6322 26.7924 50.9628 25.9602 50.9628C25.128 50.9628 24.3299 50.6322 23.7414 50.0437C23.153 49.4553 22.8224 48.6572 22.8224 47.825V28.9979H3.99538C3.16317 28.9979 2.36505 28.6674 1.7766 28.0789C1.18814 27.4904 0.857544 26.6923 0.857544 25.8601C0.857544 25.0279 1.18814 24.2298 1.7766 23.6413C2.36505 23.0529 3.16317 22.7223 3.99538 22.7223H22.8224V3.89527C22.8224 3.06306 23.153 2.26494 23.7414 1.67648C24.3299 1.08802 25.128 0.757431 25.9602 0.757431Z" fill="#7A7774" fill-opacity="0.53"/>
</svg>
