<svg width="57" height="81" viewBox="0 0 57 81" fill="none" xmlns="http://www.w3.org/2000/svg">
<circle cx="28.21" cy="69.6119" r="10.4142" transform="rotate(90 28.21 69.6119)" fill="#FFF5E7" stroke="#ECB22E" stroke-width="0.323175"/>
<circle cx="26.6444" cy="11.3375" r="10.4142" transform="rotate(90 26.6444 11.3375)" fill="#FFF5E7" stroke="#ECB22E" stroke-width="0.323175"/>
<rect x="55.8297" y="14.3691" width="54.9201" height="55.2394" rx="3.23175" transform="rotate(90 55.8297 14.3691)" fill="#FFF6E2" stroke="#ECB22E" stroke-width="0.646351"/>
<path d="M6.18657 45.4043V35.5029H9.8996C10.6603 35.5029 11.2984 35.635 11.8141 35.8993C12.3331 36.1636 12.7247 36.5343 12.989 37.0113C13.2565 37.4851 13.3902 38.0379 13.3902 38.6696C13.3902 39.3045 13.2549 39.8557 12.9841 40.323C12.7166 40.7872 12.3218 41.1466 11.7996 41.4012C11.2775 41.6526 10.6361 41.7783 9.87543 41.7783H7.23086V40.2892H9.6337C10.0785 40.2892 10.4427 40.228 10.7263 40.1055C11.01 39.9798 11.2195 39.7977 11.3548 39.5592C11.4934 39.3174 11.5627 39.0209 11.5627 38.6696C11.5627 38.3183 11.4934 38.0185 11.3548 37.7703C11.2162 37.5189 11.0051 37.3288 10.7215 37.1998C10.4379 37.0677 10.072 37.0016 9.62403 37.0016H7.98023V45.4043H6.18657ZM11.3017 40.9177L13.7528 45.4043H11.7513L9.34362 40.9177H11.3017ZM17.1009 45.5542C16.6303 45.5542 16.2064 45.4704 15.8293 45.3028C15.4555 45.1319 15.1589 44.8805 14.9398 44.5486C14.7238 44.2166 14.6158 43.8072 14.6158 43.3205C14.6158 42.9015 14.6932 42.5551 14.8479 42.2811C15.0026 42.0071 15.2137 41.788 15.4812 41.6236C15.7488 41.4592 16.0501 41.3351 16.3853 41.2513C16.7238 41.1643 17.0735 41.1014 17.4345 41.0628C17.8696 41.0176 18.2225 40.9773 18.4933 40.9419C18.764 40.9032 18.9606 40.8452 19.0831 40.7678C19.2088 40.6873 19.2716 40.5632 19.2716 40.3956V40.3666C19.2716 40.0023 19.1637 39.7203 18.9477 39.5205C18.7318 39.3207 18.4207 39.2207 18.0146 39.2207C17.5859 39.2207 17.2459 39.3142 16.9945 39.5011C16.7463 39.6881 16.5787 39.9089 16.4917 40.1635L14.8576 39.9314C14.9865 39.4802 15.1992 39.1031 15.4958 38.8001C15.7923 38.4939 16.1549 38.2651 16.5836 38.1136C17.0122 37.9589 17.486 37.8815 18.005 37.8815C18.3627 37.8815 18.7189 37.9234 19.0734 38.0072C19.428 38.091 19.7519 38.2296 20.0452 38.423C20.3385 38.6132 20.5738 38.8726 20.7511 39.2014C20.9315 39.5302 21.0218 39.9411 21.0218 40.4342V45.4043H19.3393V44.3842H19.2813C19.1749 44.5905 19.0251 44.7838 18.8317 44.9643C18.6415 45.1416 18.4014 45.285 18.1113 45.3946C17.8245 45.501 17.4876 45.5542 17.1009 45.5542ZM17.5553 44.2681C17.9066 44.2681 18.2112 44.1988 18.4691 44.0603C18.7269 43.9184 18.9252 43.7315 19.0637 43.4994C19.2056 43.2674 19.2765 43.0144 19.2765 42.7404V41.8653C19.2217 41.9104 19.1282 41.9523 18.9961 41.991C18.8671 42.0297 18.7221 42.0635 18.5609 42.0925C18.3998 42.1215 18.2402 42.1473 18.0823 42.1699C17.9244 42.1925 17.7874 42.2118 17.6714 42.2279C17.4103 42.2634 17.1766 42.3214 16.9703 42.402C16.764 42.4825 16.6013 42.5953 16.482 42.7404C16.3628 42.8822 16.3031 43.0659 16.3031 43.2915C16.3031 43.6139 16.4208 43.8572 16.6561 44.0216C16.8914 44.186 17.1911 44.2681 17.5553 44.2681ZM24.3771 43.074L24.3722 40.9612H24.6526L27.3214 37.9782H29.3665L26.0837 41.6332H25.7211L24.3771 43.074ZM22.7816 45.4043V35.5029H24.5318V45.4043H22.7816ZM27.4423 45.4043L25.0249 42.0249L26.2046 40.792L29.5357 45.4043H27.4423ZM33.5146 45.5493C32.7701 45.5493 32.1271 45.3946 31.5856 45.0852C31.0473 44.7726 30.6331 44.331 30.3431 43.7605C30.053 43.1868 29.9079 42.5115 29.9079 41.7348C29.9079 40.9709 30.053 40.3005 30.3431 39.7235C30.6364 39.1434 31.0457 38.6921 31.5711 38.3698C32.0964 38.0443 32.7137 37.8815 33.4228 37.8815C33.8804 37.8815 34.3123 37.9557 34.7185 38.1039C35.1278 38.249 35.4888 38.4746 35.8014 38.7808C36.1173 39.087 36.3655 39.477 36.546 39.9508C36.7265 40.4213 36.8167 40.9822 36.8167 41.6332V42.1699H30.7298V40.9902H35.1391C35.1358 40.655 35.0633 40.3569 34.9215 40.0958C34.7797 39.8315 34.5815 39.6236 34.3268 39.4721C34.0754 39.3207 33.7821 39.2449 33.4469 39.2449C33.0892 39.2449 32.7749 39.3319 32.5042 39.506C32.2334 39.6768 32.0223 39.9024 31.8708 40.1828C31.7226 40.46 31.6468 40.7646 31.6436 41.0966V42.1264C31.6436 42.5583 31.7226 42.9289 31.8805 43.2384C32.0384 43.5446 32.2592 43.7798 32.5428 43.9442C32.8265 44.1054 33.1585 44.186 33.5388 44.186C33.7934 44.186 34.0239 44.1505 34.2302 44.0796C34.4364 44.0055 34.6153 43.8975 34.7668 43.7557C34.9183 43.6139 35.0327 43.4382 35.1101 43.2287L36.7442 43.4124C36.641 43.8443 36.4444 44.2214 36.1544 44.5437C35.8675 44.8628 35.5001 45.111 35.052 45.2883C34.604 45.4623 34.0916 45.5493 33.5146 45.5493ZM42.0055 37.9782V39.3319H37.7365V37.9782H42.0055ZM38.7905 36.1991H40.5406V43.1707C40.5406 43.406 40.5761 43.5865 40.647 43.7122C40.7211 43.8346 40.8178 43.9184 40.9371 43.9636C41.0563 44.0087 41.1885 44.0312 41.3335 44.0312C41.4431 44.0312 41.543 44.0232 41.6333 44.0071C41.7267 43.991 41.7976 43.9765 41.846 43.9636L42.1409 45.3318C42.0474 45.364 41.9137 45.3995 41.7396 45.4381C41.5688 45.4768 41.3593 45.4994 41.1111 45.5058C40.6728 45.5187 40.2779 45.4526 39.9266 45.3076C39.5753 45.1593 39.2965 44.9305 39.0902 44.6211C38.8872 44.3117 38.7872 43.9249 38.7905 43.4608V36.1991ZM45.6062 45.5542C45.1356 45.5542 44.7117 45.4704 44.3346 45.3028C43.9608 45.1319 43.6642 44.8805 43.4451 44.5486C43.2291 44.2166 43.1211 43.8072 43.1211 43.3205C43.1211 42.9015 43.1985 42.5551 43.3532 42.2811C43.5079 42.0071 43.719 41.788 43.9865 41.6236C44.2541 41.4592 44.5554 41.3351 44.8906 41.2513C45.2291 41.1643 45.5788 41.1014 45.9398 41.0628C46.3749 41.0176 46.7278 40.9773 46.9986 40.9419C47.2693 40.9032 47.4659 40.8452 47.5884 40.7678C47.7141 40.6873 47.7769 40.5632 47.7769 40.3956V40.3666C47.7769 40.0023 47.669 39.7203 47.453 39.5205C47.2371 39.3207 46.926 39.2207 46.5199 39.2207C46.0912 39.2207 45.7512 39.3142 45.4998 39.5011C45.2516 39.6881 45.084 39.9089 44.997 40.1635L43.3629 39.9314C43.4918 39.4802 43.7045 39.1031 44.001 38.8001C44.2976 38.4939 44.6602 38.2651 45.0889 38.1136C45.5175 37.9589 45.9913 37.8815 46.5102 37.8815C46.868 37.8815 47.2242 37.9234 47.5787 38.0072C47.9333 38.091 48.2572 38.2296 48.5505 38.423C48.8438 38.6132 49.0791 38.8726 49.2563 39.2014C49.4368 39.5302 49.5271 39.9411 49.5271 40.4342V45.4043H47.8446V44.3842H47.7866C47.6802 44.5905 47.5304 44.7838 47.337 44.9643C47.1468 45.1416 46.9067 45.285 46.6166 45.3946C46.3298 45.501 45.9929 45.5542 45.6062 45.5542ZM46.0606 44.2681C46.4119 44.2681 46.7165 44.1988 46.9744 44.0603C47.2322 43.9184 47.4304 43.7315 47.569 43.4994C47.7109 43.2674 47.7818 43.0144 47.7818 42.7404V41.8653C47.727 41.9104 47.6335 41.9523 47.5014 41.991C47.3724 42.0297 47.2274 42.0635 47.0662 42.0925C46.9051 42.1215 46.7455 42.1473 46.5876 42.1699C46.4297 42.1925 46.2927 42.2118 46.1767 42.2279C45.9156 42.2634 45.6819 42.3214 45.4756 42.402C45.2693 42.4825 45.1066 42.5953 44.9873 42.7404C44.8681 42.8822 44.8084 43.0659 44.8084 43.2915C44.8084 43.6139 44.9261 43.8572 45.1614 44.0216C45.3967 44.186 45.6964 44.2681 46.0606 44.2681Z" fill="#ECB22E"/>
</svg>
