<svg width="103" height="73" viewBox="0 0 103 73" fill="none" xmlns="http://www.w3.org/2000/svg">
<circle cx="88.8483" cy="36.0522" r="13.4038" fill="#FFF5E7" stroke="#ECB22E" stroke-width="0.415949"/>
<circle cx="13.8452" cy="38.0668" r="13.4038" fill="#FFF5E7" stroke="#ECB22E" stroke-width="0.415949"/>
<rect x="17.747" y="0.50384" width="70.6859" height="71.0969" rx="4.15949" fill="#FFF6E2" stroke="#ECB22E" stroke-width="0.831898"/>
<path d="M23.8556 42.1553L23.8556 29.4114H28.6345C29.6135 29.4114 30.4349 29.5815 31.0987 29.9217C31.7666 30.2619 32.2706 30.7389 32.6107 31.3529C32.9551 31.9627 33.1272 32.6742 33.1272 33.4872C33.1272 34.3045 32.953 35.0138 32.6045 35.6154C32.2602 36.2127 31.752 36.6753 31.08 37.003C30.408 37.3266 29.5824 37.4883 28.6034 37.4883H25.1997V35.5718H28.2923C28.8648 35.5718 29.3335 35.493 29.6986 35.3353C30.0636 35.1735 30.3333 34.9392 30.5075 34.6322C30.6859 34.3211 30.7751 33.9394 30.7751 33.4872C30.7751 33.0351 30.6859 32.6493 30.5075 32.3298C30.3291 32.0063 30.0574 31.7615 29.6924 31.5956C29.3273 31.4255 28.8565 31.3404 28.2798 31.3404H26.1642L26.1642 42.1553H23.8556ZM30.4391 36.3807L33.5939 42.1553H31.0178L27.9189 36.3807H30.4391ZM37.903 42.3482C37.2974 42.3482 36.7519 42.2403 36.2665 42.0246C35.7853 41.8047 35.4036 41.4812 35.1216 41.0539C34.8436 40.6266 34.7046 40.0998 34.7046 39.4733C34.7046 38.9341 34.8042 38.4881 35.0033 38.1355C35.2024 37.7829 35.4742 37.5008 35.8185 37.2892C36.1628 37.0777 36.5507 36.9179 36.9821 36.8101C37.4177 36.6981 37.8678 36.6172 38.3324 36.5674C38.8924 36.5093 39.3467 36.4575 39.6951 36.4118C40.0436 36.3621 40.2967 36.2874 40.4543 36.1878C40.6161 36.0841 40.697 35.9244 40.697 35.7087V35.6714C40.697 35.2026 40.558 34.8396 40.2801 34.5824C40.0021 34.3252 39.6018 34.1966 39.0791 34.1966C38.5274 34.1966 38.0897 34.3169 37.7661 34.5575C37.4467 34.7981 37.231 35.0823 37.119 35.41L35.0158 35.1113C35.1817 34.5306 35.4555 34.0452 35.8372 33.6552C36.2188 33.2611 36.6855 32.9666 37.2372 32.7716C37.789 32.5725 38.3988 32.473 39.0667 32.473C39.5271 32.473 39.9855 32.5269 40.4419 32.6347C40.8982 32.7426 41.3151 32.921 41.6926 33.1699C42.0701 33.4146 42.3729 33.7486 42.6011 34.1717C42.8334 34.5949 42.9496 35.1238 42.9496 35.7585V42.1553H40.7841V40.8423H40.7094C40.5725 41.1078 40.3796 41.3567 40.1307 41.589C39.886 41.8172 39.5769 42.0018 39.2036 42.1428C38.8344 42.2797 38.4009 42.3482 37.903 42.3482ZM38.488 40.693C38.9401 40.693 39.3322 40.6038 39.664 40.4254C39.9959 40.2429 40.251 40.0023 40.4294 39.7036C40.6119 39.4049 40.7032 39.0792 40.7032 38.7266V37.6004C40.6327 37.6584 40.5124 37.7124 40.3423 37.7621C40.1764 37.8119 39.9897 37.8555 39.7823 37.8928C39.5748 37.9301 39.3695 37.9633 39.1662 37.9924C38.963 38.0214 38.7867 38.0463 38.6373 38.067C38.3013 38.1127 38.0005 38.1873 37.735 38.2911C37.4695 38.3948 37.26 38.54 37.1066 38.7266C36.9531 38.9092 36.8763 39.1456 36.8763 39.436C36.8763 39.8508 37.0277 40.1641 37.3306 40.3756C37.6334 40.5872 38.0192 40.693 38.488 40.693ZM47.268 39.156L47.2618 36.4367H47.6227L51.0576 32.5974H53.6897L49.4646 37.3017H48.9979L47.268 39.156ZM45.2146 42.1553V29.4114H47.4671V42.1553H45.2146ZM51.2131 42.1553L48.1018 37.8057L49.6201 36.2189L53.9075 42.1553H51.2131ZM59.0287 42.342C58.0704 42.342 57.2428 42.1428 56.5459 41.7446C55.8531 41.3422 55.32 40.7739 54.9467 40.0396C54.5733 39.3012 54.3866 38.4321 54.3866 37.4323C54.3866 36.4492 54.5733 35.5863 54.9467 34.8438C55.3242 34.097 55.851 33.5163 56.5272 33.1014C57.2034 32.6824 57.9978 32.473 58.9104 32.473C59.4995 32.473 60.0554 32.5684 60.5781 32.7592C61.1049 32.9459 61.5696 33.2363 61.9719 33.6304C62.3785 34.0244 62.6979 34.5264 62.9302 35.1362C63.1625 35.7419 63.2787 36.4637 63.2787 37.3017V37.9924L55.4445 37.9924V36.4741H61.1195C61.1153 36.0426 61.022 35.6589 60.8394 35.3229C60.6569 34.9827 60.4018 34.7152 60.0741 34.5202C59.7505 34.3252 59.373 34.2277 58.9416 34.2277C58.4811 34.2277 58.0766 34.3397 57.7282 34.5637C57.3797 34.7836 57.108 35.074 56.913 35.4349C56.7222 35.7917 56.6247 36.1837 56.6205 36.611V37.9364C56.6205 38.4923 56.7222 38.9693 56.9254 39.3676C57.1287 39.7617 57.4129 40.0645 57.7779 40.2761C58.143 40.4835 58.5703 40.5872 59.0598 40.5872C59.3875 40.5872 59.6841 40.5416 59.9496 40.4503C60.2151 40.3549 60.4453 40.2159 60.6403 40.0334C60.8353 39.8508 60.9826 39.6248 61.0821 39.3551L63.1853 39.5916C63.0526 40.1475 62.7996 40.6328 62.4262 41.0477C62.057 41.4583 61.5841 41.7778 61.0075 42.0059C60.4308 42.2299 59.7712 42.342 59.0287 42.342ZM69.9571 32.5974V34.3397H64.4625V32.5974H69.9571ZM65.8191 30.3075H68.0716V39.2804C68.0716 39.5833 68.1173 39.8156 68.2085 39.9774C68.3039 40.135 68.4284 40.2429 68.5819 40.3009C68.7354 40.359 68.9054 40.3881 69.0921 40.3881C69.2332 40.3881 69.3618 40.3777 69.4779 40.357C69.5982 40.3362 69.6895 40.3175 69.7517 40.3009L70.1313 42.0619C70.011 42.1034 69.8388 42.1491 69.6148 42.1988C69.395 42.2486 69.1253 42.2777 68.8059 42.2859C68.2417 42.3025 67.7335 42.2175 67.2814 42.0308C66.8292 41.84 66.4703 41.5455 66.2049 41.1472C65.9435 40.749 65.8149 40.2512 65.8191 39.6538V30.3075ZM74.5913 42.3482C73.9857 42.3482 73.4401 42.2403 72.9548 42.0246C72.4736 41.8047 72.0919 41.4812 71.8098 41.0539C71.5319 40.6266 71.3929 40.0998 71.3929 39.4733C71.3929 38.9341 71.4925 38.4881 71.6916 38.1355C71.8907 37.7829 72.1624 37.5008 72.5068 37.2892C72.8511 37.0777 73.239 36.9179 73.6704 36.8101C74.106 36.6981 74.5561 36.6172 75.0207 36.5674C75.5807 36.5093 76.035 36.4575 76.3834 36.4118C76.7319 36.3621 76.9849 36.2874 77.1426 36.1878C77.3044 36.0841 77.3853 35.9244 77.3853 35.7087V35.6714C77.3853 35.2026 77.2463 34.8396 76.9683 34.5824C76.6904 34.3252 76.2901 34.1966 75.7674 34.1966C75.2157 34.1966 74.778 34.3169 74.4544 34.5575C74.135 34.7981 73.9193 35.0823 73.8073 35.41L71.704 35.1113C71.87 34.5306 72.1438 34.0452 72.5254 33.6552C72.9071 33.2611 73.3738 32.9666 73.9255 32.7716C74.4772 32.5725 75.0871 32.473 75.7549 32.473C76.2154 32.473 76.6738 32.5269 77.1301 32.6347C77.5865 32.7426 78.0034 32.921 78.3809 33.1699C78.7584 33.4146 79.0612 33.7486 79.2894 34.1717C79.5217 34.5949 79.6378 35.1238 79.6378 35.7585V42.1553L77.4724 42.1553V40.8423H77.3977C77.2608 41.1078 77.0679 41.3567 76.819 41.589C76.5742 41.8172 76.2652 42.0018 75.8918 42.1428C75.5226 42.2797 75.0891 42.3482 74.5913 42.3482ZM75.1762 40.693C75.6284 40.693 76.0204 40.6038 76.3523 40.4254C76.6842 40.2429 76.9393 40.0023 77.1177 39.7036C77.3002 39.4049 77.3915 39.0792 77.3915 38.7266V37.6004C77.321 37.6584 77.2007 37.7124 77.0306 37.7621C76.8646 37.8119 76.678 37.8555 76.4705 37.8928C76.2631 37.9301 76.0578 37.9633 75.8545 37.9924C75.6512 38.0214 75.4749 38.0463 75.3256 38.067C74.9896 38.1127 74.6888 38.1873 74.4233 38.2911C74.1578 38.3948 73.9483 38.54 73.7948 38.7266C73.6413 38.9092 73.5646 39.1456 73.5646 39.436C73.5646 39.8508 73.716 40.1641 74.0188 40.3756C74.3217 40.5872 74.7075 40.693 75.1762 40.693Z" fill="#ECB22E"/>
</svg>
