<svg width="57" height="81" viewBox="0 0 57 81" fill="none" xmlns="http://www.w3.org/2000/svg">
<circle cx="13.4867" cy="69.0504" r="10.4142" transform="rotate(90 13.4867 69.0504)" fill="#FFF5E7" stroke="#ECB22E" stroke-width="0.323175"/>
<circle cx="40.5082" cy="70.4049" r="10.4142" transform="rotate(90 40.5082 70.4049)" fill="#FFF5E7" stroke="#ECB22E" stroke-width="0.323175"/>
<circle cx="13.4867" cy="10.776" r="10.4142" transform="rotate(90 13.4867 10.776)" fill="#FFF5E7" stroke="#ECB22E" stroke-width="0.323175"/>
<circle cx="40.5082" cy="12.1305" r="10.4142" transform="rotate(90 40.5082 12.1305)" fill="#FFF5E7" stroke="#ECB22E" stroke-width="0.323175"/>
<rect x="55.8238" y="13.8076" width="54.9201" height="55.2394" rx="3.23175" transform="rotate(90 55.8238 13.8076)" fill="#FFF6E2" stroke="#ECB22E" stroke-width="0.646351"/>
<path d="M13.9372 44.5049V32.003H18.6254C19.5859 32.003 20.3917 32.1698 21.0428 32.5035C21.698 32.8372 22.1925 33.3052 22.5262 33.9075C22.864 34.5058 23.0328 35.2037 23.0328 36.0014C23.0328 36.8031 22.8619 37.499 22.5201 38.0891C22.1823 38.6751 21.6838 39.1289 21.0245 39.4504C20.3652 39.7678 19.5553 39.9265 18.5949 39.9265H15.2558V38.0464H18.2897C18.8513 38.0464 19.3112 37.969 19.6693 37.8144C20.0274 37.6557 20.2919 37.4257 20.4629 37.1246C20.6379 36.8194 20.7254 36.445 20.7254 36.0014C20.7254 35.5578 20.6379 35.1793 20.4629 34.8659C20.2879 34.5485 20.0213 34.3084 19.6632 34.1456C19.3051 33.9788 18.8432 33.8953 18.2775 33.8953H16.202V44.5049H13.9372ZM20.3957 38.8399L23.4907 44.5049H20.9634L17.9234 38.8399H20.3957ZM29.0366 44.688C28.0965 44.688 27.2846 44.4927 26.6009 44.102C25.9213 43.7072 25.3983 43.1497 25.0321 42.4294C24.6658 41.705 24.4827 40.8524 24.4827 39.8716C24.4827 38.9071 24.6658 38.0606 25.0321 37.3321C25.4024 36.5996 25.9192 36.0299 26.5826 35.6229C27.2459 35.2119 28.0253 35.0063 28.9206 35.0063C29.4985 35.0063 30.0438 35.0999 30.5566 35.2871C31.0734 35.4703 31.5292 35.7552 31.924 36.1418C32.3228 36.5284 32.6362 37.0208 32.8641 37.6191C33.092 38.2132 33.2059 38.9213 33.2059 39.7434V40.421H25.5204V38.9315H31.0877C31.0836 38.5083 30.992 38.1318 30.813 37.8022C30.6339 37.4685 30.3836 37.206 30.0621 37.0147C29.7447 36.8234 29.3744 36.7278 28.9511 36.7278C28.4994 36.7278 28.1026 36.8377 27.7608 37.0574C27.4189 37.2731 27.1523 37.558 26.9611 37.9121C26.7739 38.2621 26.6782 38.6466 26.6742 39.0658V40.3661C26.6742 40.9114 26.7739 41.3794 26.9733 41.7701C27.1727 42.1567 27.4515 42.4538 27.8096 42.6613C28.1677 42.8648 28.5869 42.9666 29.0671 42.9666C29.3886 42.9666 29.6796 42.9218 29.94 42.8323C30.2005 42.7387 30.4264 42.6023 30.6176 42.4233C30.8089 42.2442 30.9534 42.0224 31.0511 41.7579L33.1144 41.9898C32.9841 42.5352 32.7359 43.0113 32.3696 43.4183C32.0074 43.8212 31.5435 44.1345 30.9778 44.3584C30.4121 44.5781 29.765 44.688 29.0366 44.688ZM34.9533 44.5049V43.1009L39.7881 37.0391V36.9598H35.112V35.1284H42.4923V36.6362L37.8896 42.5942V42.6735H42.6511V44.5049H34.9533Z" fill="#ECB22E"/>
</svg>
