<svg width="57" height="80" viewBox="0 0 57 80" fill="none" xmlns="http://www.w3.org/2000/svg">
<circle cx="28.4668" cy="69.0504" r="10.4142" transform="rotate(90 28.4668 69.0504)" fill="#FFF5E7" stroke="#ECB22E" stroke-width="0.323175"/>
<circle cx="26.9013" cy="10.776" r="10.4142" transform="rotate(90 26.9013 10.776)" fill="#FFF5E7" stroke="#ECB22E" stroke-width="0.323175"/>
<rect x="56.0865" y="13.8076" width="54.9201" height="55.2394" rx="3.23175" transform="rotate(90 56.0865 13.8076)" fill="#FFF6E2" stroke="#ECB22E" stroke-width="0.646351"/>
<path d="M14.1999 44.5049V32.003H18.8881C19.8486 32.003 20.6543 32.1698 21.3055 32.5035C21.9607 32.8372 22.4552 33.3052 22.7889 33.9075C23.1267 34.5058 23.2955 35.2037 23.2955 36.0014C23.2955 36.8031 23.1246 37.499 22.7828 38.0891C22.445 38.6751 21.9465 39.1289 21.2872 39.4504C20.6279 39.7678 19.818 39.9265 18.8576 39.9265H15.5185V38.0464H18.5524C19.114 38.0464 19.5739 37.969 19.932 37.8144C20.2901 37.6557 20.5546 37.4257 20.7256 37.1246C20.9006 36.8194 20.9881 36.445 20.9881 36.0014C20.9881 35.5578 20.9006 35.1793 20.7256 34.8659C20.5506 34.5485 20.284 34.3084 19.9259 34.1456C19.5678 33.9788 19.1058 33.8953 18.5402 33.8953H16.4647V44.5049H14.1999ZM20.6584 38.8399L23.7534 44.5049H21.2261L18.1861 38.8399H20.6584ZM29.2993 44.688C28.3592 44.688 27.5473 44.4927 26.8636 44.102C26.184 43.7072 25.661 43.1497 25.2948 42.4294C24.9285 41.705 24.7454 40.8524 24.7454 39.8716C24.7454 38.9071 24.9285 38.0606 25.2948 37.3321C25.6651 36.5996 26.1819 36.0299 26.8453 35.6229C27.5086 35.2119 28.288 35.0063 29.1833 35.0063C29.7612 35.0063 30.3065 35.0999 30.8193 35.2871C31.3361 35.4703 31.7919 35.7552 32.1867 36.1418C32.5855 36.5284 32.8989 37.0208 33.1268 37.6191C33.3547 38.2132 33.4686 38.9213 33.4686 39.7434V40.421H25.7831V38.9315H31.3504C31.3463 38.5083 31.2547 38.1318 31.0757 37.8022C30.8966 37.4685 30.6463 37.206 30.3248 37.0147C30.0074 36.8234 29.6371 36.7278 29.2138 36.7278C28.7621 36.7278 28.3653 36.8377 28.0234 37.0574C27.6816 37.2731 27.415 37.558 27.2238 37.9121C27.0366 38.2621 26.9409 38.6466 26.9369 39.0658V40.3661C26.9369 40.9114 27.0366 41.3794 27.236 41.7701C27.4354 42.1567 27.7142 42.4538 28.0723 42.6613C28.4304 42.8648 28.8496 42.9666 29.3298 42.9666C29.6513 42.9666 29.9423 42.9218 30.2027 42.8323C30.4632 42.7387 30.6891 42.6023 30.8803 42.4233C31.0716 42.2442 31.2161 42.0224 31.3137 41.7579L33.3771 41.9898C33.2468 42.5352 32.9986 43.0113 32.6323 43.4183C32.2701 43.8212 31.8062 44.1345 31.2405 44.3584C30.6748 44.5781 30.0277 44.688 29.2993 44.688ZM35.216 44.5049V43.1009L40.0508 37.0391V36.9598H35.3747V35.1284H42.755V36.6362L38.1523 42.5942V42.6735H42.9137V44.5049H35.216Z" fill="#ECB22E"/>
</svg>
