<svg width="103" height="73" viewBox="0 0 103 73" fill="none" xmlns="http://www.w3.org/2000/svg">
<circle cx="88.9599" cy="36.852" r="13.4038" fill="#FFF5E7" stroke="#ECB22E" stroke-width="0.415949"/>
<circle cx="13.9567" cy="38.8666" r="13.4038" fill="#FFF5E7" stroke="#ECB22E" stroke-width="0.415949"/>
<rect x="17.8585" y="1.30364" width="70.6859" height="71.0969" rx="4.15949" fill="#FFF6E2" stroke="#ECB22E" stroke-width="0.831898"/>
<path d="M30.4264 44.3018L30.4264 28.2109H36.4604C37.6966 28.2109 38.7337 28.4257 39.5718 28.8552C40.4151 29.2847 41.0515 29.887 41.481 30.6623C41.9157 31.4322 42.1331 32.3305 42.1331 33.3572C42.1331 34.389 41.9131 35.2847 41.4731 36.0442C41.0384 36.7985 40.3967 37.3825 39.5482 37.7963C38.6997 38.2048 37.6573 38.4091 36.4212 38.4091H32.1235V35.9892H36.0283C36.7512 35.9892 37.343 35.8897 37.804 35.6906C38.2649 35.4864 38.6054 35.1904 38.8254 34.8028C39.0506 34.41 39.1632 33.9281 39.1632 33.3572C39.1632 32.7862 39.0506 32.2991 38.8254 31.8958C38.6001 31.4872 38.257 31.1782 37.7961 30.9687C37.3352 30.7539 36.7407 30.6465 36.0126 30.6465H33.3413L33.3413 44.3018H30.4264ZM38.7389 37.0106L42.7224 44.3018H39.4696L35.5569 37.0106H38.7389ZM49.8603 44.5375C48.6504 44.5375 47.6054 44.286 46.7254 43.7832C45.8507 43.2751 45.1776 42.5575 44.7062 41.6304C44.2348 40.6981 43.9991 39.6007 43.9991 38.3384C43.9991 37.097 44.2348 36.0075 44.7062 35.0699C45.1829 34.1271 45.8481 33.3938 46.7019 32.87C47.5556 32.341 48.5587 32.0765 49.711 32.0765C50.4548 32.0765 51.1567 32.197 51.8167 32.4379C52.4819 32.6736 53.0685 33.0403 53.5766 33.5379C54.0899 34.0355 54.4932 34.6692 54.7866 35.4392C55.0799 36.204 55.2266 37.1154 55.2266 38.1734V39.0455H45.3348V37.1284H52.5002C52.495 36.5837 52.3771 36.0992 52.1467 35.6749C51.9162 35.2454 51.5941 34.9076 51.1803 34.6614C50.7717 34.4152 50.2951 34.2921 49.7503 34.2921C49.1689 34.2921 48.6582 34.4335 48.2182 34.7164C47.7783 34.994 47.4352 35.3607 47.189 35.8163C46.948 36.2668 46.825 36.7618 46.8197 37.3013V38.9748C46.8197 39.6767 46.948 40.279 47.2047 40.7819C47.4614 41.2795 47.8202 41.6619 48.2811 41.929C48.742 42.1909 49.2815 42.3218 49.8996 42.3218C50.3134 42.3218 50.6879 42.2642 51.0231 42.149C51.3584 42.0285 51.6491 41.853 51.8952 41.6226C52.1414 41.3921 52.3274 41.1066 52.4531 40.7662L55.1087 41.0647C54.9411 41.7666 54.6216 42.3794 54.1502 42.9032C53.684 43.4218 53.0869 43.8251 52.3588 44.1132C51.6307 44.396 50.7979 44.5375 49.8603 44.5375ZM57.4756 44.3018V42.4947L63.6982 34.6928V34.5907L57.6799 34.5907V32.2336H67.1788V34.1743L61.2547 41.8426V41.9447L67.3831 41.9447V44.3018L57.4756 44.3018Z" fill="#ECB22E"/>
</svg>
