<svg width="105" height="73" viewBox="0 0 105 73" fill="none" xmlns="http://www.w3.org/2000/svg">
<circle cx="88.9599" cy="55.8295" r="13.4038" fill="#FFF5E7" stroke="#ECB22E" stroke-width="0.415949"/>
<circle cx="90.7033" cy="21.0512" r="13.4038" fill="#FFF5E7" stroke="#ECB22E" stroke-width="0.415949"/>
<circle cx="13.9567" cy="55.8295" r="13.4038" fill="#FFF5E7" stroke="#ECB22E" stroke-width="0.415949"/>
<circle cx="15.7001" cy="21.0512" r="13.4038" fill="#FFF5E7" stroke="#ECB22E" stroke-width="0.415949"/>
<rect x="17.8586" y="1.3388" width="70.6859" height="71.0969" rx="4.15949" fill="#FFF6E2" stroke="#ECB22E" stroke-width="0.831898"/>
<path d="M30.4264 44.3369L30.4264 28.2461H36.4605C37.6967 28.2461 38.7338 28.4608 39.5718 28.8903C40.4151 29.3198 41.0515 29.9222 41.481 30.6974C41.9158 31.4674 42.1332 32.3657 42.1332 33.3923C42.1332 34.4242 41.9132 35.3199 41.4732 36.0794C41.0384 36.8336 40.3968 37.4176 39.5483 37.8314C38.6997 38.24 37.6574 38.4443 36.4212 38.4443H32.1235V36.0244H36.0284C36.7512 36.0244 37.3431 35.9248 37.804 35.7258C38.265 35.5215 38.6054 35.2256 38.8254 34.838C39.0507 34.4451 39.1633 33.9632 39.1633 33.3923C39.1633 32.8214 39.0507 32.3343 38.8254 31.9309C38.6002 31.5224 38.2571 31.2133 37.7962 31.0038C37.3352 30.7891 36.7407 30.6817 36.0127 30.6817H33.3413L33.3413 44.3369H30.4264ZM38.739 37.0457L42.7224 44.3369H39.4697L35.557 37.0457H38.739ZM49.8604 44.5726C48.6504 44.5726 47.6055 44.3212 46.7255 43.8184C45.8508 43.3103 45.1777 42.5927 44.7063 41.6656C44.2349 40.7332 43.9992 39.6359 43.9992 38.3736C43.9992 37.1322 44.2349 36.0427 44.7063 35.1051C45.1829 34.1623 45.8481 33.429 46.7019 32.9052C47.5557 32.3762 48.5588 32.1116 49.7111 32.1116C50.4549 32.1116 51.1568 32.2321 51.8167 32.4731C52.482 32.7088 53.0686 33.0754 53.5767 33.573C54.09 34.0706 54.4933 34.7044 54.7866 35.4744C55.08 36.2391 55.2266 37.1505 55.2266 38.2086V39.0807H45.3348V37.1636H52.5003C52.495 36.6189 52.3772 36.1344 52.1467 35.7101C51.9163 35.2806 51.5941 34.9427 51.1803 34.6965C50.7718 34.4504 50.2951 34.3273 49.7504 34.3273C49.169 34.3273 48.6583 34.4687 48.2183 34.7515C47.7783 35.0292 47.4352 35.3958 47.189 35.8515C46.9481 36.302 46.825 36.7969 46.8198 37.3365V39.01C46.8198 39.7118 46.9481 40.3142 47.2048 40.817C47.4614 41.3146 47.8202 41.697 48.2812 41.9641C48.7421 42.226 49.2816 42.357 49.8997 42.357C50.3135 42.357 50.688 42.2994 51.0232 42.1841C51.3584 42.0637 51.6491 41.8882 51.8953 41.6577C52.1415 41.4273 52.3274 41.1418 52.4531 40.8013L55.1088 41.0999C54.9411 41.8018 54.6216 42.4146 54.1502 42.9384C53.6841 43.4569 53.0869 43.8603 52.3589 44.1483C51.6308 44.4312 50.798 44.5726 49.8604 44.5726ZM57.4756 44.3369V42.5298L63.6983 34.728V34.6258L57.6799 34.6258V32.2688H67.1789V34.2094L61.2548 41.8777V41.9799L67.3831 41.9799V44.3369L57.4756 44.3369Z" fill="#ECB22E"/>
</svg>
