<svg width="24" height="25" viewBox="0 0 24 25" fill="none" xmlns="http://www.w3.org/2000/svg">
<path d="M19.1964 7.07642H8.72576C7.24099 7.07642 6.03735 8.28006 6.03735 9.76482V20.2355C6.03735 21.7202 7.24099 22.9239 8.72576 22.9239H19.1964C20.6812 22.9239 21.8848 21.7202 21.8848 20.2355V9.76482C21.8848 8.28006 20.6812 7.07642 19.1964 7.07642Z" stroke="#7B7A7A" stroke-width="2" stroke-linejoin="round"/>
<path d="M18.0878 7.07642L18.1114 5.94446C18.1094 5.24457 17.8305 4.57392 17.3356 4.07902C16.8407 3.58413 16.17 3.30521 15.4701 3.30322H5.28248C4.48263 3.30559 3.71622 3.62437 3.15064 4.18995C2.58507 4.75553 2.26628 5.52194 2.26392 6.32178V16.5094C2.26591 17.2093 2.54482 17.88 3.03972 18.3749C3.53461 18.8698 4.20527 19.1487 4.90516 19.1507H6.03712" stroke="#7B7A7A" stroke-width="2" stroke-linecap="round" stroke-linejoin="round"/>
</svg>
