<svg width="211" height="43" viewBox="0 0 211 43" fill="none" xmlns="http://www.w3.org/2000/svg">
<circle cx="46.7714" cy="11.4534" r="10.4142" transform="rotate(-89.6419 46.7714 11.4534)" fill="#FFF5E7" stroke="#ECB22E" stroke-width="0.323175"/>
<circle cx="128.905" cy="11.7181" r="10.4142" transform="rotate(-89.6419 128.905 11.7181)" fill="#FFF5E7" stroke="#ECB22E" stroke-width="0.323175"/>
<circle cx="83.6759" cy="11.5843" r="10.4142" transform="rotate(-89.6419 83.6759 11.5843)" fill="#FFF5E7" stroke="#ECB22E" stroke-width="0.323175"/>
<circle cx="170.583" cy="11.8509" r="10.4142" transform="rotate(-89.6419 170.583 11.8509)" fill="#FFF5E7" stroke="#ECB22E" stroke-width="0.323175"/>
<rect x="0.814813" y="41.2306" width="33.3924" height="209.088" rx="3.23175" transform="rotate(-89.6419 0.814813 41.2306)" fill="#FFF6E2" stroke="#ECB22E" stroke-width="0.646351"/>
<path d="M87.4734 22.7415C87.4164 22.2084 87.1763 21.7933 86.7531 21.4962C86.3339 21.1991 85.7885 21.0506 85.1171 21.0506C84.645 21.0506 84.24 21.1218 83.9023 21.2642C83.5645 21.4067 83.3061 21.6 83.127 21.8442C82.9479 22.0883 82.8564 22.3671 82.8523 22.6805C82.8523 22.9409 82.9113 23.1668 83.0293 23.3581C83.1514 23.5493 83.3162 23.7121 83.5238 23.8464C83.7313 23.9767 83.9613 24.0865 84.2136 24.1761C84.4659 24.2656 84.7203 24.3409 84.9767 24.4019L86.1487 24.6949C86.6208 24.8048 87.0746 24.9534 87.51 25.1406C87.9495 25.3278 88.3422 25.5638 88.6882 25.8487C89.0382 26.1336 89.3149 26.4774 89.5184 26.8803C89.7219 27.2832 89.8236 27.7553 89.8236 28.2966C89.8236 29.0291 89.6364 29.6741 89.262 30.2317C88.8876 30.7852 88.3463 31.2186 87.6382 31.5319C86.9341 31.8412 86.0816 31.9959 85.0804 31.9959C84.1078 31.9959 83.2633 31.8453 82.5471 31.5441C81.8349 31.243 81.2774 30.8035 80.8745 30.2256C80.4756 29.6477 80.2599 28.9436 80.2274 28.1134H82.4555C82.4881 28.5489 82.6224 28.9111 82.8584 29.2C83.0944 29.489 83.4017 29.7047 83.7802 29.8471C84.1627 29.9895 84.59 30.0608 85.0621 30.0608C85.5545 30.0608 85.9859 29.9875 86.3563 29.841C86.7307 29.6904 87.0237 29.4829 87.2353 29.2183C87.4469 28.9498 87.5548 28.6364 87.5588 28.2783C87.5548 27.9527 87.4591 27.6841 87.2719 27.4725C87.0847 27.2568 86.8222 27.0777 86.4845 26.9353C86.1507 26.7888 85.7601 26.6585 85.3124 26.5446L83.8901 26.1783C82.8604 25.9138 82.0465 25.5129 81.4483 24.9758C80.8541 24.4345 80.557 23.7162 80.557 22.8209C80.557 22.0843 80.7564 21.4392 81.1553 20.8858C81.5582 20.3323 82.1055 19.9029 82.7974 19.5977C83.4892 19.2884 84.2726 19.1338 85.1476 19.1338C86.0348 19.1338 86.8121 19.2884 87.4795 19.5977C88.151 19.9029 88.678 20.3282 89.0605 20.8736C89.4431 21.4148 89.6405 22.0375 89.6527 22.7415H87.4734ZM93.9548 26.3126V31.8066H91.745V19.3047H93.9059V24.0235H94.0158C94.2356 23.4944 94.5754 23.0773 95.0353 22.772C95.4992 22.4627 96.0893 22.3081 96.8056 22.3081C97.4567 22.3081 98.0244 22.4444 98.5087 22.7171C98.993 22.9898 99.3674 23.3886 99.6319 23.9136C99.9005 24.4386 100.035 25.0795 100.035 25.8365V31.8066H97.825V26.1783C97.825 25.5475 97.6622 25.0571 97.3367 24.7072C97.0152 24.3531 96.5634 24.1761 95.9815 24.1761C95.5908 24.1761 95.2408 24.2615 94.9315 24.4325C94.6263 24.5993 94.3862 24.8415 94.2112 25.1589C94.0402 25.4763 93.9548 25.8609 93.9548 26.3126ZM104.986 31.9959C104.391 31.9959 103.856 31.8901 103.38 31.6784C102.908 31.4628 102.534 31.1453 102.257 30.7262C101.984 30.307 101.848 29.7901 101.848 29.1756C101.848 28.6466 101.946 28.2091 102.141 27.8632C102.336 27.5172 102.603 27.2405 102.941 27.033C103.278 26.8254 103.659 26.6687 104.082 26.5629C104.509 26.453 104.951 26.3737 105.407 26.3248C105.956 26.2679 106.402 26.217 106.744 26.1722C107.085 26.1234 107.334 26.0501 107.488 25.9525C107.647 25.8507 107.726 25.694 107.726 25.4824V25.4458C107.726 24.9859 107.59 24.6298 107.317 24.3775C107.045 24.1252 106.652 23.999 106.139 23.999C105.598 23.999 105.169 24.1171 104.851 24.3531C104.538 24.5891 104.326 24.8679 104.216 25.1894L102.153 24.8964C102.316 24.3266 102.584 23.8505 102.959 23.468C103.333 23.0813 103.791 22.7924 104.332 22.6011C104.874 22.4058 105.472 22.3081 106.127 22.3081C106.579 22.3081 107.028 22.361 107.476 22.4668C107.924 22.5726 108.333 22.7476 108.703 22.9918C109.073 23.2319 109.371 23.5595 109.594 23.9746C109.822 24.3897 109.936 24.9086 109.936 25.5313V31.8066H107.812V30.5186H107.739C107.604 30.7791 107.415 31.0232 107.171 31.2511C106.931 31.475 106.628 31.6561 106.261 31.7944C105.899 31.9287 105.474 31.9959 104.986 31.9959ZM105.559 30.3721C106.003 30.3721 106.388 30.2846 106.713 30.1096C107.039 29.9305 107.289 29.6945 107.464 29.4015C107.643 29.1085 107.733 28.789 107.733 28.4431V27.3382C107.663 27.3952 107.545 27.4481 107.378 27.4969C107.216 27.5457 107.033 27.5885 106.829 27.6251C106.626 27.6617 106.424 27.6943 106.225 27.7228C106.025 27.7512 105.852 27.7757 105.706 27.796C105.376 27.8408 105.081 27.914 104.821 28.0158C104.56 28.1175 104.355 28.2599 104.204 28.4431C104.054 28.6221 103.978 28.8541 103.978 29.139C103.978 29.546 104.127 29.8532 104.424 30.0608C104.721 30.2683 105.099 30.3721 105.559 30.3721ZM114.368 26.3126V31.8066H112.158V22.4302H114.27V24.0235H114.38C114.596 23.4985 114.94 23.0813 115.412 22.772C115.888 22.4627 116.476 22.3081 117.176 22.3081C117.823 22.3081 118.387 22.4465 118.867 22.7232C119.351 22.9999 119.726 23.4008 119.99 23.9258C120.259 24.4508 120.391 25.0877 120.387 25.8365V31.8066H118.177V26.1783C118.177 25.5516 118.014 25.0612 117.689 24.7072C117.367 24.3531 116.922 24.1761 116.352 24.1761C115.965 24.1761 115.622 24.2615 115.32 24.4325C115.023 24.5993 114.789 24.8415 114.618 25.1589C114.452 25.4763 114.368 25.8609 114.368 26.3126ZM124.648 28.8643L124.642 26.1966H124.996L128.366 22.4302H130.948L126.803 27.0452H126.345L124.648 28.8643ZM122.634 31.8066V19.3047H124.843V31.8066H122.634ZM128.518 31.8066L125.466 27.5396L126.955 25.983L131.161 31.8066H128.518Z" fill="#ECB22E"/>
</svg>
