<svg width="56" height="271" viewBox="0 0 56 271" fill="none" xmlns="http://www.w3.org/2000/svg">
<circle cx="14.8365" cy="211.008" r="13.4038" transform="rotate(-179.642 14.8365 211.008)" fill="#FFF5E7" stroke="#ECB22E" stroke-width="0.415949"/>
<circle cx="15.1773" cy="105.297" r="13.4038" transform="rotate(-179.642 15.1773 105.297)" fill="#FFF5E7" stroke="#ECB22E" stroke-width="0.415949"/>
<circle cx="15.0049" cy="163.509" r="13.4038" transform="rotate(-179.642 15.0049 163.509)" fill="#FFF5E7" stroke="#ECB22E" stroke-width="0.415949"/>
<circle cx="15.3481" cy="51.654" r="13.4038" transform="rotate(-179.642 15.3481 51.654)" fill="#FFF5E7" stroke="#ECB22E" stroke-width="0.415949"/>
<rect x="53.162" y="270.158" width="42.9784" height="269.111" rx="4.15949" transform="rotate(-179.642 53.162 270.158)" fill="#FFF6E2" stroke="#ECB22E" stroke-width="0.831898"/>
<path d="M28.3366 158.621C27.6504 158.695 27.1161 159.004 26.7338 159.548C26.3514 160.088 26.1602 160.79 26.1602 161.654C26.1602 162.262 26.2519 162.783 26.4352 163.218C26.6185 163.652 26.8673 163.985 27.1816 164.215C27.4959 164.446 27.8547 164.564 28.258 164.569C28.5932 164.569 28.8839 164.493 29.1301 164.341C29.3763 164.184 29.5858 163.972 29.7587 163.705C29.9263 163.438 30.0677 163.142 30.1829 162.817C30.2982 162.492 30.3951 162.165 30.4736 161.835L30.8508 160.326C30.9922 159.719 31.1834 159.135 31.4243 158.574C31.6653 158.009 31.9691 157.503 32.3357 157.058C32.7024 156.607 33.145 156.251 33.6635 155.989C34.1821 155.727 34.7897 155.596 35.4863 155.596C36.4291 155.596 37.2593 155.837 37.9769 156.319C38.6893 156.801 39.2471 157.498 39.6505 158.409C40.0485 159.315 40.2476 160.413 40.2476 161.701C40.2476 162.953 40.0538 164.04 39.6662 164.962C39.2786 165.878 38.7129 166.596 37.9691 167.115C37.2253 167.628 36.3191 167.906 35.2506 167.947L35.2506 165.08C35.8111 165.038 36.2772 164.865 36.6491 164.561C37.021 164.257 37.2986 163.862 37.482 163.375C37.6653 162.882 37.757 162.332 37.757 161.725C37.757 161.091 37.6627 160.536 37.4741 160.059C37.2803 159.577 37.0132 159.2 36.6727 158.928C36.327 158.655 35.9237 158.517 35.4627 158.511C35.0437 158.517 34.698 158.64 34.4256 158.881C34.148 159.122 33.9176 159.459 33.7342 159.894C33.5457 160.324 33.3781 160.827 33.2314 161.403L32.76 163.233C32.4195 164.559 31.9036 165.606 31.2122 166.376C30.5155 167.141 29.5911 167.523 28.4387 167.523C27.4907 167.523 26.6605 167.267 25.9481 166.753C25.2357 166.235 24.6831 165.53 24.2903 164.64C23.8922 163.749 23.6932 162.741 23.6932 161.615C23.6932 160.473 23.8922 159.473 24.2903 158.614C24.6831 157.749 25.2305 157.071 25.9324 156.579C26.629 156.086 27.4304 155.832 28.3366 155.816L28.3366 158.621ZM32.9328 150.279L40.004 150.279L40.004 153.124L23.9132 153.124L23.9132 150.342L29.9865 150.342L29.9865 150.201C29.3056 149.918 28.7687 149.481 28.3759 148.889C27.9778 148.292 27.7787 147.532 27.7787 146.61C27.7787 145.772 27.9542 145.041 28.3052 144.418C28.6561 143.795 29.1694 143.313 29.8451 142.972C30.5208 142.627 31.3458 142.454 32.32 142.454L40.004 142.454L40.004 145.298L32.76 145.298C31.9481 145.298 31.3169 145.508 30.8665 145.927C30.4108 146.34 30.1829 146.922 30.1829 147.671C30.1829 148.174 30.2929 148.624 30.5129 149.022C30.7277 149.415 31.0393 149.724 31.4479 149.949C31.8565 150.169 32.3514 150.279 32.9328 150.279ZM40.2476 136.082C40.2476 136.847 40.1114 137.536 39.839 138.148C39.5614 138.756 39.1529 139.238 38.6133 139.594C38.0738 139.945 37.4086 140.12 36.6177 140.12C35.9368 140.12 35.3737 139.995 34.9285 139.743C34.4833 139.492 34.1271 139.149 33.8599 138.714C33.5928 138.279 33.3912 137.79 33.255 137.245C33.1135 136.695 33.0114 136.127 32.9486 135.54C32.8752 134.833 32.8097 134.259 32.7521 133.819C32.6893 133.379 32.595 133.06 32.4693 132.861C32.3383 132.656 32.1367 132.554 31.8643 132.554L31.8172 132.554C31.2253 132.554 30.767 132.73 30.4422 133.081C30.1175 133.432 29.9551 133.937 29.9551 134.597C29.9551 135.294 30.107 135.846 30.4108 136.255C30.7146 136.658 31.0734 136.931 31.4872 137.072L31.11 139.728C30.3767 139.518 29.7639 139.172 29.2715 138.69C28.7739 138.209 28.4021 137.619 28.1559 136.923C27.9045 136.226 27.7787 135.456 27.7787 134.613C27.7787 134.031 27.8468 133.453 27.983 132.876C28.1192 132.3 28.3444 131.774 28.6587 131.297C28.9677 130.821 29.3894 130.438 29.9237 130.15C30.4579 129.857 31.1258 129.71 31.9272 129.71L40.004 129.71L40.004 132.444L38.3462 132.444L38.3462 132.539C38.6814 132.711 38.9957 132.955 39.289 133.269C39.5771 133.578 39.8102 133.969 39.9883 134.44C40.1611 134.906 40.2476 135.453 40.2476 136.082ZM38.1576 135.343C38.1576 134.773 38.045 134.278 37.8198 133.859C37.5893 133.439 37.2855 133.117 36.9084 132.892C36.5313 132.662 36.1201 132.546 35.6749 132.546L34.2528 132.546C34.3261 132.635 34.3942 132.787 34.4571 133.002C34.5199 133.212 34.5749 133.447 34.6221 133.709C34.6692 133.971 34.7111 134.23 34.7478 134.487C34.7844 134.744 34.8159 134.966 34.8421 135.155C34.8997 135.579 34.994 135.959 35.1249 136.294C35.2558 136.629 35.4392 136.894 35.6749 137.088C35.9053 137.281 36.2039 137.378 36.5706 137.378C37.0944 137.378 37.4898 137.187 37.7569 136.805C38.0241 136.422 38.1576 135.935 38.1576 135.343ZM32.9328 124.006L40.004 124.006L40.004 126.85L27.9359 126.85L27.9359 124.132L29.9865 124.132L29.9865 123.99C29.3108 123.713 28.7739 123.27 28.3759 122.662C27.9778 122.05 27.7787 121.293 27.7787 120.392C27.7787 119.559 27.9568 118.834 28.313 118.216C28.6692 117.592 29.1851 117.11 29.8608 116.77C30.5365 116.424 31.3562 116.254 32.32 116.259L40.004 116.259L40.004 119.103L32.76 119.103C31.9534 119.103 31.3222 119.313 30.8665 119.732C30.4108 120.146 30.1829 120.719 30.1829 121.453C30.1829 121.95 30.2929 122.393 30.5129 122.78C30.7277 123.163 31.0393 123.464 31.4479 123.684C31.8564 123.899 32.3514 124.006 32.9328 124.006ZM36.217 110.775L32.7836 110.783L32.7836 110.327L27.9359 105.99L27.9359 102.667L33.8757 108.002L33.8757 108.591L36.217 110.775ZM40.004 113.368L23.9132 113.368L23.9132 110.524L40.004 110.524L40.004 113.368ZM40.004 105.794L34.5121 109.722L32.5086 107.805L40.004 102.392L40.004 105.794Z" fill="#ECB22E"/>
</svg>
