<svg width="498" height="493" viewBox="0 0 498 493" fill="none" xmlns="http://www.w3.org/2000/svg">
<path d="M168.073 324.241C166.128 326.084 164.104 327.849 162.261 329.794C153.076 339.489 143.985 349.27 134.769 358.933C130.4 363.514 126.431 368.84 121.223 372.189C110.069 379.366 102.916 390.323 93.8409 399.398C84.358 408.881 75.8947 419.392 67.2196 429.651C62.686 435.009 56.0581 437.166 50.6852 441.205C50.3087 441.487 48.3713 440.703 48.2694 440.185C47.9556 438.625 47.5321 436.468 48.3164 435.417C50.7323 432.169 53.7991 429.416 56.4189 426.302C63.9802 417.29 71.5885 408.317 78.9066 399.1C91.0172 383.837 102.814 368.33 114.933 353.066C124.235 341.355 133.969 329.982 143.201 318.225C146.707 313.762 149.217 308.53 152.449 303.831C156.12 298.49 160.088 293.352 163.751 287.423C161.218 288.45 158.661 289.415 156.167 290.529C152.253 292.27 148.448 294.286 144.464 295.831C142.942 296.419 141.044 296.051 139.318 296.113C140.071 294.207 140.291 291.368 141.679 290.576C146.77 287.681 152.26 285.501 157.578 282.999C162.457 280.701 167.854 279.038 171.995 275.798C175.407 273.124 177.321 268.543 179.901 264.809C179.69 264.433 179.486 264.049 179.274 263.672C173.901 265.06 168.105 265.586 163.242 267.994C143.562 277.728 124.337 288.372 104.618 298.019C92.7821 303.816 80.2244 308.138 68.2314 313.652C60.027 317.425 52.3167 322.248 44.2377 326.319C38.151 329.386 31.8369 331.99 25.6326 334.806C25.4051 334.908 25.2169 335.285 25.0365 335.269C19.7185 334.751 14.5338 335.159 9.4433 336.971C8.74521 337.222 7.5922 336.343 6.69802 335.904C4.91751 335.018 3.17622 334.069 0.729004 332.782C22.2677 317.683 45.681 305.463 67.4863 290.772C67.3529 290.403 67.2274 290.034 67.0941 289.666C63.8155 290.474 60.5525 291.376 57.2425 292.082C52.7638 293.039 48.2694 293.933 43.7514 294.701C40.2296 295.305 37.4922 293.894 35.4371 290.85C37.7667 286.019 42.8965 285.124 47.0379 283.022C56.3012 278.316 65.7136 273.9 75.1338 269.508C80.9303 266.802 86.9542 264.574 92.6644 261.711C101.543 257.256 111.826 254.056 118.635 247.381C127.624 238.572 139.271 238.415 149.256 233.443C151.382 232.384 153.241 230.768 155.359 229.685C161.147 226.728 166.857 223.52 172.889 221.167C179.745 218.485 185.368 214.108 190.773 209.457C196.899 204.194 202.53 198.358 208.382 192.781C213.668 187.738 218.555 182.161 224.359 177.8C234.619 170.082 246.07 166.372 259.389 168.089C275.963 170.223 290.92 177.298 306.616 182.067C319.11 185.863 331.707 188.208 344.759 187.165C349.552 186.781 354.289 185.683 359.05 184.906C359.348 185.228 359.646 185.549 359.945 185.871C355.795 190.459 351.646 195.04 346.422 200.821C346.759 205.276 352.721 208.296 356.948 212.524C362.651 218.234 369.702 221.559 377.805 220.799C382.621 220.344 387.24 218.108 392.009 216.9C407.516 212.971 423.188 209.598 438.546 205.151C456.249 200.029 473.685 193.997 491.239 188.389C492.957 187.84 494.738 187.518 497.271 186.891C495.145 191.189 492.785 193.589 489.153 195.213C483.968 197.534 479.097 200.57 474.062 203.229C472.854 203.872 471.544 204.405 470.218 204.727C466.767 205.566 464.241 206.774 462.359 210.516C461.128 212.963 456.908 214.328 453.755 215.332C442.883 218.775 431.886 221.842 420.945 225.073C419.619 225.466 418.333 225.991 417.007 226.407C413.03 227.638 408.348 227.709 407.163 232.282C405.296 231.858 403.696 231.019 402.496 231.403C401.712 231.654 401.398 233.654 401.037 234.917C400.63 236.368 400.739 238.062 400.018 239.302C399.202 240.714 397.712 241.741 396.519 242.941C395.453 241.459 394.268 240.047 393.358 238.47C392.802 237.498 392.66 236.282 392.339 235.176C390.919 235.937 388.841 236.353 388.229 237.537C387.052 239.796 386.338 240.51 383.719 239.247C382.283 238.557 379.899 239.255 378.165 239.914C373.475 241.678 368.894 243.757 364.957 245.42V255.428C364.604 255.538 364.243 255.64 363.89 255.75C363.004 254.315 362.109 252.895 361.231 251.452C360.078 249.561 359.105 247.381 356.203 248.918C353.458 250.369 354.956 252.628 355.05 254.628C355.223 258.252 355.403 261.884 355.583 265.507C355.011 265.578 354.438 265.656 353.866 265.727C353.364 264.017 352.721 262.331 352.399 260.582C351.575 256.134 346.853 253.248 342.539 254.675C339.92 255.546 337.245 256.252 334.696 257.295C319.95 263.366 304.639 266.229 288.685 265.758C282.418 265.578 276.135 265.798 269.86 265.688C258.542 265.492 247.223 265.256 235.913 264.888C231.481 264.747 228.375 265.351 225.755 270.033C220.939 278.653 214.492 286.34 209.354 294.803C202.915 305.408 196.404 316.068 191.228 327.307C185.4 339.959 181.078 353.293 175.956 366.283C174.238 370.636 172.073 374.816 170.128 379.076C166.316 387.445 162.238 395.704 158.763 404.214C153.045 418.2 147.484 432.248 142.307 446.437C137.742 458.955 133.875 471.725 129.506 484.314C127.969 488.745 124.149 491.012 119.866 492.306C118.988 492.573 117.78 491.734 116.721 491.412C117.105 490.518 117.584 489.647 117.85 488.722C118.321 487.036 118.556 485.286 119.074 483.616C124.941 464.705 130.847 445.794 136.746 426.89C140.001 416.458 143.279 406.026 146.55 395.602C146.668 395.241 146.903 394.818 146.809 394.496C144.252 385.358 147.719 376.973 149.492 368.22C152.629 352.682 161.547 339.983 168.316 326.209C168.52 325.794 168.701 325.37 168.889 324.954C168.614 324.719 168.348 324.492 168.073 324.256V324.241ZM235.223 254.715C236.917 254.715 238.18 254.777 239.427 254.707C248.58 254.205 257.773 254.048 266.88 253.044C276.739 251.954 286.544 250.259 296.301 248.455C301.87 247.428 301.713 247.145 298.748 242.141C297.988 240.855 298.05 239.066 297.729 237.513C299.588 237.176 301.666 236.133 303.266 236.627C308.373 238.219 312.812 237.278 317.722 234.196C310.89 229.074 304.106 224.469 299.556 216.783C298.631 217.551 297.493 218.453 296.403 219.41C294.944 220.689 293.705 222.407 292.026 223.183C290.371 223.952 288.285 223.779 285.861 224.093C285.171 222.916 283.845 222.838 282.347 224.697C280.81 226.595 279.233 228.47 277.555 230.242C277.037 230.784 276.159 231.168 275.398 231.254C274.002 231.403 272.574 231.168 271.178 231.293C269.774 231.419 268.401 231.795 266.707 232.117C266.903 230.619 267.013 229.827 267.217 228.321C263.052 229.952 259.311 231.419 254.651 233.246C259.146 228.234 262.77 224.195 266.393 220.155C265.978 219.795 265.57 219.442 265.154 219.081C253.561 229.301 241.654 239.239 235.223 254.715ZM344.045 223.183C343.434 215.59 345.104 214.383 351.16 216.9C353.215 217.755 355.434 218.195 357.576 218.83C357.811 218.32 358.046 217.818 358.282 217.308C351.418 212.728 344.547 208.139 337.245 203.26C337.433 203.143 336.657 203.347 336.429 203.809C334.194 208.343 328.719 206.319 325.699 209.198C320.938 206.664 319.903 211.637 317.244 213.363C316.02 214.163 314.742 215.136 313.369 215.402C311.549 215.755 309.612 215.488 306.976 215.488C310.286 221.097 310.969 227.536 317.259 230.18C320.703 231.623 324.17 233.035 327.699 234.25C328.531 234.541 329.668 233.976 330.656 233.772C332.256 233.45 333.849 233.003 335.464 232.776C339.739 232.18 344.124 232.062 348.281 231.042C352.658 229.96 356.838 228.062 361.098 226.485C361.953 226.172 362.745 225.685 364.282 224.917C357.262 221.795 351.481 216.453 344.053 223.191L344.045 223.183ZM340.382 247.02C335.174 245.412 330.092 243.31 324.562 245.428C321.864 246.463 319.197 247.616 316.436 248.447C305.855 251.648 295.25 254.738 285.202 257.703C304.098 259.287 322.373 254.142 340.39 247.012L340.382 247.02ZM381.373 232.29C379.954 227.081 379.161 226.603 374.534 228.054C370.847 229.207 367.106 230.219 363.466 231.529C359.411 232.988 355.45 234.713 351.167 236.439C354.132 237.976 356.36 239.137 358.611 240.314C366.094 237.678 373.734 234.98 381.366 232.29H381.373ZM405.32 219.206C407.704 223.567 410.45 223.018 413.501 221.826C416.536 220.642 419.666 219.708 422.756 218.665C426.443 217.418 430.13 216.155 433.808 214.908C433.659 214.383 433.502 213.857 433.353 213.339C424.16 215.269 414.968 217.191 405.32 219.214V219.206ZM304.153 246.62C309.267 244.808 314.145 243.075 319.016 241.349C316.248 240.612 313.675 240.533 311.11 240.643C309.847 240.698 308.6 241.31 307.337 241.325C304.239 241.365 303.188 242.8 304.153 246.612V246.62ZM391.225 224.313C392.888 228.274 399.014 228.43 402.543 224.313H391.225Z" fill="black"/>
<path d="M426.32 93.9541C419.472 89.8048 413.189 86.0398 406.938 82.2122C392.568 73.4037 377.454 66.0935 360.715 63.5129C344.581 61.0265 328.533 61.8344 313.583 69.6937C313.042 69.9761 312.453 70.1957 311.873 70.3682C311.653 70.431 311.371 70.2741 310.798 70.1486C316.038 65.3954 321.34 60.9715 326.172 56.085C331.098 51.1042 335.702 45.7706 340.196 40.3898C345.295 34.2875 349.766 27.636 355.154 21.8239C360.135 16.451 365.437 11.0154 371.579 7.17197C380.215 1.75985 389.752 -0.961895 400.553 0.308776C408.93 1.29708 417.056 2.87365 425.002 5.32871C436.791 8.96816 445.074 16.5373 448.941 28.5538C449.184 29.3067 450.258 29.848 451.019 30.3735C454.878 33.0246 458.816 35.5503 462.581 38.3269C463.389 38.9231 463.577 40.3663 464.048 41.4173C463.02 41.4173 461.977 41.5271 460.973 41.386C459.734 41.2134 458.526 40.8369 457.961 41.4644C456.878 42.4841 455.929 43.7234 454.682 44.4764C452.878 45.5666 450.847 46.2804 448.933 47.2059C447.67 47.8099 446.462 49.0257 445.207 49.0492C439.928 49.1433 438.83 52.8455 438.862 56.7517C438.893 60.5401 437.12 61.4265 433.999 61.1755C434.25 64.0463 434.618 66.6817 434.61 69.3093C434.61 69.9368 433.442 70.7683 432.642 71.1448C430.022 72.3684 428.469 73.8665 428.343 77.2001C428.131 82.5181 427.112 87.8047 426.32 93.9698V93.9541Z" fill="black"/>
<path d="M415.294 135.191C412.587 139.372 410.211 143.803 407.12 147.678C398.563 158.416 388.107 167.209 376.13 173.727C370.444 176.817 363.596 178.386 357.094 179.264C340.316 181.539 324.66 176.566 309.098 170.879C295.772 166.009 282.336 161.153 268.578 157.828C258.021 155.271 246.914 155.443 236.623 160.557C236.207 160.761 235.603 160.581 234.396 160.581C237.306 156.8 239.87 153.412 242.498 150.07C246.553 144.925 250.326 139.505 254.797 134.744C263.401 125.575 273.598 119.347 286.72 118.978C299.482 118.617 311.075 122.963 322.699 127.339C335.594 132.195 348.458 137.144 361.423 141.811C370.804 145.192 380.632 146.572 390.515 145.56C398.908 144.697 406.94 142.211 413.003 135.654C413.411 135.214 413.976 134.924 414.47 134.556C414.744 134.767 415.019 134.979 415.286 135.183L415.294 135.191Z" fill="black"/>
<path d="M428.278 98.3034C426.646 104.484 425.423 110.673 423.36 116.563C419.438 127.772 409.955 132.659 399.421 135.372C387.546 138.431 376.063 135.451 364.925 131.2C350.814 125.803 336.805 120.132 322.655 114.869C311.839 110.845 300.583 108.633 289.006 109.724C283.429 110.249 277.954 111.92 271.734 113.214C275.366 109.23 278.323 105.12 282.112 102.006C288.896 96.4209 295.916 91.0323 303.289 86.2712C318.169 76.6471 334.703 72.6703 352.312 74.4116C365.937 75.7607 378.855 80.1532 391.523 85.2672C401.625 89.3538 411.783 93.3148 421.956 97.2131C423.58 97.8328 425.446 97.8406 428.294 98.3112L428.278 98.3034Z" fill="black"/>
</svg>
