<svg width="95" height="57" viewBox="0 0 95 57" fill="none" xmlns="http://www.w3.org/2000/svg">
<path d="M94.239 15.7673C94.239 21.2405 89.5837 25.6903 83.8248 25.6903C78.0659 25.6903 73.4106 21.2405 73.4106 15.7673C73.4106 10.2941 78.0659 5.8442 83.8248 5.8442C89.5837 5.8442 94.239 10.2941 94.239 15.7673Z" fill="#FFF5E7" stroke="#ECB22E" stroke-width="0.323175"/>
<path d="M21.0657 17.0911C21.0657 22.8188 16.4037 27.463 10.6515 27.463C4.89926 27.463 0.237271 22.8188 0.237271 17.0911C0.237271 11.3635 4.89926 6.7192 10.6515 6.7192C16.4037 6.7192 21.0657 11.3635 21.0657 17.0911Z" fill="#FFF5E7" stroke="#ECB22E" stroke-width="0.323175"/>
<path d="M94.239 40.4609C94.239 45.8512 89.586 50.2378 83.8248 50.2378C78.0636 50.2378 73.4106 45.8512 73.4106 40.4609C73.4106 35.0706 78.0636 30.684 83.8248 30.684C89.586 30.684 94.239 35.0706 94.239 40.4609Z" fill="#FFF5E7" stroke="#ECB22E" stroke-width="0.323175"/>
<path d="M21.0657 41.056C21.0657 46.7836 16.4037 51.4279 10.6515 51.4279C4.89926 51.4279 0.237271 46.7836 0.237271 41.056C0.237271 35.3283 4.89926 30.684 10.6515 30.684C16.4037 30.684 21.0657 35.3283 21.0657 41.056Z" fill="#FFF5E7" stroke="#ECB22E" stroke-width="0.323175"/>
<rect x="11.8763" y="0.426691" width="71.6263" height="55.5206" rx="3.23175" fill="#FFF6E2" stroke="#ECB22E" stroke-width="0.646351"/>
<path d="M44.3855 23.1192V35.6211H42.1207V25.3229H42.0475L39.1234 27.1908V25.1153L42.2306 23.1192H44.3855ZM52.6448 23.1192V35.6211H50.3801V25.3229H50.3068L47.3828 27.1908V25.1153L50.4899 23.1192H52.6448Z" fill="#ECB22E"/>
</svg>
