<svg width="132" height="119" viewBox="0 0 132 119" fill="none" xmlns="http://www.w3.org/2000/svg">
<circle cx="14.0838" cy="77.4812" r="13.4038" transform="rotate(-179.642 14.0838 77.4812)" fill="#FFF5E7" stroke="#ECB22E" stroke-width="0.415949"/>
<circle cx="117.239" cy="77.4812" r="13.4038" transform="rotate(-179.642 117.239 77.4812)" fill="#FFF5E7" stroke="#ECB22E" stroke-width="0.415949"/>
<circle cx="14.0838" cy="42.2956" r="13.4038" transform="rotate(-179.642 14.0838 42.2956)" fill="#FFF5E7" stroke="#ECB22E" stroke-width="0.415949"/>
<circle cx="117.239" cy="42.2956" r="13.4038" transform="rotate(-179.642 117.239 42.2956)" fill="#FFF5E7" stroke="#ECB22E" stroke-width="0.415949"/>
<rect x="117.325" y="118.082" width="103.075" height="116.936" rx="4.15949" transform="rotate(-179.642 117.325 118.082)" fill="#FFF6E2" stroke="#ECB22E" stroke-width="0.831898"/>
<path d="M66.024 66.22C64.9764 66.22 64.0389 66.0236 63.2113 65.6307C62.3837 65.2326 61.7263 64.6879 61.2392 63.9965C60.7573 63.3051 60.5007 62.5142 60.4692 61.6237H63.2977C63.3501 62.2837 63.6355 62.8232 64.1541 63.2422C64.6727 63.656 65.296 63.8629 66.024 63.8629C66.595 63.8629 67.103 63.732 67.5483 63.4701C67.9935 63.2082 68.3444 62.8442 68.6011 62.378C68.8577 61.9118 68.9834 61.3802 68.9782 60.783C68.9834 60.1754 68.8551 59.6359 68.5932 59.1645C68.3313 58.6931 67.9725 58.3238 67.5168 58.0567C67.0611 57.7843 66.5373 57.6482 65.9455 57.6482C65.4636 57.6429 64.9895 57.732 64.5234 57.9153C64.0572 58.0986 63.6879 58.3396 63.4156 58.6381L60.7835 58.206L61.6242 49.9092H70.9581V52.3448H64.0362L63.5727 56.6111H63.667C63.9655 56.2601 64.3872 55.9694 64.9319 55.7389C65.4767 55.5032 66.0738 55.3854 66.7233 55.3854C67.6975 55.3854 68.567 55.6159 69.3318 56.0768C70.0965 56.5325 70.6989 57.161 71.1388 57.9624C71.5788 58.7638 71.7988 59.6805 71.7988 60.7123C71.7988 61.7756 71.5526 62.7237 71.0603 63.5565C70.5731 64.3841 69.8948 65.0362 69.0253 65.5129C68.1611 65.9843 67.1607 66.22 66.024 66.22Z" fill="#ECB22E"/>
</svg>
