<svg width="94" height="110" viewBox="0 0 94 110" fill="none" xmlns="http://www.w3.org/2000/svg">
<circle cx="10.9227" cy="22.5152" r="10.4142" fill="#FFF5E7" stroke="#ECB22E" stroke-width="0.323175"/>
<circle cx="83.1943" cy="24.2047" r="10.4142" fill="#FFF5E7" stroke="#ECB22E" stroke-width="0.323175"/>
<circle cx="10.9227" cy="53.609" r="10.4142" fill="#FFF5E7" stroke="#ECB22E" stroke-width="0.323175"/>
<circle cx="83.1943" cy="55.3004" r="10.4142" fill="#FFF5E7" stroke="#ECB22E" stroke-width="0.323175"/>
<circle cx="10.9227" cy="86.6041" r="10.4142" fill="#FFF5E7" stroke="#ECB22E" stroke-width="0.323175"/>
<circle cx="83.1943" cy="88.2955" r="10.4142" fill="#FFF5E7" stroke="#ECB22E" stroke-width="0.323175"/>
<rect x="11.2458" y="1.17278" width="71.6263" height="107.71" rx="3.23175" fill="#FFF6E2" stroke="#ECB22E" stroke-width="0.646351"/>
<path d="M37.3449 61.6465V60.0105L41.6851 55.7557C42.1002 55.3365 42.4462 54.9641 42.7229 54.6386C42.9996 54.313 43.2072 53.9976 43.3456 53.6924C43.4839 53.3872 43.5531 53.0616 43.5531 52.7157C43.5531 52.3209 43.4636 51.9831 43.2845 51.7023C43.1054 51.4174 42.8592 51.1977 42.5459 51.043C42.2325 50.8884 41.8764 50.8111 41.4776 50.8111C41.0666 50.8111 40.7064 50.8965 40.3971 51.0675C40.0878 51.2343 39.8477 51.4724 39.6768 51.7817C39.5099 52.091 39.4265 52.4593 39.4265 52.8866H37.2716C37.2716 52.093 37.4527 51.4032 37.8149 50.8172C38.1771 50.2311 38.6756 49.7774 39.3105 49.4559C39.9494 49.1344 40.682 48.9736 41.5081 48.9736C42.3465 48.9736 43.0831 49.1303 43.7179 49.4437C44.3528 49.757 44.8452 50.1864 45.1952 50.7317C45.5493 51.277 45.7263 51.8997 45.7263 52.5997C45.7263 53.0677 45.6368 53.5276 45.4577 53.9793C45.2786 54.431 44.9632 54.9316 44.5115 55.481C44.0638 56.0304 43.4351 56.6958 42.6252 57.4771L40.4704 59.6686V59.7541H45.9155V61.6465H37.3449ZM52.6426 61.8846C51.6374 61.8846 50.7747 61.6302 50.0544 61.1215C49.3381 60.6087 48.7867 59.8701 48.4 58.9056C48.0175 57.937 47.8262 56.7711 47.8262 55.4077C47.8303 54.0444 48.0236 52.8846 48.4061 51.9282C48.7928 50.9678 49.3442 50.2352 50.0605 49.7306C50.7808 49.2259 51.6415 48.9736 52.6426 48.9736C53.6438 48.9736 54.5045 49.2259 55.2248 49.7306C55.9452 50.2352 56.4966 50.9678 56.8791 51.9282C57.2658 52.8886 57.4591 54.0485 57.4591 55.4077C57.4591 56.7751 57.2658 57.9431 56.8791 58.9117C56.4966 59.8762 55.9452 60.6128 55.2248 61.1215C54.5086 61.6302 53.6478 61.8846 52.6426 61.8846ZM52.6426 59.9739C53.424 59.9739 54.0406 59.5893 54.4923 58.8201C54.9481 58.0469 55.176 56.9094 55.176 55.4077C55.176 54.4147 55.0722 53.5805 54.8647 52.9049C54.6571 52.2293 54.3641 51.7206 53.9856 51.3788C53.6071 51.0329 53.1595 50.8599 52.6426 50.8599C51.8653 50.8599 51.2508 51.2465 50.7991 52.0198C50.3474 52.7889 50.1195 53.9182 50.1154 55.4077C50.1113 56.4048 50.211 57.2431 50.4145 57.9228C50.6221 58.6024 50.9151 59.1152 51.2936 59.4611C51.672 59.8029 52.1217 59.9739 52.6426 59.9739Z" fill="#ECB22E"/>
</svg>
