<svg width="122" height="73" viewBox="0 0 122 73" fill="none" xmlns="http://www.w3.org/2000/svg">
<path d="M0.57471 52.3788C0.574709 45.3344 6.56636 39.6071 13.9785 39.6071C21.3906 39.6071 27.3823 45.3344 27.3823 52.3788C27.3823 59.4231 21.3906 65.1504 13.9785 65.1504C6.56636 65.1504 0.57471 59.4232 0.57471 52.3788Z" fill="#FFF5E7" stroke="#ECB22E" stroke-width="0.415949"/>
<path d="M94.7545 50.6751C94.7545 43.3032 100.755 37.3257 108.158 37.3257C115.562 37.3257 121.562 43.3032 121.562 50.6751C121.562 58.0469 115.562 64.0244 108.158 64.0244C100.755 64.0244 94.7545 58.0469 94.7545 50.6751Z" fill="#FFF5E7" stroke="#ECB22E" stroke-width="0.415949"/>
<path d="M0.57471 20.5962C0.574709 13.6585 6.56342 8.01267 13.9785 8.01267C21.3936 8.01267 27.3823 13.6585 27.3823 20.5962C27.3823 27.5339 21.3936 33.1797 13.9785 33.1797C6.56343 33.1797 0.57471 27.5339 0.57471 20.5962Z" fill="#FFF5E7" stroke="#ECB22E" stroke-width="0.415949"/>
<path d="M94.7545 19.8303C94.7545 12.4585 100.755 6.48097 108.158 6.48097C115.562 6.48097 121.562 12.4585 121.562 19.8303C121.562 27.2022 115.562 33.1797 108.158 33.1797C100.755 33.1797 94.7545 27.2022 94.7545 19.8303Z" fill="#FFF5E7" stroke="#ECB22E" stroke-width="0.415949"/>
<rect x="106.582" y="72.1231" width="92.1879" height="71.4589" rx="4.15949" transform="rotate(180 106.582 72.1231)" fill="#FFF6E2" stroke="#ECB22E" stroke-width="0.831898"/>
<path d="M55.2447 30.5049V46.5957H52.3298V33.3412H52.2355L48.4721 35.7454V33.074L52.4712 30.5049H55.2447ZM65.2229 46.8157C64.4529 46.8105 63.7013 46.6769 62.968 46.415C62.2347 46.1479 61.5747 45.7157 60.9881 45.1186C60.4014 44.5163 59.9352 43.7175 59.5895 42.7223C59.2438 41.7218 59.0736 40.4831 59.0788 39.006C59.0788 37.6284 59.2255 36.4001 59.5188 35.3211C59.8122 34.2421 60.2338 33.3307 60.7838 32.5869C61.3338 31.8379 61.9964 31.267 62.7716 30.8741C63.552 30.4813 64.4241 30.2849 65.3879 30.2849C66.3988 30.2849 67.2945 30.4839 68.0749 30.882C68.8606 31.2801 69.4944 31.8248 69.9763 32.5162C70.4582 33.2024 70.7568 33.9776 70.872 34.8418H68.0042C67.8576 34.2238 67.5564 33.7314 67.1007 33.3648C66.6502 32.9929 66.0793 32.8069 65.3879 32.8069C64.2722 32.8069 63.4132 33.2914 62.8109 34.2604C62.2137 35.2294 61.9126 36.5599 61.9073 38.2517H62.0173C62.274 37.7908 62.6066 37.3953 63.0151 37.0653C63.4237 36.7353 63.8846 36.4813 64.3979 36.3032C64.9165 36.1199 65.4639 36.0282 66.04 36.0282C66.9828 36.0282 67.8288 36.2535 68.5778 36.7039C69.332 37.1544 69.9292 37.7751 70.3692 38.566C70.8091 39.3517 71.0265 40.2526 71.0213 41.2688C71.0265 42.3268 70.7856 43.2775 70.2984 44.1208C69.8113 44.9589 69.133 45.6188 68.2635 46.1007C67.394 46.5826 66.3805 46.8209 65.2229 46.8157ZM65.2072 44.4586C65.7781 44.4586 66.2888 44.3198 66.7393 44.0422C67.1897 43.7646 67.5459 43.3901 67.8078 42.9187C68.0697 42.4473 68.198 41.9183 68.1928 41.3316C68.198 40.7554 68.0723 40.2343 67.8157 39.7681C67.5643 39.3019 67.2159 38.9326 66.7707 38.6603C66.3255 38.3879 65.8174 38.2517 65.2465 38.2517C64.8222 38.2517 64.4267 38.3329 64.0601 38.4953C63.6934 38.6577 63.3739 38.8829 63.1016 39.171C62.8292 39.4538 62.6144 39.7838 62.4573 40.1609C62.3054 40.5328 62.2268 40.9309 62.2216 41.3552C62.2268 41.9156 62.3578 42.4316 62.6144 42.903C62.8711 43.3744 63.2246 43.7515 63.6751 44.0344C64.1256 44.3172 64.6363 44.4586 65.2072 44.4586Z" fill="#ECB22E"/>
</svg>
