<svg width="49" height="119" viewBox="0 0 49 119" fill="none" xmlns="http://www.w3.org/2000/svg">
<circle cx="23.703" cy="14.2642" r="13.4038" transform="rotate(-90 23.703 14.2642)" fill="#FFF5E7" stroke="#ECB22E" stroke-width="0.415949"/>
<circle cx="23.703" cy="104.674" r="13.4038" transform="rotate(-90 23.703 104.674)" fill="#FFF5E7" stroke="#ECB22E" stroke-width="0.415949"/>
<rect x="0.660547" y="106.869" width="92.1879" height="47.8995" rx="4.15949" transform="rotate(-90 0.660547 106.869)" fill="#FFF6E2" stroke="#ECB22E" stroke-width="0.831898"/>
<path d="M24.3149 69.6604C23.1836 69.6604 22.1779 69.4666 21.2979 69.079C20.4232 68.6914 19.7318 68.1519 19.2237 67.4605C18.7156 66.7691 18.4459 65.9703 18.4144 65.0642H21.3686C21.3948 65.4989 21.5388 65.8787 21.8007 66.2034C22.0626 66.5229 22.411 66.7717 22.8457 66.9498C23.2805 67.1279 23.7676 67.2169 24.3071 67.2169C24.8833 67.2169 25.3939 67.1174 25.8392 66.9184C26.2844 66.7141 26.6327 66.4313 26.8841 66.0698C27.1356 65.7084 27.2586 65.292 27.2534 64.8206C27.2586 64.3335 27.1329 63.904 26.8763 63.5321C26.6196 63.1602 26.2477 62.8695 25.7606 62.66C25.2787 62.4504 24.6973 62.3457 24.0164 62.3457H22.5943V60.0986H24.0164C24.5768 60.0986 25.0666 60.0017 25.4856 59.8079C25.9099 59.6141 26.2425 59.3417 26.4834 58.9908C26.7244 58.6346 26.8422 58.2235 26.837 57.7573C26.8422 57.3016 26.7401 56.9061 26.5306 56.5709C26.3263 56.2304 26.0356 55.9659 25.6585 55.7774C25.2866 55.5888 24.8492 55.4945 24.3464 55.4945C23.854 55.4945 23.3983 55.5835 22.9793 55.7616C22.5602 55.9397 22.2224 56.1938 21.9657 56.5238C21.7091 56.8485 21.5729 57.2361 21.5572 57.6866H18.7523C18.7732 56.7856 19.0325 55.9947 19.5301 55.3138C20.033 54.6276 20.7034 54.0934 21.5415 53.711C22.3795 53.3234 23.3197 53.1296 24.3621 53.1296C25.4359 53.1296 26.3682 53.3312 27.1591 53.7346C27.9553 54.1326 28.5707 54.6695 29.0055 55.3452C29.4402 56.0209 29.6576 56.7673 29.6576 57.5844C29.6628 58.4906 29.3957 59.2501 28.8562 59.8629C28.3219 60.4758 27.6201 60.8765 26.7506 61.065V61.1907C27.882 61.3479 28.7488 61.7669 29.3512 62.4478C29.9588 63.1235 30.26 63.9642 30.2547 64.9699C30.2547 65.8708 29.9981 66.6774 29.4848 67.3898C28.9767 68.0969 28.2748 68.6521 27.3791 69.0554C26.4887 69.4588 25.4673 69.6604 24.3149 69.6604Z" fill="#ECB22E"/>
</svg>
