<svg width="141" height="121" viewBox="0 0 141 121" fill="none" xmlns="http://www.w3.org/2000/svg">
<circle cx="28.8491" cy="106.769" r="13.1118" transform="rotate(-90 28.8491 106.769)" fill="#FFF5E7" stroke="#FFB100"/>
<circle cx="31.0235" cy="13.7505" r="13.1118" transform="rotate(-90 31.0235 13.7505)" fill="#FFF5E7" stroke="#FFB100"/>
<circle cx="68.8689" cy="106.769" r="13.1118" transform="rotate(-90 68.8689 106.769)" fill="#FFF5E7" stroke="#FFB100"/>
<circle cx="71.0458" cy="13.7505" r="13.1118" transform="rotate(-90 71.0458 13.7505)" fill="#FFF5E7" stroke="#FFB100"/>
<circle cx="111.336" cy="106.769" r="13.1118" transform="rotate(-90 111.336 106.769)" fill="#FFF5E7" stroke="#FFB100"/>
<circle cx="113.513" cy="13.7505" r="13.1118" transform="rotate(-90 113.513 13.7505)" fill="#FFF5E7" stroke="#FFB100"/>
<rect x="1.46411" y="106.27" width="92.0198" height="138.462" rx="4.07544" transform="rotate(-90 1.46411 106.27)" fill="#FFF6E2" stroke="#FFB100"/>
<path d="M58.1153 67.6943V65.5887L63.7015 60.1125C64.2357 59.573 64.681 59.0937 65.0371 58.6747C65.3933 58.2556 65.6605 57.8497 65.8385 57.4568C66.0166 57.064 66.1057 56.645 66.1057 56.1998C66.1057 55.6917 65.9904 55.2569 65.76 54.8955C65.5295 54.5289 65.2126 54.246 64.8093 54.047C64.406 53.8479 63.9477 53.7484 63.4343 53.7484C62.9053 53.7484 62.4418 53.8584 62.0437 54.0784C61.6456 54.2932 61.3366 54.5996 61.1166 54.9977C60.9018 55.3957 60.7944 55.8698 60.7944 56.4197H58.021C58.021 55.3984 58.2541 54.5105 58.7202 53.7563C59.1864 53.002 59.828 52.418 60.6452 52.0042C61.4675 51.5904 62.4103 51.3835 63.4736 51.3835C64.5526 51.3835 65.5007 51.5852 66.3178 51.9885C67.1349 52.3918 67.7687 52.9444 68.2192 53.6463C68.6749 54.3482 68.9027 55.1496 68.9027 56.0505C68.9027 56.6528 68.7875 57.2447 68.557 57.8261C68.3265 58.4075 67.9206 59.0518 67.3392 59.7589C66.763 60.466 65.9538 61.3224 64.9114 62.3281L62.138 65.1487V65.2587H69.1463V67.6943H58.1153ZM71.8569 67.6943V65.5887L77.4431 60.1125C77.9774 59.573 78.4226 59.0937 78.7788 58.6747C79.135 58.2556 79.4021 57.8497 79.5802 57.4568C79.7583 57.064 79.8473 56.645 79.8473 56.1998C79.8473 55.6917 79.7321 55.2569 79.5016 54.8955C79.2712 54.5289 78.9543 54.246 78.5509 54.047C78.1476 53.8479 77.6893 53.7484 77.176 53.7484C76.647 53.7484 76.1834 53.8584 75.7853 54.0784C75.3872 54.2932 75.0782 54.5996 74.8582 54.9977C74.6435 55.3957 74.5361 55.8698 74.5361 56.4197H71.7626C71.7626 55.3984 71.9957 54.5105 72.4619 53.7563C72.928 53.002 73.5697 52.418 74.3868 52.0042C75.2092 51.5904 76.152 51.3835 77.2153 51.3835C78.2943 51.3835 79.2423 51.5852 80.0595 51.9885C80.8766 52.3918 81.5104 52.9444 81.9608 53.6463C82.4165 54.3482 82.6444 55.1496 82.6444 56.0505C82.6444 56.6528 82.5291 57.2447 82.2987 57.8261C82.0682 58.4075 81.6623 59.0518 81.0808 59.7589C80.5047 60.466 79.6954 61.3224 78.6531 62.3281L75.8796 65.1487V65.2587H82.8879V67.6943H71.8569Z" fill="#ECB22E"/>
</svg>
