<svg width="141" height="89" viewBox="0 0 141 89" fill="none" xmlns="http://www.w3.org/2000/svg">
<circle cx="13.8952" cy="27.5874" r="13.4038" fill="#FFF5E7" stroke="#ECB22E" stroke-width="0.415949"/>
<circle cx="126.642" cy="27.5874" r="13.4038" fill="#FFF5E7" stroke="#ECB22E" stroke-width="0.415949"/>
<circle cx="14.1164" cy="62.7739" r="13.4038" fill="#FFF5E7" stroke="#ECB22E" stroke-width="0.415949"/>
<circle cx="126.863" cy="62.7739" r="13.4038" fill="#FFF5E7" stroke="#ECB22E" stroke-width="0.415949"/>
<rect x="13.5573" y="0.578058" width="112.906" height="87.2608" rx="4.15949" fill="#FFF6E2" stroke="#ECB22E" stroke-width="0.831898"/>
<path d="M62.7796 35.8037V51.8945H59.8647V38.64H59.7705L56.007 41.0442V38.3729L60.0062 35.8037H62.7796ZM72.7579 52.1145C71.9879 52.1093 71.2362 51.9757 70.5029 51.7138C69.7696 51.4467 69.1097 51.0146 68.523 50.4174C67.9364 49.8151 67.4702 49.0163 67.1245 48.0211C66.7788 47.0207 66.6086 45.7819 66.6138 44.3048C66.6138 42.9272 66.7605 41.6989 67.0538 40.6199C67.3471 39.5409 67.7687 38.6295 68.3187 37.8858C68.8687 37.1367 69.5313 36.5658 70.3065 36.173C71.087 35.7801 71.9591 35.5837 72.9228 35.5837C73.9338 35.5837 74.8294 35.7827 75.6099 36.1808C76.3956 36.5789 77.0294 37.1236 77.5113 37.815C77.9931 38.5012 78.2917 39.2764 78.4069 40.1407H75.5392C75.3925 39.5226 75.0913 39.0302 74.6356 38.6636C74.1852 38.2917 73.6143 38.1057 72.9228 38.1057C71.8072 38.1057 70.9482 38.5903 70.3458 39.5593C69.7487 40.5283 69.4475 41.8587 69.4423 43.5505H69.5523C69.8089 43.0896 70.1415 42.6941 70.5501 42.3642C70.9586 42.0342 71.4196 41.7801 71.9329 41.602C72.4514 41.4187 72.9988 41.3271 73.575 41.3271C74.5178 41.3271 75.3637 41.5523 76.1127 42.0027C76.867 42.4532 77.4641 43.0739 77.9041 43.8648C78.3441 44.6505 78.5615 45.5514 78.5562 46.5676C78.5615 47.6256 78.3205 48.5763 77.8334 49.4196C77.3463 50.2577 76.668 50.9177 75.7985 51.3995C74.929 51.8814 73.9154 52.1198 72.7579 52.1145ZM72.7421 49.7575C73.3131 49.7575 73.8238 49.6187 74.2742 49.3411C74.7247 49.0634 75.0809 48.6889 75.3428 48.2175C75.6047 47.7461 75.733 47.2171 75.7277 46.6304C75.733 46.0543 75.6073 45.5331 75.3506 45.0669C75.0992 44.6007 74.7509 44.2315 74.3057 43.9591C73.8604 43.6867 73.3524 43.5505 72.7814 43.5505C72.3572 43.5505 71.9617 43.6317 71.595 43.7941C71.2284 43.9565 70.9089 44.1817 70.6365 44.4698C70.3641 44.7526 70.1494 45.0826 69.9922 45.4598C69.8403 45.8317 69.7618 46.2297 69.7565 46.654C69.7618 47.2145 69.8927 47.7304 70.1494 48.2018C70.406 48.6732 70.7596 49.0503 71.2101 49.3332C71.6605 49.616 72.1712 49.7575 72.7421 49.7575Z" fill="#ECB22E"/>
</svg>
