<svg width="74" height="123" viewBox="0 0 74 123" fill="none" xmlns="http://www.w3.org/2000/svg">
<path d="M21.0121 0.924869C28.0565 0.924869 33.7837 6.91652 33.7837 14.3287C33.7837 21.7408 28.0565 27.7325 21.0121 27.7325C13.9677 27.7325 8.24041 21.7408 8.24041 14.3287C8.24041 6.91652 13.9677 0.924869 21.0121 0.924869Z" fill="#FFF5E7" stroke="#ECB22E" stroke-width="0.415949"/>
<path d="M22.7159 95.1036C30.0878 95.1036 36.0653 101.104 36.0653 108.507C36.0653 115.911 30.0878 121.911 22.716 121.911C15.3441 121.911 9.36657 115.911 9.36657 108.507C9.36657 101.104 15.3441 95.1036 22.7159 95.1036Z" fill="#FFF5E7" stroke="#ECB22E" stroke-width="0.415949"/>
<path d="M52.7946 0.924869C59.7323 0.924869 65.3782 6.91358 65.3782 14.3287C65.3782 21.7437 59.7323 27.7325 52.7946 27.7325C45.8569 27.7325 40.2111 21.7437 40.2111 14.3287C40.2111 6.91359 45.8569 0.924869 52.7946 0.924869Z" fill="#FFF5E7" stroke="#ECB22E" stroke-width="0.415949"/>
<path d="M53.5604 95.1036C60.9322 95.1036 66.9097 101.104 66.9097 108.507C66.9097 115.911 60.9322 121.911 53.5604 121.911C46.1885 121.911 40.211 115.911 40.211 108.507C40.211 101.104 46.1885 95.1036 53.5604 95.1036Z" fill="#FFF5E7" stroke="#ECB22E" stroke-width="0.415949"/>
<rect x="1.26769" y="106.931" width="92.1879" height="71.4589" rx="4.15949" transform="rotate(-90 1.26769 106.931)" fill="#FFF6E2" stroke="#ECB22E" stroke-width="0.831898"/>
<path opacity="0.5" d="M36.1894 70.428C35.1418 70.428 34.2042 70.2316 33.3767 69.8387C32.5491 69.4407 31.8917 68.8959 31.4046 68.2045C30.9227 67.5131 30.666 66.7222 30.6346 65.8317H33.4631C33.5155 66.4917 33.8009 67.0312 34.3195 67.4503C34.838 67.864 35.4613 68.0709 36.1894 68.0709C36.7603 68.0709 37.2684 67.94 37.7136 67.6781C38.1589 67.4162 38.5098 67.0522 38.7665 66.586C39.0231 66.1198 39.1488 65.5882 39.1436 64.9911C39.1488 64.3835 39.0205 63.844 38.7586 63.3725C38.4967 62.9011 38.1379 62.5319 37.6822 62.2647C37.2265 61.9924 36.7027 61.8562 36.1108 61.8562C35.629 61.8509 35.1549 61.94 34.6888 62.1233C34.2226 62.3066 33.8533 62.5476 33.5809 62.8461L30.9489 62.414L31.7896 54.1172H41.1235V56.5528H34.2016L33.7381 60.8191H33.8324C34.1309 60.4681 34.5526 60.1774 35.0973 59.9469C35.6421 59.7112 36.2392 59.5934 36.8887 59.5934C37.8629 59.5934 38.7324 59.8239 39.4972 60.2848C40.2619 60.7405 40.8642 61.369 41.3042 62.1704C41.7442 62.9718 41.9642 63.8885 41.9642 64.9203C41.9642 65.9836 41.718 66.9317 41.2257 67.7645C40.7385 68.5921 40.0602 69.2442 39.1907 69.7209C38.3265 70.1923 37.326 70.428 36.1894 70.428Z" fill="#ECB22E"/>
</svg>
