<svg width="69" height="111" viewBox="0 0 69 111" fill="none" xmlns="http://www.w3.org/2000/svg">
<circle cx="47.39" cy="11.3981" r="10.4142" transform="rotate(90 47.39 11.3981)" fill="#FFF5E7" stroke="#ECB22E" stroke-width="0.323175"/>
<circle cx="47.39" cy="99.7018" r="10.4142" transform="rotate(90 47.39 99.7018)" fill="#FFF5E7" stroke="#ECB22E" stroke-width="0.323175"/>
<circle cx="20.0521" cy="11.5699" r="10.4142" transform="rotate(90 20.0521 11.5699)" fill="#FFF5E7" stroke="#ECB22E" stroke-width="0.323175"/>
<circle cx="20.0521" cy="99.8736" r="10.4142" transform="rotate(90 20.0521 99.8736)" fill="#FFF5E7" stroke="#ECB22E" stroke-width="0.323175"/>
<rect x="68.3754" y="11.1357" width="87.7234" height="67.7981" rx="3.23175" transform="rotate(90 68.3754 11.1357)" fill="#FFF6E2" stroke="#ECB22E" stroke-width="0.646351"/>
<path d="M30.8152 47.0186L30.8152 59.5205L28.5505 59.5205L28.5505 49.2223L28.4772 49.2223L25.5532 51.0902L25.5532 49.0147L28.6604 47.0186L30.8152 47.0186ZM38.3359 59.6914C37.522 59.6914 36.7935 59.5388 36.1505 59.2336C35.5075 58.9243 34.9968 58.5011 34.6183 57.9639C34.2439 57.4267 34.0445 56.8122 34.0201 56.1203L36.2177 56.1203C36.2584 56.6331 36.4802 57.0523 36.8831 57.3778C37.286 57.6993 37.7702 57.8601 38.3359 57.8601C38.7795 57.8601 39.1743 57.7584 39.5202 57.5549C39.8661 57.3514 40.1388 57.0686 40.3382 56.7064C40.5376 56.3442 40.6353 55.9311 40.6312 55.4671C40.6353 54.9951 40.5356 54.5759 40.3321 54.2096C40.1286 53.8434 39.8498 53.5565 39.4958 53.3489C39.1417 53.1373 38.7347 53.0315 38.2749 53.0315C37.9005 53.0274 37.5322 53.0966 37.17 53.239C36.8078 53.3815 36.5209 53.5687 36.3092 53.8006L34.2642 53.4649L34.9174 47.0186L42.1695 47.0186L42.1695 48.911L36.7915 48.911L36.4313 52.2257L36.5046 52.2257C36.7366 51.953 37.0642 51.7272 37.4874 51.5481C37.9106 51.365 38.3746 51.2734 38.8792 51.2734C39.6362 51.2734 40.3117 51.4525 40.9059 51.8106C41.5001 52.1646 41.9681 52.653 42.3099 53.2756C42.6518 53.8983 42.8227 54.6105 42.8227 55.4122C42.8227 56.2383 42.6314 56.975 42.2489 57.622C41.8704 58.265 41.3434 58.7717 40.6678 59.142C39.9963 59.5083 39.219 59.6914 38.3359 59.6914Z" fill="#ECB22E"/>
</svg>
