<svg width="142" height="89" viewBox="0 0 142 89" fill="none" xmlns="http://www.w3.org/2000/svg">
<circle cx="14.4431" cy="27.4594" r="13.4038" fill="#FFF5E7" stroke="#ECB22E" stroke-width="0.415949"/>
<circle cx="128.096" cy="27.4594" r="13.4038" fill="#FFF5E7" stroke="#ECB22E" stroke-width="0.415949"/>
<circle cx="14.6643" cy="62.645" r="13.4038" fill="#FFF5E7" stroke="#ECB22E" stroke-width="0.415949"/>
<circle cx="128.317" cy="62.645" r="13.4038" fill="#FFF5E7" stroke="#ECB22E" stroke-width="0.415949"/>
<rect x="14.1054" y="0.449152" width="112.906" height="87.2608" rx="4.15949" fill="#FFF6E2" stroke="#ECB22E" stroke-width="0.831898"/>
<path d="M63.326 35.6758V51.7666H60.4111V38.5121H60.3169L56.5534 40.9163V38.2449L60.5526 35.6758H63.326ZM73.0057 51.9866C71.9581 51.9866 71.0205 51.7902 70.1929 51.3973C69.3653 50.9992 68.708 50.4545 68.2209 49.7631C67.739 49.0717 67.4823 48.2808 67.4509 47.3903H70.2794C70.3317 48.0503 70.6172 48.5898 71.1357 49.0088C71.6543 49.4226 72.2776 49.6295 73.0057 49.6295C73.5766 49.6295 74.0847 49.4986 74.5299 49.2367C74.9751 48.9748 75.3261 48.6108 75.5827 48.1446C75.8394 47.6784 75.9651 47.1468 75.9599 46.5496C75.9651 45.942 75.8368 45.4025 75.5749 44.9311C75.313 44.4597 74.9542 44.0905 74.4985 43.8233C74.0428 43.5509 73.519 43.4148 72.9271 43.4148C72.4452 43.4095 71.9712 43.4986 71.505 43.6819C71.0388 43.8652 70.6696 44.1062 70.3972 44.4047L67.7652 43.9726L68.6058 35.6758H77.9398V38.1114H71.0179L70.5543 42.3777H70.6486C70.9472 42.0267 71.3688 41.736 71.9136 41.5055C72.4583 41.2698 73.0554 41.152 73.7049 41.152C74.6792 41.152 75.5487 41.3825 76.3134 41.8434C77.0782 42.2991 77.6805 42.9276 78.1205 43.729C78.5605 44.5304 78.7805 45.4471 78.7805 46.4789C78.7805 47.5422 78.5343 48.4903 78.0419 49.3231C77.5548 50.1507 76.8765 50.8028 76.007 51.2795C75.1427 51.7509 74.1423 51.9866 73.0057 51.9866Z" fill="#ECB22E"/>
</svg>
