<svg width="141" height="121" viewBox="0 0 141 121" fill="none" xmlns="http://www.w3.org/2000/svg">
<circle cx="28.8491" cy="107.332" r="13.4038" transform="rotate(-90 28.8491 107.332)" fill="#FFF5E7" stroke="#ECB22E" stroke-width="0.415949"/>
<circle cx="31.0235" cy="14.313" r="13.4038" transform="rotate(-90 31.0235 14.313)" fill="#FFF5E7" stroke="#ECB22E" stroke-width="0.415949"/>
<circle cx="68.8689" cy="107.332" r="13.4038" transform="rotate(-90 68.8689 107.332)" fill="#FFF5E7" stroke="#ECB22E" stroke-width="0.415949"/>
<circle cx="71.0458" cy="14.313" r="13.4038" transform="rotate(-90 71.0458 14.313)" fill="#FFF5E7" stroke="#ECB22E" stroke-width="0.415949"/>
<circle cx="111.336" cy="107.332" r="13.4038" transform="rotate(-90 111.336 107.332)" fill="#FFF5E7" stroke="#ECB22E" stroke-width="0.415949"/>
<circle cx="113.513" cy="14.313" r="13.4038" transform="rotate(-90 113.513 14.313)" fill="#FFF5E7" stroke="#ECB22E" stroke-width="0.415949"/>
<rect x="1.38006" y="106.916" width="92.1879" height="138.63" rx="4.15949" transform="rotate(-90 1.38006 106.916)" fill="#FFF6E2" stroke="#ECB22E" stroke-width="0.831898"/>
<path d="M59.6153 69.7559V67.6502L65.2015 62.174C65.7357 61.6345 66.181 61.1552 66.5371 60.7362C66.8933 60.3172 67.1605 59.9112 67.3385 59.5184C67.5166 59.1255 67.6057 58.7065 67.6057 58.2613C67.6057 57.7532 67.4904 57.3185 67.26 56.957C67.0295 56.5904 66.7126 56.3075 66.3093 56.1085C65.906 55.9095 65.4477 55.8099 64.9343 55.8099C64.4053 55.8099 63.9418 55.9199 63.5437 56.1399C63.1456 56.3547 62.8366 56.6611 62.6166 57.0592C62.4018 57.4573 62.2944 57.9313 62.2944 58.4813H59.521C59.521 57.4599 59.7541 56.572 60.2202 55.8178C60.6864 55.0635 61.328 54.4795 62.1452 54.0657C62.9675 53.6519 63.9103 53.445 64.9736 53.445C66.0526 53.445 67.0007 53.6467 67.8178 54.05C68.6349 54.4533 69.2687 55.0059 69.7192 55.7078C70.1749 56.4097 70.4027 57.2111 70.4027 58.112C70.4027 58.7144 70.2875 59.3062 70.057 59.8876C69.8265 60.4691 69.4206 61.1133 68.8392 61.8204C68.263 62.5275 67.4538 63.3839 66.4114 64.3896L63.638 67.2102V67.3202H70.6463V69.7559H59.6153ZM79.9017 53.665V69.7559H76.9868V56.5013H76.8925L73.129 58.9055V56.2342L77.1282 53.665H79.9017Z" fill="#ECB22E"/>
</svg>
