<svg width="73" height="122" viewBox="0 0 73 122" fill="none" xmlns="http://www.w3.org/2000/svg">
<path d="M20.5982 0.57526C27.6425 0.575259 33.3698 6.56691 33.3698 13.9791C33.3698 21.3912 27.6425 27.3828 20.5982 27.3828C13.5538 27.3828 7.8265 21.3912 7.8265 13.9791C7.8265 6.56691 13.5538 0.57526 20.5982 0.57526Z" fill="#FFF5E7" stroke="#ECB22E" stroke-width="0.415949"/>
<path d="M22.3021 94.754C29.674 94.754 35.6515 100.754 35.6515 108.158C35.6515 115.561 29.674 121.562 22.3021 121.562C14.9302 121.562 8.95273 115.561 8.95272 108.158C8.95272 100.754 14.9302 94.754 22.3021 94.754Z" fill="#FFF5E7" stroke="#ECB22E" stroke-width="0.415949"/>
<path d="M52.3807 0.57526C59.3184 0.575259 64.9643 6.56398 64.9643 13.9791C64.9643 21.3941 59.3184 27.3828 52.3807 27.3828C45.443 27.3828 39.7972 21.3941 39.7972 13.9791C39.7972 6.56398 45.443 0.57526 52.3807 0.57526Z" fill="#FFF5E7" stroke="#ECB22E" stroke-width="0.415949"/>
<path d="M53.1465 94.754C60.5184 94.754 66.4959 100.754 66.4959 108.158C66.4959 115.561 60.5184 121.562 53.1465 121.562C45.7746 121.562 39.7971 115.561 39.7971 108.158C39.7971 100.754 45.7746 94.754 53.1465 94.754Z" fill="#FFF5E7" stroke="#ECB22E" stroke-width="0.415949"/>
<rect x="0.853815" y="106.581" width="92.1879" height="71.4589" rx="4.15949" transform="rotate(-90 0.853815 106.581)" fill="#FFF6E2" stroke="#ECB22E" stroke-width="0.831898"/>
<path d="M31.499 53.7666V69.8574H28.5841V56.6029H28.4898L24.7264 59.0071V56.3358L28.7255 53.7666H31.499ZM42.1293 53.7666V69.8574H39.2144V56.6029H39.1202L35.3567 59.0071V56.3358L39.3559 53.7666H42.1293Z" fill="#ECB22E"/>
</svg>
