<svg width="94" height="110" viewBox="0 0 94 110" fill="none" xmlns="http://www.w3.org/2000/svg">
<circle cx="11.0757" cy="22.5152" r="10.4158" fill="#FFF5E7" stroke="#ECB22E" stroke-width="0.32"/>
<circle cx="83.3474" cy="24.2047" r="10.4158" fill="#FFF5E7" stroke="#ECB22E" stroke-width="0.32"/>
<circle cx="11.0757" cy="53.609" r="10.4158" fill="#FFF5E7" stroke="#ECB22E" stroke-width="0.32"/>
<circle cx="83.3474" cy="55.3004" r="10.4158" fill="#FFF5E7" stroke="#ECB22E" stroke-width="0.32"/>
<circle cx="11.0757" cy="86.6041" r="10.4158" fill="#FFF5E7" stroke="#ECB22E" stroke-width="0.32"/>
<circle cx="83.3474" cy="88.2955" r="10.4158" fill="#FFF5E7" stroke="#ECB22E" stroke-width="0.32"/>
<rect x="11.4007" y="1.17461" width="71.6226" height="107.706" rx="3.22993" fill="#FFF6E2" stroke="#ECB22E" stroke-width="0.65"/>
<path d="M37.496 61.6465V60.0105L41.8363 55.7557C42.2514 55.3365 42.5973 54.9641 42.8741 54.6386C43.1508 54.313 43.3583 53.9976 43.4967 53.6924C43.6351 53.3872 43.7043 53.0616 43.7043 52.7157C43.7043 52.3209 43.6147 51.9831 43.4357 51.7023C43.2566 51.4174 43.0104 51.1977 42.697 51.043C42.3837 50.8884 42.0276 50.8111 41.6287 50.8111C41.2177 50.8111 40.8575 50.8965 40.5483 51.0675C40.239 51.2343 39.9988 51.4724 39.8279 51.7817C39.6611 52.091 39.5776 52.4593 39.5776 52.8866H37.4228C37.4228 52.093 37.6039 51.4032 37.9661 50.8172C38.3283 50.2311 38.8268 49.7774 39.4617 49.4559C40.1006 49.1344 40.8331 48.9736 41.6593 48.9736C42.4976 48.9736 43.2342 49.1303 43.8691 49.4437C44.5039 49.757 44.9964 50.1864 45.3464 50.7317C45.7004 51.277 45.8774 51.8997 45.8774 52.5997C45.8774 53.0677 45.7879 53.5276 45.6088 53.9793C45.4298 54.431 45.1144 54.9316 44.6627 55.481C44.215 56.0304 43.5862 56.6958 42.7764 57.4771L40.6215 59.6686V59.7541H46.0667V61.6465H37.496ZM48.1727 61.6465V60.0105L52.513 55.7557C52.9281 55.3365 53.274 54.9641 53.5507 54.6386C53.8275 54.313 54.035 53.9976 54.1734 53.6924C54.3118 53.3872 54.381 53.0616 54.381 52.7157C54.381 52.3209 54.2914 51.9831 54.1124 51.7023C53.9333 51.4174 53.6871 51.1977 53.3737 51.043C53.0604 50.8884 52.7043 50.8111 52.3054 50.8111C51.8944 50.8111 51.5342 50.8965 51.2249 51.0675C50.9157 51.2343 50.6755 51.4724 50.5046 51.7817C50.3378 52.091 50.2543 52.4593 50.2543 52.8866H48.0995C48.0995 52.093 48.2806 51.4032 48.6428 50.8172C49.005 50.2311 49.5035 49.7774 50.1384 49.4559C50.7773 49.1344 51.5098 48.9736 52.336 48.9736C53.1743 48.9736 53.9109 49.1303 54.5458 49.4437C55.1806 49.757 55.6731 50.1864 56.0231 50.7317C56.3771 51.277 56.5541 51.8997 56.5541 52.5997C56.5541 53.0677 56.4646 53.5276 56.2855 53.9793C56.1065 54.431 55.7911 54.9316 55.3394 55.481C54.8917 56.0304 54.2629 56.6958 53.4531 57.4771L51.2982 59.6686V59.7541H56.7434V61.6465H48.1727Z" fill="#ECB22E"/>
</svg>
