<svg width="93" height="103" viewBox="0 0 93 103" fill="none" xmlns="http://www.w3.org/2000/svg">
<circle cx="32.1093" cy="11.5491" r="10.4142" transform="rotate(-89.6419 32.1093 11.5491)" fill="#FFF5E7" stroke="#ECB22E" stroke-width="0.323175"/>
<circle cx="32.1093" cy="91.6966" r="10.4142" transform="rotate(-89.6419 32.1093 91.6966)" fill="#FFF5E7" stroke="#ECB22E" stroke-width="0.323175"/>
<circle cx="59.447" cy="11.5491" r="10.4142" transform="rotate(-89.6419 59.447 11.5491)" fill="#FFF5E7" stroke="#ECB22E" stroke-width="0.323175"/>
<circle cx="59.447" cy="91.6966" r="10.4142" transform="rotate(-89.6419 59.447 91.6966)" fill="#FFF5E7" stroke="#ECB22E" stroke-width="0.323175"/>
<rect x="0.564264" y="91.7638" width="80.0853" height="90.8543" rx="3.23175" transform="rotate(-89.6419 0.564264 91.7638)" fill="#FFF6E2" stroke="#ECB22E" stroke-width="0.646351"/>
<path d="M46.203 58.794C45.3891 58.794 44.6606 58.6414 44.0176 58.3361C43.3746 58.0268 42.8639 57.6036 42.4854 57.0664C42.111 56.5292 41.9116 55.9147 41.8871 55.2229H44.0847C44.1254 55.7356 44.3472 56.1548 44.7501 56.4804C45.153 56.8019 45.6373 56.9626 46.203 56.9626C46.6466 56.9626 47.0413 56.8609 47.3873 56.6574C47.7332 56.4539 48.0058 56.1711 48.2053 55.8089C48.4047 55.4467 48.5023 55.0336 48.4983 54.5697C48.5023 54.0976 48.4026 53.6784 48.1991 53.3122C47.9957 52.9459 47.7169 52.659 47.3628 52.4514C47.0088 52.2398 46.6018 52.134 46.1419 52.134C45.7675 52.1299 45.3992 52.1991 45.037 52.3416C44.6748 52.484 44.3879 52.6712 44.1763 52.9032L42.1313 52.5674L42.7845 46.1211H50.0366V48.0135H44.6586L44.2984 51.3282H44.3717C44.6036 51.0556 44.9312 50.8297 45.3545 50.6506C45.7777 50.4675 46.2417 50.3759 46.7463 50.3759C47.5032 50.3759 48.1788 50.555 48.773 50.9131C49.3671 51.2672 49.8351 51.7555 50.177 52.3782C50.5188 53.0008 50.6898 53.713 50.6898 54.5147C50.6898 55.3409 50.4985 56.0775 50.1159 56.7246C49.7375 57.3676 49.2105 57.8742 48.5349 58.2446C47.8634 58.6108 47.0861 58.794 46.203 58.794Z" fill="#ECB22E"/>
</svg>
