<svg width="74" height="57" viewBox="0 0 74 57" fill="none" xmlns="http://www.w3.org/2000/svg">
<path d="M73.3425 16.779C73.3425 22.2522 68.6873 26.702 62.9283 26.702C57.1694 26.702 52.5141 22.2522 52.5141 16.779C52.5141 11.3058 57.1694 6.85592 62.9283 6.85592C68.6873 6.85592 73.3425 11.3058 73.3425 16.779Z" fill="#FFF5E7" stroke="#ECB22E" stroke-width="0.323175"/>
<path d="M21.467 14.3714C21.467 20.099 16.805 24.7433 11.0528 24.7433C5.30059 24.7433 0.638608 20.099 0.638608 14.3714C0.638608 8.64376 5.30059 3.99948 11.0528 3.99948C16.805 3.99948 21.467 8.64376 21.467 14.3714Z" fill="#FFF5E7" stroke="#ECB22E" stroke-width="0.323175"/>
<path d="M73.3425 41.4727C73.3425 46.863 68.6895 51.2495 62.9283 51.2495C57.1671 51.2495 52.5141 46.863 52.5141 41.4727C52.5141 36.0823 57.1671 31.6958 62.9283 31.6958C68.6895 31.6958 73.3425 36.0823 73.3425 41.4727Z" fill="#FFF5E7" stroke="#ECB22E" stroke-width="0.323175"/>
<path d="M21.467 38.3362C21.467 44.0639 16.805 48.7082 11.0528 48.7082C5.30059 48.7082 0.638608 44.0639 0.638608 38.3362C0.638608 32.6086 5.30059 27.9643 11.0528 27.9643C16.805 27.9643 21.467 32.6086 21.467 38.3362Z" fill="#FFF5E7" stroke="#ECB22E" stroke-width="0.323175"/>
<rect x="11.3761" y="0.928644" width="48.2799" height="55.5206" rx="3.23175" fill="#FFF6E2" stroke="#ECB22E" stroke-width="0.646351"/>
<path d="M35.5222 35.1143C34.6147 35.1143 33.8089 34.9617 33.1049 34.6564C32.4049 34.3512 31.8555 33.9341 31.4566 33.405C31.0619 32.8719 30.8666 32.2676 30.8706 31.592C30.8666 31.067 30.9805 30.5848 31.2125 30.1453C31.4444 29.7057 31.7578 29.3395 32.1526 29.0465C32.5514 28.7494 32.995 28.5601 33.4833 28.4787V28.3933C32.8403 28.2508 32.3194 27.9232 31.9206 27.4105C31.5258 26.8936 31.3305 26.2974 31.3346 25.6218C31.3305 24.9788 31.5096 24.405 31.8718 23.9004C32.2339 23.3958 32.7304 22.999 33.3612 22.71C33.992 22.417 34.7124 22.2705 35.5222 22.2705C36.3239 22.2705 37.0382 22.417 37.6649 22.71C38.2957 22.999 38.7922 23.3958 39.1544 23.9004C39.5206 24.405 39.7038 24.9788 39.7038 25.6218C39.7038 26.2974 39.5023 26.8936 39.0994 27.4105C38.7006 27.9232 38.1858 28.2508 37.555 28.3933V28.4787C38.0434 28.5601 38.4829 28.7494 38.8736 29.0465C39.2683 29.3395 39.5817 29.7057 39.8137 30.1453C40.0497 30.5848 40.1677 31.067 40.1677 31.592C40.1677 32.2676 39.9683 32.8719 39.5695 33.405C39.1706 33.9341 38.6212 34.3512 37.9213 34.6564C37.2254 34.9617 36.4257 35.1143 35.5222 35.1143ZM35.5222 33.3684C35.9902 33.3684 36.3972 33.2891 36.7431 33.1303C37.089 32.9675 37.3576 32.7396 37.5489 32.4466C37.7402 32.1536 37.8378 31.8158 37.8419 31.4333C37.8378 31.0345 37.7341 30.6824 37.5306 30.3772C37.3312 30.0679 37.0565 29.8258 36.7065 29.6508C36.3606 29.4758 35.9658 29.3883 35.5222 29.3883C35.0746 29.3883 34.6757 29.4758 34.3257 29.6508C33.9758 29.8258 33.699 30.0679 33.4955 30.3772C33.2961 30.6824 33.1985 31.0345 33.2025 31.4333C33.1985 31.8158 33.2921 32.1536 33.4833 32.4466C33.6746 32.7356 33.9432 32.9614 34.2891 33.1242C34.6391 33.287 35.0501 33.3684 35.5222 33.3684ZM35.5222 27.6729C35.9048 27.6729 36.2425 27.5956 36.5356 27.441C36.8326 27.2863 37.0666 27.0706 37.2376 26.7939C37.4085 26.5172 37.496 26.1977 37.5001 25.8355C37.496 25.4774 37.4105 25.164 37.2437 24.8954C37.0768 24.6228 36.8449 24.4132 36.5478 24.2667C36.2507 24.1161 35.9088 24.0408 35.5222 24.0408C35.1275 24.0408 34.7795 24.1161 34.4784 24.2667C34.1813 24.4132 33.9493 24.6228 33.7824 24.8954C33.6197 25.164 33.5403 25.4774 33.5444 25.8355C33.5403 26.1977 33.6217 26.5172 33.7886 26.7939C33.9595 27.0666 34.1935 27.2823 34.4906 27.441C34.7917 27.5956 35.1356 27.6729 35.5222 27.6729Z" fill="#ECB22E"/>
</svg>
