<svg width="95" height="110" viewBox="0 0 95 110" fill="none" xmlns="http://www.w3.org/2000/svg">
<circle cx="11.4989" cy="22.5152" r="10.4142" fill="#FFF5E7" stroke="#ECB22E" stroke-width="0.323175"/>
<circle cx="83.7705" cy="24.2047" r="10.4142" fill="#FFF5E7" stroke="#ECB22E" stroke-width="0.323175"/>
<circle cx="11.4989" cy="53.609" r="10.4142" fill="#FFF5E7" stroke="#ECB22E" stroke-width="0.323175"/>
<circle cx="83.7705" cy="55.3004" r="10.4142" fill="#FFF5E7" stroke="#ECB22E" stroke-width="0.323175"/>
<circle cx="11.4989" cy="86.6041" r="10.4142" fill="#FFF5E7" stroke="#ECB22E" stroke-width="0.323175"/>
<circle cx="83.7705" cy="88.2955" r="10.4142" fill="#FFF5E7" stroke="#ECB22E" stroke-width="0.323175"/>
<rect x="11.822" y="1.17278" width="71.6263" height="107.71" rx="3.23175" fill="#FFF6E2" stroke="#ECB22E" stroke-width="0.646351"/>
<path d="M37.9201 61.6465V60.0105L42.2604 55.7557C42.6755 55.3365 43.0214 54.9641 43.2981 54.6386C43.5749 54.313 43.7824 53.9976 43.9208 53.6924C44.0592 53.3872 44.1283 53.0616 44.1283 52.7157C44.1283 52.3209 44.0388 51.9831 43.8597 51.7023C43.6807 51.4174 43.4345 51.1977 43.1211 51.043C42.8077 50.8884 42.4517 50.8111 42.0528 50.8111C41.6418 50.8111 41.2816 50.8965 40.9723 51.0675C40.663 51.2343 40.4229 51.4724 40.252 51.7817C40.0852 52.091 40.0017 52.4593 40.0017 52.8866H37.8469C37.8469 52.093 38.028 51.4032 38.3902 50.8172C38.7524 50.2311 39.2509 49.7774 39.8857 49.4559C40.5247 49.1344 41.2572 48.9736 42.0834 48.9736C42.9217 48.9736 43.6583 49.1303 44.2932 49.4437C44.928 49.757 45.4205 50.1864 45.7704 50.7317C46.1245 51.277 46.3015 51.8997 46.3015 52.5997C46.3015 53.0677 46.212 53.5276 46.0329 53.9793C45.8539 54.431 45.5385 54.9316 45.0867 55.481C44.6391 56.0304 44.0103 56.6958 43.2005 57.4771L41.0456 59.6686V59.7541H46.4908V61.6465H37.9201ZM53.6818 49.1446V61.6465H51.4171V51.3483H51.3438L48.4198 53.2162V51.1407L51.5269 49.1446H53.6818Z" fill="#ECB22E"/>
</svg>
