<svg width="119" height="123" viewBox="0 0 119 123" fill="none" xmlns="http://www.w3.org/2000/svg">
<circle cx="41.3571" cy="13.8863" r="13.4038" transform="rotate(-90 41.3571 13.8863)" fill="#FFF5E7" stroke="#ECB22E" stroke-width="0.415949"/>
<circle cx="41.3572" cy="108.769" r="13.4038" transform="rotate(-90 41.3572 108.769)" fill="#FFF5E7" stroke="#ECB22E" stroke-width="0.415949"/>
<circle cx="78.3766" cy="17.6119" r="13.4038" transform="rotate(-90 78.3766 17.6119)" fill="#FFF5E7" stroke="#ECB22E" stroke-width="0.415949"/>
<circle cx="78.3768" cy="108.769" r="13.4038" transform="rotate(-90 78.3768 108.769)" fill="#FFF5E7" stroke="#ECB22E" stroke-width="0.415949"/>
<rect x="1.39952" y="106.49" width="92.1879" height="116.936" rx="4.15949" transform="rotate(-90 1.39952 106.49)" fill="#FFF6E2" stroke="#ECB22E" stroke-width="0.831898"/>
<path d="M55.3313 51.7822V67.873H52.4164V54.6185H52.3221L48.5587 57.0227V54.3514L52.5579 51.7822H55.3313ZM65.1367 68.093C63.9686 68.093 62.9315 67.8966 62.0254 67.5038C61.1244 67.1109 60.4173 66.574 59.904 65.8931C59.3959 65.207 59.1445 64.4291 59.1498 63.5596C59.1445 62.8839 59.2912 62.2632 59.5897 61.6976C59.8883 61.1319 60.2916 60.6605 60.7997 60.2833C61.313 59.901 61.8839 59.6574 62.5125 59.5526V59.4426C61.6849 59.2593 61.0145 58.8377 60.5011 58.1777C59.9931 57.5125 59.7416 56.7451 59.7469 55.8756C59.7416 55.048 59.9721 54.3095 60.4383 53.66C60.9045 53.0105 61.5435 52.4998 62.3554 52.1279C63.1672 51.7508 64.0943 51.5622 65.1367 51.5622C66.1686 51.5622 67.0878 51.7508 67.8944 52.1279C68.7063 52.4998 69.3453 53.0105 69.8115 53.66C70.2829 54.3095 70.5186 55.048 70.5186 55.8756C70.5186 56.7451 70.2594 57.5125 69.7408 58.1777C69.2275 58.8377 68.5649 59.2593 67.753 59.4426V59.5526C68.3816 59.6574 68.9473 59.901 69.4501 60.2833C69.9582 60.6605 70.3615 61.1319 70.6601 61.6976C70.9639 62.2632 71.1158 62.8839 71.1158 63.5596C71.1158 64.4291 70.8591 65.207 70.3458 65.8931C69.8325 66.574 69.1254 67.1109 68.2244 67.5038C67.3287 67.8966 66.2995 68.093 65.1367 68.093ZM65.1367 65.846C65.739 65.846 66.2628 65.7438 66.7081 65.5396C67.1533 65.33 67.499 65.0367 67.7452 64.6596C67.9913 64.2825 68.1171 63.8477 68.1223 63.3554C68.1171 62.842 67.9835 62.389 67.7216 61.9961C67.4649 61.598 67.1114 61.2864 66.6609 61.0612C66.2157 60.8359 65.7076 60.7233 65.1367 60.7233C64.5605 60.7233 64.0472 60.8359 63.5967 61.0612C63.1463 61.2864 62.7901 61.598 62.5282 61.9961C62.2716 62.389 62.1458 62.842 62.1511 63.3554C62.1458 63.8477 62.2663 64.2825 62.5125 64.6596C62.7587 65.0315 63.1044 65.3222 63.5496 65.5317C64.0001 65.7412 64.5291 65.846 65.1367 65.846ZM65.1367 58.5155C65.629 58.5155 66.0638 58.416 66.4409 58.217C66.8233 58.0179 67.1245 57.7403 67.3445 57.3841C67.5645 57.028 67.6771 56.6168 67.6823 56.1506C67.6771 55.6897 67.5671 55.2864 67.3523 54.9407C67.1376 54.5897 66.839 54.32 66.4566 54.1314C66.0743 53.9376 65.6343 53.8407 65.1367 53.8407C64.6286 53.8407 64.1808 53.9376 63.7932 54.1314C63.4108 54.32 63.1122 54.5897 62.8975 54.9407C62.688 55.2864 62.5858 55.6897 62.5911 56.1506C62.5858 56.6168 62.6906 57.028 62.9053 57.3841C63.1253 57.7351 63.4265 58.0127 63.8089 58.217C64.1965 58.416 64.6391 58.5155 65.1367 58.5155Z" fill="#ECB22E"/>
</svg>
