<svg width="70" height="111" viewBox="0 0 70 111" fill="none" xmlns="http://www.w3.org/2000/svg">
<circle cx="21.4445" cy="99.3929" r="10.4142" transform="rotate(-89.6419 21.4445 99.3929)" fill="#FFF5E7" stroke="#ECB22E" stroke-width="0.323175"/>
<circle cx="20.9628" cy="10.9925" r="10.4142" transform="rotate(-89.6419 20.9628 10.9925)" fill="#FFF5E7" stroke="#ECB22E" stroke-width="0.323175"/>
<circle cx="48.7804" cy="99.3929" r="10.4142" transform="rotate(-89.6419 48.7804 99.3929)" fill="#FFF5E7" stroke="#ECB22E" stroke-width="0.323175"/>
<circle cx="48.2987" cy="10.9925" r="10.4142" transform="rotate(-89.6419 48.2987 10.9925)" fill="#FFF5E7" stroke="#ECB22E" stroke-width="0.323175"/>
<rect x="0.458002" y="99.5246" width="87.7234" height="67.7981" rx="3.23175" transform="rotate(-89.6419 0.458002 99.5246)" fill="#FFF6E2" stroke="#ECB22E" stroke-width="0.646351"/>
<path d="M34.5305 63.6231C33.623 63.6231 32.8172 63.4705 32.1132 63.1652C31.4132 62.86 30.8638 62.4429 30.465 61.9138C30.0702 61.3807 29.8749 60.7764 29.8789 60.1008C29.8749 59.5758 29.9888 59.0936 30.2208 58.654C30.4527 58.2145 30.7661 57.8483 31.1609 57.5552C31.5597 57.2582 32.0033 57.0689 32.4916 56.9875V56.9021C31.8486 56.7596 31.3277 56.432 30.9289 55.9192C30.5341 55.4024 30.3388 54.8062 30.3429 54.1306C30.3388 53.4876 30.5179 52.9138 30.8801 52.4092C31.2423 51.9045 31.7387 51.5078 32.3695 51.2188C33.0003 50.9258 33.7207 50.7793 34.5305 50.7793C35.3322 50.7793 36.0465 50.9258 36.6732 51.2188C37.304 51.5078 37.8005 51.9045 38.1627 52.4092C38.5289 52.9138 38.7121 53.4876 38.7121 54.1306C38.7121 54.8062 38.5106 55.4024 38.1077 55.9192C37.7089 56.432 37.1941 56.7596 36.5633 56.9021V56.9875C37.0517 57.0689 37.4912 57.2582 37.8819 57.5552C38.2766 57.8483 38.59 58.2145 38.822 58.654C39.058 59.0936 39.176 59.5758 39.176 60.1008C39.176 60.7764 38.9766 61.3807 38.5778 61.9138C38.179 62.4429 37.6295 62.86 36.9296 63.1652C36.2337 63.4705 35.434 63.6231 34.5305 63.6231ZM34.5305 61.8772C34.9985 61.8772 35.4055 61.7978 35.7514 61.6391C36.0973 61.4763 36.3659 61.2484 36.5572 60.9554C36.7485 60.6624 36.8461 60.3246 36.8502 59.9421C36.8461 59.5433 36.7424 59.1912 36.5389 58.886C36.3395 58.5767 36.0648 58.3346 35.7148 58.1596C35.3689 57.9846 34.9741 57.8971 34.5305 57.8971C34.0829 57.8971 33.684 57.9846 33.334 58.1596C32.9841 58.3346 32.7073 58.5767 32.5038 58.886C32.3044 59.1912 32.2068 59.5433 32.2108 59.9421C32.2068 60.3246 32.3004 60.6624 32.4916 60.9554C32.6829 61.2444 32.9515 61.4702 33.2974 61.633C33.6474 61.7958 34.0584 61.8772 34.5305 61.8772ZM34.5305 56.1817C34.9131 56.1817 35.2508 56.1044 35.5439 55.9498C35.8409 55.7951 36.0749 55.5794 36.2459 55.3027C36.4168 55.026 36.5043 54.7065 36.5084 54.3443C36.5043 53.9862 36.4188 53.6728 36.252 53.4042C36.0851 53.1315 35.8532 52.922 35.5561 52.7755C35.259 52.6249 34.9171 52.5496 34.5305 52.5496C34.1358 52.5496 33.7878 52.6249 33.4867 52.7755C33.1896 52.922 32.9576 53.1315 32.7907 53.4042C32.628 53.6728 32.5486 53.9862 32.5527 54.3443C32.5486 54.7065 32.63 55.026 32.7969 55.3027C32.9678 55.5754 33.2018 55.7911 33.4989 55.9498C33.8 56.1044 34.1439 56.1817 34.5305 56.1817Z" fill="#ECB22E"/>
</svg>
