<svg width="119" height="123" viewBox="0 0 119 123" fill="none" xmlns="http://www.w3.org/2000/svg">
<circle cx="41.0928" cy="13.8863" r="13.4038" transform="rotate(-90 41.0928 13.8863)" fill="#FFF5E7" stroke="#ECB22E" stroke-width="0.415949"/>
<circle cx="41.0929" cy="108.769" r="13.4038" transform="rotate(-90 41.0929 108.769)" fill="#FFF5E7" stroke="#ECB22E" stroke-width="0.415949"/>
<circle cx="78.1099" cy="13.8863" r="13.4038" transform="rotate(-90 78.1099 13.8863)" fill="#FFF5E7" stroke="#ECB22E" stroke-width="0.415949"/>
<circle cx="78.11" cy="108.769" r="13.4038" transform="rotate(-90 78.11 108.769)" fill="#FFF5E7" stroke="#ECB22E" stroke-width="0.415949"/>
<rect x="1.13262" y="106.489" width="92.1879" height="116.936" rx="4.15949" transform="rotate(-90 1.13262 106.489)" fill="#FFF6E2" stroke="#ECB22E" stroke-width="0.831898"/>
<path d="M55.0641 51.7832V67.874H52.1492V54.6195H52.055L48.2915 57.0237V54.3524L52.2907 51.7832H55.0641ZM59.1497 67.874V65.7684L64.7359 60.2922C65.2702 59.7527 65.7154 59.2734 66.0716 58.8543C66.4278 58.4353 66.6949 58.0294 66.873 57.6365C67.0511 57.2437 67.1401 56.8247 67.1401 56.3794C67.1401 55.8714 67.0249 55.4366 66.7944 55.0752C66.564 54.7085 66.2471 54.4257 65.8437 54.2267C65.4404 54.0276 64.9821 53.9281 64.4688 53.9281C63.9398 53.9281 63.4762 54.0381 63.0781 54.2581C62.68 54.4728 62.371 54.7793 62.151 55.1773C61.9363 55.5754 61.8289 56.0495 61.8289 56.5994H59.0554C59.0554 55.578 59.2885 54.6902 59.7547 53.936C60.2208 53.1817 60.8625 52.5977 61.6796 52.1839C62.502 51.7701 63.4448 51.5632 64.5081 51.5632C65.5871 51.5632 66.5351 51.7648 67.3523 52.1682C68.1694 52.5715 68.8032 53.1241 69.2536 53.826C69.7093 54.5278 69.9372 55.3292 69.9372 56.2302C69.9372 56.8325 69.8219 57.4244 69.5915 58.0058C69.361 58.5872 68.9551 59.2315 68.3736 59.9386C67.7975 60.6457 66.9882 61.5021 65.9459 62.5078L63.1724 65.3284V65.4384H70.1807V67.874H59.1497Z" fill="#ECB22E"/>
</svg>
