<svg width="143" height="90" viewBox="0 0 143 90" fill="none" xmlns="http://www.w3.org/2000/svg">
<circle cx="128.331" cy="61.4138" r="13.4038" transform="rotate(-179.642 128.331 61.4138)" fill="#FFF5E7" stroke="#ECB22E" stroke-width="0.415949"/>
<circle cx="14.5534" cy="61.4138" r="13.4038" transform="rotate(-179.642 14.5534 61.4138)" fill="#FFF5E7" stroke="#ECB22E" stroke-width="0.415949"/>
<circle cx="128.331" cy="26.2312" r="13.4038" transform="rotate(-179.642 128.331 26.2312)" fill="#FFF5E7" stroke="#ECB22E" stroke-width="0.415949"/>
<circle cx="14.5534" cy="26.2312" r="13.4038" transform="rotate(-179.642 14.5534 26.2312)" fill="#FFF5E7" stroke="#ECB22E" stroke-width="0.415949"/>
<rect x="128.499" y="88.5063" width="112.906" height="87.2608" rx="4.15949" transform="rotate(-179.642 128.499 88.5063)" fill="#FFF6E2" stroke="#ECB22E" stroke-width="0.831898"/>
<path d="M68.5203 35.8281V51.9189H65.6055V38.6644H65.5112L61.7477 41.0686V38.3973L65.7469 35.8281H68.5203ZM78.5536 52.2254C77.2598 52.2254 76.1494 51.898 75.2222 51.2433C74.3004 50.5833 73.5906 49.6326 73.093 48.3912C72.6007 47.1446 72.3545 45.6439 72.3545 43.8892C72.3597 42.1345 72.6085 40.6417 73.1009 39.4108C73.5985 38.1747 74.3082 37.2319 75.2301 36.5824C76.1572 35.9329 77.265 35.6081 78.5536 35.6081C79.8421 35.6081 80.9499 35.9329 81.877 36.5824C82.8041 37.2319 83.5138 38.1747 84.0062 39.4108C84.5038 40.647 84.7526 42.1398 84.7526 43.8892C84.7526 45.6492 84.5038 47.1525 84.0062 48.3991C83.5138 49.6405 82.8041 50.5885 81.877 51.2433C80.9551 51.898 79.8473 52.2254 78.5536 52.2254ZM78.5536 49.7662C79.5592 49.7662 80.3528 49.2712 80.9342 48.2812C81.5208 47.286 81.8141 45.822 81.8141 43.8892C81.8141 42.6112 81.6806 41.5374 81.4134 40.6679C81.1463 39.7984 80.7692 39.1437 80.2821 38.7037C79.7949 38.2585 79.2188 38.0359 78.5536 38.0359C77.5531 38.0359 76.7622 38.5335 76.1808 39.5287C75.5994 40.5186 75.3061 41.9722 75.3008 43.8892C75.2956 45.1725 75.4239 46.2515 75.6858 47.1263C75.9529 48.001 76.3301 48.661 76.8172 49.1062C77.3043 49.5462 77.8831 49.7662 78.5536 49.7662Z" fill="#ECB22E"/>
</svg>
