<svg width="57" height="95" viewBox="0 0 57 95" fill="none" xmlns="http://www.w3.org/2000/svg">
<path d="M16.2424 0.666259C21.7156 0.666259 26.1654 5.32153 26.1654 11.0805C26.1654 16.8394 21.7156 21.4947 16.2424 21.4947C10.7692 21.4947 6.3193 16.8394 6.3193 11.0805C6.3193 5.32153 10.7692 0.66626 16.2424 0.666259Z" fill="#FFF5E7" stroke="#ECB22E" stroke-width="0.323175"/>
<path d="M17.5662 73.8401C23.2939 73.8401 27.9381 78.5021 27.9381 84.2543C27.9381 90.0065 23.2939 94.6685 17.5662 94.6685C11.8386 94.6685 7.1943 90.0065 7.1943 84.2543C7.1943 78.5021 11.8386 73.8401 17.5662 73.8401Z" fill="#FFF5E7" stroke="#ECB22E" stroke-width="0.323175"/>
<path d="M40.936 0.666259C46.3263 0.666259 50.7129 5.31925 50.7129 11.0805C50.7129 16.8417 46.3263 21.4947 40.936 21.4947C35.5457 21.4947 31.1591 16.8417 31.1591 11.0805C31.1591 5.31925 35.5457 0.66626 40.936 0.666259Z" fill="#FFF5E7" stroke="#ECB22E" stroke-width="0.323175"/>
<path d="M41.5311 73.8401C47.2587 73.8401 51.903 78.5021 51.903 84.2543C51.903 90.0065 47.2587 94.6685 41.5311 94.6685C35.8034 94.6685 31.1591 90.0065 31.1591 84.2543C31.1591 78.5021 35.8034 73.8401 41.5311 73.8401Z" fill="#FFF5E7" stroke="#ECB22E" stroke-width="0.323175"/>
<rect x="0.901789" y="83.0294" width="71.6263" height="55.5206" rx="3.23175" transform="rotate(-90 0.901789 83.0294)" fill="#FFF6E2" stroke="#ECB22E" stroke-width="0.646351"/>
<path d="M24.5091 42.2276V54.7295H22.2443V44.4313H22.1711L19.2471 46.2992V44.2237L22.3542 42.2276H24.5091ZM32.2618 54.9004C31.6635 54.8963 31.0795 54.7926 30.5098 54.5891C29.94 54.3815 29.4273 54.0458 28.9715 53.5819C28.5157 53.1138 28.1535 52.4932 27.8849 51.72C27.6163 50.9427 27.484 49.9802 27.4881 48.8326C27.4881 47.7623 27.602 46.8079 27.8299 45.9696C28.0578 45.1312 28.3854 44.4231 28.8127 43.8452C29.2401 43.2633 29.7549 42.8197 30.3572 42.5145C30.9635 42.2092 31.6411 42.0566 32.39 42.0566C33.1754 42.0566 33.8713 42.2113 34.4777 42.5206C35.0881 42.8299 35.5806 43.2531 35.955 43.7903C36.3294 44.3234 36.5613 44.9257 36.6509 45.5972H34.4227C34.3088 45.117 34.0748 44.7345 33.7207 44.4496C33.3707 44.1606 32.9272 44.0162 32.39 44.0162C31.5231 44.0162 30.8557 44.3926 30.3877 45.1455C29.9238 45.8984 29.6898 46.9321 29.6857 48.2466H29.7711C29.9706 47.8884 30.229 47.5812 30.5464 47.3248C30.8638 47.0684 31.222 46.871 31.6208 46.7327C32.0237 46.5902 32.449 46.519 32.8966 46.519C33.6292 46.519 34.2864 46.694 34.8684 47.044C35.4544 47.394 35.9183 47.8762 36.2602 48.4907C36.602 49.1012 36.7709 49.8012 36.7669 50.5907C36.7709 51.4127 36.5837 52.1514 36.2052 52.8066C35.8268 53.4577 35.2998 53.9705 34.6242 54.3449C33.9486 54.7193 33.1612 54.9045 32.2618 54.9004ZM32.2496 53.0691C32.6931 53.0691 33.0899 52.9612 33.4399 52.7455C33.7899 52.5299 34.0666 52.2389 34.2701 51.8726C34.4736 51.5063 34.5733 51.0953 34.5693 50.6395C34.5733 50.1918 34.4756 49.7869 34.2762 49.4247C34.0809 49.0625 33.8103 48.7756 33.4643 48.564C33.1184 48.3524 32.7237 48.2466 32.2801 48.2466C31.9504 48.2466 31.6432 48.3096 31.3583 48.4358C31.0734 48.562 30.8252 48.7369 30.6136 48.9608C30.4019 49.1805 30.2351 49.4369 30.113 49.7299C29.995 50.0189 29.9339 50.3282 29.9299 50.6578C29.9339 51.0933 30.0357 51.4941 30.2351 51.8604C30.4345 52.2267 30.7092 52.5197 31.0592 52.7394C31.4092 52.9592 31.806 53.0691 32.2496 53.0691Z" fill="#ECB22E"/>
</svg>
