<svg width="73" height="122" viewBox="0 0 73 122" fill="none" xmlns="http://www.w3.org/2000/svg">
<path d="M20.3129 0.287174C27.3573 0.287173 33.0845 6.27882 33.0845 13.691C33.0845 21.1031 27.3573 27.0948 20.3129 27.0948C13.2685 27.0948 7.54123 21.1031 7.54123 13.691C7.54123 6.27883 13.2685 0.287174 20.3129 0.287174Z" fill="#FFF5E7" stroke="#ECB22E" stroke-width="0.415949"/>
<path d="M22.0166 94.4669C29.3885 94.4669 35.366 100.467 35.366 107.871C35.366 115.274 29.3885 121.274 22.0166 121.274C14.6448 121.274 8.66726 115.274 8.66726 107.871C8.66726 100.467 14.6448 94.4669 22.0166 94.4669Z" fill="#FFF5E7" stroke="#ECB22E" stroke-width="0.415949"/>
<path d="M52.095 0.287174C59.0327 0.287173 64.6785 6.27589 64.6785 13.691C64.6785 21.106 59.0327 27.0948 52.095 27.0948C45.1573 27.0948 39.5114 21.106 39.5114 13.691C39.5114 6.27589 45.1573 0.287174 52.095 0.287174Z" fill="#FFF5E7" stroke="#ECB22E" stroke-width="0.415949"/>
<path d="M52.8611 94.4669C60.2329 94.4669 66.2104 100.467 66.2104 107.871C66.2104 115.274 60.2329 121.274 52.8611 121.274C45.4892 121.274 39.5117 115.274 39.5117 107.871C39.5117 100.467 45.4892 94.4669 52.8611 94.4669Z" fill="#FFF5E7" stroke="#ECB22E" stroke-width="0.415949"/>
<rect x="0.568384" y="106.294" width="92.1879" height="71.4589" rx="4.15949" transform="rotate(-90 0.568384 106.294)" fill="#FFF6E2" stroke="#ECB22E" stroke-width="0.831898"/>
<path d="M30.7582 52.7519V68.8428H27.8434V55.5883H27.7491L23.9856 57.9925V55.3211L27.9848 52.7519H30.7582ZM34.5531 65.8572V63.5394L41.3807 52.7519H43.3135V56.0518H42.135L37.5387 63.3351V63.4608H47.0691V65.8572H34.5531ZM42.2293 68.8428V65.15L42.2607 64.1129V52.7519H45.0106V68.8428H42.2293Z" fill="#ECB22E"/>
</svg>
