<svg width="69" height="110" viewBox="0 0 69 110" fill="none" xmlns="http://www.w3.org/2000/svg">
<circle cx="47.1547" cy="10.9723" r="10.4142" transform="rotate(90 47.1547 10.9723)" fill="#FFF5E7" stroke="#ECB22E" stroke-width="0.323175"/>
<circle cx="47.1547" cy="98.5719" r="10.4142" transform="rotate(90 47.1547 98.5719)" fill="#FFF5E7" stroke="#ECB22E" stroke-width="0.323175"/>
<circle cx="19.8168" cy="11.1441" r="10.4142" transform="rotate(90 19.8168 11.1441)" fill="#FFF5E7" stroke="#ECB22E" stroke-width="0.323175"/>
<circle cx="19.8168" cy="98.7438" r="10.4142" transform="rotate(90 19.8168 98.7438)" fill="#FFF5E7" stroke="#ECB22E" stroke-width="0.323175"/>
<rect x="68.1402" y="10.7099" width="87.7234" height="67.7981" rx="3.23175" transform="rotate(90 68.1402 10.7099)" fill="#FFF6E2" stroke="#ECB22E" stroke-width="0.646351"/>
<path d="M30.5808 46.5938L30.5808 59.0957L28.316 59.0957L28.316 48.7975L28.2428 48.7975L25.3187 50.6654L25.3187 48.5899L28.4259 46.5938L30.5808 46.5938ZM38.3334 59.2666C37.7352 59.2626 37.1512 59.1588 36.5815 58.9553C36.0117 58.7478 35.4989 58.412 35.0431 57.9481C34.5873 57.4801 34.2251 56.8594 33.9565 56.0862C33.6879 55.3089 33.5557 54.3464 33.5598 53.1988C33.5598 52.1285 33.6737 51.1742 33.9016 50.3358C34.1295 49.4975 34.4571 48.7893 34.8844 48.2115C35.3117 47.6295 35.8265 47.1859 36.4288 46.8807C37.0352 46.5755 37.7128 46.4228 38.4616 46.4228C39.2471 46.4228 39.943 46.5775 40.5494 46.8868C41.1598 47.1961 41.6522 47.6193 42.0266 48.1565C42.401 48.6896 42.633 49.2919 42.7225 49.9634L40.4944 49.9634C40.3805 49.4832 40.1465 49.1007 39.7924 48.8158C39.4424 48.5269 38.9988 48.3824 38.4616 48.3824C37.5948 48.3824 36.9274 48.7588 36.4594 49.5117C35.9954 50.2646 35.7614 51.2983 35.7574 52.6128L35.8428 52.6128C36.0422 52.2546 36.3007 51.9474 36.6181 51.691C36.9355 51.4346 37.2936 51.2372 37.6925 51.0989C38.0954 50.9564 38.5206 50.8852 38.9683 50.8852C39.7008 50.8852 40.3581 51.0602 40.94 51.4102C41.5261 51.7602 41.99 52.2424 42.3319 52.8569C42.6737 53.4674 42.8426 54.1674 42.8385 54.9569C42.8426 55.779 42.6554 56.5176 42.2769 57.1728C41.8984 57.8239 41.3714 58.3367 40.6959 58.7111C40.0203 59.0855 39.2328 59.2707 38.3334 59.2666ZM38.3212 57.4353C38.7648 57.4353 39.1616 57.3274 39.5116 57.1118C39.8616 56.8961 40.1383 56.6051 40.3418 56.2388C40.5453 55.8726 40.645 55.4615 40.6409 55.0057C40.645 54.5581 40.5473 54.1531 40.3479 53.7909C40.1526 53.4287 39.8819 53.1418 39.536 52.9302C39.1901 52.7186 38.7953 52.6128 38.3518 52.6128C38.0221 52.6128 37.7149 52.6758 37.43 52.802C37.1451 52.9282 36.8969 53.1032 36.6852 53.327C36.4736 53.5468 36.3068 53.8031 36.1847 54.0962C36.0666 54.3851 36.0056 54.6944 36.0015 55.024C36.0056 55.4595 36.1073 55.8603 36.3068 56.2266C36.5062 56.5929 36.7809 56.8859 37.1309 57.1057C37.4808 57.3254 37.8776 57.4353 38.3212 57.4353Z" fill="#ECB22E"/>
</svg>
