<svg width="69" height="110" viewBox="0 0 69 110" fill="none" xmlns="http://www.w3.org/2000/svg">
<circle cx="47.4901" cy="11.3971" r="10.4142" transform="rotate(90 47.4901 11.3971)" fill="#FFF5E7" stroke="#ECB22E" stroke-width="0.323175"/>
<circle cx="47.4901" cy="98.399" r="10.4142" transform="rotate(90 47.4901 98.399)" fill="#FFF5E7" stroke="#ECB22E" stroke-width="0.323175"/>
<circle cx="20.1522" cy="11.569" r="10.4142" transform="rotate(90 20.1522 11.569)" fill="#FFF5E7" stroke="#ECB22E" stroke-width="0.323175"/>
<circle cx="20.1522" cy="98.5709" r="10.4142" transform="rotate(90 20.1522 98.5709)" fill="#FFF5E7" stroke="#ECB22E" stroke-width="0.323175"/>
<rect x="68.4757" y="11.1347" width="87.7234" height="67.7981" rx="3.23175" transform="rotate(90 68.4757 11.1347)" fill="#FFF6E2" stroke="#ECB22E" stroke-width="0.646351"/>
<path d="M30.916 47.0176L30.916 59.5195L28.6512 59.5195L28.6512 49.2213L28.578 49.2213L25.654 51.0893L25.654 49.0138L28.7611 47.0176L30.916 47.0176ZM33.8644 57.1998L33.8644 55.399L39.1692 47.0176L40.6709 47.0176L40.6709 49.5815L39.7553 49.5815L36.1841 55.2403L36.1841 55.338L43.5889 55.338L43.5889 57.1998L33.8644 57.1998ZM39.8285 59.5195L39.8285 56.6504L39.8529 55.8446L39.8529 47.0176L41.9895 47.0176L41.9895 59.5195L39.8285 59.5195Z" fill="#ECB22E"/>
</svg>
