<svg width="143" height="90" viewBox="0 0 143 90" fill="none" xmlns="http://www.w3.org/2000/svg">
<circle cx="128.333" cy="61.7478" r="13.4038" transform="rotate(-179.642 128.333 61.7478)" fill="#FFF5E7" stroke="#ECB22E" stroke-width="0.415949"/>
<circle cx="14.5553" cy="62.3679" r="13.4038" transform="rotate(-179.642 14.5553 62.3679)" fill="#FFF5E7" stroke="#ECB22E" stroke-width="0.415949"/>
<circle cx="128.333" cy="26.5651" r="13.4038" transform="rotate(-179.642 128.333 26.5651)" fill="#FFF5E7" stroke="#ECB22E" stroke-width="0.415949"/>
<circle cx="14.5553" cy="27.1853" r="13.4038" transform="rotate(-179.642 14.5553 27.1853)" fill="#FFF5E7" stroke="#ECB22E" stroke-width="0.415949"/>
<rect x="128.502" y="88.7592" width="112.906" height="87.2608" rx="4.15949" transform="rotate(-179.642 128.502 88.7592)" fill="#FFF6E2" stroke="#ECB22E" stroke-width="0.831898"/>
<path d="M73.1958 52.2747C72.0278 52.2747 70.9907 52.0783 70.0845 51.6854C69.1836 51.2926 68.4765 50.7557 67.9632 50.0748C67.4551 49.3886 67.2037 48.6108 67.2089 47.7413C67.2037 47.0656 67.3503 46.4449 67.6489 45.8792C67.9475 45.3135 68.3508 44.8421 68.8589 44.465C69.3722 44.0826 69.9431 43.839 70.5716 43.7343V43.6243C69.7441 43.441 69.0736 43.0193 68.5603 42.3593C68.0522 41.6941 67.8008 40.9268 67.806 40.0573C67.8008 39.2297 68.0313 38.4911 68.4974 37.8416C68.9636 37.1921 69.6026 36.6814 70.4145 36.3095C71.2264 35.9324 72.1535 35.7439 73.1958 35.7439C74.2277 35.7439 75.147 35.9324 75.9536 36.3095C76.7655 36.6814 77.4045 37.1921 77.8707 37.8416C78.3421 38.4911 78.5778 39.2297 78.5778 40.0573C78.5778 40.9268 78.3185 41.6941 77.8 42.3593C77.2866 43.0193 76.624 43.441 75.8122 43.6243V43.7343C76.4407 43.839 77.0064 44.0826 77.5093 44.465C78.0173 44.8421 78.4206 45.3135 78.7192 45.8792C79.023 46.4449 79.1749 47.0656 79.1749 47.7413C79.1749 48.6108 78.9182 49.3886 78.4049 50.0748C77.8916 50.7557 77.1845 51.2926 76.2836 51.6854C75.3879 52.0783 74.3587 52.2747 73.1958 52.2747ZM73.1958 50.0276C73.7982 50.0276 74.322 49.9255 74.7672 49.7212C75.2124 49.5117 75.5581 49.2184 75.8043 48.8412C76.0505 48.4641 76.1762 48.0294 76.1814 47.537C76.1762 47.0237 76.0426 46.5706 75.7807 46.1778C75.5241 45.7797 75.1705 45.468 74.7201 45.2428C74.2748 45.0176 73.7668 44.9049 73.1958 44.9049C72.6197 44.9049 72.1064 45.0176 71.6559 45.2428C71.2054 45.468 70.8493 45.7797 70.5874 46.1778C70.3307 46.5706 70.205 47.0237 70.2102 47.537C70.205 48.0294 70.3255 48.4641 70.5716 48.8412C70.8178 49.2131 71.1635 49.5038 71.6088 49.7133C72.0592 49.9229 72.5882 50.0276 73.1958 50.0276ZM73.1958 42.6972C73.6882 42.6972 74.1229 42.5976 74.5001 42.3986C74.8824 42.1996 75.1836 41.922 75.4036 41.5658C75.6236 41.2096 75.7362 40.7984 75.7415 40.3323C75.7362 39.8713 75.6262 39.468 75.4115 39.1223C75.1967 38.7714 74.8982 38.5016 74.5158 38.313C74.1334 38.1192 73.6934 38.0223 73.1958 38.0223C72.6878 38.0223 72.2399 38.1192 71.8523 38.313C71.4699 38.5016 71.1714 38.7714 70.9566 39.1223C70.7471 39.468 70.645 39.8713 70.6502 40.3323C70.645 40.7984 70.7497 41.2096 70.9645 41.5658C71.1845 41.9167 71.4857 42.1943 71.868 42.3986C72.2556 42.5976 72.6982 42.6972 73.1958 42.6972Z" fill="#ECB22E"/>
</svg>
