<svg width="73" height="95" viewBox="0 0 73 95" fill="none" xmlns="http://www.w3.org/2000/svg">
<path d="M20.9857 0.414127C28.0301 0.414126 33.7574 6.40578 33.7574 13.8179C33.7574 21.2301 28.0301 27.2217 20.9857 27.2217C13.9413 27.2217 8.21405 21.2301 8.21405 13.8179C8.21405 6.40578 13.9413 0.414127 20.9857 0.414127Z" fill="#FFF5E7" stroke="#ECB22E" stroke-width="0.415949"/>
<path d="M17.8868 67.1817C25.2587 67.1817 31.2362 73.182 31.2362 80.5855C31.2362 87.989 25.2587 93.9893 17.8868 93.9893C10.515 93.9893 4.53747 87.989 4.53747 80.5855C4.53747 73.182 10.515 67.1817 17.8868 67.1817Z" fill="#FFF5E7" stroke="#ECB22E" stroke-width="0.415949"/>
<path d="M52.7678 0.414127C59.7055 0.414126 65.3513 6.40284 65.3513 13.8179C65.3513 21.233 59.7055 27.2217 52.7678 27.2217C45.8301 27.2217 40.1843 21.233 40.1843 13.8179C40.1843 6.40284 45.8301 0.414127 52.7678 0.414127Z" fill="#FFF5E7" stroke="#ECB22E" stroke-width="0.415949"/>
<path d="M48.7313 67.1817C56.1031 67.1817 62.0806 73.182 62.0806 80.5855C62.0806 87.989 56.1031 93.9893 48.7313 93.9893C41.3594 93.9893 35.3819 87.989 35.3819 80.5855C35.3819 73.182 41.3594 67.1817 48.7313 67.1817Z" fill="#FFF5E7" stroke="#ECB22E" stroke-width="0.415949"/>
<rect x="0.585108" y="80.17" width="62.1396" height="71.4589" rx="4.15949" transform="rotate(-90 0.585108 80.17)" fill="#FFF6E2" stroke="#ECB22E" stroke-width="0.831898"/>
<path d="M34.1138 58.6917C33.3438 58.6864 32.5922 58.5529 31.8588 58.291C31.1255 58.0238 30.4656 57.5917 29.8789 56.9946C29.2923 56.3922 28.8261 55.5935 28.4804 54.5982C28.1347 53.5978 27.9645 52.359 27.9697 50.882C27.9697 49.5044 28.1164 48.2761 28.4097 47.1971C28.703 46.1181 29.1247 45.2067 29.6746 44.4629C30.2246 43.7139 30.8872 43.1429 31.6624 42.7501C32.4429 42.3573 33.315 42.1608 34.2788 42.1608C35.2897 42.1608 36.1854 42.3599 36.9658 42.758C37.7515 43.156 38.3853 43.7008 38.8672 44.3922C39.3491 45.0784 39.6476 45.8536 39.7628 46.7178H36.8951C36.7484 46.0997 36.4473 45.6074 35.9916 45.2407C35.5411 44.8688 34.9702 44.6829 34.2788 44.6829C33.1631 44.6829 32.3041 45.1674 31.7017 46.1364C31.1046 47.1054 30.8034 48.4359 30.7982 50.1277H30.9082C31.1648 49.6668 31.4974 49.2713 31.906 48.9413C32.3145 48.6113 32.7755 48.3573 33.2888 48.1792C33.8074 47.9959 34.3547 47.9042 34.9309 47.9042C35.8737 47.9042 36.7196 48.1294 37.4686 48.5799C38.2229 49.0304 38.82 49.651 39.26 50.442C39.7 51.2277 39.9174 52.1286 39.9121 53.1447C39.9174 54.2028 39.6764 55.1535 39.1893 55.9968C38.7022 56.8348 38.0239 57.4948 37.1544 57.9767C36.2849 58.4586 35.2713 58.6969 34.1138 58.6917ZM34.0981 56.3346C34.669 56.3346 35.1797 56.1958 35.6301 55.9182C36.0806 55.6406 36.4368 55.2661 36.6987 54.7947C36.9606 54.3233 37.0889 53.7942 37.0837 53.2076C37.0889 52.6314 36.9632 52.1102 36.7065 51.6441C36.4551 51.1779 36.1068 50.8086 35.6616 50.5363C35.2163 50.2639 34.7083 50.1277 34.1373 50.1277C33.7131 50.1277 33.3176 50.2089 32.951 50.3713C32.5843 50.5336 32.2648 50.7589 31.9924 51.0469C31.72 51.3298 31.5053 51.6598 31.3482 52.0369C31.1963 52.4088 31.1177 52.8069 31.1124 53.2312C31.1177 53.7916 31.2486 54.3075 31.5053 54.779C31.7619 55.2504 32.1155 55.6275 32.566 55.9103C33.0164 56.1932 33.5271 56.3346 34.0981 56.3346Z" fill="#ECB22E"/>
</svg>
