<svg width="70" height="111" viewBox="0 0 70 111" fill="none" xmlns="http://www.w3.org/2000/svg">
<circle cx="21.9" cy="99.3919" r="10.4142" transform="rotate(-89.6419 21.9 99.3919)" fill="#FFF5E7" stroke="#ECB22E" stroke-width="0.323175"/>
<circle cx="21.9" cy="10.9915" r="10.4142" transform="rotate(-89.6419 21.9 10.9915)" fill="#FFF5E7" stroke="#ECB22E" stroke-width="0.323175"/>
<circle cx="49.236" cy="99.3919" r="10.4142" transform="rotate(-89.6419 49.236 99.3919)" fill="#FFF5E7" stroke="#ECB22E" stroke-width="0.323175"/>
<circle cx="49.236" cy="10.9915" r="10.4142" transform="rotate(-89.6419 49.236 10.9915)" fill="#FFF5E7" stroke="#ECB22E" stroke-width="0.323175"/>
<rect x="0.85058" y="99.5226" width="87.7234" height="67.7981" rx="3.23175" transform="rotate(-89.6419 0.85058 99.5226)" fill="#FFF6E2" stroke="#ECB22E" stroke-width="0.646351"/>
<path d="M31.2001 50.9502V63.4521H28.9353V53.1539H28.862L25.938 55.0219V52.9464L29.0452 50.9502H31.2001ZM38.9954 63.6902C37.9902 63.6902 37.1275 63.4359 36.4072 62.9272C35.6909 62.4144 35.1395 61.6757 34.7528 60.7112C34.3703 59.7427 34.179 58.5767 34.179 57.2134C34.1831 55.8501 34.3764 54.6902 34.759 53.7339C35.1456 52.7734 35.697 52.0409 36.4133 51.5362C37.1336 51.0316 37.9943 50.7793 38.9954 50.7793C39.9966 50.7793 40.8573 51.0316 41.5776 51.5362C42.298 52.0409 42.8494 52.7734 43.2319 53.7339C43.6186 54.6943 43.8119 55.8541 43.8119 57.2134C43.8119 58.5808 43.6186 59.7488 43.2319 60.7174C42.8494 61.6819 42.298 62.4185 41.5776 62.9272C40.8614 63.4359 40.0006 63.6902 38.9954 63.6902ZM38.9954 61.7795C39.7768 61.7795 40.3934 61.3949 40.8451 60.6258C41.3009 59.8526 41.5288 58.7151 41.5288 57.2134C41.5288 56.2204 41.425 55.3861 41.2175 54.7106C41.0099 54.035 40.7169 53.5263 40.3384 53.1844C39.9599 52.8385 39.5123 52.6656 38.9954 52.6656C38.2181 52.6656 37.6036 53.0522 37.1519 53.8254C36.7002 54.5946 36.4723 55.7239 36.4682 57.2134C36.4641 58.2105 36.5638 59.0488 36.7673 59.7284C36.9749 60.4081 37.2679 60.9208 37.6464 61.2668C38.0248 61.6086 38.4745 61.7795 38.9954 61.7795Z" fill="#ECB22E"/>
</svg>
