<svg width="96" height="93" viewBox="0 0 96 93" fill="none" xmlns="http://www.w3.org/2000/svg">
<circle cx="84.7954" cy="32.3024" r="10.4142" fill="#FFF5E7" stroke="#ECB22E" stroke-width="0.323175"/>
<circle cx="11.0758" cy="32.3024" r="10.4142" fill="#FFF5E7" stroke="#ECB22E" stroke-width="0.323175"/>
<circle cx="84.7954" cy="61.0631" r="10.4142" fill="#FFF5E7" stroke="#ECB22E" stroke-width="0.323175"/>
<circle cx="11.0758" cy="61.0631" r="10.4142" fill="#FFF5E7" stroke="#ECB22E" stroke-width="0.323175"/>
<rect x="12.847" y="1.25482" width="71.6263" height="90.8543" rx="3.23175" fill="#FFF6E2" stroke="#ECB22E" stroke-width="0.646351"/>
<path d="M45.161 40.7979V53.2998H42.8962V43.0016H42.823L39.8989 44.8695V42.794L43.0061 40.7979H45.161ZM48.3353 53.2998V51.6638L52.6756 47.409C53.0907 46.9898 53.4366 46.6175 53.7133 46.2919C53.9901 45.9663 54.1976 45.6509 54.336 45.3457C54.4744 45.0405 54.5435 44.7149 54.5435 44.369C54.5435 43.9742 54.454 43.6364 54.2749 43.3556C54.0959 43.0708 53.8497 42.851 53.5363 42.6964C53.2229 42.5417 52.8668 42.4644 52.468 42.4644C52.057 42.4644 51.6968 42.5499 51.3875 42.7208C51.0782 42.8876 50.8381 43.1257 50.6672 43.435C50.5004 43.7443 50.4169 44.1126 50.4169 44.5399H48.262C48.262 43.7463 48.4431 43.0565 48.8053 42.4705C49.1675 41.8845 49.6661 41.4307 50.3009 41.1092C50.9399 40.7877 51.6724 40.6269 52.4985 40.6269C53.3369 40.6269 54.0735 40.7836 54.7084 41.097C55.3432 41.4104 55.8356 41.8397 56.1856 42.385C56.5397 42.9304 56.7167 43.553 56.7167 44.253C56.7167 44.721 56.6272 45.1809 56.4481 45.6326C56.2691 46.0843 55.9537 46.5849 55.5019 47.1343C55.0543 47.6837 54.4255 48.3491 53.6157 49.1305L51.4608 51.322V51.4074H56.906V53.2998H48.3353Z" fill="#ECB22E"/>
</svg>
