<svg width="92" height="51" viewBox="0 0 92 51" fill="none" xmlns="http://www.w3.org/2000/svg">
<circle cx="80.8248" cy="26.2574" r="10.4142" fill="#FFF5E7" stroke="#ECB22E" stroke-width="0.323175"/>
<circle cx="10.5796" cy="26.2574" r="10.4142" fill="#FFF5E7" stroke="#ECB22E" stroke-width="0.323175"/>
<rect x="8.87438" y="0.647394" width="71.6263" height="49.4894" rx="3.23175" fill="#FFF6E2" stroke="#ECB22E" stroke-width="0.646351"/>
<path d="M40.8835 18.6006V31.1025H38.6187V20.8043H38.5455L35.6214 22.6723V20.5968L38.7286 18.6006H40.8835ZM48.6789 31.3406C47.6737 31.3406 46.8109 31.0863 46.0906 30.5776C45.3743 30.0648 44.8229 29.3261 44.4363 28.3616C44.0537 27.3931 43.8624 26.2271 43.8624 24.8638C43.8665 23.5005 44.0598 22.3406 44.4424 21.3842C44.829 20.4238 45.3804 19.6913 46.0967 19.1866C46.817 18.682 47.6777 18.4297 48.6789 18.4297C49.68 18.4297 50.5407 18.682 51.261 19.1866C51.9814 19.6913 52.5328 20.4238 52.9154 21.3842C53.302 22.3447 53.4953 23.5045 53.4953 24.8638C53.4953 26.2312 53.302 27.3992 52.9154 28.3677C52.5328 29.3322 51.9814 30.0689 51.261 30.5776C50.5448 31.0863 49.6841 31.3406 48.6789 31.3406ZM48.6789 29.4299C49.4602 29.4299 50.0768 29.0453 50.5285 28.2762C50.9843 27.5029 51.2122 26.3655 51.2122 24.8638C51.2122 23.8708 51.1084 23.0365 50.9009 22.361C50.6933 21.6854 50.4003 21.1767 50.0218 20.8348C49.6434 20.4889 49.1957 20.316 48.6789 20.316C47.9016 20.316 47.287 20.7026 46.8353 21.4758C46.3836 22.245 46.1557 23.3743 46.1516 24.8638C46.1475 25.8608 46.2473 26.6992 46.4507 27.3788C46.6583 28.0584 46.9513 28.5712 47.3298 28.9171C47.7083 29.259 48.1579 29.4299 48.6789 29.4299Z" fill="#ECB22E"/>
</svg>
