<svg width="73" height="95" viewBox="0 0 73 95" fill="none" xmlns="http://www.w3.org/2000/svg">
<path d="M20.9856 0.585025C28.03 0.585025 33.7573 6.57668 33.7573 13.9888C33.7573 21.401 28.03 27.3926 20.9856 27.3926C13.9413 27.3926 8.21399 21.401 8.21399 13.9888C8.21399 6.57668 13.9413 0.585026 20.9856 0.585025Z" fill="#FFF5E7" stroke="#ECB22E" stroke-width="0.415949"/>
<path d="M17.8868 67.3526C25.2587 67.3526 31.2362 73.3529 31.2362 80.7564C31.2362 88.1599 25.2587 94.1602 17.8868 94.1602C10.5149 94.1602 4.53741 88.1599 4.53741 80.7564C4.53741 73.3529 10.5149 67.3526 17.8868 67.3526Z" fill="#FFF5E7" stroke="#ECB22E" stroke-width="0.415949"/>
<path d="M52.7677 0.585025C59.7054 0.585025 65.3513 6.57374 65.3513 13.9888C65.3513 21.4039 59.7054 27.3926 52.7677 27.3926C45.83 27.3926 40.1842 21.4039 40.1842 13.9888C40.1842 6.57374 45.83 0.585026 52.7677 0.585025Z" fill="#FFF5E7" stroke="#ECB22E" stroke-width="0.415949"/>
<path d="M48.7312 67.3526C56.1031 67.3526 62.0806 73.3529 62.0806 80.7564C62.0806 88.1599 56.1031 94.1602 48.7312 94.1602C41.3593 94.1602 35.3818 88.1599 35.3818 80.7564C35.3818 73.3529 41.3593 67.3526 48.7312 67.3526Z" fill="#FFF5E7" stroke="#ECB22E" stroke-width="0.415949"/>
<rect x="0.585047" y="80.3409" width="62.1396" height="71.4589" rx="4.15949" transform="rotate(-90 0.585047 80.3409)" fill="#FFF6E2" stroke="#ECB22E" stroke-width="0.831898"/>
<path d="M29.6329 58.7088L36.271 45.0619L36.2693 44.9519L28.327 45.0718L28.2902 42.6364L39.2493 42.471L39.2869 44.9613L32.6575 58.6632L29.6329 58.7088Z" fill="#ECB22E"/>
</svg>
