<svg width="96" height="92" viewBox="0 0 96 92" fill="none" xmlns="http://www.w3.org/2000/svg">
<circle cx="84.7956" cy="31.525" r="10.4142" fill="#FFF5E7" stroke="#ECB22E" stroke-width="0.323175"/>
<circle cx="11.0758" cy="31.525" r="10.4142" fill="#FFF5E7" stroke="#ECB22E" stroke-width="0.323175"/>
<circle cx="81.901" cy="60.2877" r="10.4142" fill="#FFF5E7" stroke="#ECB22E" stroke-width="0.323175"/>
<circle cx="11.0758" cy="60.2877" r="10.4142" fill="#FFF5E7" stroke="#ECB22E" stroke-width="0.323175"/>
<rect x="12.8462" y="0.479425" width="71.6263" height="90.8543" rx="3.23175" fill="#FFF6E2" stroke="#ECB22E" stroke-width="0.646351"/>
<path d="M45.1612 40.0225V52.5244H42.8964V42.2262H42.8232L39.8991 44.0942V42.0186L43.0063 40.0225H45.1612ZM52.7795 52.6953C51.872 52.6953 51.0662 52.5427 50.3622 52.2375C49.6622 51.9323 49.1128 51.5151 48.714 50.9861C48.3192 50.453 48.1239 49.8486 48.1279 49.1731C48.1239 48.6481 48.2378 48.1658 48.4698 47.7263C48.7018 47.2868 49.0151 46.9205 49.4099 46.6275C49.8087 46.3304 50.2523 46.1412 50.7406 46.0598V45.9743C50.0976 45.8319 49.5767 45.5043 49.1779 44.9915C48.7831 44.4747 48.5878 43.8785 48.5919 43.2029C48.5878 42.5599 48.7669 41.9861 49.1291 41.4814C49.4913 40.9768 49.9878 40.58 50.6186 40.2911C51.2493 39.9981 51.9697 39.8516 52.7795 39.8516C53.5813 39.8516 54.2955 39.9981 54.9222 40.2911C55.553 40.58 56.0495 40.9768 56.4117 41.4814C56.778 41.9861 56.9611 42.5599 56.9611 43.2029C56.9611 43.8785 56.7596 44.4747 56.3567 44.9915C55.9579 45.5043 55.4431 45.8319 54.8123 45.9743V46.0598C55.3007 46.1412 55.7402 46.3304 56.1309 46.6275C56.5256 46.9205 56.839 47.2868 57.071 47.7263C57.307 48.1658 57.425 48.6481 57.425 49.1731C57.425 49.8486 57.2256 50.453 56.8268 50.9861C56.428 51.5151 55.8786 51.9323 55.1786 52.2375C54.4827 52.5427 53.683 52.6953 52.7795 52.6953ZM52.7795 50.9495C53.2475 50.9495 53.6545 50.8701 54.0004 50.7114C54.3463 50.5486 54.6149 50.3207 54.8062 50.0277C54.9975 49.7347 55.0952 49.3969 55.0992 49.0144C55.0952 48.6155 54.9914 48.2635 54.7879 47.9583C54.5885 47.649 54.3138 47.4068 53.9638 47.2318C53.6179 47.0569 53.2231 46.9694 52.7795 46.9694C52.3319 46.9694 51.933 47.0569 51.5831 47.2318C51.2331 47.4068 50.9563 47.649 50.7529 47.9583C50.5534 48.2635 50.4558 48.6155 50.4598 49.0144C50.4558 49.3969 50.5494 49.7347 50.7406 50.0277C50.9319 50.3166 51.2005 50.5425 51.5464 50.7053C51.8964 50.8681 52.3075 50.9495 52.7795 50.9495ZM52.7795 45.254C53.1621 45.254 53.4999 45.1767 53.7929 45.022C54.09 44.8674 54.324 44.6517 54.4949 44.375C54.6658 44.0982 54.7533 43.7788 54.7574 43.4166C54.7533 43.0584 54.6678 42.7451 54.501 42.4765C54.3341 42.2038 54.1022 41.9942 53.8051 41.8477C53.508 41.6971 53.1661 41.6218 52.7795 41.6218C52.3848 41.6218 52.0368 41.6971 51.7357 41.8477C51.4386 41.9942 51.2066 42.2038 51.0398 42.4765C50.877 42.7451 50.7976 43.0584 50.8017 43.4166C50.7976 43.7788 50.879 44.0982 51.0459 44.375C51.2168 44.6476 51.4508 44.8633 51.7479 45.022C52.049 45.1767 52.3929 45.254 52.7795 45.254Z" fill="#ECB22E"/>
</svg>
