<svg width="92" height="39" viewBox="0 0 92 39" fill="none" xmlns="http://www.w3.org/2000/svg">
<circle cx="81.3752" cy="19.0416" r="10.4142" fill="#FFF5E7" stroke="#ECB22E" stroke-width="0.323175"/>
<circle cx="11.13" cy="19.0416" r="10.4142" fill="#FFF5E7" stroke="#ECB22E" stroke-width="0.323175"/>
<rect x="9.42474" y="1.13861" width="71.6263" height="37.216" rx="3.23175" fill="#FFF6E2" stroke="#ECB22E" stroke-width="0.646351"/>
<path d="M44.2849 30.8487C43.4058 30.8487 42.6244 30.6981 41.9407 30.3969C41.2611 30.0958 40.7239 29.6766 40.3292 29.1394C39.9344 28.6022 39.7248 27.9816 39.7004 27.2776H41.9957C42.016 27.6153 42.128 27.9104 42.3314 28.1627C42.5349 28.4109 42.8055 28.6043 43.1433 28.7426C43.4811 28.881 43.8596 28.9502 44.2788 28.9502C44.7264 28.9502 45.1232 28.8728 45.4691 28.7182C45.815 28.5595 46.0857 28.3397 46.281 28.0589C46.4764 27.7781 46.572 27.4546 46.5679 27.0883C46.572 26.7098 46.4743 26.3761 46.2749 26.0872C46.0755 25.7982 45.7866 25.5724 45.4081 25.4096C45.0337 25.2468 44.5819 25.1654 44.0529 25.1654H42.948V23.4195H44.0529C44.4883 23.4195 44.8689 23.3442 45.1944 23.1937C45.5241 23.0431 45.7825 22.8315 45.9697 22.5588C46.1569 22.2821 46.2485 21.9626 46.2444 21.6004C46.2485 21.2463 46.1691 20.9391 46.0063 20.6786C45.8476 20.4141 45.6217 20.2086 45.3287 20.0621C45.0398 19.9156 44.7 19.8423 44.3093 19.8423C43.9267 19.8423 43.5727 19.9115 43.2471 20.0499C42.9215 20.1882 42.659 20.3856 42.4596 20.642C42.2602 20.8943 42.1544 21.1955 42.1422 21.5455H39.9629C39.9792 20.8455 40.1806 20.231 40.5672 19.7019C40.9579 19.1688 41.4788 18.7537 42.13 18.4566C42.7811 18.1555 43.5116 18.0049 44.3215 18.0049C45.1558 18.0049 45.8802 18.1616 46.4947 18.4749C47.1133 18.7842 47.5914 19.2014 47.9292 19.7263C48.267 20.2513 48.4359 20.8312 48.4359 21.4661C48.44 22.1702 48.2324 22.7603 47.8132 23.2364C47.3981 23.7125 46.8528 24.0239 46.1772 24.1704V24.2681C47.0563 24.3901 47.7298 24.7157 48.1978 25.2448C48.6699 25.7697 48.9039 26.4229 48.8998 27.2043C48.8998 27.9043 48.7004 28.531 48.3016 29.0845C47.9068 29.6339 47.3615 30.0653 46.6656 30.3786C45.9738 30.692 45.1802 30.8487 44.2849 30.8487Z" fill="#ECB22E"/>
</svg>
