<svg width="66" height="118" viewBox="0 0 66 118" fill="none" xmlns="http://www.w3.org/2000/svg">
<circle cx="34.2295" cy="13.9234" r="13.4038" transform="rotate(-90 34.2295 13.9234)" fill="#FFF5E7" stroke="#ECB22E" stroke-width="0.415949"/>
<circle cx="34.2295" cy="104.334" r="13.4038" transform="rotate(-90 34.2295 104.334)" fill="#FFF5E7" stroke="#ECB22E" stroke-width="0.415949"/>
<rect x="1.26766" y="108.959" width="92.1879" height="63.6962" rx="4.15949" transform="rotate(-90 1.26766 108.959)" fill="#FFF6E2" stroke="#ECB22E" stroke-width="0.831898"/>
<path d="M30.2741 54.9851C31.0441 54.9903 31.7931 55.1265 32.5212 55.3936C33.2545 55.6555 33.9145 56.085 34.5011 56.6821C35.0878 57.274 35.5539 58.0676 35.8997 59.0628C36.2454 60.058 36.4182 61.2889 36.4182 62.7555C36.4234 64.1383 36.2768 65.3744 35.9782 66.4639C35.6849 67.5482 35.2632 68.4648 34.7133 69.2138C34.1633 69.9629 33.5007 70.5338 32.7255 70.9266C31.9503 71.3195 31.0782 71.5159 30.1091 71.5159C29.093 71.5159 28.1921 71.3169 27.4064 70.9188C26.6259 70.5207 25.9948 69.9759 25.5129 69.2845C25.031 68.5931 24.7351 67.8022 24.6251 66.9118H27.4928C27.6395 67.5508 27.938 68.0589 28.3885 68.436C28.8442 68.8079 29.4177 68.9938 30.1091 68.9938C31.2248 68.9938 32.0838 68.5093 32.6862 67.5403C33.2886 66.5713 33.5897 65.2252 33.5897 63.5019H33.4797C33.2231 63.9628 32.8905 64.3609 32.4819 64.6961C32.0734 65.0261 31.6098 65.2802 31.0913 65.4583C30.5779 65.6363 30.0332 65.7254 29.457 65.7254C28.5142 65.7254 27.6657 65.5002 26.9114 65.0497C26.1624 64.5992 25.5679 63.9812 25.1279 63.1955C24.6932 62.4098 24.4732 61.5115 24.4679 60.5006C24.4679 59.453 24.7089 58.5128 25.1908 57.68C25.6779 56.8419 26.3562 56.1819 27.2257 55.7C28.0952 55.2129 29.1113 54.9746 30.2741 54.9851ZM30.282 57.3421C29.7163 57.3421 29.2056 57.4809 28.7499 57.7585C28.2994 58.0309 27.9433 58.4028 27.6814 58.8742C27.4247 59.3404 27.2964 59.8615 27.2964 60.4377C27.3016 61.0087 27.43 61.5272 27.6814 61.9934C27.938 62.4596 28.2864 62.8288 28.7263 63.1012C29.1716 63.3736 29.6796 63.5098 30.2506 63.5098C30.6748 63.5098 31.0703 63.4286 31.437 63.2662C31.8036 63.1038 32.1231 62.8786 32.3955 62.5905C32.6731 62.2972 32.8879 61.9646 33.0398 61.5927C33.1969 61.2208 33.2728 60.8279 33.2676 60.4141C33.2676 59.8642 33.1367 59.3561 32.8748 58.8899C32.6181 58.4237 32.2645 58.0492 31.8141 57.7664C31.3689 57.4835 30.8582 57.3421 30.282 57.3421Z" fill="#ECB22E"/>
</svg>
