<svg width="93" height="103" viewBox="0 0 93 103" fill="none" xmlns="http://www.w3.org/2000/svg">
<circle cx="32.6417" cy="11.177" r="10.4142" transform="rotate(-89.6419 32.6417 11.177)" fill="#FFF5E7" stroke="#ECB22E" stroke-width="0.323175"/>
<circle cx="32.6417" cy="91.3245" r="10.4142" transform="rotate(-89.6419 32.6417 91.3245)" fill="#FFF5E7" stroke="#ECB22E" stroke-width="0.323175"/>
<circle cx="59.9794" cy="11.177" r="10.4142" transform="rotate(-89.6419 59.9794 11.177)" fill="#FFF5E7" stroke="#ECB22E" stroke-width="0.323175"/>
<circle cx="59.9794" cy="91.3245" r="10.4142" transform="rotate(-89.6419 59.9794 91.3245)" fill="#FFF5E7" stroke="#ECB22E" stroke-width="0.323175"/>
<rect x="1.09661" y="91.3917" width="80.0853" height="90.8543" rx="3.23175" transform="rotate(-89.6419 1.09661 91.3917)" fill="#FFF6E2" stroke="#ECB22E" stroke-width="0.646351"/>
<path d="M42.389 58.251V56.615L46.7292 52.3602C47.1443 51.941 47.4903 51.5686 47.767 51.2431C48.0437 50.9175 48.2513 50.6021 48.3896 50.2969C48.528 49.9916 48.5972 49.6661 48.5972 49.3202C48.5972 48.9254 48.5077 48.5876 48.3286 48.3068C48.1495 48.0219 47.9033 47.8022 47.59 47.6475C47.2766 47.4929 46.9205 47.4156 46.5217 47.4156C46.1106 47.4156 45.7505 47.501 45.4412 47.672C45.1319 47.8388 44.8918 48.0769 44.7209 48.3862C44.554 48.6955 44.4706 49.0638 44.4706 49.4911H42.3157C42.3157 48.6975 42.4968 48.0077 42.859 47.4217C43.2212 46.8356 43.7197 46.3819 44.3546 46.0604C44.9935 45.7389 45.7261 45.5781 46.5522 45.5781C47.3906 45.5781 48.1272 45.7348 48.762 46.0482C49.3969 46.3615 49.8893 46.7909 50.2393 47.3362C50.5934 47.8815 50.7704 48.5042 50.7704 49.2042C50.7704 49.6722 50.6809 50.132 50.5018 50.5838C50.3227 51.0355 50.0073 51.5361 49.5556 52.0855C49.1079 52.6349 48.4792 53.3003 47.6693 54.0816L45.5144 56.2731V56.3586H50.9596V58.251H42.389Z" fill="#ECB22E"/>
</svg>
