<svg width="92" height="51" viewBox="0 0 92 51" fill="none" xmlns="http://www.w3.org/2000/svg">
<circle cx="80.8374" cy="26.2584" r="10.4142" fill="#FFF5E7" stroke="#ECB22E" stroke-width="0.323175"/>
<circle cx="10.5923" cy="26.2584" r="10.4142" fill="#FFF5E7" stroke="#ECB22E" stroke-width="0.323175"/>
<rect x="6.9989" y="0.648371" width="71.6263" height="49.4894" rx="3.23175" fill="#FFF6E2" stroke="#ECB22E" stroke-width="0.646351"/>
<path d="M41.7125 17.5146C42.3107 17.5187 42.8927 17.6245 43.4584 17.8321C44.0281 18.0356 44.5409 18.3693 44.9967 18.8332C45.4525 19.2931 45.8147 19.9096 46.0833 20.6829C46.3519 21.4561 46.4862 22.4125 46.4862 23.552C46.4903 24.6263 46.3763 25.5868 46.1444 26.4333C45.9165 27.2757 45.5888 27.9879 45.1615 28.5698C44.7342 29.1518 44.2194 29.5954 43.6171 29.9006C43.0148 30.2058 42.3372 30.3584 41.5843 30.3584C40.7948 30.3584 40.0948 30.2038 39.4844 29.8945C38.878 29.5852 38.3876 29.162 38.0132 28.6248C37.6388 28.0876 37.4089 27.4731 37.3234 26.7812H39.5515C39.6655 27.2777 39.8975 27.6725 40.2474 27.9655C40.6015 28.2544 41.0471 28.3989 41.5843 28.3989C42.4512 28.3989 43.1186 28.0225 43.5866 27.2696C44.0546 26.5167 44.2886 25.4708 44.2886 24.1319H44.2031C44.0037 24.49 43.7453 24.7993 43.4279 25.0598C43.1104 25.3161 42.7503 25.5135 42.3474 25.6519C41.9486 25.7903 41.5253 25.8594 41.0776 25.8594C40.3451 25.8594 39.6858 25.6844 39.0998 25.3345C38.5178 24.9845 38.0559 24.5042 37.7141 23.8938C37.3763 23.2834 37.2054 22.5854 37.2013 21.8C37.2013 20.986 37.3885 20.2555 37.7629 19.6085C38.1414 18.9573 38.6684 18.4446 39.344 18.0701C40.0195 17.6917 40.8091 17.5065 41.7125 17.5146ZM41.7186 19.346C41.2791 19.346 40.8823 19.4538 40.5282 19.6695C40.1783 19.8811 39.9015 20.1701 39.698 20.5363C39.4986 20.8985 39.3989 21.3035 39.3989 21.7511C39.403 22.1947 39.5027 22.5976 39.698 22.9598C39.8975 23.322 40.1681 23.6089 40.5099 23.8205C40.8559 24.0322 41.2506 24.138 41.6942 24.138C42.0238 24.138 42.3311 24.0749 42.616 23.9487C42.9008 23.8226 43.1491 23.6476 43.3607 23.4238C43.5764 23.1959 43.7433 22.9374 43.8613 22.6485C43.9834 22.3595 44.0424 22.0543 44.0383 21.7328C44.0383 21.3055 43.9366 20.9108 43.7331 20.5486C43.5337 20.1864 43.259 19.8954 42.909 19.6756C42.5631 19.4559 42.1663 19.346 41.7186 19.346Z" fill="#ECB22E"/>
</svg>
