<svg width="73" height="95" viewBox="0 0 73 95" fill="none" xmlns="http://www.w3.org/2000/svg">
<path d="M20.9857 0.471744C28.0301 0.471744 33.7573 6.46339 33.7573 13.8755C33.7573 21.2877 28.0301 27.2793 20.9857 27.2793C13.9413 27.2793 8.21402 21.2877 8.21402 13.8755C8.21402 6.4634 13.9413 0.471744 20.9857 0.471744Z" fill="#FFF5E7" stroke="#ECB22E" stroke-width="0.415949"/>
<path d="M17.8868 67.2393C25.2587 67.2393 31.2362 73.2396 31.2362 80.6431C31.2362 88.0466 25.2587 94.0469 17.8868 94.0469C10.5149 94.0469 4.53744 88.0466 4.53744 80.6431C4.53744 73.2396 10.5149 67.2393 17.8868 67.2393Z" fill="#FFF5E7" stroke="#ECB22E" stroke-width="0.415949"/>
<path d="M52.7678 0.471744C59.7055 0.471744 65.3513 6.46046 65.3513 13.8755C65.3513 21.2906 59.7055 27.2793 52.7678 27.2793C45.8301 27.2793 40.1842 21.2906 40.1842 13.8755C40.1842 6.46046 45.8301 0.471744 52.7678 0.471744Z" fill="#FFF5E7" stroke="#ECB22E" stroke-width="0.415949"/>
<path d="M48.7312 67.2393C56.1031 67.2393 62.0806 73.2396 62.0806 80.6431C62.0806 88.0466 56.1031 94.0469 48.7312 94.0469C41.3594 94.0469 35.3819 88.0466 35.3819 80.6431C35.3819 73.2396 41.3594 67.2393 48.7312 67.2393Z" fill="#FFF5E7" stroke="#ECB22E" stroke-width="0.415949"/>
<rect x="0.585077" y="80.2276" width="62.1396" height="71.4589" rx="4.15949" transform="rotate(-90 0.585077 80.2276)" fill="#FFF6E2" stroke="#ECB22E" stroke-width="0.831898"/>
<path d="M33.9733 58.7493C32.8052 58.7493 31.7681 58.5529 30.862 58.16C29.9611 57.7672 29.2539 57.2303 28.7406 56.5494C28.2326 55.8632 27.9811 55.0854 27.9864 54.2159C27.9811 53.5402 28.1278 52.9195 28.4264 52.3538C28.7249 51.7881 29.1282 51.3167 29.6363 50.9396C30.1496 50.5572 30.7206 50.3136 31.3491 50.2089V50.0989C30.5215 49.9156 29.8511 49.4939 29.3377 48.8339C28.8297 48.1687 28.5783 47.4014 28.5835 46.5319C28.5783 45.7043 28.8087 44.9657 29.2749 44.3162C29.7411 43.6667 30.3801 43.156 31.192 42.7842C32.0038 42.407 32.931 42.2185 33.9733 42.2185C35.0052 42.2185 35.9244 42.407 36.7311 42.7842C37.5429 43.156 38.182 43.6667 38.6481 44.3162C39.1195 44.9657 39.3552 45.7043 39.3552 46.5319C39.3552 47.4014 39.096 48.1687 38.5774 48.8339C38.0641 49.4939 37.4015 49.9156 36.5896 50.0989V50.2089C37.2182 50.3136 37.7839 50.5572 38.2867 50.9396C38.7948 51.3167 39.1981 51.7881 39.4967 52.3538C39.8005 52.9195 39.9524 53.5402 39.9524 54.2159C39.9524 55.0854 39.6957 55.8632 39.1824 56.5494C38.6691 57.2303 37.962 57.7672 37.061 58.16C36.1654 58.5529 35.1361 58.7493 33.9733 58.7493ZM33.9733 56.5022C34.5757 56.5022 35.0994 56.4001 35.5447 56.1958C35.9899 55.9863 36.3356 55.693 36.5818 55.3158C36.828 54.9387 36.9537 54.504 36.9589 54.0116C36.9537 53.4983 36.8201 53.0452 36.5582 52.6524C36.3015 52.2543 35.948 51.9426 35.4975 51.7174C35.0523 51.4922 34.5442 51.3796 33.9733 51.3796C33.3971 51.3796 32.8838 51.4922 32.4334 51.7174C31.9829 51.9426 31.6267 52.2543 31.3648 52.6524C31.1082 53.0452 30.9825 53.4983 30.9877 54.0116C30.9825 54.504 31.1029 54.9387 31.3491 55.3158C31.5953 55.6877 31.941 55.9784 32.3862 56.188C32.8367 56.3975 33.3657 56.5022 33.9733 56.5022ZM33.9733 49.1718C34.4657 49.1718 34.9004 49.0723 35.2775 48.8732C35.6599 48.6742 35.9611 48.3966 36.1811 48.0404C36.4011 47.6842 36.5137 47.273 36.5189 46.8069C36.5137 46.3459 36.4037 45.9426 36.1889 45.5969C35.9742 45.246 35.6756 44.9762 35.2932 44.7877C34.9109 44.5938 34.4709 44.4969 33.9733 44.4969C33.4652 44.4969 33.0174 44.5938 32.6298 44.7877C32.2474 44.9762 31.9488 45.246 31.7341 45.5969C31.5246 45.9426 31.4224 46.3459 31.4277 46.8069C31.4224 47.273 31.5272 47.6842 31.7419 48.0404C31.9619 48.3913 32.2631 48.6689 32.6455 48.8732C33.0331 49.0723 33.4757 49.1718 33.9733 49.1718Z" fill="#ECB22E"/>
</svg>
