<svg width="73" height="123" viewBox="0 0 73 123" fill="none" xmlns="http://www.w3.org/2000/svg">
<path d="M20.2381 0.861392C27.2825 0.861392 33.0097 6.85304 33.0097 14.2652C33.0097 21.6773 27.2825 27.669 20.2381 27.669C13.1937 27.669 7.46643 21.6773 7.46643 14.2652C7.46643 6.85304 13.1937 0.861393 20.2381 0.861392Z" fill="#FFF5E7" stroke="#ECB22E" stroke-width="0.415949"/>
<path d="M21.942 95.0401C29.3139 95.0401 35.2914 101.04 35.2914 108.444C35.2914 115.847 29.3139 121.848 21.942 121.848C14.5702 121.848 8.59265 115.847 8.59265 108.444C8.59265 101.04 14.5702 95.0401 21.942 95.0401Z" fill="#FFF5E7" stroke="#ECB22E" stroke-width="0.415949"/>
<path d="M52.0207 0.861392C58.9584 0.861392 64.6042 6.85011 64.6042 14.2652C64.6042 21.6803 58.9584 27.669 52.0207 27.669C45.083 27.669 39.4371 21.6803 39.4371 14.2652C39.4371 6.85011 45.083 0.861393 52.0207 0.861392Z" fill="#FFF5E7" stroke="#ECB22E" stroke-width="0.415949"/>
<path d="M52.7864 95.0401C60.1583 95.0401 66.1358 101.04 66.1358 108.444C66.1358 115.847 60.1583 121.848 52.7864 121.848C45.4145 121.848 39.437 115.847 39.437 108.444C39.437 101.04 45.4145 95.0401 52.7864 95.0401Z" fill="#FFF5E7" stroke="#ECB22E" stroke-width="0.415949"/>
<rect x="0.493738" y="106.867" width="92.1879" height="71.4589" rx="4.15949" transform="rotate(-90 0.493738 106.867)" fill="#FFF6E2" stroke="#ECB22E" stroke-width="0.831898"/>
<path d="M29.9504 69.415V67.3094L35.5366 61.8332C36.0709 61.2937 36.5161 60.8144 36.8723 60.3954C37.2284 59.9763 37.4956 59.5704 37.6737 59.1776C37.8518 58.7847 37.9408 58.3657 37.9408 57.9205C37.9408 57.4124 37.8256 56.9776 37.5951 56.6162C37.3646 56.2496 37.0477 55.9667 36.6444 55.7677C36.2411 55.5686 35.7828 55.4691 35.2695 55.4691C34.7404 55.4691 34.2769 55.5791 33.8788 55.7991C33.4807 56.0139 33.1717 56.3203 32.9517 56.7184C32.7369 57.1164 32.6296 57.5905 32.6296 58.1404H29.8561C29.8561 57.1191 30.0892 56.2312 30.5553 55.477C31.0215 54.7227 31.6632 54.1387 32.4803 53.7249C33.3026 53.3111 34.2455 53.1042 35.3087 53.1042C36.3878 53.1042 37.3358 53.3059 38.1529 53.7092C38.97 54.1125 39.6038 54.6651 40.0543 55.367C40.51 56.0689 40.7378 56.8703 40.7378 57.7712C40.7378 58.3735 40.6226 58.9654 40.3921 59.5468C40.1617 60.1282 39.7557 60.7725 39.1743 61.4796C38.5982 62.1867 37.7889 63.0431 36.7466 64.0488L33.9731 66.8694V66.9794H40.9814V69.415H29.9504Z" fill="#ECB22E"/>
</svg>
