<svg width="74" height="57" viewBox="0 0 74 57" fill="none" xmlns="http://www.w3.org/2000/svg">
<path d="M72.8723 16.779C72.8723 22.2522 68.217 26.702 62.4581 26.702C56.6992 26.702 52.0439 22.2522 52.0439 16.779C52.0439 11.3058 56.6992 6.85592 62.4581 6.85592C68.217 6.85592 72.8723 11.3058 72.8723 16.779Z" fill="#FFF5E7" stroke="#ECB22E" stroke-width="0.323175"/>
<path d="M20.9968 14.3714C20.9968 20.099 16.3348 24.7433 10.5826 24.7433C4.83035 24.7433 0.168363 20.099 0.168363 14.3714C0.168363 8.64376 4.83035 3.99948 10.5826 3.99948C16.3348 3.99948 20.9968 8.64376 20.9968 14.3714Z" fill="#FFF5E7" stroke="#ECB22E" stroke-width="0.323175"/>
<path d="M72.8723 41.4727C72.8723 46.863 68.2193 51.2495 62.4581 51.2495C56.6969 51.2495 52.0439 46.863 52.0439 41.4727C52.0439 36.0823 56.6969 31.6958 62.4581 31.6958C68.2193 31.6958 72.8723 36.0823 72.8723 41.4727Z" fill="#FFF5E7" stroke="#ECB22E" stroke-width="0.323175"/>
<path d="M20.9968 38.3362C20.9968 44.0639 16.3348 48.7082 10.5826 48.7082C4.83035 48.7082 0.168363 44.0639 0.168363 38.3362C0.168363 32.6086 4.83035 27.9643 10.5826 27.9643C16.3348 27.9643 20.9968 32.6086 20.9968 38.3362Z" fill="#FFF5E7" stroke="#ECB22E" stroke-width="0.323175"/>
<rect x="10.9058" y="0.928644" width="48.2799" height="55.5206" rx="3.23175" fill="#FFF6E2" stroke="#ECB22E" stroke-width="0.646351"/>
<path d="M35.1611 35.1143C34.5629 35.1102 33.9789 35.0064 33.4091 34.803C32.8394 34.5954 32.3266 34.2597 31.8708 33.7957C31.415 33.3277 31.0528 32.7071 30.7842 31.9339C30.5156 31.1566 30.3833 30.1941 30.3874 29.0465C30.3874 27.9761 30.5014 27.0218 30.7293 26.1835C30.9572 25.3451 31.2848 24.637 31.7121 24.0591C32.1394 23.4772 32.6542 23.0336 33.2565 22.7283C33.8629 22.4231 34.5405 22.2705 35.2893 22.2705C36.0747 22.2705 36.7706 22.4251 37.377 22.7344C37.9875 23.0437 38.4799 23.467 38.8543 24.0042C39.2287 24.5373 39.4607 25.1396 39.5502 25.8111H37.3221C37.2081 25.3309 36.9741 24.9483 36.6201 24.6634C36.2701 24.3745 35.8265 24.23 35.2893 24.23C34.4225 24.23 33.755 24.6065 33.287 25.3594C32.8231 26.1122 32.5891 27.1459 32.585 28.4604H32.6705C32.8699 28.1023 33.1283 27.795 33.4457 27.5387C33.7632 27.2823 34.1213 27.0849 34.5201 26.9465C34.923 26.8041 35.3483 26.7329 35.796 26.7329C36.5285 26.7329 37.1857 26.9079 37.7677 27.2578C38.3537 27.6078 38.8177 28.0901 39.1595 28.7046C39.5014 29.315 39.6703 30.015 39.6662 30.8045C39.6703 31.6266 39.483 32.3652 39.1046 33.0205C38.7261 33.6716 38.1991 34.1844 37.5235 34.5588C36.848 34.9332 36.0605 35.1184 35.1611 35.1143ZM35.1489 33.2829C35.5925 33.2829 35.9893 33.1751 36.3393 32.9594C36.6892 32.7437 36.966 32.4527 37.1695 32.0865C37.3729 31.7202 37.4726 31.3092 37.4686 30.8534C37.4726 30.4057 37.375 30.0008 37.1756 29.6386C36.9802 29.2764 36.7096 28.9895 36.3637 28.7779C36.0177 28.5662 35.623 28.4604 35.1794 28.4604C34.8498 28.4604 34.5425 28.5235 34.2576 28.6497C33.9728 28.7758 33.7245 28.9508 33.5129 29.1746C33.3013 29.3944 33.1344 29.6508 33.0123 29.9438C32.8943 30.2328 32.8333 30.542 32.8292 30.8717C32.8333 31.3071 32.935 31.708 33.1344 32.0743C33.3338 32.4405 33.6085 32.7335 33.9585 32.9533C34.3085 33.1731 34.7053 33.2829 35.1489 33.2829Z" fill="#ECB22E"/>
</svg>
