<svg width="95" height="57" viewBox="0 0 95 57" fill="none" xmlns="http://www.w3.org/2000/svg">
<path d="M94.2385 15.9821C94.2385 21.4553 89.5833 25.9052 83.8243 25.9052C78.0654 25.9052 73.4101 21.4553 73.4101 15.9821C73.4101 10.5089 78.0654 6.05905 83.8243 6.05905C89.5833 6.05905 94.2385 10.5089 94.2385 15.9821Z" fill="#FFF5E7" stroke="#ECB22E" stroke-width="0.323175"/>
<path d="M21.0652 17.306C21.0652 23.0336 16.4032 27.6779 10.651 27.6779C4.89877 27.6779 0.236787 23.0336 0.236787 17.306C0.236787 11.5783 4.89877 6.93405 10.651 6.93405C16.4032 6.93405 21.0652 11.5783 21.0652 17.306Z" fill="#FFF5E7" stroke="#ECB22E" stroke-width="0.323175"/>
<path d="M94.2385 40.6758C94.2385 46.0661 89.5855 50.4527 83.8243 50.4527C78.0631 50.4527 73.4101 46.0661 73.4101 40.6758C73.4101 35.2855 78.0631 30.8989 83.8243 30.8989C89.5855 30.8989 94.2385 35.2855 94.2385 40.6758Z" fill="#FFF5E7" stroke="#ECB22E" stroke-width="0.323175"/>
<path d="M21.0652 41.2708C21.0652 46.9985 16.4032 51.6427 10.651 51.6427C4.89877 51.6427 0.236787 46.9985 0.236787 41.2708C0.236787 35.5432 4.89877 30.8989 10.651 30.8989C16.4032 30.8989 21.0652 35.5432 21.0652 41.2708Z" fill="#FFF5E7" stroke="#ECB22E" stroke-width="0.323175"/>
<rect x="11.8758" y="0.641535" width="71.6263" height="55.5206" rx="3.23175" fill="#FFF6E2" stroke="#ECB22E" stroke-width="0.646351"/>
<path d="M44.5973 23.334V35.8359H42.3325V25.5377H42.2593L39.3352 27.4057V25.3302L42.4424 23.334H44.5973ZM47.5457 33.5162V31.7154L52.8505 23.334H54.3522V25.8979H53.4365L49.8654 31.5567V31.6544H57.2701V33.5162H47.5457ZM53.5098 35.8359V32.9668L53.5342 32.1611V23.334H55.6708V35.8359H53.5098Z" fill="#ECB22E"/>
</svg>
