<svg width="74" height="57" viewBox="0 0 74 57" fill="none" xmlns="http://www.w3.org/2000/svg">
<path d="M73.8279 16.779C73.8279 22.2522 69.1726 26.702 63.4136 26.702C57.6547 26.702 52.9994 22.2522 52.9994 16.779C52.9994 11.3058 57.6547 6.85592 63.4136 6.85592C69.1726 6.85592 73.8279 11.3058 73.8279 16.779Z" fill="#FFF5E7" stroke="#ECB22E" stroke-width="0.323175"/>
<path d="M21.9523 14.3714C21.9523 20.099 17.2903 24.7433 11.5381 24.7433C5.78592 24.7433 1.12393 20.099 1.12393 14.3714C1.12393 8.64376 5.78592 3.99948 11.5381 3.99948C17.2903 3.99948 21.9523 8.64376 21.9523 14.3714Z" fill="#FFF5E7" stroke="#ECB22E" stroke-width="0.323175"/>
<path d="M73.8279 41.4727C73.8279 46.863 69.1749 51.2495 63.4136 51.2495C57.6524 51.2495 52.9994 46.863 52.9994 41.4727C52.9994 36.0823 57.6524 31.6958 63.4136 31.6958C69.1749 31.6958 73.8279 36.0823 73.8279 41.4727Z" fill="#FFF5E7" stroke="#ECB22E" stroke-width="0.323175"/>
<path d="M21.9523 38.3362C21.9523 44.0639 17.2903 48.7082 11.5381 48.7082C5.78592 48.7082 1.12393 44.0639 1.12393 38.3362C1.12393 32.6086 5.78592 27.9643 11.5381 27.9643C17.2903 27.9643 21.9523 32.6086 21.9523 38.3362Z" fill="#FFF5E7" stroke="#ECB22E" stroke-width="0.323175"/>
<rect x="11.8614" y="0.928644" width="48.2799" height="55.5206" rx="3.23175" fill="#FFF6E2" stroke="#ECB22E" stroke-width="0.646351"/>
<path d="M32.5249 34.9434L37.8419 24.4193V24.3338H31.6703V22.4414H40.186V24.3765L34.8752 34.9434H32.5249Z" fill="#ECB22E"/>
</svg>
