<svg width="93" height="39" viewBox="0 0 93 39" fill="none" xmlns="http://www.w3.org/2000/svg">
<circle cx="81.656" cy="18.8981" r="10.4142" fill="#FFF5E7" stroke="#ECB22E" stroke-width="0.323175"/>
<circle cx="11.4108" cy="18.8981" r="10.4142" fill="#FFF5E7" stroke="#ECB22E" stroke-width="0.323175"/>
<rect x="9.7055" y="0.99505" width="71.6263" height="37.216" rx="3.23175" fill="#FFF6E2" stroke="#ECB22E" stroke-width="0.646351"/>
<path d="M44.5656 30.7051C43.6866 30.7051 42.9052 30.5545 42.2215 30.2534C41.5419 29.9522 41.0047 29.533 40.6099 28.9959C40.2152 28.4587 40.0056 27.838 39.9812 27.134H42.2765C42.2968 27.4718 42.4087 27.7668 42.6122 28.0191C42.8157 28.2674 43.0863 28.4607 43.4241 28.5991C43.7619 28.7374 44.1403 28.8066 44.5595 28.8066C45.0072 28.8066 45.404 28.7293 45.7499 28.5746C46.0958 28.4159 46.3664 28.1962 46.5618 27.9154C46.7571 27.6346 46.8528 27.311 46.8487 26.9448C46.8528 26.5663 46.7551 26.2326 46.5557 25.9436C46.3563 25.6547 46.0673 25.4288 45.6888 25.266C45.3144 25.1032 44.8627 25.0219 44.3337 25.0219H43.2287V23.276H44.3337C44.7691 23.276 45.1496 23.2007 45.4752 23.0501C45.8048 22.8995 46.0633 22.6879 46.2505 22.4152C46.4377 22.1385 46.5292 21.819 46.5252 21.4568C46.5292 21.1028 46.4499 20.7955 46.2871 20.5351C46.1284 20.2705 45.9025 20.065 45.6095 19.9185C45.3205 19.772 44.9807 19.6988 44.59 19.6988C44.2075 19.6988 43.8534 19.7679 43.5279 19.9063C43.2023 20.0447 42.9398 20.2421 42.7404 20.4984C42.541 20.7508 42.4352 21.0519 42.423 21.4019H40.2437C40.2599 20.7019 40.4614 20.0874 40.848 19.5584C41.2387 19.0252 41.7596 18.6101 42.4107 18.3131C43.0619 18.0119 43.7924 17.8613 44.6023 17.8613C45.4365 17.8613 46.1609 18.018 46.7754 18.3314C47.394 18.6407 47.8722 19.0578 48.21 19.5828C48.5478 20.1078 48.7167 20.6877 48.7167 21.3226C48.7207 22.0266 48.5132 22.6167 48.094 23.0928C47.6789 23.569 47.1336 23.8803 46.458 24.0268V24.1245C47.337 24.2466 48.0106 24.5722 48.4786 25.1012C48.9507 25.6262 49.1847 26.2794 49.1806 27.0607C49.1806 27.7607 48.9812 28.3874 48.5824 28.9409C48.1876 29.4903 47.6423 29.9217 46.9464 30.2351C46.2545 30.5484 45.4609 30.7051 44.5656 30.7051Z" fill="#ECB22E"/>
</svg>
