<svg width="132" height="120" viewBox="0 0 132 120" fill="none" xmlns="http://www.w3.org/2000/svg">
<circle cx="14.1809" cy="78.194" r="13.4038" transform="rotate(-179.642 14.1809 78.194)" fill="#FFF5E7" stroke="#ECB22E" stroke-width="0.415949"/>
<circle cx="117.336" cy="78.194" r="13.4038" transform="rotate(-179.642 117.336 78.194)" fill="#FFF5E7" stroke="#ECB22E" stroke-width="0.415949"/>
<circle cx="14.1809" cy="43.0085" r="13.4038" transform="rotate(-179.642 14.1809 43.0085)" fill="#FFF5E7" stroke="#ECB22E" stroke-width="0.415949"/>
<circle cx="117.336" cy="43.0085" r="13.4038" transform="rotate(-179.642 117.336 43.0085)" fill="#FFF5E7" stroke="#ECB22E" stroke-width="0.415949"/>
<rect x="117.423" y="118.795" width="103.075" height="116.936" rx="4.15949" transform="rotate(-179.642 117.423 118.795)" fill="#FFF6E2" stroke="#ECB22E" stroke-width="0.831898"/>
<path d="M60.67 67.5791V65.4735L66.2562 59.9972C66.7904 59.4577 67.2357 58.9785 67.5918 58.5594C67.948 58.1404 68.2152 57.7345 68.3932 57.3416C68.5713 56.9488 68.6604 56.5297 68.6604 56.0845C68.6604 55.5764 68.5451 55.1417 68.3147 54.7803C68.0842 54.4136 67.7673 54.1308 67.364 53.9317C66.9607 53.7327 66.5024 53.6332 65.989 53.6332C65.46 53.6332 64.9965 53.7432 64.5984 53.9632C64.2003 54.1779 63.8913 54.4843 63.6713 54.8824C63.4565 55.2805 63.3491 55.7545 63.3491 56.3045H60.5757C60.5757 55.2831 60.8088 54.3953 61.2749 53.641C61.7411 52.8868 62.3828 52.3028 63.1999 51.889C64.0222 51.4752 64.965 51.2683 66.0283 51.2683C67.1073 51.2683 68.0554 51.4699 68.8725 51.8732C69.6896 52.2766 70.3234 52.8292 70.7739 53.531C71.2296 54.2329 71.4574 55.0343 71.4574 55.9352C71.4574 56.5376 71.3422 57.1295 71.1117 57.7109C70.8813 58.2923 70.4753 58.9366 69.8939 59.6437C69.3177 60.3508 68.5085 61.2072 67.4661 62.2129L64.6927 65.0335V65.1435H71.701V67.5791H60.67Z" fill="#ECB22E"/>
</svg>
