<svg width="96" height="57" viewBox="0 0 96 57" fill="none" xmlns="http://www.w3.org/2000/svg">
<path d="M95.0698 16.3776C95.0698 21.8508 90.4146 26.3007 84.6556 26.3007C78.8967 26.3007 74.2414 21.8508 74.2414 16.3776C74.2414 10.9044 78.8967 6.45456 84.6556 6.45456C90.4146 6.45456 95.0698 10.9044 95.0698 16.3776Z" fill="#FFF5E7" stroke="#ECB22E" stroke-width="0.323175"/>
<path d="M21.8965 17.7015C21.8965 23.4291 17.2345 28.0734 11.4823 28.0734C5.73007 28.0734 1.06808 23.4291 1.06808 17.7015C1.06808 11.9738 5.73007 7.32956 11.4823 7.32956C17.2345 7.32956 21.8965 11.9738 21.8965 17.7015Z" fill="#FFF5E7" stroke="#ECB22E" stroke-width="0.323175"/>
<path d="M95.0698 41.0713C95.0698 46.4616 90.4168 50.8482 84.6556 50.8482C78.8944 50.8482 74.2414 46.4616 74.2414 41.0713C74.2414 35.681 78.8944 31.2944 84.6556 31.2944C90.4168 31.2944 95.0698 35.681 95.0698 41.0713Z" fill="#FFF5E7" stroke="#ECB22E" stroke-width="0.323175"/>
<path d="M21.8965 41.6663C21.8965 47.394 17.2345 52.0382 11.4823 52.0382C5.73007 52.0382 1.06808 47.394 1.06808 41.6663C1.06808 35.9387 5.73007 31.2944 11.4823 31.2944C17.2345 31.2944 21.8965 35.9387 21.8965 41.6663Z" fill="#FFF5E7" stroke="#ECB22E" stroke-width="0.323175"/>
<rect x="12.7071" y="1.03704" width="71.6263" height="55.5206" rx="3.23175" fill="#FFF6E2" stroke="#ECB22E" stroke-width="0.646351"/>
<path d="M44.8593 36.2314V34.5955L49.1996 30.3406C49.6147 29.9215 49.9606 29.5491 50.2374 29.2235C50.5141 28.898 50.7216 28.5826 50.86 28.2773C50.9984 27.9721 51.0676 27.6465 51.0676 27.3006C51.0676 26.9059 50.978 26.5681 50.799 26.2873C50.6199 26.0024 50.3737 25.7826 50.0603 25.628C49.747 25.4734 49.3909 25.396 48.9921 25.396C48.581 25.396 48.2209 25.4815 47.9116 25.6524C47.6023 25.8193 47.3622 26.0573 47.1912 26.3666C47.0244 26.6759 46.941 27.0442 46.941 27.4715H44.7861C44.7861 26.678 44.9672 25.9882 45.3294 25.4021C45.6916 24.8161 46.1901 24.3623 46.825 24.0408C47.4639 23.7193 48.1964 23.5586 49.0226 23.5586C49.8609 23.5586 50.5975 23.7153 51.2324 24.0286C51.8673 24.342 52.3597 24.7713 52.7097 25.3167C53.0637 25.862 53.2408 26.4847 53.2408 27.1846C53.2408 27.6526 53.1512 28.1125 52.9722 28.5642C52.7931 29.016 52.4777 29.5165 52.026 30.0659C51.5783 30.6153 50.9495 31.2807 50.1397 32.0621L47.9848 34.2536V34.3391H53.43V36.2314H44.8593Z" fill="#ECB22E"/>
</svg>
