<svg width="66" height="118" viewBox="0 0 66 118" fill="none" xmlns="http://www.w3.org/2000/svg">
<circle cx="34.2277" cy="13.6558" r="13.4038" transform="rotate(-90 34.2277 13.6558)" fill="#FFF5E7" stroke="#ECB22E" stroke-width="0.415949"/>
<circle cx="34.2277" cy="104.066" r="13.4038" transform="rotate(-90 34.2277 104.066)" fill="#FFF5E7" stroke="#ECB22E" stroke-width="0.415949"/>
<rect x="1.26586" y="106.261" width="92.1879" height="63.6962" rx="4.15949" transform="rotate(-90 1.26586 106.261)" fill="#FFF6E2" stroke="#ECB22E" stroke-width="0.831898"/>
<path d="M26.9101 51.4472V67.5381H23.9952V54.2836H23.9009L20.1375 56.6878V54.0164L24.1366 51.4472H26.9101ZM36.9433 67.8445C35.6495 67.8445 34.5391 67.5171 33.612 66.8624C32.6901 66.2024 31.9804 65.2517 31.4828 64.0104C30.9904 62.7637 30.7442 61.2631 30.7442 59.5084C30.7495 57.7537 30.9983 56.2609 31.4906 55.03C31.9882 53.7938 32.698 52.851 33.6198 52.2015C34.5469 51.552 35.6548 51.2272 36.9433 51.2272C38.2318 51.2272 39.3396 51.552 40.2667 52.2015C41.1938 52.851 41.9036 53.7938 42.3959 55.03C42.8935 56.2661 43.1423 57.7589 43.1423 59.5084C43.1423 61.2683 42.8935 62.7716 42.3959 64.0182C41.9036 65.2596 41.1938 66.2077 40.2667 66.8624C39.3449 67.5171 38.237 67.8445 36.9433 67.8445ZM36.9433 65.3853C37.949 65.3853 38.7425 64.8903 39.3239 63.9004C39.9106 62.9052 40.2039 61.4412 40.2039 59.5084C40.2039 58.2303 40.0703 57.1566 39.8032 56.2871C39.536 55.4176 39.1589 54.7628 38.6718 54.3228C38.1847 53.8776 37.6085 53.655 36.9433 53.655C35.9428 53.655 35.1519 54.1526 34.5705 55.1478C33.9891 56.1378 33.6958 57.5913 33.6905 59.5084C33.6853 60.7917 33.8136 61.8707 34.0755 62.7454C34.3427 63.6201 34.7198 64.2801 35.2069 64.7253C35.694 65.1653 36.2728 65.3853 36.9433 65.3853Z" fill="#ECB22E"/>
</svg>
