<svg width="96" height="57" viewBox="0 0 96 57" fill="none" xmlns="http://www.w3.org/2000/svg">
<path d="M95.0197 15.9889C95.0197 21.4621 90.3644 25.912 84.6055 25.912C78.8466 25.912 74.1913 21.4621 74.1913 15.9889C74.1913 10.5157 78.8466 6.06588 84.6055 6.06588C90.3644 6.06588 95.0197 10.5157 95.0197 15.9889Z" fill="#FFF5E7" stroke="#ECB22E" stroke-width="0.323175"/>
<path d="M21.8464 17.3128C21.8464 23.0405 17.1844 27.6847 11.4322 27.6847C5.67996 27.6847 1.01797 23.0405 1.01797 17.3128C1.01797 11.5852 5.67996 6.94088 11.4322 6.94088C17.1844 6.94088 21.8464 11.5852 21.8464 17.3128Z" fill="#FFF5E7" stroke="#ECB22E" stroke-width="0.323175"/>
<path d="M95.0197 40.6826C95.0197 46.0729 90.3667 50.4595 84.6055 50.4595C78.8443 50.4595 74.1913 46.0729 74.1913 40.6826C74.1913 35.2923 78.8443 30.9057 84.6055 30.9057C90.3667 30.9057 95.0197 35.2923 95.0197 40.6826Z" fill="#FFF5E7" stroke="#ECB22E" stroke-width="0.323175"/>
<path d="M21.8464 41.2776C21.8464 47.0053 17.1844 51.6496 11.4322 51.6496C5.67996 51.6496 1.01797 47.0053 1.01797 41.2776C1.01797 35.55 5.67996 30.9057 11.4322 30.9057C17.1844 30.9057 21.8464 35.55 21.8464 41.2776Z" fill="#FFF5E7" stroke="#ECB22E" stroke-width="0.323175"/>
<rect x="12.657" y="0.648371" width="71.6263" height="55.5206" rx="3.23175" fill="#FFF6E2" stroke="#ECB22E" stroke-width="0.646351"/>
<path d="M48.4885 36.0137C47.6745 36.0137 46.9461 35.8611 46.3031 35.5559C45.6601 35.2466 45.1493 34.8233 44.7709 34.2861C44.3964 33.7489 44.197 33.1344 44.1726 32.4426H46.3702C46.4109 32.9554 46.6327 33.3745 47.0356 33.7001C47.4385 34.0216 47.9228 34.1824 48.4885 34.1824C48.9321 34.1824 49.3268 34.0806 49.6727 33.8771C50.0187 33.6737 50.2913 33.3908 50.4907 33.0286C50.6901 32.6664 50.7878 32.2534 50.7837 31.7894C50.7878 31.3173 50.6881 30.8982 50.4846 30.5319C50.2811 30.1656 50.0024 29.8787 49.6483 29.6712C49.2943 29.4595 48.8873 29.3537 48.4274 29.3537C48.053 29.3497 47.6847 29.4188 47.3225 29.5613C46.9603 29.7037 46.6734 29.8909 46.4618 30.1229L44.4168 29.7871L45.07 23.3408H52.3221V25.2332H46.944L46.5839 28.5479H46.6571C46.8891 28.2753 47.2167 28.0494 47.6399 27.8703C48.0632 27.6872 48.5271 27.5956 49.0318 27.5956C49.7887 27.5956 50.4643 27.7747 51.0584 28.1328C51.6526 28.4869 52.1206 28.9753 52.4625 29.5979C52.8043 30.2206 52.9752 30.9328 52.9752 31.7345C52.9752 32.5606 52.784 33.2972 52.4014 33.9443C52.0229 34.5873 51.4959 35.094 50.8204 35.4643C50.1489 35.8306 49.3716 36.0137 48.4885 36.0137Z" fill="#ECB22E"/>
</svg>
