<svg width="1206" height="777" viewBox="0 0 1206 777" fill="none" xmlns="http://www.w3.org/2000/svg">
<circle cx="28.8491" cy="762.769" r="13.1118" transform="rotate(-90 28.8491 762.769)" fill="#FFF5E7" stroke="#FFB100"/>
<circle cx="31.0235" cy="669.751" r="13.1118" transform="rotate(-90 31.0235 669.751)" fill="#FFF5E7" stroke="#FFB100"/>
<circle cx="68.8689" cy="762.769" r="13.1118" transform="rotate(-90 68.8689 762.769)" fill="#FFF5E7" stroke="#FFB100"/>
<circle cx="71.0458" cy="669.751" r="13.1118" transform="rotate(-90 71.0458 669.751)" fill="#FFF5E7" stroke="#FFB100"/>
<circle cx="111.336" cy="762.769" r="13.1118" transform="rotate(-90 111.336 762.769)" fill="#FFF5E7" stroke="#FFB100"/>
<circle cx="113.513" cy="669.751" r="13.1118" transform="rotate(-90 113.513 669.751)" fill="#FFF5E7" stroke="#FFB100"/>
<rect x="1.46411" y="762.27" width="92.0198" height="138.462" rx="4.07544" transform="rotate(-90 1.46411 762.27)" fill="#FFF6E2" stroke="#FFB100"/>
<path d="M58.1153 723.694V721.589L63.7015 716.112C64.2357 715.573 64.681 715.094 65.0371 714.675C65.3933 714.256 65.6605 713.85 65.8385 713.457C66.0166 713.064 66.1057 712.645 66.1057 712.2C66.1057 711.692 65.9904 711.257 65.76 710.896C65.5295 710.529 65.2126 710.246 64.8093 710.047C64.406 709.848 63.9477 709.748 63.4343 709.748C62.9053 709.748 62.4418 709.858 62.0437 710.078C61.6456 710.293 61.3366 710.6 61.1166 710.998C60.9018 711.396 60.7944 711.87 60.7944 712.42H58.021C58.021 711.398 58.2541 710.511 58.7202 709.756C59.1864 709.002 59.828 708.418 60.6452 708.004C61.4675 707.59 62.4103 707.383 63.4736 707.383C64.5526 707.383 65.5007 707.585 66.3178 707.988C67.1349 708.392 67.7687 708.944 68.2192 709.646C68.6749 710.348 68.9027 711.15 68.9027 712.05C68.9027 712.653 68.7875 713.245 68.557 713.826C68.3265 714.408 67.9206 715.052 67.3392 715.759C66.763 716.466 65.9538 717.322 64.9114 718.328L62.138 721.149V721.259H69.1463V723.694H58.1153ZM71.8569 723.694V721.589L77.4431 716.112C77.9774 715.573 78.4226 715.094 78.7788 714.675C79.135 714.256 79.4021 713.85 79.5802 713.457C79.7583 713.064 79.8473 712.645 79.8473 712.2C79.8473 711.692 79.7321 711.257 79.5016 710.896C79.2712 710.529 78.9543 710.246 78.5509 710.047C78.1476 709.848 77.6893 709.748 77.176 709.748C76.647 709.748 76.1834 709.858 75.7853 710.078C75.3872 710.293 75.0782 710.6 74.8582 710.998C74.6435 711.396 74.5361 711.87 74.5361 712.42H71.7626C71.7626 711.398 71.9957 710.511 72.4619 709.756C72.928 709.002 73.5697 708.418 74.3868 708.004C75.2092 707.59 76.152 707.383 77.2153 707.383C78.2943 707.383 79.2423 707.585 80.0595 707.988C80.8766 708.392 81.5104 708.944 81.9608 709.646C82.4165 710.348 82.6444 711.15 82.6444 712.05C82.6444 712.653 82.5291 713.245 82.2987 713.826C82.0682 714.408 81.6623 715.052 81.0808 715.759C80.5047 716.466 79.6954 717.322 78.6531 718.328L75.8796 721.149V721.259H82.8879V723.694H71.8569Z" fill="#ECB22E"/>
<circle cx="228.357" cy="667.886" r="13.4038" transform="rotate(-90 228.357 667.886)" fill="#FFF5E7" stroke="#ECB22E" stroke-width="0.415949"/>
<circle cx="228.357" cy="762.769" r="13.4038" transform="rotate(-90 228.357 762.769)" fill="#FFF5E7" stroke="#ECB22E" stroke-width="0.415949"/>
<circle cx="265.377" cy="671.612" r="13.4038" transform="rotate(-90 265.377 671.612)" fill="#FFF5E7" stroke="#ECB22E" stroke-width="0.415949"/>
<circle cx="265.377" cy="762.769" r="13.4038" transform="rotate(-90 265.377 762.769)" fill="#FFF5E7" stroke="#ECB22E" stroke-width="0.415949"/>
<rect x="188.4" y="760.49" width="92.1879" height="116.936" rx="4.15949" transform="rotate(-90 188.4 760.49)" fill="#FFF6E2" stroke="#ECB22E" stroke-width="0.831898"/>
<path d="M242.331 705.782V721.873H239.416V708.619H239.322L235.559 711.023V708.351L239.558 705.782H242.331ZM252.137 722.093C250.969 722.093 249.932 721.897 249.025 721.504C248.124 721.111 247.417 720.574 246.904 719.893C246.396 719.207 246.145 718.429 246.15 717.56C246.145 716.884 246.291 716.263 246.59 715.698C246.888 715.132 247.292 714.66 247.8 714.283C248.313 713.901 248.884 713.657 249.512 713.553V713.443C248.685 713.259 248.014 712.838 247.501 712.178C246.993 711.512 246.742 710.745 246.747 709.876C246.742 709.048 246.972 708.309 247.438 707.66C247.904 707.01 248.543 706.5 249.355 706.128C250.167 705.751 251.094 705.562 252.137 705.562C253.169 705.562 254.088 705.751 254.894 706.128C255.706 706.5 256.345 707.01 256.812 707.66C257.283 708.309 257.519 709.048 257.519 709.876C257.519 710.745 257.259 711.512 256.741 712.178C256.227 712.838 255.565 713.259 254.753 713.443V713.553C255.382 713.657 255.947 713.901 256.45 714.283C256.958 714.66 257.361 715.132 257.66 715.698C257.964 716.263 258.116 716.884 258.116 717.56C258.116 718.429 257.859 719.207 257.346 719.893C256.832 720.574 256.125 721.111 255.224 721.504C254.329 721.897 253.3 722.093 252.137 722.093ZM252.137 719.846C252.739 719.846 253.263 719.744 253.708 719.54C254.153 719.33 254.499 719.037 254.745 718.66C254.991 718.282 255.117 717.848 255.122 717.355C255.117 716.842 254.983 716.389 254.722 715.996C254.465 715.598 254.111 715.286 253.661 715.061C253.216 714.836 252.708 714.723 252.137 714.723C251.561 714.723 251.047 714.836 250.597 715.061C250.146 715.286 249.79 715.598 249.528 715.996C249.272 716.389 249.146 716.842 249.151 717.355C249.146 717.848 249.266 718.282 249.512 718.66C249.759 719.031 250.104 719.322 250.55 719.532C251 719.741 251.529 719.846 252.137 719.846ZM252.137 712.516C252.629 712.516 253.064 712.416 253.441 712.217C253.823 712.018 254.124 711.74 254.344 711.384C254.564 711.028 254.677 710.617 254.682 710.151C254.677 709.69 254.567 709.286 254.352 708.941C254.138 708.59 253.839 708.32 253.457 708.131C253.074 707.938 252.634 707.841 252.137 707.841C251.629 707.841 251.181 707.938 250.793 708.131C250.411 708.32 250.112 708.59 249.897 708.941C249.688 709.286 249.586 709.69 249.591 710.151C249.586 710.617 249.691 711.028 249.905 711.384C250.125 711.735 250.427 712.013 250.809 712.217C251.196 712.416 251.639 712.516 252.137 712.516Z" fill="#ECB22E"/>
<circle cx="385.093" cy="667.886" r="13.4038" transform="rotate(-90 385.093 667.886)" fill="#FFF5E7" stroke="#ECB22E" stroke-width="0.415949"/>
<circle cx="385.093" cy="762.769" r="13.4038" transform="rotate(-90 385.093 762.769)" fill="#FFF5E7" stroke="#ECB22E" stroke-width="0.415949"/>
<circle cx="422.11" cy="667.886" r="13.4038" transform="rotate(-90 422.11 667.886)" fill="#FFF5E7" stroke="#ECB22E" stroke-width="0.415949"/>
<circle cx="422.11" cy="762.769" r="13.4038" transform="rotate(-90 422.11 762.769)" fill="#FFF5E7" stroke="#ECB22E" stroke-width="0.415949"/>
<rect x="345.133" y="760.489" width="92.1879" height="116.936" rx="4.15949" transform="rotate(-90 345.133 760.489)" fill="#FFF6E2" stroke="#ECB22E" stroke-width="0.831898"/>
<path d="M399.064 705.783V721.874H396.149V708.62H396.055L392.292 711.024V708.352L396.291 705.783H399.064ZM403.15 721.874V719.768L408.736 714.292C409.27 713.753 409.715 713.273 410.072 712.854C410.428 712.435 410.695 712.029 410.873 711.637C411.051 711.244 411.14 710.825 411.14 710.379C411.14 709.871 411.025 709.437 410.794 709.075C410.564 708.709 410.247 708.426 409.844 708.227C409.44 708.028 408.982 707.928 408.469 707.928C407.94 707.928 407.476 708.038 407.078 708.258C406.68 708.473 406.371 708.779 406.151 709.177C405.936 709.575 405.829 710.049 405.829 710.599H403.055C403.055 709.578 403.288 708.69 403.755 707.936C404.221 707.182 404.862 706.598 405.68 706.184C406.502 705.77 407.445 705.563 408.508 705.563C409.587 705.563 410.535 705.765 411.352 706.168C412.169 706.571 412.803 707.124 413.254 707.826C413.709 708.528 413.937 709.329 413.937 710.23C413.937 710.833 413.822 711.424 413.591 712.006C413.361 712.587 412.955 713.231 412.374 713.939C411.797 714.646 410.988 715.502 409.946 716.508L407.172 719.328V719.438H414.181V721.874H403.15Z" fill="#ECB22E"/>
<path d="M703.598 641.575C710.643 641.575 716.37 647.567 716.37 654.979C716.37 662.391 710.643 668.383 703.598 668.383C696.554 668.383 690.827 662.391 690.827 654.979C690.827 647.567 696.554 641.575 703.598 641.575Z" fill="#FFF5E7" stroke="#ECB22E" stroke-width="0.415949"/>
<path d="M705.302 735.754C712.674 735.754 718.651 741.754 718.651 749.158C718.651 756.561 712.674 762.562 705.302 762.562C697.93 762.562 691.953 756.561 691.953 749.158C691.953 741.754 697.93 735.754 705.302 735.754Z" fill="#FFF5E7" stroke="#ECB22E" stroke-width="0.415949"/>
<path d="M735.381 641.575C742.318 641.575 747.964 647.564 747.964 654.979C747.964 662.394 742.318 668.383 735.381 668.383C728.443 668.383 722.797 662.394 722.797 654.979C722.797 647.564 728.443 641.575 735.381 641.575Z" fill="#FFF5E7" stroke="#ECB22E" stroke-width="0.415949"/>
<path d="M736.146 735.754C743.518 735.754 749.496 741.754 749.496 749.158C749.496 756.561 743.518 762.562 736.146 762.562C728.775 762.562 722.797 756.561 722.797 749.158C722.797 741.754 728.775 735.754 736.146 735.754Z" fill="#FFF5E7" stroke="#ECB22E" stroke-width="0.415949"/>
<rect x="683.854" y="747.581" width="92.1879" height="71.4589" rx="4.15949" transform="rotate(-90 683.854 747.581)" fill="#FFF6E2" stroke="#ECB22E" stroke-width="0.831898"/>
<path d="M714.499 694.767V710.857H711.584V697.603H711.49L707.726 700.007V697.336L711.726 694.767H714.499ZM725.129 694.767V710.857H722.214V697.603H722.12L718.357 700.007V697.336L722.356 694.767H725.129Z" fill="#ECB22E"/>
<path d="M691.012 27.9249C698.056 27.9249 703.784 33.9165 703.784 41.3287C703.784 48.7408 698.056 54.7325 691.012 54.7325C683.968 54.7325 678.24 48.7408 678.24 41.3287C678.24 33.9165 683.968 27.9249 691.012 27.9249Z" fill="#FFF5E7" stroke="#ECB22E" stroke-width="0.415949"/>
<path d="M692.716 122.104C700.088 122.104 706.065 128.104 706.065 135.507C706.065 142.911 700.088 148.911 692.716 148.911C685.344 148.911 679.367 142.911 679.367 135.507C679.367 128.104 685.344 122.104 692.716 122.104Z" fill="#FFF5E7" stroke="#ECB22E" stroke-width="0.415949"/>
<path d="M722.795 27.9249C729.732 27.9249 735.378 33.9136 735.378 41.3287C735.378 48.7437 729.732 54.7325 722.795 54.7325C715.857 54.7325 710.211 48.7437 710.211 41.3287C710.211 33.9136 715.857 27.9249 722.795 27.9249Z" fill="#FFF5E7" stroke="#ECB22E" stroke-width="0.415949"/>
<path d="M723.56 122.104C730.932 122.104 736.91 128.104 736.91 135.507C736.91 142.911 730.932 148.911 723.56 148.911C716.188 148.911 710.211 142.911 710.211 135.507C710.211 128.104 716.188 122.104 723.56 122.104Z" fill="#FFF5E7" stroke="#ECB22E" stroke-width="0.415949"/>
<rect x="671.268" y="133.931" width="92.1879" height="71.4589" rx="4.15949" transform="rotate(-90 671.268 133.931)" fill="#FFF6E2" stroke="#ECB22E" stroke-width="0.831898"/>
<path d="M706.189 97.428C705.142 97.428 704.204 97.2316 703.377 96.8387C702.549 96.4407 701.892 95.8959 701.405 95.2045C700.923 94.5131 700.666 93.7222 700.635 92.8317H703.463C703.515 93.4917 703.801 94.0312 704.319 94.4503C704.838 94.864 705.461 95.0709 706.189 95.0709C706.76 95.0709 707.268 94.94 707.714 94.6781C708.159 94.4162 708.51 94.0522 708.766 93.586C709.023 93.1198 709.149 92.5882 709.144 91.9911C709.149 91.3835 709.021 90.844 708.759 90.3725C708.497 89.9011 708.138 89.5319 707.682 89.2647C707.227 88.9924 706.703 88.8562 706.111 88.8562C705.629 88.8509 705.155 88.94 704.689 89.1233C704.223 89.3066 703.853 89.5476 703.581 89.8461L700.949 89.414L701.79 81.1172H711.124V83.5528H704.202L703.738 87.8191H703.832C704.131 87.4681 704.553 87.1774 705.097 86.9469C705.642 86.7112 706.239 86.5934 706.889 86.5934C707.863 86.5934 708.732 86.8239 709.497 87.2848C710.262 87.7405 710.864 88.369 711.304 89.1704C711.744 89.9718 711.964 90.8885 711.964 91.9203C711.964 92.9836 711.718 93.9317 711.226 94.7645C710.739 95.5921 710.06 96.2442 709.191 96.7209C708.326 97.1923 707.326 97.428 706.189 97.428Z" fill="#ECB22E"/>
<path d="M849.313 640.287C856.357 640.287 862.085 646.279 862.085 653.691C862.085 661.103 856.357 667.095 849.313 667.095C842.269 667.095 836.541 661.103 836.541 653.691C836.541 646.279 842.269 640.287 849.313 640.287Z" fill="#FFF5E7" stroke="#ECB22E" stroke-width="0.415949"/>
<path d="M851.017 734.467C858.389 734.467 864.366 740.467 864.366 747.871C864.366 755.274 858.389 761.274 851.017 761.274C843.645 761.274 837.667 755.274 837.667 747.871C837.667 740.467 843.645 734.467 851.017 734.467Z" fill="#FFF5E7" stroke="#ECB22E" stroke-width="0.415949"/>
<path d="M881.095 640.287C888.033 640.287 893.678 646.276 893.678 653.691C893.678 661.106 888.033 667.095 881.095 667.095C874.157 667.095 868.511 661.106 868.511 653.691C868.511 646.276 874.157 640.287 881.095 640.287Z" fill="#FFF5E7" stroke="#ECB22E" stroke-width="0.415949"/>
<path d="M881.861 734.467C889.233 734.467 895.21 740.467 895.21 747.871C895.21 755.274 889.233 761.274 881.861 761.274C874.489 761.274 868.512 755.274 868.512 747.871C868.512 740.467 874.489 734.467 881.861 734.467Z" fill="#FFF5E7" stroke="#ECB22E" stroke-width="0.415949"/>
<rect x="829.568" y="746.294" width="92.1879" height="71.4589" rx="4.15949" transform="rotate(-90 829.568 746.294)" fill="#FFF6E2" stroke="#ECB22E" stroke-width="0.831898"/>
<path d="M859.758 692.752V708.843H856.843V695.588H856.749L852.986 697.992V695.321L856.985 692.752H859.758ZM863.553 705.857V703.539L870.381 692.752H872.314V696.052H871.135L866.539 703.335V703.461H876.069V705.857H863.553ZM871.229 708.843V705.15L871.261 704.113V692.752H874.011V708.843H871.229Z" fill="#ECB22E"/>
<path d="M941.575 730.379C941.575 723.334 947.566 717.607 954.979 717.607C962.391 717.607 968.382 723.334 968.382 730.379C968.382 737.423 962.391 743.15 954.979 743.15C947.566 743.15 941.575 737.423 941.575 730.379Z" fill="#FFF5E7" stroke="#ECB22E" stroke-width="0.415949"/>
<path d="M1035.75 728.675C1035.75 721.303 1041.75 715.326 1049.16 715.326C1056.56 715.326 1062.56 721.303 1062.56 728.675C1062.56 736.047 1056.56 742.024 1049.16 742.024C1041.75 742.024 1035.75 736.047 1035.75 728.675Z" fill="#FFF5E7" stroke="#ECB22E" stroke-width="0.415949"/>
<path d="M941.575 698.596C941.575 691.658 947.563 686.013 954.979 686.013C962.394 686.013 968.382 691.658 968.382 698.596C968.382 705.534 962.394 711.18 954.979 711.18C947.563 711.18 941.575 705.534 941.575 698.596Z" fill="#FFF5E7" stroke="#ECB22E" stroke-width="0.415949"/>
<path d="M1035.75 697.83C1035.75 690.458 1041.75 684.481 1049.16 684.481C1056.56 684.481 1062.56 690.458 1062.56 697.83C1062.56 705.202 1056.56 711.18 1049.16 711.18C1041.75 711.18 1035.75 705.202 1035.75 697.83Z" fill="#FFF5E7" stroke="#ECB22E" stroke-width="0.415949"/>
<rect x="1047.58" y="750.123" width="92.1879" height="71.4589" rx="4.15949" transform="rotate(180 1047.58 750.123)" fill="#FFF6E2" stroke="#ECB22E" stroke-width="0.831898"/>
<path d="M996.245 708.505V724.596H993.33V711.341H993.236L989.472 713.745V711.074L993.471 708.505H996.245ZM1006.22 724.816C1005.45 724.81 1004.7 724.677 1003.97 724.415C1003.23 724.148 1002.57 723.716 1001.99 723.119C1001.4 722.516 1000.94 721.717 1000.59 720.722C1000.24 719.722 1000.07 718.483 1000.08 717.006C1000.08 715.628 1000.23 714.4 1000.52 713.321C1000.81 712.242 1001.23 711.331 1001.78 710.587C1002.33 709.838 1003 709.267 1003.77 708.874C1004.55 708.481 1005.42 708.285 1006.39 708.285C1007.4 708.285 1008.29 708.484 1009.07 708.882C1009.86 709.28 1010.49 709.825 1010.98 710.516C1011.46 711.202 1011.76 711.978 1011.87 712.842H1009C1008.86 712.224 1008.56 711.731 1008.1 711.365C1007.65 710.993 1007.08 710.807 1006.39 710.807C1005.27 710.807 1004.41 711.291 1003.81 712.26C1003.21 713.229 1002.91 714.56 1002.91 716.252H1003.02C1003.27 715.791 1003.61 715.395 1004.02 715.065C1004.42 714.735 1004.88 714.481 1005.4 714.303C1005.92 714.12 1006.46 714.028 1007.04 714.028C1007.98 714.028 1008.83 714.253 1009.58 714.704C1010.33 715.154 1010.93 715.775 1011.37 716.566C1011.81 717.352 1012.03 718.253 1012.02 719.269C1012.03 720.327 1011.79 721.277 1011.3 722.121C1010.81 722.959 1010.13 723.619 1009.26 724.101C1008.39 724.583 1007.38 724.821 1006.22 724.816ZM1006.21 722.459C1006.78 722.459 1007.29 722.32 1007.74 722.042C1008.19 721.765 1008.55 721.39 1008.81 720.919C1009.07 720.447 1009.2 719.918 1009.19 719.332C1009.2 718.755 1009.07 718.234 1008.82 717.768C1008.56 717.302 1008.22 716.933 1007.77 716.66C1007.33 716.388 1006.82 716.252 1006.25 716.252C1005.82 716.252 1005.43 716.333 1005.06 716.495C1004.69 716.658 1004.37 716.883 1004.1 717.171C1003.83 717.454 1003.61 717.784 1003.46 718.161C1003.31 718.533 1003.23 718.931 1003.22 719.355C1003.23 719.916 1003.36 720.432 1003.61 720.903C1003.87 721.374 1004.22 721.752 1004.68 722.034C1005.13 722.317 1005.64 722.459 1006.21 722.459Z" fill="#ECB22E"/>
<path d="M838.238 27.8614C845.282 27.8614 851.01 33.853 851.01 41.2652C851.01 48.6773 845.282 54.669 838.238 54.669C831.194 54.669 825.466 48.6773 825.466 41.2652C825.466 33.853 831.194 27.8614 838.238 27.8614Z" fill="#FFF5E7" stroke="#ECB22E" stroke-width="0.415949"/>
<path d="M839.942 122.04C847.314 122.04 853.291 128.04 853.291 135.444C853.291 142.847 847.314 148.848 839.942 148.848C832.57 148.848 826.593 142.847 826.593 135.444C826.593 128.04 832.57 122.04 839.942 122.04Z" fill="#FFF5E7" stroke="#ECB22E" stroke-width="0.415949"/>
<path d="M870.021 27.8614C876.958 27.8614 882.604 33.8501 882.604 41.2652C882.604 48.6803 876.958 54.669 870.021 54.669C863.083 54.669 857.437 48.6803 857.437 41.2652C857.437 33.8501 863.083 27.8614 870.021 27.8614Z" fill="#FFF5E7" stroke="#ECB22E" stroke-width="0.415949"/>
<path d="M870.786 122.04C878.158 122.04 884.136 128.04 884.136 135.444C884.136 142.847 878.158 148.848 870.786 148.848C863.415 148.848 857.437 142.847 857.437 135.444C857.437 128.04 863.415 122.04 870.786 122.04Z" fill="#FFF5E7" stroke="#ECB22E" stroke-width="0.415949"/>
<rect x="818.494" y="133.867" width="92.1879" height="71.4589" rx="4.15949" transform="rotate(-90 818.494 133.867)" fill="#FFF6E2" stroke="#ECB22E" stroke-width="0.831898"/>
<path d="M847.95 96.415V94.3094L853.537 88.8332C854.071 88.2937 854.516 87.8144 854.872 87.3954C855.228 86.9763 855.496 86.5704 855.674 86.1776C855.852 85.7847 855.941 85.3657 855.941 84.9205C855.941 84.4124 855.826 83.9776 855.595 83.6162C855.365 83.2496 855.048 82.9667 854.644 82.7677C854.241 82.5686 853.783 82.4691 853.269 82.4691C852.74 82.4691 852.277 82.5791 851.879 82.7991C851.481 83.0139 851.172 83.3203 850.952 83.7184C850.737 84.1164 850.63 84.5905 850.63 85.1404H847.856C847.856 84.1191 848.089 83.2312 848.555 82.477C849.022 81.7227 849.663 81.1387 850.48 80.7249C851.303 80.3111 852.245 80.1042 853.309 80.1042C854.388 80.1042 855.336 80.3059 856.153 80.7092C856.97 81.1125 857.604 81.6651 858.054 82.367C858.51 83.0689 858.738 83.8703 858.738 84.7712C858.738 85.3735 858.623 85.9654 858.392 86.5468C858.162 87.1282 857.756 87.7725 857.174 88.4796C856.598 89.1867 855.789 90.0431 854.747 91.0488L851.973 93.8694V93.9794H858.981V96.415H847.95Z" fill="#ECB22E"/>
<path d="M784.859 514.954C791.903 514.954 797.63 520.946 797.63 528.358C797.63 535.77 791.903 541.762 784.859 541.762C777.814 541.762 772.087 535.77 772.087 528.358C772.087 520.946 777.814 514.954 784.859 514.954Z" fill="#FFF5E7" stroke="#ECB22E" stroke-width="0.415949"/>
<path d="M781.76 581.722C789.132 581.722 795.109 587.722 795.109 595.126C795.109 602.529 789.132 608.529 781.76 608.529C774.388 608.529 768.411 602.529 768.411 595.126C768.411 587.722 774.388 581.722 781.76 581.722Z" fill="#FFF5E7" stroke="#ECB22E" stroke-width="0.415949"/>
<path d="M816.641 514.954C823.579 514.954 829.225 520.943 829.225 528.358C829.225 535.773 823.579 541.762 816.641 541.762C809.704 541.762 804.058 535.773 804.058 528.358C804.058 520.943 809.703 514.954 816.641 514.954Z" fill="#FFF5E7" stroke="#ECB22E" stroke-width="0.415949"/>
<path d="M812.604 581.722C819.976 581.722 825.954 587.722 825.954 595.126C825.954 602.529 819.976 608.529 812.604 608.529C805.233 608.529 799.255 602.529 799.255 595.126C799.255 587.722 805.233 581.722 812.604 581.722Z" fill="#FFF5E7" stroke="#ECB22E" stroke-width="0.415949"/>
<rect x="764.458" y="594.71" width="62.1396" height="71.4589" rx="4.15949" transform="rotate(-90 764.458 594.71)" fill="#FFF6E2" stroke="#ECB22E" stroke-width="0.831898"/>
<path d="M792.943 573.012V556.921H803.251V559.364H795.858V563.733H802.544V566.176H795.858V573.012H792.943Z" fill="#ECB22E"/>
<path d="M785.986 399.472C793.03 399.472 798.757 405.463 798.757 412.876C798.757 420.288 793.03 426.279 785.986 426.279C778.941 426.279 773.214 420.288 773.214 412.876C773.214 405.463 778.941 399.472 785.986 399.472Z" fill="#FFF5E7" stroke="#ECB22E" stroke-width="0.415949"/>
<path d="M782.887 466.239C790.259 466.239 796.236 472.24 796.236 479.643C796.236 487.047 790.259 493.047 782.887 493.047C775.515 493.047 769.537 487.047 769.537 479.643C769.537 472.24 775.515 466.239 782.887 466.239Z" fill="#FFF5E7" stroke="#ECB22E" stroke-width="0.415949"/>
<path d="M817.768 399.472C824.705 399.472 830.351 405.46 830.351 412.876C830.351 420.291 824.705 426.279 817.768 426.279C810.83 426.279 805.184 420.291 805.184 412.876C805.184 405.46 810.83 399.472 817.768 399.472Z" fill="#FFF5E7" stroke="#ECB22E" stroke-width="0.415949"/>
<path d="M813.731 466.239C821.103 466.239 827.081 472.24 827.081 479.643C827.081 487.047 821.103 493.047 813.731 493.047C806.359 493.047 800.382 487.047 800.382 479.643C800.382 472.24 806.359 466.239 813.731 466.239Z" fill="#FFF5E7" stroke="#ECB22E" stroke-width="0.415949"/>
<rect x="765.585" y="479.228" width="62.1396" height="71.4589" rx="4.15949" transform="rotate(-90 765.585 479.228)" fill="#FFF6E2" stroke="#ECB22E" stroke-width="0.831898"/>
<path d="M798.973 457.749C797.805 457.749 796.768 457.553 795.862 457.16C794.961 456.767 794.254 456.23 793.741 455.549C793.233 454.863 792.981 454.085 792.986 453.216C792.981 452.54 793.128 451.919 793.426 451.354C793.725 450.788 794.128 450.317 794.636 449.94C795.15 449.557 795.721 449.314 796.349 449.209V449.099C795.522 448.916 794.851 448.494 794.338 447.834C793.83 447.169 793.578 446.401 793.583 445.532C793.578 444.704 793.809 443.966 794.275 443.316C794.741 442.667 795.38 442.156 796.192 441.784C797.004 441.407 797.931 441.218 798.973 441.218C800.005 441.218 800.924 441.407 801.731 441.784C802.543 442.156 803.182 442.667 803.648 443.316C804.12 443.966 804.355 444.704 804.355 445.532C804.355 446.401 804.096 447.169 803.577 447.834C803.064 448.494 802.402 448.916 801.59 449.099V449.209C802.218 449.314 802.784 449.557 803.287 449.94C803.795 450.317 804.198 450.788 804.497 451.354C804.8 451.919 804.952 452.54 804.952 453.216C804.952 454.085 804.696 454.863 804.182 455.549C803.669 456.23 802.962 456.767 802.061 457.16C801.165 457.553 800.136 457.749 798.973 457.749ZM798.973 455.502C799.576 455.502 800.099 455.4 800.545 455.196C800.99 454.986 801.336 454.693 801.582 454.316C801.828 453.939 801.954 453.504 801.959 453.012C801.954 452.498 801.82 452.045 801.558 451.652C801.302 451.254 800.948 450.943 800.498 450.717C800.052 450.492 799.544 450.38 798.973 450.38C798.397 450.38 797.884 450.492 797.433 450.717C796.983 450.943 796.627 451.254 796.365 451.652C796.108 452.045 795.982 452.498 795.988 453.012C795.982 453.504 796.103 453.939 796.349 454.316C796.595 454.688 796.941 454.978 797.386 455.188C797.837 455.397 798.366 455.502 798.973 455.502ZM798.973 448.172C799.466 448.172 799.9 448.072 800.278 447.873C800.66 447.674 800.961 447.397 801.181 447.04C801.401 446.684 801.514 446.273 801.519 445.807C801.514 445.346 801.404 444.943 801.189 444.597C800.974 444.246 800.676 443.976 800.293 443.788C799.911 443.594 799.471 443.497 798.973 443.497C798.465 443.497 798.017 443.594 797.63 443.788C797.247 443.976 796.949 444.246 796.734 444.597C796.525 444.943 796.422 445.346 796.428 445.807C796.422 446.273 796.527 446.684 796.742 447.04C796.962 447.391 797.263 447.669 797.645 447.873C798.033 448.072 798.476 448.172 798.973 448.172Z" fill="#ECB22E"/>
<path d="M785.986 285.585C793.03 285.585 798.757 291.577 798.757 298.989C798.757 306.401 793.03 312.393 785.986 312.393C778.941 312.393 773.214 306.401 773.214 298.989C773.214 291.577 778.941 285.585 785.986 285.585Z" fill="#FFF5E7" stroke="#ECB22E" stroke-width="0.415949"/>
<path d="M782.887 352.353C790.259 352.353 796.236 358.353 796.236 365.756C796.236 373.16 790.259 379.16 782.887 379.16C775.515 379.16 769.537 373.16 769.537 365.756C769.537 358.353 775.515 352.353 782.887 352.353Z" fill="#FFF5E7" stroke="#ECB22E" stroke-width="0.415949"/>
<path d="M817.768 285.585C824.705 285.585 830.351 291.574 830.351 298.989C830.351 306.404 824.705 312.393 817.768 312.393C810.83 312.393 805.184 306.404 805.184 298.989C805.184 291.574 810.83 285.585 817.768 285.585Z" fill="#FFF5E7" stroke="#ECB22E" stroke-width="0.415949"/>
<path d="M813.731 352.353C821.103 352.353 827.081 358.353 827.081 365.756C827.081 373.16 821.103 379.16 813.731 379.16C806.359 379.16 800.382 373.16 800.382 365.756C800.382 358.353 806.359 352.353 813.731 352.353Z" fill="#FFF5E7" stroke="#ECB22E" stroke-width="0.415949"/>
<rect x="765.585" y="365.341" width="62.1396" height="71.4589" rx="4.15949" transform="rotate(-90 765.585 365.341)" fill="#FFF6E2" stroke="#ECB22E" stroke-width="0.831898"/>
<path d="M794.633 343.709L801.271 330.062L801.269 329.952L793.327 330.072L793.29 327.636L804.249 327.471L804.287 329.961L797.657 343.663L794.633 343.709Z" fill="#ECB22E"/>
<path d="M785.986 177.414C793.03 177.414 798.757 183.406 798.757 190.818C798.757 198.23 793.03 204.222 785.986 204.222C778.941 204.222 773.214 198.23 773.214 190.818C773.214 183.406 778.941 177.414 785.986 177.414Z" fill="#FFF5E7" stroke="#ECB22E" stroke-width="0.415949"/>
<path d="M782.887 244.182C790.259 244.182 796.236 250.182 796.236 257.585C796.236 264.989 790.259 270.989 782.887 270.989C775.515 270.989 769.537 264.989 769.537 257.585C769.537 250.182 775.515 244.182 782.887 244.182Z" fill="#FFF5E7" stroke="#ECB22E" stroke-width="0.415949"/>
<path d="M817.768 177.414C824.705 177.414 830.351 183.403 830.351 190.818C830.351 198.233 824.705 204.222 817.768 204.222C810.83 204.222 805.184 198.233 805.184 190.818C805.184 183.403 810.83 177.414 817.768 177.414Z" fill="#FFF5E7" stroke="#ECB22E" stroke-width="0.415949"/>
<path d="M813.731 244.182C821.103 244.182 827.081 250.182 827.081 257.585C827.081 264.989 821.103 270.989 813.731 270.989C806.359 270.989 800.382 264.989 800.382 257.585C800.382 250.182 806.359 244.182 813.731 244.182Z" fill="#FFF5E7" stroke="#ECB22E" stroke-width="0.415949"/>
<rect x="765.585" y="257.17" width="62.1396" height="71.4589" rx="4.15949" transform="rotate(-90 765.585 257.17)" fill="#FFF6E2" stroke="#ECB22E" stroke-width="0.831898"/>
<path d="M799.114 235.692C798.344 235.686 797.592 235.553 796.859 235.291C796.126 235.024 795.466 234.592 794.879 233.995C794.292 233.392 793.826 232.593 793.48 231.598C793.135 230.598 792.964 229.359 792.97 227.882C792.97 226.504 793.116 225.276 793.41 224.197C793.703 223.118 794.125 222.207 794.675 221.463C795.225 220.714 795.887 220.143 796.662 219.75C797.443 219.357 798.315 219.161 799.279 219.161C800.29 219.161 801.185 219.36 801.966 219.758C802.751 220.156 803.385 220.701 803.867 221.392C804.349 222.078 804.648 222.854 804.763 223.718H801.895C801.748 223.1 801.447 222.607 800.992 222.241C800.541 221.869 799.97 221.683 799.279 221.683C798.163 221.683 797.304 222.167 796.702 223.136C796.105 224.105 795.803 225.436 795.798 227.128H795.908C796.165 226.667 796.497 226.271 796.906 225.941C797.315 225.611 797.775 225.357 798.289 225.179C798.807 224.996 799.355 224.904 799.931 224.904C800.874 224.904 801.72 225.129 802.469 225.58C803.223 226.03 803.82 226.651 804.26 227.442C804.7 228.228 804.917 229.129 804.912 230.145C804.917 231.203 804.676 232.153 804.189 232.997C803.702 233.835 803.024 234.495 802.154 234.977C801.285 235.459 800.271 235.697 799.114 235.692ZM799.098 233.335C799.669 233.335 800.18 233.196 800.63 232.918C801.081 232.641 801.437 232.266 801.699 231.795C801.961 231.323 802.089 230.794 802.084 230.208C802.089 229.631 801.963 229.11 801.707 228.644C801.455 228.178 801.107 227.809 800.662 227.536C800.216 227.264 799.708 227.128 799.137 227.128C798.713 227.128 798.318 227.209 797.951 227.371C797.584 227.534 797.265 227.759 796.992 228.047C796.72 228.33 796.505 228.66 796.348 229.037C796.196 229.409 796.118 229.807 796.112 230.231C796.118 230.792 796.249 231.308 796.505 231.779C796.762 232.25 797.116 232.627 797.566 232.91C798.016 233.193 798.527 233.335 799.098 233.335Z" fill="#ECB22E"/>
<circle cx="350.181" cy="229.194" r="13.4038" transform="rotate(-179.642 350.181 229.194)" fill="#FFF5E7" stroke="#ECB22E" stroke-width="0.415949"/>
<circle cx="453.336" cy="229.194" r="13.4038" transform="rotate(-179.642 453.336 229.194)" fill="#FFF5E7" stroke="#ECB22E" stroke-width="0.415949"/>
<circle cx="350.181" cy="194.008" r="13.4038" transform="rotate(-179.642 350.181 194.008)" fill="#FFF5E7" stroke="#ECB22E" stroke-width="0.415949"/>
<circle cx="453.336" cy="194.008" r="13.4038" transform="rotate(-179.642 453.336 194.008)" fill="#FFF5E7" stroke="#ECB22E" stroke-width="0.415949"/>
<rect x="453.423" y="269.795" width="103.075" height="116.936" rx="4.15949" transform="rotate(-179.642 453.423 269.795)" fill="#FFF6E2" stroke="#ECB22E" stroke-width="0.831898"/>
<path d="M396.67 218.579V216.473L402.256 210.997C402.79 210.458 403.236 209.978 403.592 209.559C403.948 209.14 404.215 208.734 404.393 208.342C404.571 207.949 404.66 207.53 404.66 207.085C404.66 206.576 404.545 206.142 404.315 205.78C404.084 205.414 403.767 205.131 403.364 204.932C402.961 204.733 402.502 204.633 401.989 204.633C401.46 204.633 400.996 204.743 400.598 204.963C400.2 205.178 399.891 205.484 399.671 205.882C399.457 206.281 399.349 206.755 399.349 207.305H396.576C396.576 206.283 396.809 205.395 397.275 204.641C397.741 203.887 398.383 203.303 399.2 202.889C400.022 202.475 400.965 202.268 402.028 202.268C403.107 202.268 404.055 202.47 404.873 202.873C405.69 203.277 406.323 203.829 406.774 204.531C407.23 205.233 407.457 206.034 407.457 206.935C407.457 207.538 407.342 208.129 407.112 208.711C406.881 209.292 406.475 209.937 405.894 210.644C405.318 211.351 404.508 212.207 403.466 213.213L400.693 216.033V216.143H407.701V218.579H396.67Z" fill="#ECB22E"/>
<circle cx="499.836" cy="211.008" r="13.4038" transform="rotate(-179.642 499.836 211.008)" fill="#FFF5E7" stroke="#ECB22E" stroke-width="0.415949"/>
<circle cx="500.177" cy="105.297" r="13.4038" transform="rotate(-179.642 500.177 105.297)" fill="#FFF5E7" stroke="#ECB22E" stroke-width="0.415949"/>
<circle cx="500.005" cy="163.509" r="13.4038" transform="rotate(-179.642 500.005 163.509)" fill="#FFF5E7" stroke="#ECB22E" stroke-width="0.415949"/>
<circle cx="500.348" cy="51.654" r="13.4038" transform="rotate(-179.642 500.348 51.654)" fill="#FFF5E7" stroke="#ECB22E" stroke-width="0.415949"/>
<rect x="538.162" y="270.158" width="42.9784" height="269.111" rx="4.15949" transform="rotate(-179.642 538.162 270.158)" fill="#FFF6E2" stroke="#ECB22E" stroke-width="0.831898"/>
<path d="M513.337 158.621C512.65 158.695 512.116 159.004 511.734 159.548C511.351 160.088 511.16 160.79 511.16 161.654C511.16 162.262 511.252 162.783 511.435 163.218C511.619 163.652 511.867 163.985 512.182 164.215C512.496 164.446 512.855 164.564 513.258 164.569C513.593 164.569 513.884 164.493 514.13 164.341C514.376 164.184 514.586 163.972 514.759 163.705C514.926 163.438 515.068 163.142 515.183 162.817C515.298 162.492 515.395 162.165 515.474 161.835L515.851 160.326C515.992 159.719 516.183 159.135 516.424 158.574C516.665 158.009 516.969 157.503 517.336 157.058C517.702 156.607 518.145 156.251 518.664 155.989C519.182 155.727 519.79 155.596 520.486 155.596C521.429 155.596 522.259 155.837 522.977 156.319C523.689 156.801 524.247 157.498 524.65 158.409C525.049 159.315 525.248 160.413 525.248 161.701C525.248 162.953 525.054 164.04 524.666 164.962C524.279 165.878 523.713 166.596 522.969 167.115C522.225 167.628 521.319 167.906 520.251 167.947L520.251 165.08C520.811 165.038 521.277 164.865 521.649 164.561C522.021 164.257 522.299 163.862 522.482 163.375C522.665 162.882 522.757 162.332 522.757 161.725C522.757 161.091 522.663 160.536 522.474 160.059C522.28 159.577 522.013 159.2 521.673 158.928C521.327 158.655 520.924 158.517 520.463 158.511C520.044 158.517 519.698 158.64 519.426 158.881C519.148 159.122 518.918 159.459 518.734 159.894C518.546 160.324 518.378 160.827 518.231 161.403L517.76 163.233C517.42 164.559 516.904 165.606 516.212 166.376C515.516 167.141 514.591 167.523 513.439 167.523C512.491 167.523 511.66 167.267 510.948 166.753C510.236 166.235 509.683 165.53 509.29 164.64C508.892 163.749 508.693 162.741 508.693 161.615C508.693 160.473 508.892 159.473 509.29 158.614C509.683 157.749 510.231 157.071 510.932 156.579C511.629 156.086 512.43 155.832 513.337 155.816L513.337 158.621ZM517.933 150.279L525.004 150.279L525.004 153.124L508.913 153.124L508.913 150.342L514.987 150.342L514.987 150.201C514.306 149.918 513.769 149.481 513.376 148.889C512.978 148.292 512.779 147.532 512.779 146.61C512.779 145.772 512.954 145.041 513.305 144.418C513.656 143.795 514.169 143.313 514.845 142.972C515.521 142.627 516.346 142.454 517.32 142.454L525.004 142.454L525.004 145.298L517.76 145.298C516.948 145.298 516.317 145.508 515.866 145.927C515.411 146.34 515.183 146.922 515.183 147.671C515.183 148.174 515.293 148.624 515.513 149.022C515.728 149.415 516.039 149.724 516.448 149.949C516.856 150.169 517.351 150.279 517.933 150.279ZM525.248 136.082C525.248 136.847 525.111 137.536 524.839 138.148C524.561 138.756 524.153 139.238 523.613 139.594C523.074 139.945 522.409 140.12 521.618 140.12C520.937 140.12 520.374 139.995 519.928 139.743C519.483 139.492 519.127 139.149 518.86 138.714C518.593 138.279 518.391 137.79 518.255 137.245C518.114 136.695 518.011 136.127 517.949 135.54C517.875 134.833 517.81 134.259 517.752 133.819C517.689 133.379 517.595 133.06 517.469 132.861C517.338 132.656 517.137 132.554 516.864 132.554L516.817 132.554C516.225 132.554 515.767 132.73 515.442 133.081C515.117 133.432 514.955 133.937 514.955 134.597C514.955 135.294 515.107 135.846 515.411 136.255C515.715 136.658 516.073 136.931 516.487 137.072L516.11 139.728C515.377 139.518 514.764 139.172 514.272 138.69C513.774 138.209 513.402 137.619 513.156 136.923C512.904 136.226 512.779 135.456 512.779 134.613C512.779 134.031 512.847 133.453 512.983 132.876C513.119 132.3 513.344 131.774 513.659 131.297C513.968 130.821 514.389 130.438 514.924 130.15C515.458 129.857 516.126 129.71 516.927 129.71L525.004 129.71L525.004 132.444L523.346 132.444L523.346 132.539C523.681 132.711 523.996 132.955 524.289 133.269C524.577 133.578 524.81 133.969 524.988 134.44C525.161 134.906 525.248 135.453 525.248 136.082ZM523.158 135.343C523.158 134.773 523.045 134.278 522.82 133.859C522.589 133.439 522.286 133.117 521.908 132.892C521.531 132.662 521.12 132.546 520.675 132.546L519.253 132.546C519.326 132.635 519.394 132.787 519.457 133.002C519.52 133.212 519.575 133.447 519.622 133.709C519.669 133.971 519.711 134.23 519.748 134.487C519.784 134.744 519.816 134.966 519.842 135.155C519.9 135.579 519.994 135.959 520.125 136.294C520.256 136.629 520.439 136.894 520.675 137.088C520.905 137.281 521.204 137.378 521.571 137.378C522.094 137.378 522.49 137.187 522.757 136.805C523.024 136.422 523.158 135.935 523.158 135.343ZM517.933 124.006L525.004 124.006L525.004 126.85L512.936 126.85L512.936 124.132L514.987 124.132L514.987 123.99C514.311 123.713 513.774 123.27 513.376 122.662C512.978 122.05 512.779 121.293 512.779 120.392C512.779 119.559 512.957 118.834 513.313 118.216C513.669 117.592 514.185 117.11 514.861 116.77C515.536 116.424 516.356 116.254 517.32 116.259L525.004 116.259L525.004 119.103L517.76 119.103C516.953 119.103 516.322 119.313 515.866 119.732C515.411 120.146 515.183 120.719 515.183 121.453C515.183 121.95 515.293 122.393 515.513 122.78C515.728 123.163 516.039 123.464 516.448 123.684C516.856 123.899 517.351 124.006 517.933 124.006ZM521.217 110.775L517.784 110.783L517.784 110.327L512.936 105.99L512.936 102.667L518.876 108.002L518.876 108.591L521.217 110.775ZM525.004 113.368L508.913 113.368L508.913 110.524L525.004 110.524L525.004 113.368ZM525.004 105.794L519.512 109.722L517.509 107.805L525.004 102.392L525.004 105.794Z" fill="#ECB22E"/>
<circle cx="190.329" cy="226.782" r="13.4038" transform="rotate(-179.642 190.329 226.782)" fill="#FFF5E7" stroke="#ECB22E" stroke-width="0.415949"/>
<circle cx="293.485" cy="226.782" r="13.4038" transform="rotate(-179.642 293.485 226.782)" fill="#FFF5E7" stroke="#ECB22E" stroke-width="0.415949"/>
<circle cx="190.329" cy="191.598" r="13.4038" transform="rotate(-179.642 190.329 191.598)" fill="#FFF5E7" stroke="#ECB22E" stroke-width="0.415949"/>
<circle cx="293.485" cy="191.596" r="13.4038" transform="rotate(-179.642 293.485 191.596)" fill="#FFF5E7" stroke="#ECB22E" stroke-width="0.415949"/>
<rect x="293.571" y="267.383" width="103.075" height="116.936" rx="4.15949" transform="rotate(-179.642 293.571 267.383)" fill="#FFF6E2" stroke="#ECB22E" stroke-width="0.831898"/>
<path d="M237.909 216.667L244.752 203.122V203.012H236.809V200.576H247.769V203.067L240.934 216.667H237.909Z" fill="#ECB22E"/>
<circle cx="502.333" cy="378.748" r="13.4038" transform="rotate(-179.642 502.333 378.748)" fill="#FFF5E7" stroke="#ECB22E" stroke-width="0.415949"/>
<circle cx="388.555" cy="379.368" r="13.4038" transform="rotate(-179.642 388.555 379.368)" fill="#FFF5E7" stroke="#ECB22E" stroke-width="0.415949"/>
<circle cx="502.333" cy="343.565" r="13.4038" transform="rotate(-179.642 502.333 343.565)" fill="#FFF5E7" stroke="#ECB22E" stroke-width="0.415949"/>
<circle cx="388.555" cy="344.185" r="13.4038" transform="rotate(-179.642 388.555 344.185)" fill="#FFF5E7" stroke="#ECB22E" stroke-width="0.415949"/>
<rect x="502.502" y="405.759" width="112.906" height="87.2608" rx="4.15949" transform="rotate(-179.642 502.502 405.759)" fill="#FFF6E2" stroke="#ECB22E" stroke-width="0.831898"/>
<path d="M447.196 369.275C446.028 369.275 444.991 369.078 444.085 368.685C443.184 368.293 442.476 367.756 441.963 367.075C441.455 366.389 441.204 365.611 441.209 364.741C441.204 364.066 441.35 363.445 441.649 362.879C441.947 362.314 442.351 361.842 442.859 361.465C443.372 361.083 443.943 360.839 444.572 360.734V360.624C443.744 360.441 443.074 360.019 442.56 359.359C442.052 358.694 441.801 357.927 441.806 357.057C441.801 356.23 442.031 355.491 442.497 354.842C442.964 354.192 443.603 353.681 444.415 353.31C445.226 352.932 446.153 352.744 447.196 352.744C448.228 352.744 449.147 352.932 449.954 353.31C450.765 353.681 451.404 354.192 451.871 354.842C452.342 355.491 452.578 356.23 452.578 357.057C452.578 357.927 452.319 358.694 451.8 359.359C451.287 360.019 450.624 360.441 449.812 360.624V360.734C450.441 360.839 451.006 361.083 451.509 361.465C452.017 361.842 452.421 362.314 452.719 362.879C453.023 363.445 453.175 364.066 453.175 364.741C453.175 365.611 452.918 366.389 452.405 367.075C451.892 367.756 451.185 368.293 450.284 368.685C449.388 369.078 448.359 369.275 447.196 369.275ZM447.196 367.028C447.798 367.028 448.322 366.925 448.767 366.721C449.212 366.512 449.558 366.218 449.804 365.841C450.05 365.464 450.176 365.029 450.181 364.537C450.176 364.024 450.043 363.571 449.781 363.178C449.524 362.78 449.171 362.468 448.72 362.243C448.275 362.018 447.767 361.905 447.196 361.905C446.62 361.905 446.106 362.018 445.656 362.243C445.205 362.468 444.849 362.78 444.587 363.178C444.331 363.571 444.205 364.024 444.21 364.537C444.205 365.029 444.325 365.464 444.572 365.841C444.818 366.213 445.164 366.504 445.609 366.713C446.059 366.923 446.588 367.028 447.196 367.028ZM447.196 359.697C447.688 359.697 448.123 359.598 448.5 359.399C448.882 359.2 449.184 358.922 449.404 358.566C449.624 358.21 449.736 357.798 449.741 357.332C449.736 356.871 449.626 356.468 449.411 356.122C449.197 355.771 448.898 355.502 448.516 355.313C448.133 355.119 447.693 355.022 447.196 355.022C446.688 355.022 446.24 355.119 445.852 355.313C445.47 355.502 445.171 355.771 444.957 356.122C444.747 356.468 444.645 356.871 444.65 357.332C444.645 357.798 444.75 358.21 444.964 358.566C445.184 358.917 445.486 359.194 445.868 359.399C446.256 359.598 446.698 359.697 447.196 359.697Z" fill="#ECB22E"/>
<circle cx="193.441" cy="343.939" r="13.4038" fill="#FFF5E7" stroke="#ECB22E" stroke-width="0.415949"/>
<circle cx="305.419" cy="343.939" r="13.4038" fill="#FFF5E7" stroke="#ECB22E" stroke-width="0.415949"/>
<circle cx="193.662" cy="379.124" r="13.4038" fill="#FFF5E7" stroke="#ECB22E" stroke-width="0.415949"/>
<circle cx="305.64" cy="379.124" r="13.4038" fill="#FFF5E7" stroke="#ECB22E" stroke-width="0.415949"/>
<rect x="193.104" y="316.929" width="112.906" height="87.2608" rx="4.15949" fill="#FFF6E2" stroke="#ECB22E" stroke-width="0.831898"/>
<path d="M241.825 351.654V367.745H238.91V354.491H238.815L235.052 356.895V354.223L239.051 351.654H241.825ZM245.62 364.76V362.442L252.447 351.654H254.38V354.954H253.201L248.605 362.237V362.363H258.135V364.76H245.62ZM253.296 367.745V364.052L253.327 363.015V351.654H256.077V367.745H253.296Z" fill="#ECB22E"/>
<circle cx="193.443" cy="444.459" r="13.4038" fill="#FFF5E7" stroke="#ECB22E" stroke-width="0.415949"/>
<circle cx="307.096" cy="444.459" r="13.4038" fill="#FFF5E7" stroke="#ECB22E" stroke-width="0.415949"/>
<circle cx="193.664" cy="479.645" r="13.4038" fill="#FFF5E7" stroke="#ECB22E" stroke-width="0.415949"/>
<circle cx="307.317" cy="479.645" r="13.4038" fill="#FFF5E7" stroke="#ECB22E" stroke-width="0.415949"/>
<rect x="193.105" y="417.449" width="112.906" height="87.2608" rx="4.15949" fill="#FFF6E2" stroke="#ECB22E" stroke-width="0.831898"/>
<path d="M242.326 452.676V468.767H239.411V455.512H239.317L235.553 457.916V455.245L239.553 452.676H242.326ZM252.006 468.987C250.958 468.987 250.021 468.79 249.193 468.397C248.365 467.999 247.708 467.455 247.221 466.763C246.739 466.072 246.482 465.281 246.451 464.39H249.279C249.332 465.05 249.617 465.59 250.136 466.009C250.654 466.423 251.278 466.63 252.006 466.63C252.577 466.63 253.085 466.499 253.53 466.237C253.975 465.975 254.326 465.611 254.583 465.145C254.839 464.678 254.965 464.147 254.96 463.55C254.965 462.942 254.837 462.403 254.575 461.931C254.313 461.46 253.954 461.09 253.498 460.823C253.043 460.551 252.519 460.415 251.927 460.415C251.445 460.41 250.971 460.499 250.505 460.682C250.039 460.865 249.67 461.106 249.397 461.405L246.765 460.973L247.606 452.676H256.94V455.111H250.018L249.554 459.378H249.649C249.947 459.027 250.369 458.736 250.914 458.506C251.458 458.27 252.055 458.152 252.705 458.152C253.679 458.152 254.549 458.382 255.313 458.843C256.078 459.299 256.681 459.928 257.12 460.729C257.56 461.53 257.78 462.447 257.78 463.479C257.78 464.542 257.534 465.49 257.042 466.323C256.555 467.151 255.876 467.803 255.007 468.279C254.143 468.751 253.142 468.987 252.006 468.987Z" fill="#ECB22E"/>
<circle cx="192.895" cy="551.587" r="13.4038" fill="#FFF5E7" stroke="#ECB22E" stroke-width="0.415949"/>
<circle cx="305.642" cy="551.587" r="13.4038" fill="#FFF5E7" stroke="#ECB22E" stroke-width="0.415949"/>
<circle cx="193.116" cy="586.774" r="13.4038" fill="#FFF5E7" stroke="#ECB22E" stroke-width="0.415949"/>
<circle cx="305.863" cy="586.774" r="13.4038" fill="#FFF5E7" stroke="#ECB22E" stroke-width="0.415949"/>
<rect x="192.557" y="524.578" width="112.906" height="87.2608" rx="4.15949" fill="#FFF6E2" stroke="#ECB22E" stroke-width="0.831898"/>
<path d="M241.78 559.804V575.895H238.865V562.64H238.77L235.007 565.044V562.373L239.006 559.804H241.78ZM251.758 576.115C250.988 576.109 250.236 575.976 249.503 575.714C248.77 575.447 248.11 575.015 247.523 574.417C246.936 573.815 246.47 573.016 246.124 572.021C245.779 571.021 245.609 569.782 245.614 568.305C245.614 566.927 245.76 565.699 246.054 564.62C246.347 563.541 246.769 562.63 247.319 561.886C247.869 561.137 248.531 560.566 249.307 560.173C250.087 559.78 250.959 559.584 251.923 559.584C252.934 559.584 253.829 559.783 254.61 560.181C255.396 560.579 256.029 561.124 256.511 561.815C256.993 562.501 257.292 563.276 257.407 564.141H254.539C254.393 563.523 254.091 563.03 253.636 562.664C253.185 562.292 252.614 562.106 251.923 562.106C250.807 562.106 249.948 562.59 249.346 563.559C248.749 564.528 248.447 565.859 248.442 567.551H248.552C248.809 567.09 249.142 566.694 249.55 566.364C249.959 566.034 250.42 565.78 250.933 565.602C251.451 565.419 251.999 565.327 252.575 565.327C253.518 565.327 254.364 565.552 255.113 566.003C255.867 566.453 256.464 567.074 256.904 567.865C257.344 568.651 257.561 569.551 257.556 570.568C257.561 571.626 257.321 572.576 256.833 573.42C256.346 574.258 255.668 574.918 254.798 575.4C253.929 575.881 252.915 576.12 251.758 576.115ZM251.742 573.757C252.313 573.757 252.824 573.619 253.274 573.341C253.725 573.063 254.081 572.689 254.343 572.218C254.605 571.746 254.733 571.217 254.728 570.63C254.733 570.054 254.607 569.533 254.351 569.067C254.099 568.601 253.751 568.231 253.306 567.959C252.86 567.687 252.352 567.551 251.781 567.551C251.357 567.551 250.962 567.632 250.595 567.794C250.228 567.956 249.909 568.182 249.637 568.47C249.364 568.753 249.149 569.083 248.992 569.46C248.84 569.832 248.762 570.23 248.757 570.654C248.762 571.214 248.893 571.73 249.149 572.202C249.406 572.673 249.76 573.05 250.21 573.333C250.661 573.616 251.171 573.757 251.742 573.757Z" fill="#ECB22E"/>
<circle cx="502.331" cy="482.414" r="13.4038" transform="rotate(-179.642 502.331 482.414)" fill="#FFF5E7" stroke="#ECB22E" stroke-width="0.415949"/>
<circle cx="388.553" cy="482.414" r="13.4038" transform="rotate(-179.642 388.553 482.414)" fill="#FFF5E7" stroke="#ECB22E" stroke-width="0.415949"/>
<circle cx="502.331" cy="447.231" r="13.4038" transform="rotate(-179.642 502.331 447.231)" fill="#FFF5E7" stroke="#ECB22E" stroke-width="0.415949"/>
<circle cx="388.553" cy="447.231" r="13.4038" transform="rotate(-179.642 388.553 447.231)" fill="#FFF5E7" stroke="#ECB22E" stroke-width="0.415949"/>
<rect x="502.499" y="509.506" width="112.906" height="87.2608" rx="4.15949" transform="rotate(-179.642 502.499 509.506)" fill="#FFF6E2" stroke="#ECB22E" stroke-width="0.831898"/>
<path d="M442.52 456.828V472.919H439.605V459.664H439.511L435.748 462.069V459.397L439.747 456.828H442.52ZM452.554 473.225C451.26 473.225 450.149 472.898 449.222 472.243C448.3 471.583 447.591 470.633 447.093 469.391C446.601 468.145 446.354 466.644 446.354 464.889C446.36 463.135 446.609 461.642 447.101 460.411C447.598 459.175 448.308 458.232 449.23 457.582C450.157 456.933 451.265 456.608 452.554 456.608C453.842 456.608 454.95 456.933 455.877 457.582C456.804 458.232 457.514 459.175 458.006 460.411C458.504 461.647 458.753 463.14 458.753 464.889C458.753 466.649 458.504 468.152 458.006 469.399C457.514 470.64 456.804 471.589 455.877 472.243C454.955 472.898 453.847 473.225 452.554 473.225ZM452.554 470.766C453.559 470.766 454.353 470.271 454.934 469.281C455.521 468.286 455.814 466.822 455.814 464.889C455.814 463.611 455.681 462.537 455.413 461.668C455.146 460.798 454.769 460.144 454.282 459.704C453.795 459.258 453.219 459.036 452.554 459.036C451.553 459.036 450.762 459.533 450.181 460.529C449.599 461.519 449.306 462.972 449.301 464.889C449.296 466.173 449.424 467.252 449.686 468.126C449.953 469.001 450.33 469.661 450.817 470.106C451.304 470.546 451.883 470.766 452.554 470.766Z" fill="#ECB22E"/>
<circle cx="502.916" cy="589.697" r="13.4038" transform="rotate(-179.642 502.916 589.697)" fill="#FFF5E7" stroke="#ECB22E" stroke-width="0.415949"/>
<circle cx="389.179" cy="589.697" r="13.4038" transform="rotate(-179.642 389.179 589.697)" fill="#FFF5E7" stroke="#ECB22E" stroke-width="0.415949"/>
<circle cx="502.916" cy="554.512" r="13.4038" transform="rotate(-179.642 502.916 554.512)" fill="#FFF5E7" stroke="#ECB22E" stroke-width="0.415949"/>
<circle cx="389.179" cy="554.512" r="13.4038" transform="rotate(-179.642 389.179 554.512)" fill="#FFF5E7" stroke="#ECB22E" stroke-width="0.415949"/>
<rect x="502.501" y="616.789" width="112.906" height="87.2608" rx="4.15949" transform="rotate(-179.642 502.501 616.789)" fill="#FFF6E2" stroke="#ECB22E" stroke-width="0.831898"/>
<path d="M443.286 564.031V580.122H440.371V566.868H440.276L436.513 569.272V566.6L440.512 564.031H443.286ZM453.916 564.031V580.122H451.001V566.868H450.907L447.143 569.272V566.6L451.142 564.031H453.916Z" fill="#ECB22E"/>
<circle cx="350.907" cy="81.7009" r="13.4038" transform="rotate(-179.642 350.907 81.7009)" fill="#FFF5E7" stroke="#ECB22E" stroke-width="0.415949"/>
<circle cx="454.063" cy="81.7009" r="13.4038" transform="rotate(-179.642 454.063 81.7009)" fill="#FFF5E7" stroke="#ECB22E" stroke-width="0.415949"/>
<circle cx="350.907" cy="46.5153" r="13.4038" transform="rotate(-179.642 350.907 46.5153)" fill="#FFF5E7" stroke="#ECB22E" stroke-width="0.415949"/>
<circle cx="454.063" cy="46.5153" r="13.4038" transform="rotate(-179.642 454.063 46.5153)" fill="#FFF5E7" stroke="#ECB22E" stroke-width="0.415949"/>
<rect x="454.149" y="122.302" width="103.075" height="116.936" rx="4.15949" transform="rotate(-179.642 454.149 122.302)" fill="#FFF6E2" stroke="#ECB22E" stroke-width="0.831898"/>
<path d="M405.442 56.4961V72.5869H402.527V59.3324H402.433L398.67 61.7366V59.0653L402.669 56.4961H405.442Z" fill="#ECB22E"/>
<circle cx="191.063" cy="79.2917" r="13.4038" transform="rotate(-179.642 191.063 79.2917)" fill="#FFF5E7" stroke="#ECB22E" stroke-width="0.415949"/>
<circle cx="294.218" cy="79.2917" r="13.4038" transform="rotate(-179.642 294.218 79.2917)" fill="#FFF5E7" stroke="#ECB22E" stroke-width="0.415949"/>
<circle cx="191.063" cy="44.1062" r="13.4038" transform="rotate(-179.642 191.063 44.1062)" fill="#FFF5E7" stroke="#ECB22E" stroke-width="0.415949"/>
<circle cx="294.218" cy="44.1062" r="13.4038" transform="rotate(-179.642 294.218 44.1062)" fill="#FFF5E7" stroke="#ECB22E" stroke-width="0.415949"/>
<rect x="294.304" y="119.893" width="103.075" height="116.936" rx="4.15949" transform="rotate(-179.642 294.304 119.893)" fill="#FFF6E2" stroke="#ECB22E" stroke-width="0.831898"/>
<path d="M242.646 68.3967C241.598 68.3967 240.661 68.2003 239.833 67.8075C239.006 67.4094 238.348 66.8647 237.861 66.1733C237.379 65.4819 237.123 64.6909 237.091 63.8005H239.92C239.972 64.4605 240.257 65 240.776 65.419C241.294 65.8328 241.918 66.0397 242.646 66.0397C243.217 66.0397 243.725 65.9087 244.17 65.6468C244.615 65.385 244.966 65.0209 245.223 64.5547C245.48 64.0886 245.605 63.5569 245.6 62.9598C245.605 62.3522 245.477 61.8127 245.215 61.3413C244.953 60.8699 244.594 60.5006 244.139 60.2335C243.683 59.9611 243.159 59.8249 242.567 59.8249C242.085 59.8197 241.611 59.9087 241.145 60.0921C240.679 60.2754 240.31 60.5163 240.037 60.8149L237.405 60.3828L238.246 52.0859H247.58V54.5215H240.658L240.195 58.7878H240.289C240.587 58.4369 241.009 58.1462 241.554 57.9157C242.099 57.68 242.696 57.5621 243.345 57.5621C244.319 57.5621 245.189 57.7926 245.954 58.2535C246.718 58.7092 247.321 59.3378 247.761 60.1392C248.201 60.9406 248.421 61.8572 248.421 62.8891C248.421 63.9524 248.174 64.9004 247.682 65.7333C247.195 66.5609 246.517 67.213 245.647 67.6896C244.783 68.161 243.782 68.3967 242.646 68.3967Z" fill="#ECB22E"/>
<circle cx="522.6" cy="667.881" r="13.4038" transform="rotate(-90 522.6 667.881)" fill="#FFF5E7" stroke="#ECB22E" stroke-width="0.415949"/>
<circle cx="522.6" cy="758.292" r="13.4038" transform="rotate(-90 522.6 758.292)" fill="#FFF5E7" stroke="#ECB22E" stroke-width="0.415949"/>
<rect x="490.024" y="760.486" width="92.1879" height="65.1545" rx="4.15949" transform="rotate(-90 490.024 760.486)" fill="#FFF6E2" stroke="#ECB22E" stroke-width="0.831898"/>
<path d="M501.676 721.645V705.554H504.591V712.366H512.047V705.554H514.97V721.645H512.047V714.809H504.591V721.645H501.676ZM525.706 716.569V709.576H528.55V721.645H525.792V719.5H525.667C525.394 720.175 524.946 720.728 524.323 721.157C523.705 721.587 522.943 721.802 522.037 721.802C521.246 721.802 520.547 721.626 519.939 721.275C519.337 720.919 518.865 720.403 518.525 719.727C518.184 719.047 518.014 718.224 518.014 717.26V709.576H520.858V716.82C520.858 717.585 521.068 718.193 521.487 718.643C521.906 719.094 522.456 719.319 523.137 719.319C523.556 719.319 523.962 719.217 524.355 719.012C524.747 718.808 525.07 718.504 525.321 718.101C525.578 717.693 525.706 717.182 525.706 716.569ZM537.501 709.576V711.776H530.563V709.576H537.501ZM532.276 706.685H535.12V718.015C535.12 718.397 535.178 718.69 535.293 718.895C535.414 719.094 535.571 719.23 535.765 719.303C535.958 719.377 536.173 719.413 536.409 719.413C536.587 719.413 536.749 719.4 536.896 719.374C537.048 719.348 537.163 719.324 537.242 719.303L537.721 721.527C537.569 721.579 537.352 721.637 537.069 721.7C536.791 721.762 536.451 721.799 536.048 721.81C535.335 721.83 534.694 721.723 534.123 721.487C533.552 721.246 533.099 720.875 532.763 720.372C532.433 719.869 532.271 719.24 532.276 718.486V706.685ZM539.88 721.645V709.576H542.724V721.645H539.88ZM541.31 707.864C540.859 707.864 540.472 707.714 540.147 707.416C539.822 707.112 539.66 706.748 539.66 706.324C539.66 705.894 539.822 705.53 540.147 705.232C540.472 704.928 540.859 704.776 541.31 704.776C541.765 704.776 542.153 704.928 542.472 705.232C542.797 705.53 542.96 705.894 542.96 706.324C542.96 706.748 542.797 707.112 542.472 707.416C542.153 707.714 541.765 707.864 541.31 707.864Z" fill="#ECB22E"/>
<circle cx="794.045" cy="654.27" r="13.4038" transform="rotate(-90 794.045 654.27)" fill="#FFF5E7" stroke="#ECB22E" stroke-width="0.415949"/>
<circle cx="794.045" cy="744.68" r="13.4038" transform="rotate(-90 794.045 744.68)" fill="#FFF5E7" stroke="#ECB22E" stroke-width="0.415949"/>
<rect x="771.003" y="746.875" width="92.1879" height="47.8995" rx="4.15949" transform="rotate(-90 771.003 746.875)" fill="#FFF6E2" stroke="#ECB22E" stroke-width="0.831898"/>
<path d="M797.543 710.493C796.412 710.493 795.406 710.3 794.526 709.912C793.651 709.524 792.96 708.985 792.452 708.294C791.944 707.602 791.674 706.803 791.643 705.897H794.597C794.623 706.332 794.767 706.712 795.029 707.036C795.291 707.356 795.639 707.605 796.074 707.783C796.509 707.961 796.996 708.05 797.535 708.05C798.112 708.05 798.622 707.95 799.067 707.751C799.513 707.547 799.861 707.264 800.112 706.903C800.364 706.541 800.487 706.125 800.482 705.654C800.487 705.166 800.361 704.737 800.105 704.365C799.848 703.993 799.476 703.702 798.989 703.493C798.507 703.283 797.926 703.179 797.245 703.179H795.823V700.932H797.245C797.805 700.932 798.295 700.835 798.714 700.641C799.138 700.447 799.471 700.175 799.712 699.824C799.953 699.468 800.071 699.056 800.065 698.59C800.071 698.135 799.968 697.739 799.759 697.404C799.555 697.063 799.264 696.799 798.887 696.61C798.515 696.422 798.078 696.328 797.575 696.328C797.082 696.328 796.627 696.417 796.208 696.595C795.789 696.773 795.451 697.027 795.194 697.357C794.937 697.682 794.801 698.069 794.785 698.52H791.981C792.002 697.619 792.261 696.828 792.758 696.147C793.261 695.461 793.932 694.926 794.77 694.544C795.608 694.156 796.548 693.963 797.59 693.963C798.664 693.963 799.596 694.164 800.387 694.568C801.184 694.966 801.799 695.503 802.234 696.178C802.669 696.854 802.886 697.6 802.886 698.417C802.891 699.324 802.624 700.083 802.085 700.696C801.55 701.309 800.848 701.709 799.979 701.898V702.024C801.11 702.181 801.977 702.6 802.579 703.281C803.187 703.957 803.488 704.797 803.483 705.803C803.483 706.704 803.226 707.51 802.713 708.223C802.205 708.93 801.503 709.485 800.607 709.888C799.717 710.292 798.696 710.493 797.543 710.493Z" fill="#ECB22E"/>
<circle cx="972.96" cy="504.852" r="13.4038" fill="#FFF5E7" stroke="#ECB22E" stroke-width="0.415949"/>
<circle cx="897.957" cy="506.867" r="13.4038" fill="#FFF5E7" stroke="#ECB22E" stroke-width="0.415949"/>
<rect x="901.859" y="469.304" width="70.6859" height="71.0969" rx="4.15949" fill="#FFF6E2" stroke="#ECB22E" stroke-width="0.831898"/>
<path d="M914.426 512.302V496.211H920.46C921.697 496.211 922.734 496.426 923.572 496.855C924.415 497.285 925.051 497.887 925.481 498.662C925.916 499.432 926.133 500.331 926.133 501.357C926.133 502.389 925.913 503.285 925.473 504.044C925.038 504.798 924.397 505.382 923.548 505.796C922.7 506.205 921.657 506.409 920.421 506.409H916.123V503.989H920.028C920.751 503.989 921.343 503.89 921.804 503.691C922.265 503.486 922.605 503.19 922.825 502.803C923.051 502.41 923.163 501.928 923.163 501.357C923.163 500.786 923.051 500.299 922.825 499.896C922.6 499.487 922.257 499.178 921.796 498.969C921.335 498.754 920.741 498.647 920.013 498.647H917.341V512.302H914.426ZM922.739 505.011L926.722 512.302H923.47L919.557 505.011H922.739ZM933.86 512.537C932.65 512.537 931.605 512.286 930.725 511.783C929.851 511.275 929.178 510.558 928.706 509.63C928.235 508.698 927.999 507.601 927.999 506.338C927.999 505.097 928.235 504.008 928.706 503.07C929.183 502.127 929.848 501.394 930.702 500.87C931.556 500.341 932.559 500.076 933.711 500.076C934.455 500.076 935.157 500.197 935.817 500.438C936.482 500.674 937.069 501.04 937.577 501.538C938.09 502.035 938.493 502.669 938.787 503.439C939.08 504.204 939.227 505.115 939.227 506.173V507.046H929.335V505.128H936.5C936.495 504.584 936.377 504.099 936.147 503.675C935.916 503.245 935.594 502.908 935.18 502.661C934.772 502.415 934.295 502.292 933.75 502.292C933.169 502.292 932.658 502.434 932.218 502.716C931.778 502.994 931.435 503.361 931.189 503.816C930.948 504.267 930.825 504.762 930.82 505.301V506.975C930.82 507.677 930.948 508.279 931.205 508.782C931.461 509.279 931.82 509.662 932.281 509.929C932.742 510.191 933.282 510.322 933.9 510.322C934.313 510.322 934.688 510.264 935.023 510.149C935.358 510.029 935.649 509.853 935.895 509.623C936.141 509.392 936.327 509.107 936.453 508.766L939.109 509.065C938.941 509.767 938.622 510.379 938.15 510.903C937.684 511.422 937.087 511.825 936.359 512.113C935.631 512.396 934.798 512.537 933.86 512.537ZM941.476 512.302V510.495L947.698 502.693V502.591H941.68V500.234H951.179V502.174L945.255 509.843V509.945H951.383V512.302H941.476Z" fill="#ECB22E"/>
<circle cx="996.848" cy="110.052" r="13.4038" fill="#FFF5E7" stroke="#ECB22E" stroke-width="0.415949"/>
<circle cx="921.845" cy="112.067" r="13.4038" fill="#FFF5E7" stroke="#ECB22E" stroke-width="0.415949"/>
<rect x="925.747" y="74.5038" width="70.6859" height="71.0969" rx="4.15949" fill="#FFF6E2" stroke="#ECB22E" stroke-width="0.831898"/>
<path d="M931.856 116.155V103.411H936.635C937.614 103.411 938.435 103.582 939.099 103.922C939.767 104.262 940.271 104.739 940.611 105.353C940.955 105.963 941.127 106.674 941.127 107.487C941.127 108.304 940.953 109.014 940.605 109.615C940.26 110.213 939.752 110.675 939.08 111.003C938.408 111.327 937.582 111.488 936.603 111.488H933.2V109.572H936.292C936.865 109.572 937.334 109.493 937.699 109.335C938.064 109.174 938.333 108.939 938.508 108.632C938.686 108.321 938.775 107.939 938.775 107.487C938.775 107.035 938.686 106.649 938.508 106.33C938.329 106.006 938.057 105.762 937.692 105.596C937.327 105.425 936.856 105.34 936.28 105.34H934.164V116.155H931.856ZM938.439 110.381L941.594 116.155H939.018L935.919 110.381H938.439ZM945.903 116.348C945.297 116.348 944.752 116.24 944.267 116.025C943.785 115.805 943.404 115.481 943.122 115.054C942.844 114.627 942.705 114.1 942.705 113.473C942.705 112.934 942.804 112.488 943.003 112.135C943.202 111.783 943.474 111.501 943.818 111.289C944.163 111.078 944.551 110.918 944.982 110.81C945.418 110.698 945.868 110.617 946.332 110.567C946.892 110.509 947.347 110.457 947.695 110.412C948.044 110.362 948.297 110.287 948.454 110.188C948.616 110.084 948.697 109.924 948.697 109.709V109.671C948.697 109.203 948.558 108.84 948.28 108.582C948.002 108.325 947.602 108.197 947.079 108.197C946.527 108.197 946.09 108.317 945.766 108.558C945.447 108.798 945.231 109.082 945.119 109.41L943.016 109.111C943.182 108.531 943.456 108.045 943.837 107.655C944.219 107.261 944.685 106.967 945.237 106.772C945.789 106.573 946.399 106.473 947.067 106.473C947.527 106.473 947.986 106.527 948.442 106.635C948.898 106.743 949.315 106.921 949.693 107.17C950.07 107.415 950.373 107.749 950.601 108.172C950.833 108.595 950.95 109.124 950.95 109.758V116.155H948.784V114.842H948.709C948.573 115.108 948.38 115.357 948.131 115.589C947.886 115.817 947.577 116.002 947.204 116.143C946.834 116.28 946.401 116.348 945.903 116.348ZM946.488 114.693C946.94 114.693 947.332 114.604 947.664 114.425C947.996 114.243 948.251 114.002 948.429 113.704C948.612 113.405 948.703 113.079 948.703 112.727V111.6C948.633 111.658 948.512 111.712 948.342 111.762C948.176 111.812 947.99 111.855 947.782 111.893C947.575 111.93 947.369 111.963 947.166 111.992C946.963 112.021 946.787 112.046 946.637 112.067C946.301 112.113 946.001 112.187 945.735 112.291C945.47 112.395 945.26 112.54 945.107 112.727C944.953 112.909 944.876 113.146 944.876 113.436C944.876 113.851 945.028 114.164 945.331 114.376C945.633 114.587 946.019 114.693 946.488 114.693ZM955.268 113.156L955.262 110.437H955.623L959.058 106.597H961.69L957.465 111.302H956.998L955.268 113.156ZM953.215 116.155V103.411H955.467V116.155H953.215ZM959.213 116.155L956.102 111.806L957.62 110.219L961.907 116.155H959.213ZM967.029 116.342C966.07 116.342 965.243 116.143 964.546 115.745C963.853 115.342 963.32 114.774 962.947 114.04C962.573 113.301 962.387 112.432 962.387 111.432C962.387 110.449 962.573 109.586 962.947 108.844C963.324 108.097 963.851 107.516 964.527 107.101C965.203 106.682 965.998 106.473 966.91 106.473C967.5 106.473 968.055 106.568 968.578 106.759C969.105 106.946 969.57 107.236 969.972 107.63C970.378 108.024 970.698 108.526 970.93 109.136C971.163 109.742 971.279 110.464 971.279 111.302V111.992H963.444V110.474H969.119C969.115 110.043 969.022 109.659 968.839 109.323C968.657 108.983 968.402 108.715 968.074 108.52C967.75 108.325 967.373 108.228 966.942 108.228C966.481 108.228 966.077 108.34 965.728 108.564C965.38 108.784 965.108 109.074 964.913 109.435C964.722 109.792 964.625 110.184 964.621 110.611V111.936C964.621 112.492 964.722 112.969 964.925 113.368C965.129 113.762 965.413 114.064 965.778 114.276C966.143 114.483 966.57 114.587 967.06 114.587C967.388 114.587 967.684 114.542 967.95 114.45C968.215 114.355 968.445 114.216 968.64 114.033C968.835 113.851 968.983 113.625 969.082 113.355L971.185 113.592C971.053 114.147 970.8 114.633 970.426 115.048C970.057 115.458 969.584 115.778 969.007 116.006C968.431 116.23 967.771 116.342 967.029 116.342ZM977.957 106.597V108.34H972.463V106.597H977.957ZM973.819 104.307H976.072V113.28C976.072 113.583 976.117 113.816 976.209 113.977C976.304 114.135 976.428 114.243 976.582 114.301C976.735 114.359 976.905 114.388 977.092 114.388C977.233 114.388 977.362 114.378 977.478 114.357C977.598 114.336 977.689 114.318 977.752 114.301L978.131 116.062C978.011 116.103 977.839 116.149 977.615 116.199C977.395 116.249 977.125 116.278 976.806 116.286C976.242 116.303 975.734 116.217 975.281 116.031C974.829 115.84 974.47 115.545 974.205 115.147C973.944 114.749 973.815 114.251 973.819 113.654V104.307ZM982.591 116.348C981.986 116.348 981.44 116.24 980.955 116.025C980.474 115.805 980.092 115.481 979.81 115.054C979.532 114.627 979.393 114.1 979.393 113.473C979.393 112.934 979.492 112.488 979.692 112.135C979.891 111.783 980.162 111.501 980.507 111.289C980.851 111.078 981.239 110.918 981.67 110.81C982.106 110.698 982.556 110.617 983.021 110.567C983.581 110.509 984.035 110.457 984.383 110.412C984.732 110.362 984.985 110.287 985.143 110.188C985.304 110.084 985.385 109.924 985.385 109.709V109.671C985.385 109.203 985.246 108.84 984.968 108.582C984.69 108.325 984.29 108.197 983.767 108.197C983.216 108.197 982.778 108.317 982.454 108.558C982.135 108.798 981.919 109.082 981.807 109.41L979.704 109.111C979.87 108.531 980.144 108.045 980.525 107.655C980.907 107.261 981.374 106.967 981.926 106.772C982.477 106.573 983.087 106.473 983.755 106.473C984.215 106.473 984.674 106.527 985.13 106.635C985.586 106.743 986.003 106.921 986.381 107.17C986.758 107.415 987.061 107.749 987.289 108.172C987.522 108.595 987.638 109.124 987.638 109.758V116.155L985.472 116.155V114.842H985.398C985.261 115.108 985.068 115.357 984.819 115.589C984.574 115.817 984.265 116.002 983.892 116.143C983.523 116.28 983.089 116.348 982.591 116.348ZM983.176 114.693C983.628 114.693 984.02 114.604 984.352 114.425C984.684 114.243 984.939 114.002 985.118 113.704C985.3 113.405 985.391 113.079 985.391 112.727V111.6C985.321 111.658 985.201 111.712 985.031 111.762C984.865 111.812 984.678 111.855 984.471 111.893C984.263 111.93 984.058 111.963 983.855 111.992C983.651 112.021 983.475 112.046 983.326 112.067C982.99 112.113 982.689 112.187 982.423 112.291C982.158 112.395 981.948 112.54 981.795 112.727C981.641 112.909 981.565 113.146 981.565 113.436C981.565 113.851 981.716 114.164 982.019 114.376C982.322 114.587 982.707 114.693 983.176 114.693Z" fill="#ECB22E"/>
<circle cx="972.96" cy="235.83" r="13.4038" fill="#FFF5E7" stroke="#ECB22E" stroke-width="0.415949"/>
<circle cx="974.703" cy="201.051" r="13.4038" fill="#FFF5E7" stroke="#ECB22E" stroke-width="0.415949"/>
<circle cx="897.957" cy="235.83" r="13.4038" fill="#FFF5E7" stroke="#ECB22E" stroke-width="0.415949"/>
<circle cx="899.7" cy="201.051" r="13.4038" fill="#FFF5E7" stroke="#ECB22E" stroke-width="0.415949"/>
<rect x="901.859" y="181.339" width="70.6859" height="71.0969" rx="4.15949" fill="#FFF6E2" stroke="#ECB22E" stroke-width="0.831898"/>
<path d="M914.426 224.337V208.246H920.461C921.697 208.246 922.734 208.461 923.572 208.89C924.415 209.32 925.052 209.922 925.481 210.697C925.916 211.467 926.133 212.366 926.133 213.392C926.133 214.424 925.913 215.32 925.473 216.079C925.038 216.834 924.397 217.418 923.548 217.831C922.7 218.24 921.657 218.444 920.421 218.444H916.124V216.024H920.028C920.751 216.024 921.343 215.925 921.804 215.726C922.265 215.522 922.605 215.226 922.825 214.838C923.051 214.445 923.163 213.963 923.163 213.392C923.163 212.821 923.051 212.334 922.825 211.931C922.6 211.522 922.257 211.213 921.796 211.004C921.335 210.789 920.741 210.682 920.013 210.682H917.341V224.337H914.426ZM922.739 217.046L926.722 224.337H923.47L919.557 217.046H922.739ZM933.86 224.573C932.65 224.573 931.605 224.321 930.725 223.818C929.851 223.31 929.178 222.593 928.706 221.666C928.235 220.733 927.999 219.636 927.999 218.374C927.999 217.132 928.235 216.043 928.706 215.105C929.183 214.162 929.848 213.429 930.702 212.905C931.556 212.376 932.559 212.112 933.711 212.112C934.455 212.112 935.157 212.232 935.817 212.473C936.482 212.709 937.069 213.075 937.577 213.573C938.09 214.071 938.493 214.704 938.787 215.474C939.08 216.239 939.227 217.151 939.227 218.209V219.081H929.335V217.164H936.5C936.495 216.619 936.377 216.134 936.147 215.71C935.916 215.281 935.594 214.943 935.18 214.697C934.772 214.45 934.295 214.327 933.75 214.327C933.169 214.327 932.658 214.469 932.218 214.752C931.778 215.029 931.435 215.396 931.189 215.852C930.948 216.302 930.825 216.797 930.82 217.336V219.01C930.82 219.712 930.948 220.314 931.205 220.817C931.461 221.315 931.82 221.697 932.281 221.964C932.742 222.226 933.282 222.357 933.9 222.357C934.313 222.357 934.688 222.299 935.023 222.184C935.358 222.064 935.649 221.888 935.895 221.658C936.141 221.427 936.327 221.142 936.453 220.801L939.109 221.1C938.941 221.802 938.622 222.415 938.15 222.938C937.684 223.457 937.087 223.86 936.359 224.148C935.631 224.431 934.798 224.573 933.86 224.573ZM941.476 224.337V222.53L947.698 214.728V214.626H941.68V212.269H951.179V214.209L945.255 221.878V221.98H951.383V224.337H941.476Z" fill="#ECB22E"/>
<circle cx="779.703" cy="41.2642" r="13.4038" transform="rotate(-90 779.703 41.2642)" fill="#FFF5E7" stroke="#ECB22E" stroke-width="0.415949"/>
<circle cx="779.703" cy="131.674" r="13.4038" transform="rotate(-90 779.703 131.674)" fill="#FFF5E7" stroke="#ECB22E" stroke-width="0.415949"/>
<rect x="756.661" y="133.869" width="92.1879" height="47.8995" rx="4.15949" transform="rotate(-90 756.661 133.869)" fill="#FFF6E2" stroke="#ECB22E" stroke-width="0.831898"/>
<path d="M780.315 96.6604C779.184 96.6604 778.178 96.4666 777.298 96.079C776.423 95.6914 775.732 95.1519 775.224 94.4605C774.716 93.7691 774.446 92.9703 774.414 92.0642H777.369C777.395 92.4989 777.539 92.8787 777.801 93.2034C778.063 93.5229 778.411 93.7717 778.846 93.9498C779.28 94.1279 779.768 94.2169 780.307 94.2169C780.883 94.2169 781.394 94.1174 781.839 93.9184C782.284 93.7141 782.633 93.4313 782.884 93.0698C783.136 92.7084 783.259 92.292 783.253 91.8206C783.259 91.3335 783.133 90.904 782.876 90.5321C782.62 90.1602 782.248 89.8695 781.761 89.66C781.279 89.4504 780.697 89.3457 780.016 89.3457H778.594V87.0986H780.016C780.577 87.0986 781.067 87.0017 781.486 86.8079C781.91 86.6141 782.242 86.3417 782.483 85.9908C782.724 85.6346 782.842 85.2235 782.837 84.7573C782.842 84.3016 782.74 83.9061 782.531 83.5709C782.326 83.2304 782.036 82.9659 781.658 82.7774C781.287 82.5888 780.849 82.4945 780.346 82.4945C779.854 82.4945 779.398 82.5835 778.979 82.7616C778.56 82.9397 778.222 83.1938 777.966 83.5238C777.709 83.8485 777.573 84.2361 777.557 84.6866H774.752C774.773 83.7856 775.033 82.9947 775.53 82.3138C776.033 81.6276 776.703 81.0934 777.541 80.711C778.38 80.3234 779.32 80.1296 780.362 80.1296C781.436 80.1296 782.368 80.3312 783.159 80.7346C783.955 81.1326 784.571 81.6695 785.005 82.3452C785.44 83.0209 785.658 83.7673 785.658 84.5844C785.663 85.4906 785.396 86.2501 784.856 86.8629C784.322 87.4758 783.62 87.8765 782.751 88.065V88.1907C783.882 88.3479 784.749 88.7669 785.351 89.4478C785.959 90.1235 786.26 90.9642 786.255 91.9699C786.255 92.8708 785.998 93.6774 785.485 94.3898C784.977 95.0969 784.275 95.6521 783.379 96.0554C782.489 96.4588 781.467 96.6604 780.315 96.6604Z" fill="#ECB22E"/>
<circle cx="704.228" cy="348.656" r="13.4038" transform="rotate(-90 704.228 348.656)" fill="#FFF5E7" stroke="#ECB22E" stroke-width="0.415949"/>
<circle cx="704.228" cy="439.066" r="13.4038" transform="rotate(-90 704.228 439.066)" fill="#FFF5E7" stroke="#ECB22E" stroke-width="0.415949"/>
<rect x="671.266" y="441.261" width="92.1879" height="63.6962" rx="4.15949" transform="rotate(-90 671.266 441.261)" fill="#FFF6E2" stroke="#ECB22E" stroke-width="0.831898"/>
<path d="M696.91 386.447V402.538H693.995V389.284H693.901L690.137 391.688V389.016L694.137 386.447H696.91ZM706.943 402.845C705.65 402.845 704.539 402.517 703.612 401.862C702.69 401.202 701.98 400.252 701.483 399.01C700.99 397.764 700.744 396.263 700.744 394.508C700.749 392.754 700.998 391.261 701.491 390.03C701.988 388.794 702.698 387.851 703.62 387.201C704.547 386.552 705.655 386.227 706.943 386.227C708.232 386.227 709.34 386.552 710.267 387.201C711.194 387.851 711.904 388.794 712.396 390.03C712.894 391.266 713.142 392.759 713.142 394.508C713.142 396.268 712.894 397.772 712.396 399.018C711.904 400.26 711.194 401.208 710.267 401.862C709.345 402.517 708.237 402.845 706.943 402.845ZM706.943 400.385C707.949 400.385 708.743 399.89 709.324 398.9C709.911 397.905 710.204 396.441 710.204 394.508C710.204 393.23 710.07 392.157 709.803 391.287C709.536 390.418 709.159 389.763 708.672 389.323C708.185 388.878 707.608 388.655 706.943 388.655C705.943 388.655 705.152 389.153 704.571 390.148C703.989 391.138 703.696 392.591 703.691 394.508C703.685 395.792 703.814 396.871 704.076 397.745C704.343 398.62 704.72 399.28 705.207 399.725C705.694 400.165 706.273 400.385 706.943 400.385Z" fill="#ECB22E"/>
<circle cx="704.229" cy="210.923" r="13.4038" transform="rotate(-90 704.229 210.923)" fill="#FFF5E7" stroke="#ECB22E" stroke-width="0.415949"/>
<circle cx="704.229" cy="301.334" r="13.4038" transform="rotate(-90 704.229 301.334)" fill="#FFF5E7" stroke="#ECB22E" stroke-width="0.415949"/>
<rect x="671.268" y="305.959" width="92.1879" height="63.6962" rx="4.15949" transform="rotate(-90 671.268 305.959)" fill="#FFF6E2" stroke="#ECB22E" stroke-width="0.831898"/>
<path d="M700.274 251.985C701.044 251.99 701.793 252.126 702.521 252.394C703.255 252.656 703.914 253.085 704.501 253.682C705.088 254.274 705.554 255.068 705.9 256.063C706.245 257.058 706.418 258.289 706.418 259.755C706.423 261.138 706.277 262.374 705.978 263.464C705.685 264.548 705.263 265.465 704.713 266.214C704.163 266.963 703.501 267.534 702.725 267.927C701.95 268.319 701.078 268.516 700.109 268.516C699.093 268.516 698.192 268.317 697.406 267.919C696.626 267.521 695.995 266.976 695.513 266.285C695.031 265.593 694.735 264.802 694.625 263.912H697.493C697.639 264.551 697.938 265.059 698.388 265.436C698.844 265.808 699.418 265.994 700.109 265.994C701.225 265.994 702.084 265.509 702.686 264.54C703.289 263.571 703.59 262.225 703.59 260.502H703.48C703.223 260.963 702.89 261.361 702.482 261.696C702.073 262.026 701.61 262.28 701.091 262.458C700.578 262.636 700.033 262.725 699.457 262.725C698.514 262.725 697.666 262.5 696.911 262.05C696.162 261.599 695.568 260.981 695.128 260.195C694.693 259.41 694.473 258.511 694.468 257.501C694.468 256.453 694.709 255.513 695.191 254.68C695.678 253.842 696.356 253.182 697.226 252.7C698.095 252.213 699.111 251.975 700.274 251.985ZM700.282 254.342C699.716 254.342 699.206 254.481 698.75 254.759C698.299 255.031 697.943 255.403 697.681 255.874C697.425 256.34 697.296 256.862 697.296 257.438C697.302 258.009 697.43 258.527 697.681 258.993C697.938 259.46 698.286 259.829 698.726 260.101C699.172 260.374 699.68 260.51 700.251 260.51C700.675 260.51 701.07 260.429 701.437 260.266C701.804 260.104 702.123 259.879 702.395 259.59C702.673 259.297 702.888 258.965 703.04 258.593C703.197 258.221 703.273 257.828 703.268 257.414C703.268 256.864 703.137 256.356 702.875 255.89C702.618 255.424 702.265 255.049 701.814 254.766C701.369 254.484 700.858 254.342 700.282 254.342Z" fill="#ECB22E"/>
<circle cx="28.8491" cy="592.332" r="13.4038" transform="rotate(-90 28.8491 592.332)" fill="#FFF5E7" stroke="#ECB22E" stroke-width="0.415949"/>
<circle cx="31.0235" cy="499.313" r="13.4038" transform="rotate(-90 31.0235 499.313)" fill="#FFF5E7" stroke="#ECB22E" stroke-width="0.415949"/>
<circle cx="68.8689" cy="592.332" r="13.4038" transform="rotate(-90 68.8689 592.332)" fill="#FFF5E7" stroke="#ECB22E" stroke-width="0.415949"/>
<circle cx="71.0458" cy="499.313" r="13.4038" transform="rotate(-90 71.0458 499.313)" fill="#FFF5E7" stroke="#ECB22E" stroke-width="0.415949"/>
<circle cx="111.336" cy="592.332" r="13.4038" transform="rotate(-90 111.336 592.332)" fill="#FFF5E7" stroke="#ECB22E" stroke-width="0.415949"/>
<circle cx="113.513" cy="499.313" r="13.4038" transform="rotate(-90 113.513 499.313)" fill="#FFF5E7" stroke="#ECB22E" stroke-width="0.415949"/>
<rect x="1.38006" y="591.916" width="92.1879" height="138.63" rx="4.15949" transform="rotate(-90 1.38006 591.916)" fill="#FFF6E2" stroke="#ECB22E" stroke-width="0.831898"/>
<path d="M59.6153 554.756V552.65L65.2015 547.174C65.7357 546.634 66.181 546.155 66.5371 545.736C66.8933 545.317 67.1605 544.911 67.3385 544.518C67.5166 544.126 67.6057 543.706 67.6057 543.261C67.6057 542.753 67.4904 542.318 67.26 541.957C67.0295 541.59 66.7126 541.308 66.3093 541.108C65.906 540.909 65.4477 540.81 64.9343 540.81C64.4053 540.81 63.9418 540.92 63.5437 541.14C63.1456 541.355 62.8366 541.661 62.6166 542.059C62.4018 542.457 62.2944 542.931 62.2944 543.481H59.521C59.521 542.46 59.7541 541.572 60.2202 540.818C60.6864 540.064 61.328 539.48 62.1452 539.066C62.9675 538.652 63.9103 538.445 64.9736 538.445C66.0526 538.445 67.0007 538.647 67.8178 539.05C68.6349 539.453 69.2687 540.006 69.7192 540.708C70.1749 541.41 70.4027 542.211 70.4027 543.112C70.4027 543.714 70.2875 544.306 70.057 544.888C69.8265 545.469 69.4206 546.113 68.8392 546.82C68.263 547.528 67.4538 548.384 66.4114 549.39L63.638 552.21V552.32H70.6463V554.756H59.6153ZM79.9017 538.665V554.756H76.9868V541.501H76.8925L73.129 543.906V541.234L77.1282 538.665H79.9017Z" fill="#ECB22E"/>
<circle cx="28.8489" cy="421.893" r="13.4038" transform="rotate(-90 28.8489 421.893)" fill="#FFF5E7" stroke="#ECB22E" stroke-width="0.415949"/>
<circle cx="31.0234" cy="328.875" r="13.4038" transform="rotate(-90 31.0234 328.875)" fill="#FFF5E7" stroke="#ECB22E" stroke-width="0.415949"/>
<circle cx="68.8687" cy="421.893" r="13.4038" transform="rotate(-90 68.8687 421.893)" fill="#FFF5E7" stroke="#ECB22E" stroke-width="0.415949"/>
<circle cx="71.0454" cy="328.875" r="13.4038" transform="rotate(-90 71.0454 328.875)" fill="#FFF5E7" stroke="#ECB22E" stroke-width="0.415949"/>
<circle cx="111.336" cy="421.893" r="13.4038" transform="rotate(-90 111.336 421.893)" fill="#FFF5E7" stroke="#ECB22E" stroke-width="0.415949"/>
<circle cx="113.513" cy="328.875" r="13.4038" transform="rotate(-90 113.513 328.875)" fill="#FFF5E7" stroke="#ECB22E" stroke-width="0.415949"/>
<rect x="1.37966" y="421.478" width="92.1879" height="138.63" rx="4.15949" transform="rotate(-90 1.37966 421.478)" fill="#FFF6E2" stroke="#ECB22E" stroke-width="0.831898"/>
<path d="M57.615 382.315V380.21L63.2013 374.734C63.7355 374.194 64.1808 373.715 64.5369 373.296C64.8931 372.877 65.1602 372.471 65.3383 372.078C65.5164 371.685 65.6055 371.266 65.6055 370.821C65.6055 370.313 65.4902 369.878 65.2598 369.517C65.0293 369.15 64.7124 368.867 64.3091 368.668C63.9058 368.469 63.4474 368.37 62.9341 368.37C62.4051 368.37 61.9415 368.48 61.5435 368.699C61.1454 368.914 60.8363 369.221 60.6164 369.619C60.4016 370.017 60.2942 370.491 60.2942 371.041H57.5208C57.5208 370.019 57.7538 369.132 58.22 368.377C58.6862 367.623 59.3278 367.039 60.1449 366.625C60.9673 366.211 61.9101 366.005 62.9734 366.005C64.0524 366.005 65.0005 366.206 65.8176 366.61C66.6347 367.013 67.2685 367.565 67.719 368.267C68.1747 368.969 68.4025 369.771 68.4025 370.672C68.4025 371.274 68.2873 371.866 68.0568 372.447C67.8263 373.029 67.4204 373.673 66.839 374.38C66.2628 375.087 65.4536 375.944 64.4112 376.949L61.6377 379.77V379.88H68.6461V382.315H57.615ZM77.3043 382.622C76.0106 382.622 74.9001 382.294 73.973 381.64C73.0511 380.98 72.3414 380.029 71.8438 378.788C71.3514 377.541 71.1053 376.04 71.1053 374.286C71.1105 372.531 71.3593 371.038 71.8517 369.807C72.3493 368.571 73.059 367.628 73.9809 366.979C74.908 366.329 76.0158 366.005 77.3043 366.005C78.5929 366.005 79.7007 366.329 80.6278 366.979C81.5549 367.628 82.2646 368.571 82.757 369.807C83.2546 371.043 83.5034 372.536 83.5034 374.286C83.5034 376.046 83.2546 377.549 82.757 378.796C82.2646 380.037 81.5549 380.985 80.6278 381.64C79.7059 382.294 78.5981 382.622 77.3043 382.622ZM77.3043 380.163C78.31 380.163 79.1035 379.668 79.685 378.678C80.2716 377.683 80.5649 376.219 80.5649 374.286C80.5649 373.008 80.4314 371.934 80.1642 371.064C79.8971 370.195 79.52 369.54 79.0328 369.1C78.5457 368.655 77.9695 368.432 77.3043 368.432C76.3039 368.432 75.513 368.93 74.9316 369.925C74.3501 370.915 74.0568 372.369 74.0516 374.286C74.0463 375.569 74.1747 376.648 74.4366 377.523C74.7037 378.397 75.0808 379.057 75.568 379.503C76.0551 379.943 76.6339 380.163 77.3043 380.163Z" fill="#ECB22E"/>
<circle cx="900.453" cy="284.441" r="13.4038" fill="#FFF5E7" stroke="#ECB22E" stroke-width="0.415949"/>
<circle cx="975.652" cy="280.709" r="13.4038" fill="#FFF5E7" stroke="#ECB22E" stroke-width="0.415949"/>
<circle cx="900.674" cy="314.8" r="13.4038" fill="#FFF5E7" stroke="#ECB22E" stroke-width="0.415949"/>
<circle cx="975.873" cy="311.528" r="13.4038" fill="#FFF5E7" stroke="#ECB22E" stroke-width="0.415949"/>
<circle cx="900.453" cy="347.377" r="13.4038" fill="#FFF5E7" stroke="#ECB22E" stroke-width="0.415949"/>
<circle cx="976.094" cy="344.401" r="13.4038" fill="#FFF5E7" stroke="#ECB22E" stroke-width="0.415949"/>
<circle cx="900.674" cy="376.82" r="13.4038" fill="#FFF5E7" stroke="#ECB22E" stroke-width="0.415949"/>
<circle cx="976.316" cy="373.842" r="13.4038" fill="#FFF5E7" stroke="#ECB22E" stroke-width="0.415949"/>
<circle cx="899.7" cy="409.176" r="13.4038" fill="#FFF5E7" stroke="#ECB22E" stroke-width="0.415949"/>
<circle cx="975.874" cy="402.525" r="13.4038" fill="#FFF5E7" stroke="#ECB22E" stroke-width="0.415949"/>
<circle cx="900.674" cy="437.711" r="13.4038" fill="#FFF5E7" stroke="#ECB22E" stroke-width="0.415949"/>
<circle cx="976.096" cy="437.711" r="13.4038" fill="#FFF5E7" stroke="#ECB22E" stroke-width="0.415949"/>
<rect x="900.115" y="258.963" width="71.8062" height="203.813" rx="4.15949" fill="#FFF6E2" stroke="#ECB22E" stroke-width="0.831898"/>
<path d="M922.931 424.832V408.741H925.846V416.134H926.043L932.32 408.741H935.879L929.657 415.962L935.934 424.832H932.43L927.63 417.934L925.846 420.039V424.832H922.931ZM937.747 424.832V422.726L943.334 417.25C943.868 416.711 944.313 416.231 944.669 415.812C945.025 415.393 945.293 414.987 945.471 414.595C945.649 414.202 945.738 413.783 945.738 413.337C945.738 412.829 945.623 412.395 945.392 412.033C945.162 411.667 944.845 411.384 944.441 411.185C944.038 410.986 943.58 410.886 943.066 410.886C942.537 410.886 942.074 410.996 941.676 411.216C941.278 411.431 940.969 411.737 940.749 412.135C940.534 412.533 940.427 413.007 940.427 413.557H937.653C937.653 412.536 937.886 411.648 938.352 410.894C938.818 410.14 939.46 409.556 940.277 409.142C941.1 408.728 942.042 408.521 943.106 408.521C944.185 408.521 945.133 408.723 945.95 409.126C946.767 409.529 947.401 410.082 947.851 410.784C948.307 411.486 948.535 412.287 948.535 413.188C948.535 413.791 948.42 414.382 948.189 414.964C947.959 415.545 947.553 416.189 946.971 416.897C946.395 417.604 945.586 418.46 944.544 419.466L941.77 422.286V422.396H948.778V424.832H937.747Z" fill="#ECB22E"/>
<path d="M922.43 366.423V350.332H925.345V357.725H925.541L931.819 350.332H935.378L929.156 357.552L935.433 366.423H931.929L927.128 359.525L925.345 361.63V366.423H922.43ZM943.021 366.643C941.89 366.643 940.884 366.449 940.004 366.061C939.129 365.674 938.438 365.134 937.93 364.443C937.422 363.752 937.152 362.953 937.12 362.047H940.075C940.101 362.481 940.245 362.861 940.507 363.186C940.769 363.505 941.117 363.754 941.552 363.932C941.986 364.11 942.474 364.199 943.013 364.199C943.589 364.199 944.1 364.1 944.545 363.901C944.99 363.697 945.339 363.414 945.59 363.052C945.842 362.691 945.965 362.274 945.959 361.803C945.965 361.316 945.839 360.886 945.582 360.514C945.326 360.143 944.954 359.852 944.467 359.642C943.985 359.433 943.403 359.328 942.722 359.328H941.3V357.081H942.722C943.283 357.081 943.773 356.984 944.192 356.79C944.616 356.597 944.948 356.324 945.189 355.973C945.43 355.617 945.548 355.206 945.543 354.74C945.548 354.284 945.446 353.889 945.237 353.553C945.032 353.213 944.742 352.948 944.364 352.76C943.993 352.571 943.555 352.477 943.052 352.477C942.56 352.477 942.104 352.566 941.685 352.744C941.266 352.922 940.928 353.176 940.672 353.506C940.415 353.831 940.279 354.219 940.263 354.669H937.458C937.479 353.768 937.738 352.977 938.236 352.296C938.739 351.61 939.409 351.076 940.247 350.693C941.085 350.306 942.026 350.112 943.068 350.112C944.142 350.112 945.074 350.314 945.865 350.717C946.661 351.115 947.277 351.652 947.711 352.328C948.146 353.003 948.364 353.75 948.364 354.567C948.369 355.473 948.102 356.233 947.562 356.845C947.028 357.458 946.326 357.859 945.457 358.047V358.173C946.588 358.33 947.455 358.749 948.057 359.43C948.665 360.106 948.966 360.947 948.961 361.952C948.961 362.853 948.704 363.66 948.191 364.372C947.683 365.079 946.981 365.635 946.085 366.038C945.195 366.441 944.173 366.643 943.021 366.643Z" fill="#ECB22E"/>
<path d="M922.43 304.063V287.973H925.345V295.366H925.541L931.819 287.973H935.378L929.156 295.193L935.433 304.063H931.929L927.128 297.165L925.345 299.271V304.063H922.43ZM936.955 301.078V298.76L943.783 287.973H945.716V291.273H944.537L939.941 298.556V298.682H949.471V301.078H936.955ZM944.632 304.063V300.371L944.663 299.334V287.973H947.413V304.063H944.632Z" fill="#ECB22E"/>
<circle cx="1051.73" cy="571.405" r="13.4038" transform="rotate(90 1051.73 571.405)" fill="#FFF5E7" stroke="#ECB22E" stroke-width="0.415949"/>
<circle cx="1055" cy="646.604" r="13.4038" transform="rotate(90 1055 646.604)" fill="#FFF5E7" stroke="#ECB22E" stroke-width="0.415949"/>
<circle cx="1019.15" cy="571.183" r="13.4038" transform="rotate(90 1019.15 571.183)" fill="#FFF5E7" stroke="#ECB22E" stroke-width="0.415949"/>
<circle cx="1022.13" cy="646.825" r="13.4038" transform="rotate(90 1022.13 646.825)" fill="#FFF5E7" stroke="#ECB22E" stroke-width="0.415949"/>
<circle cx="989.711" cy="571.405" r="13.4038" transform="rotate(90 989.711 571.405)" fill="#FFF5E7" stroke="#ECB22E" stroke-width="0.415949"/>
<circle cx="992.688" cy="647.046" r="13.4038" transform="rotate(90 992.688 647.046)" fill="#FFF5E7" stroke="#ECB22E" stroke-width="0.415949"/>
<circle cx="957.356" cy="570.429" r="13.4038" transform="rotate(90 957.356 570.429)" fill="#FFF5E7" stroke="#ECB22E" stroke-width="0.415949"/>
<circle cx="964.006" cy="646.604" r="13.4038" transform="rotate(90 964.006 646.604)" fill="#FFF5E7" stroke="#ECB22E" stroke-width="0.415949"/>
<circle cx="928.821" cy="571.404" r="13.4038" transform="rotate(90 928.821 571.404)" fill="#FFF5E7" stroke="#ECB22E" stroke-width="0.415949"/>
<circle cx="928.821" cy="646.825" r="13.4038" transform="rotate(90 928.821 646.825)" fill="#FFF5E7" stroke="#ECB22E" stroke-width="0.415949"/>
<rect x="1076.35" y="570.845" width="71.8062" height="166.082" rx="4.15949" transform="rotate(90 1076.35 570.845)" fill="#FFF6E2" stroke="#ECB22E" stroke-width="0.831898"/>
<path d="M966.068 600.601V598.157H978.906V600.601H973.933V614.248H971.042V600.601H966.068ZM981.381 598.157H984.948L989.725 609.817H989.914L994.691 598.157H998.258V614.248H995.461V603.193H995.311L990.865 614.201H988.775L984.328 603.17H984.178V614.248H981.381V598.157ZM1012.54 614.468C1011.41 614.468 1010.4 614.274 1009.52 613.887C1008.65 613.499 1007.95 612.96 1007.45 612.268C1006.94 611.577 1006.67 610.778 1006.64 609.872H1009.59C1009.62 610.307 1009.76 610.686 1010.02 611.011C1010.29 611.331 1010.63 611.579 1011.07 611.757C1011.5 611.936 1011.99 612.025 1012.53 612.025C1013.11 612.025 1013.62 611.925 1014.06 611.726C1014.51 611.522 1014.86 611.239 1015.11 610.877C1015.36 610.516 1015.48 610.1 1015.48 609.628C1015.48 609.141 1015.36 608.712 1015.1 608.34C1014.84 607.968 1014.47 607.677 1013.98 607.468C1013.5 607.258 1012.92 607.153 1012.24 607.153H1010.82V604.906H1012.24C1012.8 604.906 1013.29 604.809 1013.71 604.616C1014.13 604.422 1014.47 604.149 1014.71 603.798C1014.95 603.442 1015.06 603.031 1015.06 602.565C1015.06 602.109 1014.96 601.714 1014.75 601.379C1014.55 601.038 1014.26 600.774 1013.88 600.585C1013.51 600.396 1013.07 600.302 1012.57 600.302C1012.08 600.302 1011.62 600.391 1011.2 600.569C1010.78 600.747 1010.45 601.001 1010.19 601.331C1009.93 601.656 1009.8 602.044 1009.78 602.494H1006.97C1007 601.593 1007.26 600.802 1007.75 600.121C1008.26 599.435 1008.93 598.901 1009.76 598.519C1010.6 598.131 1011.54 597.937 1012.58 597.937C1013.66 597.937 1014.59 598.139 1015.38 598.542C1016.18 598.94 1016.79 599.477 1017.23 600.153C1017.66 600.829 1017.88 601.575 1017.88 602.392C1017.89 603.298 1017.62 604.058 1017.08 604.671C1016.54 605.283 1015.84 605.684 1014.97 605.873V605.998C1016.1 606.155 1016.97 606.575 1017.57 607.255C1018.18 607.931 1018.48 608.772 1018.48 609.777C1018.48 610.678 1018.22 611.485 1017.71 612.197C1017.2 612.905 1016.5 613.46 1015.6 613.863C1014.71 614.266 1013.69 614.468 1012.54 614.468Z" fill="#ECB22E"/>
<circle cx="1180" cy="250.416" r="13.4038" transform="rotate(90 1180 250.416)" fill="#FFF5E7" stroke="#ECB22E" stroke-width="0.415949"/>
<circle cx="1147.42" cy="250.195" r="13.4038" transform="rotate(90 1147.42 250.195)" fill="#FFF5E7" stroke="#ECB22E" stroke-width="0.415949"/>
<circle cx="1117.98" cy="250.416" r="13.4038" transform="rotate(90 1117.98 250.416)" fill="#FFF5E7" stroke="#ECB22E" stroke-width="0.415949"/>
<circle cx="1085.62" cy="249.441" r="13.4038" transform="rotate(90 1085.62 249.441)" fill="#FFF5E7" stroke="#ECB22E" stroke-width="0.415949"/>
<circle cx="1092.71" cy="529.107" r="13.4038" transform="rotate(90 1092.71 529.107)" fill="#FFF5E7" stroke="#ECB22E" stroke-width="0.415949"/>
<circle cx="1057.09" cy="250.415" r="13.4038" transform="rotate(90 1057.09 250.415)" fill="#FFF5E7" stroke="#ECB22E" stroke-width="0.415949"/>
<circle cx="1057.52" cy="529.328" r="13.4038" transform="rotate(90 1057.52 529.328)" fill="#FFF5E7" stroke="#ECB22E" stroke-width="0.415949"/>
<rect x="1204.62" y="249.856" width="274.53" height="166.082" rx="4.15949" transform="rotate(90 1204.62 249.856)" fill="#FFF6E2" stroke="#ECB22E" stroke-width="0.831898"/>
<path d="M1100.5 396.438V380.347H1106.66C1107.83 380.347 1108.79 380.53 1109.56 380.897C1110.34 381.258 1110.92 381.753 1111.3 382.382C1111.69 383.01 1111.88 383.722 1111.88 384.519C1111.88 385.173 1111.75 385.734 1111.5 386.2C1111.25 386.661 1110.91 387.035 1110.49 387.324C1110.06 387.612 1109.59 387.819 1109.07 387.944V388.101C1109.64 388.133 1110.18 388.308 1110.71 388.628C1111.24 388.942 1111.67 389.387 1112.01 389.963C1112.34 390.54 1112.51 391.236 1112.51 392.053C1112.51 392.886 1112.31 393.635 1111.9 394.3C1111.5 394.96 1110.89 395.482 1110.08 395.864C1109.27 396.246 1108.25 396.438 1107.02 396.438H1100.5ZM1103.42 394.002H1106.55C1107.61 394.002 1108.37 393.8 1108.84 393.397C1109.31 392.988 1109.55 392.465 1109.55 391.826C1109.55 391.349 1109.43 390.919 1109.19 390.537C1108.96 390.149 1108.62 389.846 1108.19 389.626C1107.75 389.4 1107.23 389.288 1106.63 389.288H1103.42V394.002ZM1103.42 387.19H1106.3C1106.8 387.19 1107.26 387.098 1107.66 386.915C1108.06 386.726 1108.38 386.462 1108.61 386.121C1108.85 385.776 1108.96 385.367 1108.96 384.896C1108.96 384.272 1108.74 383.759 1108.3 383.356C1107.87 382.953 1107.22 382.751 1106.36 382.751H1103.42V387.19ZM1117.11 396.438H1114L1119.66 380.347H1123.26L1128.93 396.438H1125.82L1121.53 383.647H1121.4L1117.11 396.438ZM1117.21 390.128H1125.7V392.47H1117.21V390.128ZM1131.05 396.438V380.347H1137.09C1138.32 380.347 1139.36 380.561 1140.2 380.991C1141.04 381.42 1141.68 382.023 1142.11 382.798C1142.54 383.568 1142.76 384.466 1142.76 385.493C1142.76 386.525 1142.54 387.42 1142.1 388.18C1141.67 388.934 1141.02 389.518 1140.18 389.932C1139.33 390.341 1138.28 390.545 1137.05 390.545H1132.75V388.125H1136.66C1137.38 388.125 1137.97 388.025 1138.43 387.826C1138.89 387.622 1139.23 387.326 1139.45 386.939C1139.68 386.546 1139.79 386.064 1139.79 385.493C1139.79 384.922 1139.68 384.435 1139.45 384.032C1139.23 383.623 1138.88 383.314 1138.42 383.104C1137.96 382.89 1137.37 382.782 1136.64 382.782H1133.97V396.438H1131.05ZM1139.37 389.146L1143.35 396.438H1140.1L1136.18 389.146H1139.37Z" fill="#ECB22E"/>
<circle cx="1164.49" cy="94.3413" r="13.4038" transform="rotate(90 1164.49 94.3413)" fill="#FFF5E7" stroke="#ECB22E" stroke-width="0.415949"/>
<circle cx="1167.76" cy="169.54" r="13.4038" transform="rotate(90 1167.76 169.54)" fill="#FFF5E7" stroke="#ECB22E" stroke-width="0.415949"/>
<circle cx="1131.91" cy="94.1196" r="13.4038" transform="rotate(90 1131.91 94.1196)" fill="#FFF5E7" stroke="#ECB22E" stroke-width="0.415949"/>
<circle cx="1134.89" cy="169.761" r="13.4038" transform="rotate(90 1134.89 169.761)" fill="#FFF5E7" stroke="#ECB22E" stroke-width="0.415949"/>
<circle cx="1102.47" cy="94.3413" r="13.4038" transform="rotate(90 1102.47 94.3413)" fill="#FFF5E7" stroke="#ECB22E" stroke-width="0.415949"/>
<circle cx="1105.45" cy="169.983" r="13.4038" transform="rotate(90 1105.45 169.983)" fill="#FFF5E7" stroke="#ECB22E" stroke-width="0.415949"/>
<circle cx="1070.12" cy="93.3657" r="13.4038" transform="rotate(90 1070.12 93.3657)" fill="#FFF5E7" stroke="#ECB22E" stroke-width="0.415949"/>
<circle cx="1076.77" cy="169.54" r="13.4038" transform="rotate(90 1076.77 169.54)" fill="#FFF5E7" stroke="#ECB22E" stroke-width="0.415949"/>
<circle cx="1041.58" cy="94.3393" r="13.4038" transform="rotate(90 1041.58 94.3393)" fill="#FFF5E7" stroke="#ECB22E" stroke-width="0.415949"/>
<circle cx="1041.58" cy="169.761" r="13.4038" transform="rotate(90 1041.58 169.761)" fill="#FFF5E7" stroke="#ECB22E" stroke-width="0.415949"/>
<rect x="1189.11" y="93.7812" width="71.8062" height="166.082" rx="4.15949" transform="rotate(90 1189.11 93.7812)" fill="#FFF6E2" stroke="#ECB22E" stroke-width="0.831898"/>
<path d="M1080.67 125.708V123.265H1093.51V125.708H1088.53V139.355H1085.64V125.708H1080.67ZM1095.98 123.265H1099.55L1104.32 134.924H1104.51L1109.29 123.265H1112.86L1112.86 139.355H1110.06V128.301H1109.91L1105.46 139.308H1103.37L1098.93 128.277H1098.78V139.355H1095.98V123.265ZM1127.91 123.265V139.355H1124.99V126.101H1124.9L1121.13 128.505V125.834L1125.13 123.265H1127.91Z" fill="#ECB22E"/>
</svg>
