<svg width="604" height="937" viewBox="0 0 604 937" fill="none" xmlns="http://www.w3.org/2000/svg">
<circle cx="11.0757" cy="22.5152" r="10.0758" fill="#FFF5E7" stroke="#FFB100"/>
<circle cx="83.3474" cy="24.2047" r="10.0758" fill="#FFF5E7" stroke="#FFB100"/>
<circle cx="11.0757" cy="53.609" r="10.0758" fill="#FFF5E7" stroke="#FFB100"/>
<circle cx="83.3474" cy="55.3004" r="10.0758" fill="#FFF5E7" stroke="#FFB100"/>
<circle cx="11.0757" cy="86.6041" r="10.0758" fill="#FFF5E7" stroke="#FFB100"/>
<circle cx="83.3474" cy="88.2955" r="10.0758" fill="#FFF5E7" stroke="#FFB100"/>
<rect x="11.5757" y="1.34961" width="71.2726" height="107.356" rx="3.05493" fill="#FFF6E2" stroke="#FFB100"/>
<path d="M37.496 61.6465V60.0105L41.8363 55.7557C42.2514 55.3365 42.5973 54.9641 42.8741 54.6386C43.1508 54.313 43.3583 53.9976 43.4967 53.6924C43.6351 53.3872 43.7043 53.0616 43.7043 52.7157C43.7043 52.3209 43.6147 51.9831 43.4357 51.7023C43.2566 51.4174 43.0104 51.1977 42.697 51.043C42.3837 50.8884 42.0276 50.8111 41.6287 50.8111C41.2177 50.8111 40.8575 50.8965 40.5483 51.0675C40.239 51.2343 39.9988 51.4724 39.8279 51.7817C39.6611 52.091 39.5776 52.4593 39.5776 52.8866H37.4228C37.4228 52.093 37.6039 51.4032 37.9661 50.8172C38.3283 50.2311 38.8268 49.7774 39.4617 49.4559C40.1006 49.1344 40.8331 48.9736 41.6593 48.9736C42.4976 48.9736 43.2342 49.1303 43.8691 49.4437C44.5039 49.757 44.9964 50.1864 45.3464 50.7317C45.7004 51.277 45.8774 51.8997 45.8774 52.5997C45.8774 53.0677 45.7879 53.5276 45.6088 53.9793C45.4298 54.431 45.1144 54.9316 44.6627 55.481C44.215 56.0304 43.5862 56.6958 42.7764 57.4771L40.6215 59.6686V59.7541H46.0667V61.6465H37.496ZM48.1727 61.6465V60.0105L52.513 55.7557C52.9281 55.3365 53.274 54.9641 53.5507 54.6386C53.8275 54.313 54.035 53.9976 54.1734 53.6924C54.3118 53.3872 54.381 53.0616 54.381 52.7157C54.381 52.3209 54.2914 51.9831 54.1124 51.7023C53.9333 51.4174 53.6871 51.1977 53.3737 51.043C53.0604 50.8884 52.7043 50.8111 52.3054 50.8111C51.8944 50.8111 51.5342 50.8965 51.2249 51.0675C50.9157 51.2343 50.6755 51.4724 50.5046 51.7817C50.3378 52.091 50.2543 52.4593 50.2543 52.8866H48.0995C48.0995 52.093 48.2806 51.4032 48.6428 50.8172C49.005 50.2311 49.5035 49.7774 50.1384 49.4559C50.7773 49.1344 51.5098 48.9736 52.336 48.9736C53.1743 48.9736 53.9109 49.1303 54.5458 49.4437C55.1806 49.757 55.6731 50.1864 56.0231 50.7317C56.3771 51.277 56.5541 51.8997 56.5541 52.5997C56.5541 53.0677 56.4646 53.5276 56.2855 53.9793C56.1065 54.431 55.7911 54.9316 55.3394 55.481C54.8917 56.0304 54.2629 56.6958 53.4531 57.4771L51.2982 59.6686V59.7541H56.7434V61.6465H48.1727Z" fill="#ECB22E"/>
<circle cx="84.7956" cy="177.525" r="10.4142" fill="#FFF5E7" stroke="#ECB22E" stroke-width="0.323175"/>
<circle cx="11.0758" cy="177.525" r="10.4142" fill="#FFF5E7" stroke="#ECB22E" stroke-width="0.323175"/>
<circle cx="81.901" cy="206.288" r="10.4142" fill="#FFF5E7" stroke="#ECB22E" stroke-width="0.323175"/>
<circle cx="11.0758" cy="206.288" r="10.4142" fill="#FFF5E7" stroke="#ECB22E" stroke-width="0.323175"/>
<rect x="12.8462" y="146.479" width="71.6263" height="90.8543" rx="3.23175" fill="#FFF6E2" stroke="#ECB22E" stroke-width="0.646351"/>
<path d="M45.1612 186.022V198.524H42.8964V188.226H42.8232L39.8991 190.094V188.019L43.0063 186.022H45.1612ZM52.7795 198.695C51.872 198.695 51.0662 198.543 50.3622 198.238C49.6622 197.932 49.1128 197.515 48.714 196.986C48.3192 196.453 48.1239 195.849 48.1279 195.173C48.1239 194.648 48.2378 194.166 48.4698 193.726C48.7018 193.287 49.0151 192.921 49.4099 192.628C49.8087 192.33 50.2523 192.141 50.7406 192.06V191.974C50.0976 191.832 49.5767 191.504 49.1779 190.992C48.7831 190.475 48.5878 189.878 48.5919 189.203C48.5878 188.56 48.7669 187.986 49.1291 187.481C49.4913 186.977 49.9878 186.58 50.6186 186.291C51.2493 185.998 51.9697 185.852 52.7795 185.852C53.5813 185.852 54.2955 185.998 54.9222 186.291C55.553 186.58 56.0495 186.977 56.4117 187.481C56.778 187.986 56.9611 188.56 56.9611 189.203C56.9611 189.878 56.7596 190.475 56.3567 190.992C55.9579 191.504 55.4431 191.832 54.8123 191.974V192.06C55.3007 192.141 55.7402 192.33 56.1309 192.628C56.5256 192.921 56.839 193.287 57.071 193.726C57.307 194.166 57.425 194.648 57.425 195.173C57.425 195.849 57.2256 196.453 56.8268 196.986C56.428 197.515 55.8786 197.932 55.1786 198.238C54.4827 198.543 53.683 198.695 52.7795 198.695ZM52.7795 196.949C53.2475 196.949 53.6545 196.87 54.0004 196.711C54.3463 196.549 54.6149 196.321 54.8062 196.028C54.9975 195.735 55.0952 195.397 55.0992 195.014C55.0952 194.616 54.9914 194.264 54.7879 193.958C54.5885 193.649 54.3138 193.407 53.9638 193.232C53.6179 193.057 53.2231 192.969 52.7795 192.969C52.3319 192.969 51.933 193.057 51.5831 193.232C51.2331 193.407 50.9563 193.649 50.7529 193.958C50.5534 194.264 50.4558 194.616 50.4598 195.014C50.4558 195.397 50.5494 195.735 50.7406 196.028C50.9319 196.317 51.2005 196.542 51.5464 196.705C51.8964 196.868 52.3075 196.949 52.7795 196.949ZM52.7795 191.254C53.1621 191.254 53.4999 191.177 53.7929 191.022C54.09 190.867 54.324 190.652 54.4949 190.375C54.6658 190.098 54.7533 189.779 54.7574 189.417C54.7533 189.058 54.6678 188.745 54.501 188.476C54.3341 188.204 54.1022 187.994 53.8051 187.848C53.508 187.697 53.1661 187.622 52.7795 187.622C52.3848 187.622 52.0368 187.697 51.7357 187.848C51.4386 187.994 51.2066 188.204 51.0398 188.476C50.877 188.745 50.7976 189.058 50.8017 189.417C50.7976 189.779 50.879 190.098 51.0459 190.375C51.2168 190.648 51.4508 190.863 51.7479 191.022C52.049 191.177 52.3929 191.254 52.7795 191.254Z" fill="#ECB22E"/>
<circle cx="84.7954" cy="299.302" r="10.4142" fill="#FFF5E7" stroke="#ECB22E" stroke-width="0.323175"/>
<circle cx="11.0758" cy="299.302" r="10.4142" fill="#FFF5E7" stroke="#ECB22E" stroke-width="0.323175"/>
<circle cx="84.7954" cy="328.063" r="10.4142" fill="#FFF5E7" stroke="#ECB22E" stroke-width="0.323175"/>
<circle cx="11.0758" cy="328.063" r="10.4142" fill="#FFF5E7" stroke="#ECB22E" stroke-width="0.323175"/>
<rect x="12.847" y="268.255" width="71.6263" height="90.8543" rx="3.23175" fill="#FFF6E2" stroke="#ECB22E" stroke-width="0.646351"/>
<path d="M45.161 307.798V320.3H42.8962V310.002H42.823L39.8989 311.87V309.794L43.0061 307.798H45.161ZM48.3353 320.3V318.664L52.6756 314.409C53.0907 313.99 53.4366 313.617 53.7133 313.292C53.9901 312.966 54.1976 312.651 54.336 312.346C54.4744 312.04 54.5435 311.715 54.5435 311.369C54.5435 310.974 54.454 310.636 54.2749 310.356C54.0959 310.071 53.8497 309.851 53.5363 309.696C53.2229 309.542 52.8668 309.464 52.468 309.464C52.057 309.464 51.6968 309.55 51.3875 309.721C51.0782 309.888 50.8381 310.126 50.6672 310.435C50.5004 310.744 50.4169 311.113 50.4169 311.54H48.262C48.262 310.746 48.4431 310.057 48.8053 309.47C49.1675 308.884 49.6661 308.431 50.3009 308.109C50.9399 307.788 51.6724 307.627 52.4985 307.627C53.3369 307.627 54.0735 307.784 54.7084 308.097C55.3432 308.41 55.8356 308.84 56.1856 309.385C56.5397 309.93 56.7167 310.553 56.7167 311.253C56.7167 311.721 56.6272 312.181 56.4481 312.633C56.2691 313.084 55.9537 313.585 55.5019 314.134C55.0543 314.684 54.4255 315.349 53.6157 316.13L51.4608 318.322V318.407H56.906V320.3H48.3353Z" fill="#ECB22E"/>
<path d="M105.239 546.767C105.239 552.24 100.584 556.69 94.8248 556.69C89.0659 556.69 84.4106 552.24 84.4106 546.767C84.4106 541.294 89.0659 536.844 94.8248 536.844C100.584 536.844 105.239 541.294 105.239 546.767Z" fill="#FFF5E7" stroke="#ECB22E" stroke-width="0.323175"/>
<path d="M32.0657 548.091C32.0657 553.819 27.4037 558.463 21.6515 558.463C15.8993 558.463 11.2373 553.819 11.2373 548.091C11.2373 542.363 15.8993 537.719 21.6515 537.719C27.4037 537.719 32.0657 542.363 32.0657 548.091Z" fill="#FFF5E7" stroke="#ECB22E" stroke-width="0.323175"/>
<path d="M105.239 571.461C105.239 576.851 100.586 581.238 94.8248 581.238C89.0636 581.238 84.4106 576.851 84.4106 571.461C84.4106 566.071 89.0636 561.684 94.8248 561.684C100.586 561.684 105.239 566.071 105.239 571.461Z" fill="#FFF5E7" stroke="#ECB22E" stroke-width="0.323175"/>
<path d="M32.0657 572.056C32.0657 577.784 27.4037 582.428 21.6515 582.428C15.8993 582.428 11.2373 577.784 11.2373 572.056C11.2373 566.328 15.8993 561.684 21.6515 561.684C27.4037 561.684 32.0657 566.328 32.0657 572.056Z" fill="#FFF5E7" stroke="#ECB22E" stroke-width="0.323175"/>
<rect x="22.8763" y="531.427" width="71.6263" height="55.5206" rx="3.23175" fill="#FFF6E2" stroke="#ECB22E" stroke-width="0.646351"/>
<path d="M55.3855 554.119V566.621H53.1207V556.323H53.0475L50.1234 558.191V556.115L53.2306 554.119H55.3855ZM63.6448 554.119V566.621H61.3801V556.323H61.3068L58.3828 558.191V556.115L61.4899 554.119H63.6448Z" fill="#ECB22E"/>
<path d="M582.02 536.989C582.02 542.462 577.364 546.912 571.606 546.912C565.847 546.912 561.191 542.462 561.191 536.989C561.191 531.516 565.847 527.066 571.606 527.066C577.364 527.066 582.02 531.516 582.02 536.989Z" fill="#FFF5E7" stroke="#ECB22E" stroke-width="0.323175"/>
<path d="M508.846 538.313C508.846 544.04 504.184 548.685 498.432 548.685C492.68 548.685 488.018 544.04 488.018 538.313C488.018 532.585 492.68 527.941 498.432 527.941C504.184 527.941 508.846 532.585 508.846 538.313Z" fill="#FFF5E7" stroke="#ECB22E" stroke-width="0.323175"/>
<path d="M582.02 561.683C582.02 567.073 577.367 571.46 571.606 571.46C565.844 571.46 561.191 567.073 561.191 561.683C561.191 556.292 565.844 551.906 571.606 551.906C577.367 551.906 582.02 556.292 582.02 561.683Z" fill="#FFF5E7" stroke="#ECB22E" stroke-width="0.323175"/>
<path d="M508.846 562.278C508.846 568.005 504.184 572.65 498.432 572.65C492.68 572.65 488.018 568.005 488.018 562.278C488.018 556.55 492.68 551.906 498.432 551.906C504.184 551.906 508.846 556.55 508.846 562.278Z" fill="#FFF5E7" stroke="#ECB22E" stroke-width="0.323175"/>
<rect x="499.657" y="521.648" width="71.6263" height="55.5206" rx="3.23175" fill="#FFF6E2" stroke="#ECB22E" stroke-width="0.646351"/>
<path d="M535.488 557.014C534.675 557.014 533.946 556.861 533.303 556.556C532.66 556.247 532.149 555.823 531.771 555.286C531.396 554.749 531.197 554.134 531.173 553.443H533.37C533.411 553.955 533.633 554.375 534.036 554.7C534.439 555.022 534.923 555.182 535.488 555.182C535.932 555.182 536.327 555.081 536.673 554.877C537.019 554.674 537.291 554.391 537.491 554.029C537.69 553.666 537.788 553.253 537.784 552.789C537.788 552.317 537.688 551.898 537.485 551.532C537.281 551.166 537.002 550.879 536.648 550.671C536.294 550.46 535.887 550.354 535.427 550.354C535.053 550.35 534.685 550.419 534.323 550.561C533.96 550.704 533.673 550.891 533.462 551.123L531.417 550.787L532.07 544.341H539.322V546.233H533.944L533.584 549.548H533.657C533.889 549.275 534.217 549.049 534.64 548.87C535.063 548.687 535.527 548.596 536.032 548.596C536.789 548.596 537.464 548.775 538.058 549.133C538.653 549.487 539.121 549.975 539.462 550.598C539.804 551.221 539.975 551.933 539.975 552.734C539.975 553.561 539.784 554.297 539.401 554.944C539.023 555.587 538.496 556.094 537.82 556.464C537.149 556.831 536.372 557.014 535.488 557.014Z" fill="#ECB22E"/>
<path d="M106.239 659.982C106.239 665.455 101.583 669.905 95.8243 669.905C90.0654 669.905 85.4101 665.455 85.4101 659.982C85.4101 654.509 90.0654 650.059 95.8243 650.059C101.583 650.059 106.239 654.509 106.239 659.982Z" fill="#FFF5E7" stroke="#ECB22E" stroke-width="0.323175"/>
<path d="M33.0652 661.306C33.0652 667.034 28.4032 671.678 22.651 671.678C16.8988 671.678 12.2368 667.034 12.2368 661.306C12.2368 655.578 16.8988 650.934 22.651 650.934C28.4032 650.934 33.0652 655.578 33.0652 661.306Z" fill="#FFF5E7" stroke="#ECB22E" stroke-width="0.323175"/>
<path d="M106.239 684.676C106.239 690.066 101.586 694.453 95.8243 694.453C90.0631 694.453 85.4101 690.066 85.4101 684.676C85.4101 679.285 90.0631 674.899 95.8243 674.899C101.586 674.899 106.239 679.285 106.239 684.676Z" fill="#FFF5E7" stroke="#ECB22E" stroke-width="0.323175"/>
<path d="M33.0652 685.271C33.0652 690.998 28.4032 695.643 22.651 695.643C16.8988 695.643 12.2368 690.998 12.2368 685.271C12.2368 679.543 16.8988 674.899 22.651 674.899C28.4032 674.899 33.0652 679.543 33.0652 685.271Z" fill="#FFF5E7" stroke="#ECB22E" stroke-width="0.323175"/>
<rect x="23.8758" y="644.642" width="71.6263" height="55.5206" rx="3.23175" fill="#FFF6E2" stroke="#ECB22E" stroke-width="0.646351"/>
<path d="M56.5973 667.334V679.836H54.3325V669.538H54.2593L51.3352 671.406V669.33L54.4424 667.334H56.5973ZM59.5457 677.516V675.715L64.8505 667.334H66.3522V669.898H65.4365L61.8654 675.557V675.654H69.2701V677.516H59.5457ZM65.5098 679.836V676.967L65.5342 676.161V667.334H67.6708V679.836H65.5098Z" fill="#ECB22E"/>
<path d="M36.2424 731.666C41.7156 731.666 46.1654 736.322 46.1654 742.08C46.1654 747.839 41.7156 752.495 36.2424 752.495C30.7692 752.495 26.3193 747.839 26.3193 742.08C26.3193 736.322 30.7692 731.666 36.2424 731.666Z" fill="#FFF5E7" stroke="#ECB22E" stroke-width="0.323175"/>
<path d="M37.5662 804.84C43.2939 804.84 47.9381 809.502 47.9381 815.254C47.9381 821.007 43.2939 825.668 37.5662 825.668C31.8386 825.668 27.1943 821.007 27.1943 815.254C27.1943 809.502 31.8386 804.84 37.5662 804.84Z" fill="#FFF5E7" stroke="#ECB22E" stroke-width="0.323175"/>
<path d="M60.936 731.666C66.3263 731.666 70.7129 736.319 70.7129 742.08C70.7129 747.842 66.3263 752.495 60.936 752.495C55.5457 752.495 51.1591 747.842 51.1591 742.08C51.1591 736.319 55.5457 731.666 60.936 731.666Z" fill="#FFF5E7" stroke="#ECB22E" stroke-width="0.323175"/>
<path d="M61.5311 804.84C67.2587 804.84 71.903 809.502 71.903 815.254C71.903 821.007 67.2587 825.668 61.5311 825.668C55.8034 825.668 51.1591 821.007 51.1591 815.254C51.1591 809.502 55.8034 804.84 61.5311 804.84Z" fill="#FFF5E7" stroke="#ECB22E" stroke-width="0.323175"/>
<rect x="20.9018" y="814.029" width="71.6263" height="55.5206" rx="3.23175" transform="rotate(-90 20.9018 814.029)" fill="#FFF6E2" stroke="#ECB22E" stroke-width="0.646351"/>
<path d="M44.5091 773.228V785.729H42.2443V775.431H42.1711L39.2471 777.299V775.224L42.3542 773.228H44.5091ZM52.2618 785.9C51.6635 785.896 51.0795 785.793 50.5098 785.589C49.94 785.382 49.4273 785.046 48.9715 784.582C48.5157 784.114 48.1535 783.493 47.8849 782.72C47.6163 781.943 47.484 780.98 47.4881 779.833C47.4881 778.762 47.602 777.808 47.8299 776.97C48.0578 776.131 48.3854 775.423 48.8127 774.845C49.2401 774.263 49.7549 773.82 50.3572 773.514C50.9635 773.209 51.6411 773.057 52.39 773.057C53.1754 773.057 53.8713 773.211 54.4777 773.521C55.0881 773.83 55.5806 774.253 55.955 774.79C56.3294 775.323 56.5613 775.926 56.6509 776.597H54.4227C54.3088 776.117 54.0748 775.734 53.7207 775.45C53.3707 775.161 52.9272 775.016 52.39 775.016C51.5231 775.016 50.8557 775.393 50.3877 776.145C49.9238 776.898 49.6898 777.932 49.6857 779.247H49.7711C49.9706 778.888 50.229 778.581 50.5464 778.325C50.8638 778.068 51.222 777.871 51.6208 777.733C52.0237 777.59 52.449 777.519 52.8966 777.519C53.6292 777.519 54.2864 777.694 54.8684 778.044C55.4544 778.394 55.9183 778.876 56.2602 779.491C56.602 780.101 56.7709 780.801 56.7669 781.591C56.7709 782.413 56.5837 783.151 56.2052 783.807C55.8268 784.458 55.2998 784.971 54.6242 785.345C53.9486 785.719 53.1612 785.904 52.2618 785.9ZM52.2496 784.069C52.6931 784.069 53.0899 783.961 53.4399 783.746C53.7899 783.53 54.0666 783.239 54.2701 782.873C54.4736 782.506 54.5733 782.095 54.5693 781.64C54.5733 781.192 54.4756 780.787 54.2762 780.425C54.0809 780.063 53.8103 779.776 53.4643 779.564C53.1184 779.352 52.7237 779.247 52.2801 779.247C51.9504 779.247 51.6432 779.31 51.3583 779.436C51.0734 779.562 50.8252 779.737 50.6136 779.961C50.4019 780.181 50.2351 780.437 50.113 780.73C49.995 781.019 49.9339 781.328 49.9299 781.658C49.9339 782.093 50.0357 782.494 50.2351 782.86C50.4345 783.227 50.7092 783.52 51.0592 783.739C51.4092 783.959 51.806 784.069 52.2496 784.069Z" fill="#ECB22E"/>
<path d="M582.07 651.378C582.07 656.851 577.415 661.301 571.656 661.301C565.897 661.301 561.241 656.851 561.241 651.378C561.241 645.904 565.897 641.455 571.656 641.455C577.415 641.455 582.07 645.904 582.07 651.378Z" fill="#FFF5E7" stroke="#ECB22E" stroke-width="0.323175"/>
<path d="M508.896 652.701C508.896 658.429 504.235 663.073 498.482 663.073C492.73 663.073 488.068 658.429 488.068 652.701C488.068 646.974 492.73 642.33 498.482 642.33C504.235 642.33 508.896 646.974 508.896 652.701Z" fill="#FFF5E7" stroke="#ECB22E" stroke-width="0.323175"/>
<path d="M582.07 676.071C582.07 681.462 577.417 685.848 571.656 685.848C565.894 685.848 561.241 681.462 561.241 676.071C561.241 670.681 565.894 666.294 571.656 666.294C577.417 666.294 582.07 670.681 582.07 676.071Z" fill="#FFF5E7" stroke="#ECB22E" stroke-width="0.323175"/>
<path d="M508.896 676.666C508.896 682.394 504.235 687.038 498.482 687.038C492.73 687.038 488.068 682.394 488.068 676.666C488.068 670.939 492.73 666.294 498.482 666.294C504.235 666.294 508.896 670.939 508.896 676.666Z" fill="#FFF5E7" stroke="#ECB22E" stroke-width="0.323175"/>
<rect x="499.707" y="636.037" width="71.6263" height="55.5206" rx="3.23175" fill="#FFF6E2" stroke="#ECB22E" stroke-width="0.646351"/>
<path d="M531.859 671.231V669.595L536.2 665.341C536.615 664.921 536.961 664.549 537.237 664.224C537.514 663.898 537.722 663.583 537.86 663.277C537.998 662.972 538.068 662.647 538.068 662.301C538.068 661.906 537.978 661.568 537.799 661.287C537.62 661.002 537.374 660.783 537.06 660.628C536.747 660.473 536.391 660.396 535.992 660.396C535.581 660.396 535.221 660.481 534.912 660.652C534.602 660.819 534.362 661.057 534.191 661.367C534.024 661.676 533.941 662.044 533.941 662.472H531.786C531.786 661.678 531.967 660.988 532.329 660.402C532.692 659.816 533.19 659.362 533.825 659.041C534.464 658.719 535.196 658.559 536.023 658.559C536.861 658.559 537.598 658.715 538.232 659.029C538.867 659.342 539.36 659.771 539.71 660.317C540.064 660.862 540.241 661.485 540.241 662.185C540.241 662.653 540.151 663.113 539.972 663.564C539.793 664.016 539.478 664.517 539.026 665.066C538.578 665.615 537.95 666.281 537.14 667.062L534.985 669.254V669.339H540.43V671.231H531.859Z" fill="#ECB22E"/>
<path d="M203.617 609.904C203.617 615.377 198.962 619.827 193.203 619.827C187.444 619.827 182.789 615.377 182.789 609.904C182.789 604.431 187.444 599.981 193.203 599.981C198.962 599.981 203.617 604.431 203.617 609.904Z" fill="#FFF5E7" stroke="#ECB22E" stroke-width="0.323175"/>
<path d="M151.742 607.496C151.742 613.224 147.08 617.868 141.328 617.868C135.575 617.868 130.914 613.224 130.914 607.496C130.914 601.769 135.575 597.124 141.328 597.124C147.08 597.124 151.742 601.769 151.742 607.496Z" fill="#FFF5E7" stroke="#ECB22E" stroke-width="0.323175"/>
<path d="M203.617 634.598C203.617 639.988 198.964 644.375 193.203 644.375C187.442 644.375 182.789 639.988 182.789 634.598C182.789 629.207 187.442 624.821 193.203 624.821C198.964 624.821 203.617 629.207 203.617 634.598Z" fill="#FFF5E7" stroke="#ECB22E" stroke-width="0.323175"/>
<path d="M151.742 631.461C151.742 637.189 147.08 641.833 141.328 641.833C135.575 641.833 130.914 637.189 130.914 631.461C130.914 625.734 135.575 621.089 141.328 621.089C147.08 621.089 151.742 625.734 151.742 631.461Z" fill="#FFF5E7" stroke="#ECB22E" stroke-width="0.323175"/>
<rect x="141.651" y="594.054" width="48.2799" height="55.5206" rx="3.23175" fill="#FFF6E2" stroke="#ECB22E" stroke-width="0.646351"/>
<path d="M161.987 628.068V615.566H169.996V617.465H164.252V620.859H169.447V622.757H164.252V628.068H161.987Z" fill="#ECB22E"/>
<path d="M293.343 610.779C293.343 616.252 288.687 620.702 282.928 620.702C277.169 620.702 272.514 616.252 272.514 610.779C272.514 605.306 277.169 600.856 282.928 600.856C288.687 600.856 293.343 605.306 293.343 610.779Z" fill="#FFF5E7" stroke="#ECB22E" stroke-width="0.323175"/>
<path d="M241.467 608.371C241.467 614.099 236.805 618.743 231.053 618.743C225.301 618.743 220.639 614.099 220.639 608.371C220.639 602.644 225.301 597.999 231.053 597.999C236.805 597.999 241.467 602.644 241.467 608.371Z" fill="#FFF5E7" stroke="#ECB22E" stroke-width="0.323175"/>
<path d="M293.343 635.473C293.343 640.863 288.69 645.25 282.928 645.25C277.167 645.25 272.514 640.863 272.514 635.473C272.514 630.082 277.167 625.696 282.928 625.696C288.69 625.696 293.343 630.082 293.343 635.473Z" fill="#FFF5E7" stroke="#ECB22E" stroke-width="0.323175"/>
<path d="M241.467 632.336C241.467 638.064 236.805 642.708 231.053 642.708C225.301 642.708 220.639 638.064 220.639 632.336C220.639 626.609 225.301 621.964 231.053 621.964C236.805 621.964 241.467 626.609 241.467 632.336Z" fill="#FFF5E7" stroke="#ECB22E" stroke-width="0.323175"/>
<rect x="231.376" y="594.929" width="48.2799" height="55.5206" rx="3.23175" fill="#FFF6E2" stroke="#ECB22E" stroke-width="0.646351"/>
<path d="M255.522 629.114C254.615 629.114 253.809 628.962 253.105 628.656C252.405 628.351 251.855 627.934 251.457 627.405C251.062 626.872 250.867 626.268 250.871 625.592C250.867 625.067 250.981 624.585 251.212 624.145C251.444 623.706 251.758 623.339 252.153 623.046C252.551 622.749 252.995 622.56 253.483 622.479V622.393C252.84 622.251 252.319 621.923 251.921 621.41C251.526 620.894 251.33 620.297 251.335 619.622C251.33 618.979 251.51 618.405 251.872 617.9C252.234 617.396 252.73 616.999 253.361 616.71C253.992 616.417 254.712 616.271 255.522 616.271C256.324 616.271 257.038 616.417 257.665 616.71C258.296 616.999 258.792 617.396 259.154 617.9C259.521 618.405 259.704 618.979 259.704 619.622C259.704 620.297 259.502 620.894 259.099 621.41C258.701 621.923 258.186 622.251 257.555 622.393V622.479C258.043 622.56 258.483 622.749 258.874 623.046C259.268 623.339 259.582 623.706 259.814 624.145C260.05 624.585 260.168 625.067 260.168 625.592C260.168 626.268 259.968 626.872 259.569 627.405C259.171 627.934 258.621 628.351 257.921 628.656C257.225 628.962 256.426 629.114 255.522 629.114ZM255.522 627.368C255.99 627.368 256.397 627.289 256.743 627.13C257.089 626.968 257.358 626.74 257.549 626.447C257.74 626.154 257.838 625.816 257.842 625.433C257.838 625.034 257.734 624.682 257.531 624.377C257.331 624.068 257.056 623.826 256.706 623.651C256.361 623.476 255.966 623.388 255.522 623.388C255.075 623.388 254.676 623.476 254.326 623.651C253.976 623.826 253.699 624.068 253.496 624.377C253.296 624.682 253.198 625.034 253.203 625.433C253.198 625.816 253.292 626.154 253.483 626.447C253.675 626.736 253.943 626.961 254.289 627.124C254.639 627.287 255.05 627.368 255.522 627.368ZM255.522 621.673C255.905 621.673 256.243 621.596 256.536 621.441C256.833 621.286 257.067 621.071 257.238 620.794C257.408 620.517 257.496 620.198 257.5 619.836C257.496 619.477 257.411 619.164 257.244 618.895C257.077 618.623 256.845 618.413 256.548 618.267C256.251 618.116 255.909 618.041 255.522 618.041C255.127 618.041 254.78 618.116 254.478 618.267C254.181 618.413 253.949 618.623 253.782 618.895C253.62 619.164 253.54 619.477 253.544 619.836C253.54 620.198 253.622 620.517 253.789 620.794C253.959 621.067 254.193 621.282 254.491 621.441C254.792 621.596 255.136 621.673 255.522 621.673Z" fill="#ECB22E"/>
<path d="M381.828 610.779C381.828 616.252 377.173 620.702 371.414 620.702C365.655 620.702 360.999 616.252 360.999 610.779C360.999 605.306 365.655 600.856 371.414 600.856C377.173 600.856 381.828 605.306 381.828 610.779Z" fill="#FFF5E7" stroke="#ECB22E" stroke-width="0.323175"/>
<path d="M329.952 608.371C329.952 614.099 325.29 618.743 319.538 618.743C313.786 618.743 309.124 614.099 309.124 608.371C309.124 602.644 313.786 597.999 319.538 597.999C325.29 597.999 329.952 602.644 329.952 608.371Z" fill="#FFF5E7" stroke="#ECB22E" stroke-width="0.323175"/>
<path d="M381.828 635.473C381.828 640.863 377.175 645.25 371.414 645.25C365.652 645.25 360.999 640.863 360.999 635.473C360.999 630.082 365.652 625.696 371.414 625.696C377.175 625.696 381.828 630.082 381.828 635.473Z" fill="#FFF5E7" stroke="#ECB22E" stroke-width="0.323175"/>
<path d="M329.952 632.336C329.952 638.064 325.29 642.708 319.538 642.708C313.786 642.708 309.124 638.064 309.124 632.336C309.124 626.609 313.786 621.964 319.538 621.964C325.29 621.964 329.952 626.609 329.952 632.336Z" fill="#FFF5E7" stroke="#ECB22E" stroke-width="0.323175"/>
<rect x="319.861" y="594.929" width="48.2799" height="55.5206" rx="3.23175" fill="#FFF6E2" stroke="#ECB22E" stroke-width="0.646351"/>
<path d="M340.525 628.943L345.842 618.419V618.334H339.67V616.441H348.186V618.377L342.875 628.943H340.525Z" fill="#ECB22E"/>
<path d="M465.872 610.779C465.872 616.252 461.217 620.702 455.458 620.702C449.699 620.702 445.044 616.252 445.044 610.779C445.044 605.306 449.699 600.856 455.458 600.856C461.217 600.856 465.872 605.306 465.872 610.779Z" fill="#FFF5E7" stroke="#ECB22E" stroke-width="0.323175"/>
<path d="M413.997 608.371C413.997 614.099 409.335 618.743 403.583 618.743C397.83 618.743 393.168 614.099 393.168 608.371C393.168 602.644 397.83 597.999 403.583 597.999C409.335 597.999 413.997 602.644 413.997 608.371Z" fill="#FFF5E7" stroke="#ECB22E" stroke-width="0.323175"/>
<path d="M465.872 635.473C465.872 640.863 461.219 645.25 455.458 645.25C449.697 645.25 445.044 640.863 445.044 635.473C445.044 630.082 449.697 625.696 455.458 625.696C461.219 625.696 465.872 630.082 465.872 635.473Z" fill="#FFF5E7" stroke="#ECB22E" stroke-width="0.323175"/>
<path d="M413.997 632.336C413.997 638.064 409.335 642.708 403.583 642.708C397.83 642.708 393.168 638.064 393.168 632.336C393.168 626.609 397.83 621.964 403.583 621.964C409.335 621.964 413.997 626.609 413.997 632.336Z" fill="#FFF5E7" stroke="#ECB22E" stroke-width="0.323175"/>
<rect x="403.906" y="594.929" width="48.2799" height="55.5206" rx="3.23175" fill="#FFF6E2" stroke="#ECB22E" stroke-width="0.646351"/>
<path d="M428.161 629.114C427.563 629.11 426.979 629.006 426.409 628.803C425.839 628.595 425.327 628.26 424.871 627.796C424.415 627.328 424.053 626.707 423.784 625.934C423.516 625.157 423.383 624.194 423.387 623.046C423.387 621.976 423.501 621.022 423.729 620.183C423.957 619.345 424.285 618.637 424.712 618.059C425.139 617.477 425.654 617.034 426.256 616.728C426.863 616.423 427.54 616.271 428.289 616.271C429.075 616.271 429.771 616.425 430.377 616.734C430.987 617.044 431.48 617.467 431.854 618.004C432.229 618.537 432.461 619.14 432.55 619.811H430.322C430.208 619.331 429.974 618.948 429.62 618.663C429.27 618.375 428.826 618.23 428.289 618.23C427.422 618.23 426.755 618.606 426.287 619.359C425.823 620.112 425.589 621.146 425.585 622.46H425.67C425.87 622.102 426.128 621.795 426.446 621.539C426.763 621.282 427.121 621.085 427.52 620.947C427.923 620.804 428.348 620.733 428.796 620.733C429.528 620.733 430.186 620.908 430.768 621.258C431.354 621.608 431.818 622.09 432.16 622.705C432.501 623.315 432.67 624.015 432.666 624.805C432.67 625.627 432.483 626.365 432.105 627.02C431.726 627.672 431.199 628.184 430.524 628.559C429.848 628.933 429.06 629.118 428.161 629.114ZM428.149 627.283C428.592 627.283 428.989 627.175 429.339 626.959C429.689 626.744 429.966 626.453 430.169 626.086C430.373 625.72 430.473 625.309 430.469 624.853C430.473 624.406 430.375 624.001 430.176 623.639C429.98 623.276 429.71 622.989 429.364 622.778C429.018 622.566 428.623 622.46 428.179 622.46C427.85 622.46 427.543 622.524 427.258 622.65C426.973 622.776 426.725 622.951 426.513 623.175C426.301 623.394 426.134 623.651 426.012 623.944C425.894 624.233 425.833 624.542 425.829 624.872C425.833 625.307 425.935 625.708 426.134 626.074C426.334 626.441 426.609 626.734 426.959 626.953C427.309 627.173 427.705 627.283 428.149 627.283Z" fill="#ECB22E"/>
<circle cx="425.642" cy="272.177" r="10.4142" transform="rotate(-89.6419 425.642 272.177)" fill="#FFF5E7" stroke="#ECB22E" stroke-width="0.323175"/>
<circle cx="425.642" cy="352.324" r="10.4142" transform="rotate(-89.6419 425.642 352.324)" fill="#FFF5E7" stroke="#ECB22E" stroke-width="0.323175"/>
<circle cx="452.979" cy="272.177" r="10.4142" transform="rotate(-89.6419 452.979 272.177)" fill="#FFF5E7" stroke="#ECB22E" stroke-width="0.323175"/>
<circle cx="452.979" cy="352.324" r="10.4142" transform="rotate(-89.6419 452.979 352.324)" fill="#FFF5E7" stroke="#ECB22E" stroke-width="0.323175"/>
<rect x="394.097" y="352.392" width="80.0853" height="90.8543" rx="3.23175" transform="rotate(-89.6419 394.097 352.392)" fill="#FFF6E2" stroke="#ECB22E" stroke-width="0.646351"/>
<path d="M435.389 319.251V317.615L439.729 313.36C440.144 312.941 440.49 312.569 440.767 312.243C441.044 311.917 441.251 311.602 441.39 311.297C441.528 310.992 441.597 310.666 441.597 310.32C441.597 309.925 441.508 309.588 441.329 309.307C441.15 309.022 440.903 308.802 440.59 308.648C440.277 308.493 439.921 308.416 439.522 308.416C439.111 308.416 438.75 308.501 438.441 308.672C438.132 308.839 437.892 309.077 437.721 309.386C437.554 309.695 437.471 310.064 437.471 310.491H435.316C435.316 309.697 435.497 309.008 435.859 308.422C436.221 307.836 436.72 307.382 437.355 307.06C437.994 306.739 438.726 306.578 439.552 306.578C440.391 306.578 441.127 306.735 441.762 307.048C442.397 307.362 442.889 307.791 443.239 308.336C443.593 308.882 443.77 309.504 443.77 310.204C443.77 310.672 443.681 311.132 443.502 311.584C443.323 312.036 443.007 312.536 442.556 313.085C442.108 313.635 441.479 314.3 440.669 315.082L438.514 317.273V317.359H443.96V319.251H435.389Z" fill="#ECB22E"/>
<circle cx="439.771" cy="388.453" r="10.4142" transform="rotate(-89.6419 439.771 388.453)" fill="#FFF5E7" stroke="#ECB22E" stroke-width="0.323175"/>
<circle cx="521.905" cy="388.718" r="10.4142" transform="rotate(-89.6419 521.905 388.718)" fill="#FFF5E7" stroke="#ECB22E" stroke-width="0.323175"/>
<circle cx="476.676" cy="388.584" r="10.4142" transform="rotate(-89.6419 476.676 388.584)" fill="#FFF5E7" stroke="#ECB22E" stroke-width="0.323175"/>
<circle cx="563.583" cy="388.851" r="10.4142" transform="rotate(-89.6419 563.583 388.851)" fill="#FFF5E7" stroke="#ECB22E" stroke-width="0.323175"/>
<rect x="393.815" y="418.231" width="33.3924" height="209.088" rx="3.23175" transform="rotate(-89.6419 393.815 418.231)" fill="#FFF6E2" stroke="#ECB22E" stroke-width="0.646351"/>
<path d="M480.473 399.742C480.416 399.208 480.176 398.793 479.753 398.496C479.334 398.199 478.789 398.051 478.117 398.051C477.645 398.051 477.24 398.122 476.902 398.264C476.564 398.407 476.306 398.6 476.127 398.844C475.948 399.088 475.856 399.367 475.852 399.68C475.852 399.941 475.911 400.167 476.029 400.358C476.151 400.549 476.316 400.712 476.524 400.846C476.731 400.977 476.961 401.087 477.214 401.176C477.466 401.266 477.72 401.341 477.977 401.402L479.149 401.695C479.621 401.805 480.075 401.953 480.51 402.141C480.95 402.328 481.342 402.564 481.688 402.849C482.038 403.134 482.315 403.477 482.518 403.88C482.722 404.283 482.824 404.755 482.824 405.297C482.824 406.029 482.636 406.674 482.262 407.232C481.888 407.785 481.346 408.219 480.638 408.532C479.934 408.841 479.082 408.996 478.08 408.996C477.108 408.996 476.263 408.845 475.547 408.544C474.835 408.243 474.277 407.803 473.874 407.226C473.476 406.648 473.26 405.944 473.227 405.113H475.456C475.488 405.549 475.622 405.911 475.858 406.2C476.094 406.489 476.402 406.705 476.78 406.847C477.163 406.99 477.59 407.061 478.062 407.061C478.555 407.061 478.986 406.988 479.356 406.841C479.731 406.69 480.024 406.483 480.235 406.218C480.447 405.95 480.555 405.636 480.559 405.278C480.555 404.953 480.459 404.684 480.272 404.472C480.085 404.257 479.822 404.078 479.484 403.935C479.151 403.789 478.76 403.659 478.312 403.545L476.89 403.178C475.86 402.914 475.047 402.513 474.448 401.976C473.854 401.434 473.557 400.716 473.557 399.821C473.557 399.084 473.756 398.439 474.155 397.886C474.558 397.332 475.106 396.903 475.797 396.598C476.489 396.288 477.273 396.134 478.148 396.134C479.035 396.134 479.812 396.288 480.479 396.598C481.151 396.903 481.678 397.328 482.061 397.874C482.443 398.415 482.64 399.037 482.653 399.742H480.473ZM486.955 403.313V408.807H484.745V396.305H486.906V401.023H487.016C487.236 400.494 487.575 400.077 488.035 399.772C488.499 399.463 489.089 399.308 489.806 399.308C490.457 399.308 491.024 399.444 491.509 399.717C491.993 399.99 492.367 400.389 492.632 400.914C492.901 401.439 493.035 402.08 493.035 402.836V408.807H490.825V403.178C490.825 402.548 490.662 402.057 490.337 401.707C490.015 401.353 489.563 401.176 488.981 401.176C488.591 401.176 488.241 401.262 487.931 401.432C487.626 401.599 487.386 401.841 487.211 402.159C487.04 402.476 486.955 402.861 486.955 403.313ZM497.986 408.996C497.391 408.996 496.856 408.89 496.38 408.678C495.908 408.463 495.534 408.145 495.257 407.726C494.984 407.307 494.848 406.79 494.848 406.176C494.848 405.647 494.946 405.209 495.141 404.863C495.336 404.517 495.603 404.241 495.941 404.033C496.278 403.825 496.659 403.669 497.082 403.563C497.509 403.453 497.951 403.374 498.407 403.325C498.956 403.268 499.402 403.217 499.744 403.172C500.085 403.123 500.334 403.05 500.488 402.952C500.647 402.851 500.726 402.694 500.726 402.482V402.446C500.726 401.986 500.59 401.63 500.317 401.378C500.045 401.125 499.652 400.999 499.139 400.999C498.598 400.999 498.169 401.117 497.851 401.353C497.538 401.589 497.326 401.868 497.216 402.189L495.153 401.896C495.316 401.327 495.584 400.85 495.959 400.468C496.333 400.081 496.791 399.792 497.332 399.601C497.874 399.406 498.472 399.308 499.127 399.308C499.579 399.308 500.028 399.361 500.476 399.467C500.924 399.573 501.333 399.748 501.703 399.992C502.073 400.232 502.371 400.56 502.594 400.975C502.822 401.39 502.936 401.909 502.936 402.531V408.807H500.812V407.519H500.739C500.604 407.779 500.415 408.023 500.171 408.251C499.931 408.475 499.628 408.656 499.261 408.794C498.899 408.929 498.474 408.996 497.986 408.996ZM498.559 407.372C499.003 407.372 499.388 407.285 499.713 407.11C500.039 406.931 500.289 406.694 500.464 406.401C500.643 406.108 500.733 405.789 500.733 405.443V404.338C500.663 404.395 500.545 404.448 500.378 404.497C500.216 404.546 500.033 404.588 499.829 404.625C499.626 404.662 499.424 404.694 499.225 404.723C499.025 404.751 498.852 404.776 498.706 404.796C498.376 404.841 498.081 404.914 497.821 405.016C497.56 405.118 497.355 405.26 497.204 405.443C497.054 405.622 496.978 405.854 496.978 406.139C496.978 406.546 497.127 406.853 497.424 407.061C497.721 407.268 498.099 407.372 498.559 407.372ZM507.368 403.313V408.807H505.158V399.43H507.27V401.023H507.38C507.596 400.498 507.94 400.081 508.412 399.772C508.888 399.463 509.476 399.308 510.176 399.308C510.823 399.308 511.387 399.446 511.867 399.723C512.351 400 512.726 400.401 512.99 400.926C513.259 401.451 513.391 402.088 513.387 402.836V408.807H511.177V403.178C511.177 402.552 511.014 402.061 510.689 401.707C510.367 401.353 509.922 401.176 509.352 401.176C508.965 401.176 508.622 401.262 508.32 401.432C508.023 401.599 507.789 401.841 507.618 402.159C507.452 402.476 507.368 402.861 507.368 403.313ZM517.648 405.864L517.642 403.197H517.996L521.366 399.43H523.948L519.803 404.045H519.345L517.648 405.864ZM515.634 408.807V396.305H517.843V408.807H515.634ZM521.518 408.807L518.466 404.54L519.955 402.983L524.161 408.807H521.518Z" fill="#ECB22E"/>
<circle cx="427.516" cy="147.979" r="10.4142" transform="rotate(-89.6419 427.516 147.979)" fill="#FFF5E7" stroke="#ECB22E" stroke-width="0.323175"/>
<circle cx="427.516" cy="228.126" r="10.4142" transform="rotate(-89.6419 427.516 228.126)" fill="#FFF5E7" stroke="#ECB22E" stroke-width="0.323175"/>
<circle cx="454.853" cy="147.979" r="10.4142" transform="rotate(-89.6419 454.853 147.979)" fill="#FFF5E7" stroke="#ECB22E" stroke-width="0.323175"/>
<circle cx="454.854" cy="228.126" r="10.4142" transform="rotate(-89.6419 454.854 228.126)" fill="#FFF5E7" stroke="#ECB22E" stroke-width="0.323175"/>
<rect x="395.971" y="228.193" width="80.0853" height="90.8543" rx="3.23175" transform="rotate(-89.6419 395.971 228.193)" fill="#FFF6E2" stroke="#ECB22E" stroke-width="0.646351"/>
<path d="M437.721 195.054L443.038 184.53V184.444H436.866V182.552H445.382V184.487L440.071 195.054H437.721Z" fill="#ECB22E"/>
<circle cx="309.444" cy="390.393" r="10.4142" transform="rotate(-89.6419 309.444 390.393)" fill="#FFF5E7" stroke="#ECB22E" stroke-width="0.323175"/>
<circle cx="308.963" cy="301.992" r="10.4142" transform="rotate(-89.6419 308.963 301.992)" fill="#FFF5E7" stroke="#ECB22E" stroke-width="0.323175"/>
<circle cx="336.78" cy="390.393" r="10.4142" transform="rotate(-89.6419 336.78 390.393)" fill="#FFF5E7" stroke="#ECB22E" stroke-width="0.323175"/>
<circle cx="336.299" cy="301.992" r="10.4142" transform="rotate(-89.6419 336.299 301.992)" fill="#FFF5E7" stroke="#ECB22E" stroke-width="0.323175"/>
<rect x="288.458" y="390.525" width="87.7234" height="67.7981" rx="3.23175" transform="rotate(-89.6419 288.458 390.525)" fill="#FFF6E2" stroke="#ECB22E" stroke-width="0.646351"/>
<path d="M322.531 354.623C321.623 354.623 320.817 354.47 320.113 354.165C319.413 353.86 318.864 353.443 318.465 352.914C318.07 352.381 317.875 351.776 317.879 351.101C317.875 350.576 317.989 350.094 318.221 349.654C318.453 349.215 318.766 348.848 319.161 348.555C319.56 348.258 320.003 348.069 320.492 347.988V347.902C319.849 347.76 319.328 347.432 318.929 346.919C318.534 346.402 318.339 345.806 318.343 345.131C318.339 344.488 318.518 343.914 318.88 343.409C319.242 342.905 319.739 342.508 320.37 342.219C321 341.926 321.721 341.779 322.531 341.779C323.332 341.779 324.046 341.926 324.673 342.219C325.304 342.508 325.8 342.905 326.163 343.409C326.529 343.914 326.712 344.488 326.712 345.131C326.712 345.806 326.511 346.402 326.108 346.919C325.709 347.432 325.194 347.76 324.563 347.902V347.988C325.052 348.069 325.491 348.258 325.882 348.555C326.277 348.848 326.59 349.215 326.822 349.654C327.058 350.094 327.176 350.576 327.176 351.101C327.176 351.776 326.977 352.381 326.578 352.914C326.179 353.443 325.63 353.86 324.93 354.165C324.234 354.47 323.434 354.623 322.531 354.623ZM322.531 352.877C322.999 352.877 323.405 352.798 323.751 352.639C324.097 352.476 324.366 352.248 324.557 351.955C324.748 351.662 324.846 351.325 324.85 350.942C324.846 350.543 324.742 350.191 324.539 349.886C324.339 349.577 324.065 349.335 323.715 349.16C323.369 348.985 322.974 348.897 322.531 348.897C322.083 348.897 321.684 348.985 321.334 349.16C320.984 349.335 320.707 349.577 320.504 349.886C320.304 350.191 320.207 350.543 320.211 350.942C320.207 351.325 320.3 351.662 320.492 351.955C320.683 352.244 320.952 352.47 321.297 352.633C321.647 352.796 322.058 352.877 322.531 352.877ZM322.531 347.182C322.913 347.182 323.251 347.104 323.544 346.95C323.841 346.795 324.075 346.579 324.246 346.303C324.417 346.026 324.504 345.706 324.508 345.344C324.504 344.986 324.419 344.673 324.252 344.404C324.085 344.132 323.853 343.922 323.556 343.775C323.259 343.625 322.917 343.55 322.531 343.55C322.136 343.55 321.788 343.625 321.487 343.775C321.19 343.922 320.958 344.132 320.791 344.404C320.628 344.673 320.549 344.986 320.553 345.344C320.549 345.706 320.63 346.026 320.797 346.303C320.968 346.575 321.202 346.791 321.499 346.95C321.8 347.104 322.144 347.182 322.531 347.182Z" fill="#ECB22E"/>
<circle cx="336.49" cy="150.397" r="10.4142" transform="rotate(90 336.49 150.397)" fill="#FFF5E7" stroke="#ECB22E" stroke-width="0.323175"/>
<circle cx="336.49" cy="237.399" r="10.4142" transform="rotate(90 336.49 237.399)" fill="#FFF5E7" stroke="#ECB22E" stroke-width="0.323175"/>
<circle cx="309.152" cy="150.569" r="10.4142" transform="rotate(90 309.152 150.569)" fill="#FFF5E7" stroke="#ECB22E" stroke-width="0.323175"/>
<circle cx="309.152" cy="237.571" r="10.4142" transform="rotate(90 309.152 237.571)" fill="#FFF5E7" stroke="#ECB22E" stroke-width="0.323175"/>
<rect x="357.476" y="150.135" width="87.7234" height="67.7981" rx="3.23175" transform="rotate(90 357.476 150.135)" fill="#FFF6E2" stroke="#ECB22E" stroke-width="0.646351"/>
<path d="M319.916 186.018L319.916 198.52L317.651 198.52L317.651 188.221L317.578 188.221L314.654 190.089L314.654 188.014L317.761 186.018L319.916 186.018ZM322.864 196.2L322.864 194.399L328.169 186.018L329.671 186.018L329.671 188.581L328.755 188.581L325.184 194.24L325.184 194.338L332.589 194.338L332.589 196.2L322.864 196.2ZM328.829 198.52L328.829 195.65L328.853 194.845L328.853 186.018L330.989 186.018L330.989 198.52L328.829 198.52Z" fill="#ECB22E"/>
<circle cx="258.39" cy="150.398" r="10.4142" transform="rotate(90 258.39 150.398)" fill="#FFF5E7" stroke="#ECB22E" stroke-width="0.323175"/>
<circle cx="258.39" cy="238.702" r="10.4142" transform="rotate(90 258.39 238.702)" fill="#FFF5E7" stroke="#ECB22E" stroke-width="0.323175"/>
<circle cx="231.052" cy="150.57" r="10.4142" transform="rotate(90 231.052 150.57)" fill="#FFF5E7" stroke="#ECB22E" stroke-width="0.323175"/>
<circle cx="231.052" cy="238.874" r="10.4142" transform="rotate(90 231.052 238.874)" fill="#FFF5E7" stroke="#ECB22E" stroke-width="0.323175"/>
<rect x="279.375" y="150.136" width="87.7234" height="67.7981" rx="3.23175" transform="rotate(90 279.375 150.136)" fill="#FFF6E2" stroke="#ECB22E" stroke-width="0.646351"/>
<path d="M241.815 186.019L241.815 198.521L239.55 198.521L239.55 188.222L239.477 188.222L236.553 190.09L236.553 188.015L239.66 186.019L241.815 186.019ZM249.336 198.691C248.522 198.691 247.794 198.539 247.151 198.234C246.508 197.924 245.997 197.501 245.618 196.964C245.244 196.427 245.044 195.812 245.02 195.12L247.218 195.12C247.258 195.633 247.48 196.052 247.883 196.378C248.286 196.699 248.77 196.86 249.336 196.86C249.78 196.86 250.174 196.758 250.52 196.555C250.866 196.351 251.139 196.069 251.338 195.706C251.538 195.344 251.635 194.931 251.631 194.467C251.635 193.995 251.536 193.576 251.332 193.21C251.129 192.843 250.85 192.556 250.496 192.349C250.142 192.137 249.735 192.031 249.275 192.031C248.9 192.027 248.532 192.097 248.17 192.239C247.808 192.381 247.521 192.569 247.309 192.801L245.264 192.465L245.917 186.019L253.17 186.019L253.17 187.911L247.791 187.911L247.431 191.226L247.505 191.226C247.737 190.953 248.064 190.727 248.487 190.548C248.911 190.365 249.375 190.273 249.879 190.273C250.636 190.273 251.312 190.452 251.906 190.811C252.5 191.165 252.968 191.653 253.31 192.276C253.652 192.898 253.823 193.61 253.823 194.412C253.823 195.238 253.631 195.975 253.249 196.622C252.87 197.265 252.343 197.772 251.668 198.142C250.996 198.508 250.219 198.691 249.336 198.691Z" fill="#ECB22E"/>
<circle cx="175.155" cy="149.972" r="10.4142" transform="rotate(90 175.155 149.972)" fill="#FFF5E7" stroke="#ECB22E" stroke-width="0.323175"/>
<circle cx="175.155" cy="237.572" r="10.4142" transform="rotate(90 175.155 237.572)" fill="#FFF5E7" stroke="#ECB22E" stroke-width="0.323175"/>
<circle cx="147.817" cy="150.144" r="10.4142" transform="rotate(90 147.817 150.144)" fill="#FFF5E7" stroke="#ECB22E" stroke-width="0.323175"/>
<circle cx="147.817" cy="237.744" r="10.4142" transform="rotate(90 147.817 237.744)" fill="#FFF5E7" stroke="#ECB22E" stroke-width="0.323175"/>
<rect x="196.14" y="149.71" width="87.7234" height="67.7981" rx="3.23175" transform="rotate(90 196.14 149.71)" fill="#FFF6E2" stroke="#ECB22E" stroke-width="0.646351"/>
<path d="M158.581 185.594L158.581 198.096L156.316 198.096L156.316 187.797L156.243 187.797L153.319 189.665L153.319 187.59L156.426 185.594L158.581 185.594ZM166.333 198.267C165.735 198.263 165.151 198.159 164.581 197.955C164.012 197.748 163.499 197.412 163.043 196.948C162.587 196.48 162.225 195.859 161.957 195.086C161.688 194.309 161.556 193.346 161.56 192.199C161.56 191.128 161.674 190.174 161.902 189.336C162.13 188.497 162.457 187.789 162.884 187.211C163.312 186.629 163.827 186.186 164.429 185.881C165.035 185.575 165.713 185.423 166.462 185.423C167.247 185.423 167.943 185.577 168.549 185.887C169.16 186.196 169.652 186.619 170.027 187.157C170.401 187.69 170.633 188.292 170.723 188.963L168.494 188.963C168.38 188.483 168.146 188.101 167.792 187.816C167.442 187.527 166.999 187.382 166.462 187.382C165.595 187.382 164.927 187.759 164.459 188.512C163.995 189.265 163.761 190.298 163.757 191.613L163.843 191.613C164.042 191.255 164.301 190.947 164.618 190.691C164.936 190.435 165.294 190.237 165.692 190.099C166.095 189.956 166.521 189.885 166.968 189.885C167.701 189.885 168.358 190.06 168.94 190.41C169.526 190.76 169.99 191.242 170.332 191.857C170.674 192.467 170.843 193.167 170.839 193.957C170.843 194.779 170.655 195.518 170.277 196.173C169.898 196.824 169.371 197.337 168.696 197.711C168.02 198.086 167.233 198.271 166.333 198.267ZM166.321 196.435C166.765 196.435 167.162 196.327 167.512 196.112C167.862 195.896 168.138 195.605 168.342 195.239C168.545 194.873 168.645 194.462 168.641 194.006C168.645 193.558 168.547 193.153 168.348 192.791C168.153 192.429 167.882 192.142 167.536 191.93C167.19 191.719 166.795 191.613 166.352 191.613C166.022 191.613 165.715 191.676 165.43 191.802C165.145 191.928 164.897 192.103 164.685 192.327C164.474 192.547 164.307 192.803 164.185 193.096C164.067 193.385 164.006 193.694 164.002 194.024C164.006 194.459 164.107 194.86 164.307 195.227C164.506 195.593 164.781 195.886 165.131 196.106C165.481 196.325 165.878 196.435 166.321 196.435Z" fill="#ECB22E"/>
<circle cx="228.9" cy="390.392" r="10.4142" transform="rotate(-89.6419 228.9 390.392)" fill="#FFF5E7" stroke="#ECB22E" stroke-width="0.323175"/>
<circle cx="228.9" cy="301.991" r="10.4142" transform="rotate(-89.6419 228.9 301.991)" fill="#FFF5E7" stroke="#ECB22E" stroke-width="0.323175"/>
<circle cx="256.236" cy="390.392" r="10.4142" transform="rotate(-89.6419 256.236 390.392)" fill="#FFF5E7" stroke="#ECB22E" stroke-width="0.323175"/>
<circle cx="256.236" cy="301.991" r="10.4142" transform="rotate(-89.6419 256.236 301.991)" fill="#FFF5E7" stroke="#ECB22E" stroke-width="0.323175"/>
<rect x="207.851" y="390.523" width="87.7234" height="67.7981" rx="3.23175" transform="rotate(-89.6419 207.851 390.523)" fill="#FFF6E2" stroke="#ECB22E" stroke-width="0.646351"/>
<path d="M238.2 341.95V354.452H235.935V344.154H235.862L232.938 346.022V343.946L236.045 341.95H238.2ZM245.995 354.69C244.99 354.69 244.127 354.436 243.407 353.927C242.691 353.414 242.139 352.676 241.753 351.711C241.37 350.743 241.179 349.577 241.179 348.213C241.183 346.85 241.376 345.69 241.759 344.734C242.146 343.773 242.697 343.041 243.413 342.536C244.134 342.032 244.994 341.779 245.995 341.779C246.997 341.779 247.857 342.032 248.578 342.536C249.298 343.041 249.849 343.773 250.232 344.734C250.619 345.694 250.812 346.854 250.812 348.213C250.812 349.581 250.619 350.749 250.232 351.717C249.849 352.682 249.298 353.418 248.578 353.927C247.861 354.436 247.001 354.69 245.995 354.69ZM245.995 352.78C246.777 352.78 247.393 352.395 247.845 351.626C248.301 350.853 248.529 349.715 248.529 348.213C248.529 347.22 248.425 346.386 248.217 345.711C248.01 345.035 247.717 344.526 247.338 344.184C246.96 343.839 246.512 343.666 245.995 343.666C245.218 343.666 244.604 344.052 244.152 344.825C243.7 345.595 243.472 346.724 243.468 348.213C243.464 349.21 243.564 350.049 243.767 350.728C243.975 351.408 244.268 351.921 244.646 352.267C245.025 352.609 245.475 352.78 245.995 352.78Z" fill="#ECB22E"/>
<circle cx="145.545" cy="390.846" r="10.4142" transform="rotate(-89.6419 145.545 390.846)" fill="#FFF5E7" stroke="#ECB22E" stroke-width="0.323175"/>
<circle cx="145.545" cy="302.477" r="10.4142" transform="rotate(-89.6419 145.545 302.477)" fill="#FFF5E7" stroke="#ECB22E" stroke-width="0.323175"/>
<circle cx="172.883" cy="390.846" r="10.4142" transform="rotate(-89.6419 172.883 390.846)" fill="#FFF5E7" stroke="#ECB22E" stroke-width="0.323175"/>
<circle cx="172.883" cy="302.477" r="10.4142" transform="rotate(-89.6419 172.883 302.477)" fill="#FFF5E7" stroke="#ECB22E" stroke-width="0.323175"/>
<rect x="124.496" y="390.524" width="87.7234" height="67.7981" rx="3.23175" transform="rotate(-89.6419 124.496 390.524)" fill="#FFF6E2" stroke="#ECB22E" stroke-width="0.646351"/>
<path d="M156.462 340.99V353.492H154.197V343.194H154.124L151.2 345.062V342.986L154.307 340.99H156.462ZM164.721 340.99V353.492H162.456V343.194H162.383L159.459 345.062V342.986L162.566 340.99H164.721Z" fill="#ECB22E"/>
<circle cx="540.237" cy="272.741" r="10.4142" transform="rotate(-89.6419 540.237 272.741)" fill="#FFF5E7" stroke="#ECB22E" stroke-width="0.323175"/>
<circle cx="540.237" cy="352.889" r="10.4142" transform="rotate(-89.6419 540.237 352.889)" fill="#FFF5E7" stroke="#ECB22E" stroke-width="0.323175"/>
<circle cx="567.575" cy="272.741" r="10.4142" transform="rotate(-89.6419 567.575 272.741)" fill="#FFF5E7" stroke="#ECB22E" stroke-width="0.323175"/>
<circle cx="567.575" cy="352.889" r="10.4142" transform="rotate(-89.6419 567.575 352.889)" fill="#FFF5E7" stroke="#ECB22E" stroke-width="0.323175"/>
<rect x="508.692" y="352.956" width="80.0853" height="90.8543" rx="3.23175" transform="rotate(-89.6419 508.692 352.956)" fill="#FFF6E2" stroke="#ECB22E" stroke-width="0.646351"/>
<path d="M555.069 307.314V319.816H552.804V309.518H552.731L549.807 311.386V309.311L552.914 307.314H555.069Z" fill="#ECB22E"/>
<circle cx="542.109" cy="148.549" r="10.4142" transform="rotate(-89.6419 542.109 148.549)" fill="#FFF5E7" stroke="#ECB22E" stroke-width="0.323175"/>
<circle cx="542.109" cy="228.697" r="10.4142" transform="rotate(-89.6419 542.109 228.697)" fill="#FFF5E7" stroke="#ECB22E" stroke-width="0.323175"/>
<circle cx="569.447" cy="148.549" r="10.4142" transform="rotate(-89.6419 569.447 148.549)" fill="#FFF5E7" stroke="#ECB22E" stroke-width="0.323175"/>
<circle cx="569.447" cy="228.697" r="10.4142" transform="rotate(-89.6419 569.447 228.697)" fill="#FFF5E7" stroke="#ECB22E" stroke-width="0.323175"/>
<rect x="510.564" y="228.764" width="80.0853" height="90.8543" rx="3.23175" transform="rotate(-89.6419 510.564 228.764)" fill="#FFF6E2" stroke="#ECB22E" stroke-width="0.646351"/>
<path d="M556.203 195.794C555.389 195.794 554.661 195.641 554.018 195.336C553.375 195.027 552.864 194.604 552.485 194.066C552.111 193.529 551.912 192.915 551.887 192.223H554.085C554.125 192.736 554.347 193.155 554.75 193.48C555.153 193.802 555.637 193.963 556.203 193.963C556.647 193.963 557.041 193.861 557.387 193.657C557.733 193.454 558.006 193.171 558.205 192.809C558.405 192.447 558.502 192.034 558.498 191.57C558.502 191.098 558.403 190.678 558.199 190.312C557.996 189.946 557.717 189.659 557.363 189.451C557.009 189.24 556.602 189.134 556.142 189.134C555.768 189.13 555.399 189.199 555.037 189.342C554.675 189.484 554.388 189.671 554.176 189.903L552.131 189.567L552.784 183.121H560.037V185.013H554.659L554.298 188.328H554.372C554.604 188.056 554.931 187.83 555.354 187.651C555.778 187.467 556.242 187.376 556.746 187.376C557.503 187.376 558.179 187.555 558.773 187.913C559.367 188.267 559.835 188.756 560.177 189.378C560.519 190.001 560.69 190.713 560.69 191.515C560.69 192.341 560.498 193.077 560.116 193.725C559.737 194.368 559.21 194.874 558.535 195.245C557.863 195.611 557.086 195.794 556.203 195.794Z" fill="#ECB22E"/>
<circle cx="84.7995" cy="406.139" r="10.4142" fill="#FFF5E7" stroke="#ECB22E" stroke-width="0.323175"/>
<circle cx="14.5543" cy="406.139" r="10.4142" fill="#FFF5E7" stroke="#ECB22E" stroke-width="0.323175"/>
<rect x="12.8491" y="380.829" width="71.6263" height="50.6224" rx="3.23175" fill="#FFF6E2" stroke="#ECB22E" stroke-width="0.646351"/>
<path d="M32.6062 412.757V400.255H34.871V405.547H40.6641V400.255H42.935V412.757H40.6641V407.446H34.871V412.757H32.6062ZM51.2767 408.813V403.38H53.4865V412.757H51.3438V411.09H51.2462C51.0346 411.615 50.6866 412.045 50.2023 412.378C49.7221 412.712 49.13 412.879 48.4259 412.879C47.8114 412.879 47.2681 412.743 46.796 412.47C46.328 412.193 45.9618 411.792 45.6972 411.267C45.4327 410.738 45.3004 410.099 45.3004 409.351V403.38H47.5102V409.009C47.5102 409.603 47.673 410.075 47.9986 410.425C48.3242 410.775 48.7515 410.95 49.2805 410.95C49.6061 410.95 49.9215 410.871 50.2267 410.712C50.532 410.553 50.7822 410.317 50.9776 410.004C51.177 409.686 51.2767 409.29 51.2767 408.813ZM60.441 403.38V405.09H55.0508V403.38H60.441ZM56.3816 401.134H58.5914V409.937C58.5914 410.234 58.6361 410.462 58.7257 410.62C58.8193 410.775 58.9414 410.881 59.0919 410.938C59.2425 410.995 59.4094 411.023 59.5925 411.023C59.7309 411.023 59.857 411.013 59.971 410.993C60.089 410.972 60.1785 410.954 60.2396 410.938L60.6119 412.665C60.4939 412.706 60.325 412.751 60.1053 412.8C59.8896 412.848 59.6251 412.877 59.3117 412.885C58.7582 412.901 58.2597 412.818 57.8161 412.635C57.3725 412.448 57.0205 412.159 56.76 411.768C56.5036 411.377 56.3775 410.889 56.3816 410.303V401.134ZM62.2891 412.757V403.38H64.499V412.757H62.2891ZM63.4002 402.05C63.0502 402.05 62.749 401.934 62.4967 401.702C62.2444 401.466 62.1182 401.183 62.1182 400.853C62.1182 400.519 62.2444 400.237 62.4967 400.005C62.749 399.769 63.0502 399.651 63.4002 399.651C63.7542 399.651 64.0554 399.769 64.3036 400.005C64.5559 400.237 64.6821 400.519 64.6821 400.853C64.6821 401.183 64.5559 401.466 64.3036 401.702C64.0554 401.934 63.7542 402.05 63.4002 402.05Z" fill="#ECB22E"/>
<circle cx="95.3752" cy="617.042" r="10.4142" fill="#FFF5E7" stroke="#ECB22E" stroke-width="0.323175"/>
<circle cx="25.13" cy="617.042" r="10.4142" fill="#FFF5E7" stroke="#ECB22E" stroke-width="0.323175"/>
<rect x="23.4247" y="599.139" width="71.6263" height="37.216" rx="3.23175" fill="#FFF6E2" stroke="#ECB22E" stroke-width="0.646351"/>
<path d="M58.2849 628.849C57.4058 628.849 56.6244 628.698 55.9407 628.397C55.2611 628.096 54.7239 627.677 54.3292 627.139C53.9344 626.602 53.7248 625.982 53.7004 625.278H55.9957C56.016 625.615 56.128 625.91 56.3314 626.163C56.5349 626.411 56.8055 626.604 57.1433 626.743C57.4811 626.881 57.8596 626.95 58.2788 626.95C58.7264 626.95 59.1232 626.873 59.4691 626.718C59.815 626.559 60.0857 626.34 60.281 626.059C60.4764 625.778 60.572 625.455 60.5679 625.088C60.572 624.71 60.4743 624.376 60.2749 624.087C60.0755 623.798 59.7866 623.572 59.4081 623.41C59.0337 623.247 58.5819 623.165 58.0529 623.165H56.948V621.42H58.0529C58.4883 621.42 58.8689 621.344 59.1944 621.194C59.5241 621.043 59.7825 620.831 59.9697 620.559C60.1569 620.282 60.2485 619.963 60.2444 619.6C60.2485 619.246 60.1691 618.939 60.0063 618.679C59.8476 618.414 59.6217 618.209 59.3287 618.062C59.0398 617.916 58.7 617.842 58.3093 617.842C57.9267 617.842 57.5727 617.912 57.2471 618.05C56.9215 618.188 56.659 618.386 56.4596 618.642C56.2602 618.894 56.1544 619.195 56.1422 619.545H53.9629C53.9792 618.845 54.1806 618.231 54.5672 617.702C54.9579 617.169 55.4788 616.754 56.13 616.457C56.7811 616.155 57.5116 616.005 58.3215 616.005C59.1558 616.005 59.8802 616.162 60.4947 616.475C61.1133 616.784 61.5914 617.201 61.9292 617.726C62.267 618.251 62.4359 618.831 62.4359 619.466C62.44 620.17 62.2324 620.76 61.8132 621.236C61.3981 621.713 60.8528 622.024 60.1772 622.17V622.268C61.0563 622.39 61.7298 622.716 62.1978 623.245C62.6699 623.77 62.9039 624.423 62.8998 625.204C62.8998 625.904 62.7004 626.531 62.3016 627.084C61.9068 627.634 61.3615 628.065 60.6656 628.379C59.9738 628.692 59.1802 628.849 58.2849 628.849Z" fill="#ECB22E"/>
<circle cx="211.467" cy="756.05" r="10.4142" transform="rotate(90 211.467 756.05)" fill="#FFF5E7" stroke="#ECB22E" stroke-width="0.323175"/>
<circle cx="209.901" cy="697.776" r="10.4142" transform="rotate(90 209.901 697.776)" fill="#FFF5E7" stroke="#ECB22E" stroke-width="0.323175"/>
<rect x="239.086" y="700.808" width="54.9201" height="55.2394" rx="3.23175" transform="rotate(90 239.086 700.808)" fill="#FFF6E2" stroke="#ECB22E" stroke-width="0.646351"/>
<path d="M197.2 731.505V719.003H201.888C202.849 719.003 203.654 719.17 204.305 719.504C204.961 719.837 205.455 720.305 205.789 720.908C206.127 721.506 206.296 722.204 206.296 723.001C206.296 723.803 206.125 724.499 205.783 725.089C205.445 725.675 204.946 726.129 204.287 726.45C203.628 726.768 202.818 726.927 201.858 726.927H198.518V725.046H201.552C202.114 725.046 202.574 724.969 202.932 724.814C203.29 724.656 203.555 724.426 203.726 724.125C203.901 723.819 203.988 723.445 203.988 723.001C203.988 722.558 203.901 722.179 203.726 721.866C203.551 721.549 203.284 721.308 202.926 721.146C202.568 720.979 202.106 720.895 201.54 720.895H199.465V731.505H197.2ZM203.658 725.84L206.753 731.505H204.226L201.186 725.84H203.658ZM212.299 731.688C211.359 731.688 210.547 731.493 209.864 731.102C209.184 730.707 208.661 730.15 208.295 729.429C207.928 728.705 207.745 727.852 207.745 726.872C207.745 725.907 207.928 725.061 208.295 724.332C208.665 723.6 209.182 723.03 209.845 722.623C210.509 722.212 211.288 722.006 212.183 722.006C212.761 722.006 213.307 722.1 213.819 722.287C214.336 722.47 214.792 722.755 215.187 723.142C215.586 723.528 215.899 724.021 216.127 724.619C216.355 725.213 216.469 725.921 216.469 726.743V727.421H208.783V725.932H214.35C214.346 725.508 214.255 725.132 214.076 724.802C213.897 724.468 213.646 724.206 213.325 724.015C213.007 723.823 212.637 723.728 212.214 723.728C211.762 723.728 211.365 723.838 211.023 724.057C210.682 724.273 210.415 724.558 210.224 724.912C210.037 725.262 209.941 725.647 209.937 726.066V727.366C209.937 727.911 210.037 728.379 210.236 728.77C210.435 729.157 210.714 729.454 211.072 729.661C211.43 729.865 211.85 729.967 212.33 729.967C212.651 729.967 212.942 729.922 213.203 729.832C213.463 729.739 213.689 729.602 213.88 729.423C214.072 729.244 214.216 729.022 214.314 728.758L216.377 728.99C216.247 729.535 215.999 730.011 215.632 730.418C215.27 730.821 214.806 731.135 214.24 731.358C213.675 731.578 213.028 731.688 212.299 731.688ZM218.216 731.505V730.101L223.051 724.039V723.96H218.375V722.128H225.755V723.636L221.152 729.594V729.674H225.914V731.505H218.216Z" fill="#ECB22E"/>
<circle cx="518.21" cy="774.612" r="10.4142" transform="rotate(90 518.21 774.612)" fill="#FFF5E7" stroke="#ECB22E" stroke-width="0.323175"/>
<circle cx="516.644" cy="716.338" r="10.4142" transform="rotate(90 516.644 716.338)" fill="#FFF5E7" stroke="#ECB22E" stroke-width="0.323175"/>
<rect x="545.83" y="719.369" width="54.9201" height="55.2394" rx="3.23175" transform="rotate(90 545.83 719.369)" fill="#FFF6E2" stroke="#ECB22E" stroke-width="0.646351"/>
<path d="M496.187 750.404V740.503H499.9C500.66 740.503 501.298 740.635 501.814 740.899C502.333 741.164 502.725 741.534 502.989 742.011C503.256 742.485 503.39 743.038 503.39 743.67C503.39 744.305 503.255 744.856 502.984 745.323C502.717 745.787 502.322 746.147 501.8 746.401C501.277 746.653 500.636 746.778 499.875 746.778H497.231V745.289H499.634C500.078 745.289 500.443 745.228 500.726 745.105C501.01 744.98 501.219 744.798 501.355 744.559C501.493 744.317 501.563 744.021 501.563 743.67C501.563 743.318 501.493 743.019 501.355 742.77C501.216 742.519 501.005 742.329 500.722 742.2C500.438 742.068 500.072 742.002 499.624 742.002H497.98V750.404H496.187ZM501.302 745.918L503.753 750.404H501.751L499.344 745.918H501.302ZM507.101 750.554C506.63 750.554 506.206 750.47 505.829 750.303C505.455 750.132 505.159 749.881 504.94 749.549C504.724 749.217 504.616 748.807 504.616 748.321C504.616 747.902 504.693 747.555 504.848 747.281C505.003 747.007 505.214 746.788 505.481 746.624C505.749 746.459 506.05 746.335 506.385 746.251C506.724 746.164 507.073 746.101 507.434 746.063C507.87 746.018 508.223 745.977 508.493 745.942C508.764 745.903 508.961 745.845 509.083 745.768C509.209 745.687 509.272 745.563 509.272 745.396V745.367C509.272 745.002 509.164 744.72 508.948 744.52C508.732 744.321 508.421 744.221 508.015 744.221C507.586 744.221 507.246 744.314 506.995 744.501C506.746 744.688 506.579 744.909 506.492 745.163L504.858 744.931C504.986 744.48 505.199 744.103 505.496 743.8C505.792 743.494 506.155 743.265 506.584 743.114C507.012 742.959 507.486 742.882 508.005 742.882C508.363 742.882 508.719 742.923 509.073 743.007C509.428 743.091 509.752 743.23 510.045 743.423C510.338 743.613 510.574 743.873 510.751 744.201C510.932 744.53 511.022 744.941 511.022 745.434V750.404H509.339V749.384H509.281C509.175 749.59 509.025 749.784 508.832 749.964C508.642 750.142 508.401 750.285 508.111 750.395C507.824 750.501 507.488 750.554 507.101 750.554ZM507.555 749.268C507.907 749.268 508.211 749.199 508.469 749.06C508.727 748.918 508.925 748.731 509.064 748.499C509.206 748.267 509.276 748.014 509.276 747.74V746.865C509.222 746.91 509.128 746.952 508.996 746.991C508.867 747.03 508.722 747.064 508.561 747.093C508.4 747.122 508.24 747.147 508.082 747.17C507.924 747.192 507.787 747.212 507.671 747.228C507.41 747.263 507.177 747.321 506.97 747.402C506.764 747.483 506.601 747.595 506.482 747.74C506.363 747.882 506.303 748.066 506.303 748.292C506.303 748.614 506.421 748.857 506.656 749.022C506.891 749.186 507.191 749.268 507.555 749.268ZM514.377 748.074L514.372 745.961H514.653L517.321 742.978H519.366L516.084 746.633H515.721L514.377 748.074ZM512.782 750.404V740.503H514.532V750.404H512.782ZM517.442 750.404L515.025 747.025L516.205 745.792L519.536 750.404H517.442ZM523.515 750.549C522.77 750.549 522.127 750.395 521.586 750.085C521.047 749.773 520.633 749.331 520.343 748.761C520.053 748.187 519.908 747.512 519.908 746.735C519.908 745.971 520.053 745.3 520.343 744.724C520.636 744.143 521.046 743.692 521.571 743.37C522.096 743.044 522.714 742.882 523.423 742.882C523.88 742.882 524.312 742.956 524.718 743.104C525.128 743.249 525.489 743.475 525.801 743.781C526.117 744.087 526.365 744.477 526.546 744.951C526.726 745.421 526.817 745.982 526.817 746.633V747.17H520.73V745.99H525.139C525.136 745.655 525.063 745.357 524.922 745.096C524.78 744.832 524.581 744.624 524.327 744.472C524.075 744.321 523.782 744.245 523.447 744.245C523.089 744.245 522.775 744.332 522.504 744.506C522.233 744.677 522.022 744.902 521.871 745.183C521.723 745.46 521.647 745.765 521.644 746.097V747.126C521.644 747.558 521.723 747.929 521.88 748.238C522.038 748.545 522.259 748.78 522.543 748.944C522.826 749.105 523.158 749.186 523.539 749.186C523.793 749.186 524.024 749.151 524.23 749.08C524.436 749.005 524.615 748.897 524.767 748.756C524.918 748.614 525.033 748.438 525.11 748.229L526.744 748.412C526.641 748.844 526.444 749.221 526.154 749.544C525.867 749.863 525.5 750.111 525.052 750.288C524.604 750.462 524.092 750.549 523.515 750.549ZM532.006 742.978V744.332H527.737V742.978H532.006ZM528.79 741.199H530.541V748.171C530.541 748.406 530.576 748.586 530.647 748.712C530.721 748.835 530.818 748.918 530.937 748.964C531.056 749.009 531.188 749.031 531.334 749.031C531.443 749.031 531.543 749.023 531.633 749.007C531.727 748.991 531.798 748.976 531.846 748.964L532.141 750.332C532.047 750.364 531.914 750.399 531.74 750.438C531.569 750.477 531.359 750.499 531.111 750.506C530.673 750.519 530.278 750.453 529.927 750.308C529.575 750.159 529.296 749.93 529.09 749.621C528.887 749.312 528.787 748.925 528.79 748.461V741.199ZM535.606 750.554C535.136 750.554 534.712 750.47 534.335 750.303C533.961 750.132 533.664 749.881 533.445 749.549C533.229 749.217 533.121 748.807 533.121 748.321C533.121 747.902 533.198 747.555 533.353 747.281C533.508 747.007 533.719 746.788 533.987 746.624C534.254 746.459 534.555 746.335 534.891 746.251C535.229 746.164 535.579 746.101 535.94 746.063C536.375 746.018 536.728 745.977 536.999 745.942C537.269 745.903 537.466 745.845 537.588 745.768C537.714 745.687 537.777 745.563 537.777 745.396V745.367C537.777 745.002 537.669 744.72 537.453 744.52C537.237 744.321 536.926 744.221 536.52 744.221C536.091 744.221 535.751 744.314 535.5 744.501C535.252 744.688 535.084 744.909 534.997 745.163L533.363 744.931C533.492 744.48 533.705 744.103 534.001 743.8C534.298 743.494 534.66 743.265 535.089 743.114C535.518 742.959 535.991 742.882 536.51 742.882C536.868 742.882 537.224 742.923 537.579 743.007C537.933 743.091 538.257 743.23 538.55 743.423C538.844 743.613 539.079 743.873 539.256 744.201C539.437 744.53 539.527 744.941 539.527 745.434V750.404H537.845V749.384H537.787C537.68 749.59 537.53 749.784 537.337 749.964C537.147 750.142 536.907 750.285 536.617 750.395C536.33 750.501 535.993 750.554 535.606 750.554ZM536.061 749.268C536.412 749.268 536.717 749.199 536.974 749.06C537.232 748.918 537.43 748.731 537.569 748.499C537.711 748.267 537.782 748.014 537.782 747.74V746.865C537.727 746.91 537.634 746.952 537.501 746.991C537.372 747.03 537.227 747.064 537.066 747.093C536.905 747.122 536.746 747.147 536.588 747.17C536.43 747.192 536.293 747.212 536.177 747.228C535.916 747.263 535.682 747.321 535.476 747.402C535.269 747.483 535.107 747.595 534.987 747.74C534.868 747.882 534.808 748.066 534.808 748.292C534.808 748.614 534.926 748.857 535.161 749.022C535.397 749.186 535.696 749.268 536.061 749.268Z" fill="#ECB22E"/>
<circle cx="420.487" cy="756.05" r="10.4142" transform="rotate(90 420.487 756.05)" fill="#FFF5E7" stroke="#ECB22E" stroke-width="0.323175"/>
<circle cx="447.508" cy="757.405" r="10.4142" transform="rotate(90 447.508 757.405)" fill="#FFF5E7" stroke="#ECB22E" stroke-width="0.323175"/>
<circle cx="420.487" cy="697.776" r="10.4142" transform="rotate(90 420.487 697.776)" fill="#FFF5E7" stroke="#ECB22E" stroke-width="0.323175"/>
<circle cx="447.508" cy="699.13" r="10.4142" transform="rotate(90 447.508 699.13)" fill="#FFF5E7" stroke="#ECB22E" stroke-width="0.323175"/>
<rect x="462.824" y="700.808" width="54.9201" height="55.2394" rx="3.23175" transform="rotate(90 462.824 700.808)" fill="#FFF6E2" stroke="#ECB22E" stroke-width="0.646351"/>
<path d="M420.937 731.505V719.003H425.625C426.586 719.003 427.392 719.17 428.043 719.504C428.698 719.837 429.192 720.305 429.526 720.908C429.864 721.506 430.033 722.204 430.033 723.001C430.033 723.803 429.862 724.499 429.52 725.089C429.182 725.675 428.684 726.129 428.024 726.45C427.365 726.768 426.555 726.927 425.595 726.927H422.256V725.046H425.29C425.851 725.046 426.311 724.969 426.669 724.814C427.027 724.656 427.292 724.426 427.463 724.125C427.638 723.819 427.725 723.445 427.725 723.001C427.725 722.558 427.638 722.179 427.463 721.866C427.288 721.549 427.021 721.308 426.663 721.146C426.305 720.979 425.843 720.895 425.277 720.895H423.202V731.505H420.937ZM427.396 725.84L430.491 731.505H427.963L424.923 725.84H427.396ZM436.037 731.688C435.096 731.688 434.285 731.493 433.601 731.102C432.921 730.707 432.398 730.15 432.032 729.429C431.666 728.705 431.483 727.852 431.483 726.872C431.483 725.907 431.666 725.061 432.032 724.332C432.402 723.6 432.919 723.03 433.583 722.623C434.246 722.212 435.025 722.006 435.921 722.006C436.498 722.006 437.044 722.1 437.557 722.287C438.073 722.47 438.529 722.755 438.924 723.142C439.323 723.528 439.636 724.021 439.864 724.619C440.092 725.213 440.206 725.921 440.206 726.743V727.421H432.52V725.932H438.088C438.084 725.508 437.992 725.132 437.813 724.802C437.634 724.468 437.384 724.206 437.062 724.015C436.745 723.823 436.374 723.728 435.951 723.728C435.499 723.728 435.103 723.838 434.761 724.057C434.419 724.273 434.152 724.558 433.961 724.912C433.774 725.262 433.678 725.647 433.674 726.066V727.366C433.674 727.911 433.774 728.379 433.973 728.77C434.173 729.157 434.451 729.454 434.81 729.661C435.168 729.865 435.587 729.967 436.067 729.967C436.389 729.967 436.68 729.922 436.94 729.832C437.2 729.739 437.426 729.602 437.618 729.423C437.809 729.244 437.953 729.022 438.051 728.758L440.114 728.99C439.984 729.535 439.736 730.011 439.37 730.418C439.007 730.821 438.543 731.135 437.978 731.358C437.412 731.578 436.765 731.688 436.037 731.688ZM441.953 731.505V730.101L446.788 724.039V723.96H442.112V722.128H449.492V723.636L444.89 729.594V729.674H449.651V731.505H441.953Z" fill="#ECB22E"/>
<circle cx="571.656" cy="605.898" r="10.4142" fill="#FFF5E7" stroke="#ECB22E" stroke-width="0.323175"/>
<circle cx="501.411" cy="605.898" r="10.4142" fill="#FFF5E7" stroke="#ECB22E" stroke-width="0.323175"/>
<rect x="499.705" y="587.995" width="71.6263" height="37.216" rx="3.23175" fill="#FFF6E2" stroke="#ECB22E" stroke-width="0.646351"/>
<path d="M534.566 617.705C533.687 617.705 532.905 617.555 532.222 617.253C531.542 616.952 531.005 616.533 530.61 615.996C530.215 615.459 530.006 614.838 529.981 614.134H532.276C532.297 614.472 532.409 614.767 532.612 615.019C532.816 615.267 533.086 615.461 533.424 615.599C533.762 615.737 534.14 615.807 534.56 615.807C535.007 615.807 535.404 615.729 535.75 615.575C536.096 615.416 536.366 615.196 536.562 614.915C536.757 614.635 536.853 614.311 536.849 613.945C536.853 613.566 536.755 613.233 536.556 612.944C536.356 612.655 536.067 612.429 535.689 612.266C535.314 612.103 534.863 612.022 534.334 612.022H533.229V610.276H534.334C534.769 610.276 535.15 610.201 535.475 610.05C535.805 609.9 536.063 609.688 536.25 609.415C536.438 609.139 536.529 608.819 536.525 608.457C536.529 608.103 536.45 607.796 536.287 607.535C536.128 607.271 535.903 607.065 535.609 606.919C535.321 606.772 534.981 606.699 534.59 606.699C534.207 606.699 533.853 606.768 533.528 606.906C533.202 607.045 532.94 607.242 532.74 607.498C532.541 607.751 532.435 608.052 532.423 608.402H530.244C530.26 607.702 530.461 607.087 530.848 606.558C531.239 606.025 531.76 605.61 532.411 605.313C533.062 605.012 533.792 604.861 534.602 604.861C535.437 604.861 536.161 605.018 536.775 605.331C537.394 605.641 537.872 606.058 538.21 606.583C538.548 607.108 538.717 607.688 538.717 608.323C538.721 609.027 538.513 609.617 538.094 610.093C537.679 610.569 537.134 610.88 536.458 611.027V611.124C537.337 611.247 538.011 611.572 538.479 612.101C538.951 612.626 539.185 613.279 539.181 614.061C539.181 614.761 538.981 615.387 538.582 615.941C538.188 616.49 537.642 616.922 536.946 617.235C536.255 617.548 535.461 617.705 534.566 617.705Z" fill="#ECB22E"/>
<circle cx="332.825" cy="547.257" r="10.4142" fill="#FFF5E7" stroke="#ECB22E" stroke-width="0.323175"/>
<circle cx="262.58" cy="547.257" r="10.4142" fill="#FFF5E7" stroke="#ECB22E" stroke-width="0.323175"/>
<rect x="260.874" y="521.647" width="71.6263" height="49.4894" rx="3.23175" fill="#FFF6E2" stroke="#ECB22E" stroke-width="0.646351"/>
<path d="M292.883 539.601V552.103H290.619V541.804H290.545L287.621 543.672V541.597L290.729 539.601H292.883ZM300.679 552.341C299.674 552.341 298.811 552.086 298.091 551.578C297.374 551.065 296.823 550.326 296.436 549.362C296.054 548.393 295.862 547.227 295.862 545.864C295.867 544.5 296.06 543.341 296.442 542.384C296.829 541.424 297.38 540.691 298.097 540.187C298.817 539.682 299.678 539.43 300.679 539.43C301.68 539.43 302.541 539.682 303.261 540.187C303.981 540.691 304.533 541.424 304.915 542.384C305.302 543.345 305.495 544.505 305.495 545.864C305.495 547.231 305.302 548.399 304.915 549.368C304.533 550.332 303.981 551.069 303.261 551.578C302.545 552.086 301.684 552.341 300.679 552.341ZM300.679 550.43C301.46 550.43 302.077 550.045 302.529 549.276C302.984 548.503 303.212 547.365 303.212 545.864C303.212 544.871 303.108 544.037 302.901 543.361C302.693 542.685 302.4 542.177 302.022 541.835C301.643 541.489 301.196 541.316 300.679 541.316C299.902 541.316 299.287 541.703 298.835 542.476C298.384 543.245 298.156 544.374 298.152 545.864C298.148 546.861 298.247 547.699 298.451 548.379C298.658 549.058 298.951 549.571 299.33 549.917C299.708 550.259 300.158 550.43 300.679 550.43Z" fill="#ECB22E"/>
<circle cx="439.837" cy="547.258" r="10.4142" fill="#FFF5E7" stroke="#ECB22E" stroke-width="0.323175"/>
<circle cx="369.592" cy="547.258" r="10.4142" fill="#FFF5E7" stroke="#ECB22E" stroke-width="0.323175"/>
<rect x="365.999" y="521.648" width="71.6263" height="49.4894" rx="3.23175" fill="#FFF6E2" stroke="#ECB22E" stroke-width="0.646351"/>
<path d="M400.713 538.515C401.311 538.519 401.893 538.625 402.458 538.832C403.028 539.036 403.541 539.369 403.997 539.833C404.453 540.293 404.815 540.91 405.083 541.683C405.352 542.456 405.486 543.412 405.486 544.552C405.49 545.626 405.376 546.587 405.144 547.433C404.916 548.276 404.589 548.988 404.162 549.57C403.734 550.152 403.219 550.595 402.617 550.901C402.015 551.206 401.337 551.358 400.584 551.358C399.795 551.358 399.095 551.204 398.484 550.894C397.878 550.585 397.388 550.162 397.013 549.625C396.639 549.088 396.409 548.473 396.323 547.781H398.552C398.665 548.278 398.897 548.672 399.247 548.965C399.602 549.254 400.047 549.399 400.584 549.399C401.451 549.399 402.119 549.022 402.587 548.27C403.055 547.517 403.289 546.471 403.289 545.132H403.203C403.004 545.49 402.745 545.799 402.428 546.06C402.11 546.316 401.75 546.514 401.347 546.652C400.949 546.79 400.525 546.859 400.078 546.859C399.345 546.859 398.686 546.684 398.1 546.334C397.518 545.984 397.056 545.504 396.714 544.894C396.376 544.283 396.205 543.585 396.201 542.8C396.201 541.986 396.389 541.256 396.763 540.608C397.141 539.957 397.668 539.445 398.344 539.07C399.02 538.692 399.809 538.507 400.713 538.515ZM400.719 540.346C400.279 540.346 399.882 540.454 399.528 540.67C399.178 540.881 398.902 541.17 398.698 541.536C398.499 541.899 398.399 542.303 398.399 542.751C398.403 543.195 398.503 543.598 398.698 543.96C398.897 544.322 399.168 544.609 399.51 544.821C399.856 545.032 400.251 545.138 400.694 545.138C401.024 545.138 401.331 545.075 401.616 544.949C401.901 544.823 402.149 544.648 402.361 544.424C402.576 544.196 402.743 543.937 402.861 543.648C402.983 543.36 403.042 543.054 403.038 542.733C403.038 542.306 402.937 541.911 402.733 541.549C402.534 541.186 402.259 540.895 401.909 540.676C401.563 540.456 401.166 540.346 400.719 540.346Z" fill="#ECB22E"/>
<circle cx="143.499" cy="22.5152" r="10.4142" fill="#FFF5E7" stroke="#ECB22E" stroke-width="0.323175"/>
<circle cx="215.771" cy="24.2047" r="10.4142" fill="#FFF5E7" stroke="#ECB22E" stroke-width="0.323175"/>
<circle cx="143.499" cy="53.609" r="10.4142" fill="#FFF5E7" stroke="#ECB22E" stroke-width="0.323175"/>
<circle cx="215.771" cy="55.3004" r="10.4142" fill="#FFF5E7" stroke="#ECB22E" stroke-width="0.323175"/>
<circle cx="143.499" cy="86.6041" r="10.4142" fill="#FFF5E7" stroke="#ECB22E" stroke-width="0.323175"/>
<circle cx="215.771" cy="88.2955" r="10.4142" fill="#FFF5E7" stroke="#ECB22E" stroke-width="0.323175"/>
<rect x="143.822" y="1.17278" width="71.6263" height="107.71" rx="3.23175" fill="#FFF6E2" stroke="#ECB22E" stroke-width="0.646351"/>
<path d="M169.92 61.6465V60.0105L174.26 55.7557C174.675 55.3365 175.021 54.9641 175.298 54.6386C175.575 54.313 175.782 53.9976 175.921 53.6924C176.059 53.3872 176.128 53.0616 176.128 52.7157C176.128 52.3209 176.039 51.9831 175.86 51.7023C175.681 51.4174 175.434 51.1977 175.121 51.043C174.808 50.8884 174.452 50.8111 174.053 50.8111C173.642 50.8111 173.282 50.8965 172.972 51.0675C172.663 51.2343 172.423 51.4724 172.252 51.7817C172.085 52.091 172.002 52.4593 172.002 52.8866H169.847C169.847 52.093 170.028 51.4032 170.39 50.8172C170.752 50.2311 171.251 49.7774 171.886 49.4559C172.525 49.1344 173.257 48.9736 174.083 48.9736C174.922 48.9736 175.658 49.1303 176.293 49.4437C176.928 49.757 177.42 50.1864 177.77 50.7317C178.125 51.277 178.302 51.8997 178.302 52.5997C178.302 53.0677 178.212 53.5276 178.033 53.9793C177.854 54.431 177.538 54.9316 177.087 55.481C176.639 56.0304 176.01 56.6958 175.2 57.4771L173.046 59.6686V59.7541H178.491V61.6465H169.92ZM185.682 49.1446V61.6465H183.417V51.3483H183.344L180.42 53.2162V51.1407L183.527 49.1446H185.682Z" fill="#ECB22E"/>
<circle cx="275.923" cy="22.5152" r="10.4142" fill="#FFF5E7" stroke="#ECB22E" stroke-width="0.323175"/>
<circle cx="348.194" cy="24.2047" r="10.4142" fill="#FFF5E7" stroke="#ECB22E" stroke-width="0.323175"/>
<circle cx="275.923" cy="53.609" r="10.4142" fill="#FFF5E7" stroke="#ECB22E" stroke-width="0.323175"/>
<circle cx="348.194" cy="55.3004" r="10.4142" fill="#FFF5E7" stroke="#ECB22E" stroke-width="0.323175"/>
<circle cx="275.923" cy="86.6041" r="10.4142" fill="#FFF5E7" stroke="#ECB22E" stroke-width="0.323175"/>
<circle cx="348.194" cy="88.2955" r="10.4142" fill="#FFF5E7" stroke="#ECB22E" stroke-width="0.323175"/>
<rect x="276.246" y="1.17278" width="71.6263" height="107.71" rx="3.23175" fill="#FFF6E2" stroke="#ECB22E" stroke-width="0.646351"/>
<path d="M302.345 61.6465V60.0105L306.685 55.7557C307.1 55.3365 307.446 54.9641 307.723 54.6386C308 54.313 308.207 53.9976 308.346 53.6924C308.484 53.3872 308.553 53.0616 308.553 52.7157C308.553 52.3209 308.464 51.9831 308.285 51.7023C308.105 51.4174 307.859 51.1977 307.546 51.043C307.233 50.8884 306.876 50.8111 306.478 50.8111C306.067 50.8111 305.706 50.8965 305.397 51.0675C305.088 51.2343 304.848 51.4724 304.677 51.7817C304.51 52.091 304.426 52.4593 304.426 52.8866H302.272C302.272 52.093 302.453 51.4032 302.815 50.8172C303.177 50.2311 303.676 49.7774 304.311 49.4559C304.949 49.1344 305.682 48.9736 306.508 48.9736C307.346 48.9736 308.083 49.1303 308.718 49.4437C309.353 49.757 309.845 50.1864 310.195 50.7317C310.549 51.277 310.726 51.8997 310.726 52.5997C310.726 53.0677 310.637 53.5276 310.458 53.9793C310.279 54.431 309.963 54.9316 309.512 55.481C309.064 56.0304 308.435 56.6958 307.625 57.4771L305.47 59.6686V59.7541H310.916V61.6465H302.345ZM317.643 61.8846C316.637 61.8846 315.775 61.6302 315.054 61.1215C314.338 60.6087 313.787 59.8701 313.4 58.9056C313.017 57.937 312.826 56.7711 312.826 55.4077C312.83 54.0444 313.024 52.8846 313.406 51.9282C313.793 50.9678 314.344 50.2352 315.06 49.7306C315.781 49.2259 316.642 48.9736 317.643 48.9736C318.644 48.9736 319.505 49.2259 320.225 49.7306C320.945 50.2352 321.497 50.9678 321.879 51.9282C322.266 52.8886 322.459 54.0485 322.459 55.4077C322.459 56.7751 322.266 57.9431 321.879 58.9117C321.497 59.8762 320.945 60.6128 320.225 61.1215C319.509 61.6302 318.648 61.8846 317.643 61.8846ZM317.643 59.9739C318.424 59.9739 319.041 59.5893 319.492 58.8201C319.948 58.0469 320.176 56.9094 320.176 55.4077C320.176 54.4147 320.072 53.5805 319.865 52.9049C319.657 52.2293 319.364 51.7206 318.986 51.3788C318.607 51.0329 318.159 50.8599 317.643 50.8599C316.865 50.8599 316.251 51.2465 315.799 52.0198C315.347 52.7889 315.119 53.9182 315.115 55.4077C315.111 56.4048 315.211 57.2431 315.415 57.9228C315.622 58.6024 315.915 59.1152 316.294 59.4611C316.672 59.8029 317.122 59.9739 317.643 59.9739Z" fill="#ECB22E"/>
<circle cx="382.718" cy="699.716" r="10.4142" transform="rotate(90 382.718 699.716)" fill="#FFF5E7" stroke="#ECB22E" stroke-width="0.323175"/>
<circle cx="385.617" cy="758.143" r="10.4142" transform="rotate(90 385.617 758.143)" fill="#FFF5E7" stroke="#ECB22E" stroke-width="0.323175"/>
<circle cx="359.13" cy="699.888" r="10.4142" transform="rotate(90 359.13 699.888)" fill="#FFF5E7" stroke="#ECB22E" stroke-width="0.323175"/>
<circle cx="361.672" cy="758.315" r="10.4142" transform="rotate(90 361.672 758.315)" fill="#FFF5E7" stroke="#ECB22E" stroke-width="0.323175"/>
<circle cx="333.818" cy="699.716" r="10.4142" transform="rotate(90 333.818 699.716)" fill="#FFF5E7" stroke="#ECB22E" stroke-width="0.323175"/>
<circle cx="336.131" cy="758.487" r="10.4142" transform="rotate(90 336.131 758.487)" fill="#FFF5E7" stroke="#ECB22E" stroke-width="0.323175"/>
<circle cx="310.943" cy="699.888" r="10.4142" transform="rotate(90 310.943 699.888)" fill="#FFF5E7" stroke="#ECB22E" stroke-width="0.323175"/>
<circle cx="313.256" cy="758.659" r="10.4142" transform="rotate(90 313.256 758.659)" fill="#FFF5E7" stroke="#ECB22E" stroke-width="0.323175"/>
<circle cx="285.803" cy="699.13" r="10.4142" transform="rotate(90 285.803 699.13)" fill="#FFF5E7" stroke="#ECB22E" stroke-width="0.323175"/>
<circle cx="290.971" cy="758.315" r="10.4142" transform="rotate(90 290.971 758.315)" fill="#FFF5E7" stroke="#ECB22E" stroke-width="0.323175"/>
<circle cx="263.633" cy="699.887" r="10.4142" transform="rotate(90 263.633 699.887)" fill="#FFF5E7" stroke="#ECB22E" stroke-width="0.323175"/>
<circle cx="263.633" cy="758.487" r="10.4142" transform="rotate(90 263.633 758.487)" fill="#FFF5E7" stroke="#ECB22E" stroke-width="0.323175"/>
<rect x="402.513" y="699.453" width="55.7905" height="158.355" rx="3.23175" transform="rotate(90 402.513 699.453)" fill="#FFF6E2" stroke="#ECB22E" stroke-width="0.646351"/>
<path d="M269.434 733.84L269.434 721.338L271.699 721.338L271.699 727.082L271.851 727.082L276.729 721.338L279.494 721.338L274.659 726.948L279.537 733.84L276.814 733.84L273.084 728.48L271.699 730.116L271.699 733.84L269.434 733.84ZM280.945 733.84L280.945 732.204L285.286 727.949C285.701 727.53 286.047 727.157 286.323 726.832C286.6 726.506 286.808 726.191 286.946 725.886C287.084 725.581 287.154 725.255 287.154 724.909C287.154 724.514 287.064 724.176 286.885 723.896C286.706 723.611 286.46 723.391 286.146 723.236C285.833 723.082 285.477 723.004 285.078 723.004C284.667 723.004 284.307 723.09 283.998 723.261C283.688 723.428 283.448 723.666 283.277 723.975C283.11 724.284 283.027 724.653 283.027 725.08L280.872 725.08C280.872 724.286 281.053 723.597 281.415 723.011C281.778 722.425 282.276 721.971 282.911 721.649C283.55 721.328 284.282 721.167 285.109 721.167C285.947 721.167 286.684 721.324 287.318 721.637C287.953 721.95 288.446 722.38 288.796 722.925C289.15 723.47 289.327 724.093 289.327 724.793C289.327 725.261 289.237 725.721 289.058 726.173C288.879 726.624 288.564 727.125 288.112 727.674C287.664 728.224 287.036 728.889 286.226 729.671L284.071 731.862L284.071 731.947L289.516 731.947L289.516 733.84L280.945 733.84Z" fill="#ECB22E"/>
<path d="M314.427 733.839L314.427 721.337L316.691 721.337L316.691 727.081L316.844 727.081L321.721 721.337L324.487 721.337L319.652 726.947L324.529 733.839L321.807 733.839L318.077 728.479L316.691 730.115L316.691 733.839L314.427 733.839ZM330.425 734.01C329.546 734.01 328.764 733.859 328.081 733.558C327.401 733.257 326.864 732.838 326.469 732.301C326.074 731.763 325.865 731.143 325.84 730.439L328.136 730.439C328.156 730.776 328.268 731.072 328.471 731.324C328.675 731.572 328.945 731.765 329.283 731.904C329.621 732.042 330 732.111 330.419 732.111C330.866 732.111 331.263 732.034 331.609 731.879C331.955 731.721 332.226 731.501 332.421 731.22C332.616 730.939 332.712 730.616 332.708 730.249C332.712 729.871 332.614 729.537 332.415 729.248C332.215 728.959 331.927 728.734 331.548 728.571C331.174 728.408 330.722 728.327 330.193 728.327L329.088 728.327L329.088 726.581L330.193 726.581C330.628 726.581 331.009 726.505 331.334 726.355C331.664 726.204 331.922 725.993 332.11 725.72C332.297 725.443 332.388 725.124 332.384 724.762C332.388 724.407 332.309 724.1 332.146 723.84C331.988 723.575 331.762 723.37 331.469 723.223C331.18 723.077 330.84 723.003 330.449 723.003C330.067 723.003 329.713 723.073 329.387 723.211C329.061 723.349 328.799 723.547 328.6 723.803C328.4 724.055 328.294 724.357 328.282 724.707L326.103 724.707C326.119 724.007 326.321 723.392 326.707 722.863C327.098 722.33 327.619 721.915 328.27 721.618C328.921 721.317 329.652 721.166 330.461 721.166C331.296 721.166 332.02 721.323 332.635 721.636C333.253 721.945 333.731 722.362 334.069 722.887C334.407 723.412 334.576 723.992 334.576 724.627C334.58 725.331 334.372 725.921 333.953 726.398C333.538 726.874 332.993 727.185 332.317 727.332L332.317 727.429C333.196 727.551 333.87 727.877 334.338 728.406C334.81 728.931 335.044 729.584 335.04 730.365C335.04 731.065 334.84 731.692 334.442 732.246C334.047 732.795 333.501 733.226 332.806 733.54C332.114 733.853 331.32 734.01 330.425 734.01Z" fill="#ECB22E"/>
<path d="M362.878 733.839L362.878 721.337L365.142 721.337L365.142 727.081L365.295 727.081L370.173 721.337L372.938 721.337L368.103 726.947L372.981 733.839L370.258 733.839L366.528 728.479L365.142 730.115L365.142 733.839L362.878 733.839ZM374.163 731.519L374.163 729.718L379.468 721.337L380.97 721.337L380.97 723.901L380.054 723.901L376.483 729.56L376.483 729.657L383.888 729.657L383.888 731.519L374.163 731.519ZM380.127 733.839L380.127 730.97L380.152 730.164L380.152 721.337L382.288 721.337L382.288 733.839L380.127 733.839Z" fill="#ECB22E"/>
<circle cx="159.758" cy="817.254" r="10.4142" transform="rotate(-180 159.758 817.254)" fill="#FFF5E7" stroke="#ECB22E" stroke-width="0.323175"/>
<circle cx="101.331" cy="819.796" r="10.4142" transform="rotate(-180 101.331 819.796)" fill="#FFF5E7" stroke="#ECB22E" stroke-width="0.323175"/>
<circle cx="159.93" cy="791.941" r="10.4142" transform="rotate(-180 159.93 791.941)" fill="#FFF5E7" stroke="#ECB22E" stroke-width="0.323175"/>
<circle cx="101.16" cy="794.254" r="10.4142" transform="rotate(-180 101.16 794.254)" fill="#FFF5E7" stroke="#ECB22E" stroke-width="0.323175"/>
<circle cx="159.758" cy="769.066" r="10.4142" transform="rotate(-180 159.758 769.066)" fill="#FFF5E7" stroke="#ECB22E" stroke-width="0.323175"/>
<circle cx="100.988" cy="771.379" r="10.4142" transform="rotate(-180 100.988 771.379)" fill="#FFF5E7" stroke="#ECB22E" stroke-width="0.323175"/>
<circle cx="160.516" cy="743.927" r="10.4142" transform="rotate(-180 160.516 743.927)" fill="#FFF5E7" stroke="#ECB22E" stroke-width="0.323175"/>
<circle cx="101.331" cy="749.094" r="10.4142" transform="rotate(-180 101.331 749.094)" fill="#FFF5E7" stroke="#ECB22E" stroke-width="0.323175"/>
<circle cx="159.759" cy="721.756" r="10.4142" transform="rotate(-180 159.759 721.756)" fill="#FFF5E7" stroke="#ECB22E" stroke-width="0.323175"/>
<circle cx="101.159" cy="721.756" r="10.4142" transform="rotate(-180 101.159 721.756)" fill="#FFF5E7" stroke="#ECB22E" stroke-width="0.323175"/>
<rect x="160.193" y="836.381" width="55.7905" height="129.039" rx="3.23175" transform="rotate(-180 160.193 836.381)" fill="#FFF6E2" stroke="#ECB22E" stroke-width="0.646351"/>
<path d="M111.482 779.851V777.952H121.456V779.851H117.592V790.454H115.346V779.851H111.482ZM123.379 777.952H126.151L129.862 787.011H130.009L133.72 777.952H136.492V790.454H134.319V781.865H134.203L130.747 790.417H129.124L125.669 781.847H125.553V790.454H123.379V777.952ZM147.587 790.625C146.708 790.625 145.926 790.474 145.243 790.173C144.563 789.872 144.026 789.453 143.631 788.916C143.236 788.379 143.027 787.758 143.002 787.054H145.297C145.318 787.392 145.43 787.687 145.633 787.939C145.837 788.187 146.107 788.381 146.445 788.519C146.783 788.657 147.161 788.727 147.581 788.727C148.028 788.727 148.425 788.649 148.771 788.495C149.117 788.336 149.387 788.116 149.583 787.835C149.778 787.554 149.874 787.231 149.87 786.865C149.874 786.486 149.776 786.152 149.577 785.864C149.377 785.575 149.088 785.349 148.71 785.186C148.335 785.023 147.884 784.942 147.355 784.942H146.25V783.196H147.355C147.79 783.196 148.171 783.121 148.496 782.97C148.826 782.819 149.084 782.608 149.271 782.335C149.459 782.058 149.55 781.739 149.546 781.377C149.55 781.023 149.471 780.715 149.308 780.455C149.149 780.19 148.923 779.985 148.63 779.838C148.342 779.692 148.002 779.619 147.611 779.619C147.228 779.619 146.874 779.688 146.549 779.826C146.223 779.965 145.961 780.162 145.761 780.418C145.562 780.671 145.456 780.972 145.444 781.322H143.265C143.281 780.622 143.482 780.007 143.869 779.478C144.26 778.945 144.781 778.53 145.432 778.233C146.083 777.932 146.813 777.781 147.623 777.781C148.458 777.781 149.182 777.938 149.796 778.251C150.415 778.561 150.893 778.978 151.231 779.503C151.569 780.028 151.738 780.608 151.738 781.242C151.742 781.947 151.534 782.537 151.115 783.013C150.7 783.489 150.155 783.8 149.479 783.947V784.044C150.358 784.167 151.032 784.492 151.5 785.021C151.972 785.546 152.206 786.199 152.202 786.981C152.202 787.681 152.002 788.307 151.603 788.861C151.209 789.41 150.663 789.842 149.967 790.155C149.276 790.468 148.482 790.625 147.587 790.625Z" fill="#ECB22E"/>
<circle cx="409.153" cy="916.914" r="10.4142" transform="rotate(-180 409.153 916.914)" fill="#FFF5E7" stroke="#ECB22E" stroke-width="0.323175"/>
<circle cx="409.325" cy="891.601" r="10.4142" transform="rotate(-180 409.325 891.601)" fill="#FFF5E7" stroke="#ECB22E" stroke-width="0.323175"/>
<circle cx="409.153" cy="868.726" r="10.4142" transform="rotate(-180 409.153 868.726)" fill="#FFF5E7" stroke="#ECB22E" stroke-width="0.323175"/>
<circle cx="409.911" cy="843.587" r="10.4142" transform="rotate(-180 409.911 843.587)" fill="#FFF5E7" stroke="#ECB22E" stroke-width="0.323175"/>
<circle cx="192.622" cy="849.092" r="10.4142" transform="rotate(-180 192.622 849.092)" fill="#FFF5E7" stroke="#ECB22E" stroke-width="0.323175"/>
<circle cx="409.154" cy="821.416" r="10.4142" transform="rotate(-180 409.154 821.416)" fill="#FFF5E7" stroke="#ECB22E" stroke-width="0.323175"/>
<circle cx="192.45" cy="821.754" r="10.4142" transform="rotate(-180 192.45 821.754)" fill="#FFF5E7" stroke="#ECB22E" stroke-width="0.323175"/>
<rect x="409.589" y="936.041" width="213.298" height="129.039" rx="3.23175" transform="rotate(-180 409.589 936.041)" fill="#FFF6E2" stroke="#ECB22E" stroke-width="0.646351"/>
<path d="M285.28 878.021V865.52H290.065C290.969 865.52 291.72 865.662 292.318 865.947C292.92 866.228 293.37 866.612 293.667 867.101C293.968 867.589 294.119 868.142 294.119 868.761C294.119 869.27 294.021 869.705 293.826 870.067C293.63 870.426 293.368 870.716 293.038 870.94C292.709 871.164 292.34 871.325 291.933 871.423V871.545C292.377 871.569 292.802 871.705 293.209 871.954C293.62 872.198 293.956 872.544 294.216 872.991C294.477 873.439 294.607 873.98 294.607 874.615C294.607 875.262 294.45 875.844 294.137 876.361C293.824 876.874 293.352 877.279 292.721 877.576C292.09 877.873 291.297 878.021 290.34 878.021H285.28ZM287.544 876.129H289.98C290.802 876.129 291.394 875.972 291.756 875.659C292.123 875.342 292.306 874.935 292.306 874.438C292.306 874.068 292.214 873.734 292.031 873.437C291.848 873.136 291.587 872.9 291.25 872.729C290.912 872.554 290.509 872.466 290.041 872.466H287.544V876.129ZM287.544 870.837H289.785C290.175 870.837 290.527 870.765 290.841 870.623C291.154 870.476 291.4 870.271 291.579 870.006C291.762 869.738 291.854 869.42 291.854 869.054C291.854 868.57 291.683 868.171 291.341 867.858C291.003 867.544 290.501 867.388 289.833 867.388H287.544V870.837ZM298.183 878.021H295.765L300.167 865.52H302.963L307.37 878.021H304.953L301.614 868.083H301.516L298.183 878.021ZM298.262 873.12H304.855V874.939H298.262V873.12ZM309.017 878.021V865.52H313.705C314.665 865.52 315.471 865.686 316.122 866.02C316.778 866.354 317.272 866.822 317.606 867.424C317.943 868.022 318.112 868.72 318.112 869.518C318.112 870.32 317.941 871.016 317.6 871.606C317.262 872.192 316.763 872.645 316.104 872.967C315.445 873.284 314.635 873.443 313.674 873.443H310.335V871.563H313.369C313.931 871.563 314.391 871.486 314.749 871.331C315.107 871.172 315.371 870.942 315.542 870.641C315.717 870.336 315.805 869.962 315.805 869.518C315.805 869.074 315.717 868.696 315.542 868.383C315.367 868.065 315.101 867.825 314.743 867.662C314.385 867.495 313.923 867.412 313.357 867.412H311.281V878.021H309.017ZM315.475 872.357L318.57 878.021H316.043L313.003 872.357H315.475Z" fill="#ECB22E"/>
<circle cx="530.417" cy="904.865" r="10.4142" transform="rotate(-180 530.417 904.865)" fill="#FFF5E7" stroke="#ECB22E" stroke-width="0.323175"/>
<circle cx="471.99" cy="907.407" r="10.4142" transform="rotate(-180 471.99 907.407)" fill="#FFF5E7" stroke="#ECB22E" stroke-width="0.323175"/>
<circle cx="530.589" cy="879.551" r="10.4142" transform="rotate(-180 530.589 879.551)" fill="#FFF5E7" stroke="#ECB22E" stroke-width="0.323175"/>
<circle cx="471.818" cy="881.865" r="10.4142" transform="rotate(-180 471.818 881.865)" fill="#FFF5E7" stroke="#ECB22E" stroke-width="0.323175"/>
<circle cx="530.417" cy="856.676" r="10.4142" transform="rotate(-180 530.417 856.676)" fill="#FFF5E7" stroke="#ECB22E" stroke-width="0.323175"/>
<circle cx="471.647" cy="858.99" r="10.4142" transform="rotate(-180 471.647 858.99)" fill="#FFF5E7" stroke="#ECB22E" stroke-width="0.323175"/>
<circle cx="531.175" cy="831.537" r="10.4142" transform="rotate(-180 531.175 831.537)" fill="#FFF5E7" stroke="#ECB22E" stroke-width="0.323175"/>
<circle cx="471.99" cy="836.704" r="10.4142" transform="rotate(-180 471.99 836.704)" fill="#FFF5E7" stroke="#ECB22E" stroke-width="0.323175"/>
<circle cx="530.418" cy="809.367" r="10.4142" transform="rotate(-180 530.418 809.367)" fill="#FFF5E7" stroke="#ECB22E" stroke-width="0.323175"/>
<circle cx="471.818" cy="809.367" r="10.4142" transform="rotate(-180 471.818 809.367)" fill="#FFF5E7" stroke="#ECB22E" stroke-width="0.323175"/>
<rect x="530.852" y="923.991" width="55.7905" height="129.039" rx="3.23175" transform="rotate(-180 530.852 923.991)" fill="#FFF6E2" stroke="#ECB22E" stroke-width="0.646351"/>
<path d="M482.141 854.887V852.988H492.115V854.887H488.251V865.49H486.005V854.887H482.141ZM494.038 852.988H496.81L500.521 862.047H500.668L504.379 852.988H507.151V865.49H504.977V856.901H504.861L501.406 865.454H499.782L496.327 856.883H496.211V865.49H494.038V852.988ZM518.844 852.988V865.49H516.579V855.192H516.506L513.582 857.06V854.984L516.689 852.988H518.844Z" fill="#ECB22E"/>
</svg>
