<svg width="168" height="105" viewBox="0 0 168 105" fill="none" xmlns="http://www.w3.org/2000/svg">
<circle cx="142.493" cy="15.3413" r="13.4038" transform="rotate(90 142.493 15.3413)" fill="#FFF5E7" stroke="#ECB22E" stroke-width="0.415949"/>
<circle cx="145.764" cy="90.5405" r="13.4038" transform="rotate(90 145.764 90.5405)" fill="#FFF5E7" stroke="#ECB22E" stroke-width="0.415949"/>
<circle cx="109.913" cy="15.1196" r="13.4038" transform="rotate(90 109.913 15.1196)" fill="#FFF5E7" stroke="#ECB22E" stroke-width="0.415949"/>
<circle cx="112.891" cy="90.7612" r="13.4038" transform="rotate(90 112.891 90.7612)" fill="#FFF5E7" stroke="#ECB22E" stroke-width="0.415949"/>
<circle cx="80.4718" cy="15.3413" r="13.4038" transform="rotate(90 80.4718 15.3413)" fill="#FFF5E7" stroke="#ECB22E" stroke-width="0.415949"/>
<circle cx="83.4493" cy="90.9829" r="13.4038" transform="rotate(90 83.4493 90.9829)" fill="#FFF5E7" stroke="#ECB22E" stroke-width="0.415949"/>
<circle cx="48.1161" cy="14.3657" r="13.4038" transform="rotate(90 48.1161 14.3657)" fill="#FFF5E7" stroke="#ECB22E" stroke-width="0.415949"/>
<circle cx="54.7664" cy="90.5405" r="13.4038" transform="rotate(90 54.7664 90.5405)" fill="#FFF5E7" stroke="#ECB22E" stroke-width="0.415949"/>
<circle cx="19.5806" cy="15.3393" r="13.4038" transform="rotate(90 19.5806 15.3393)" fill="#FFF5E7" stroke="#ECB22E" stroke-width="0.415949"/>
<circle cx="19.5806" cy="90.7612" r="13.4038" transform="rotate(90 19.5806 90.7612)" fill="#FFF5E7" stroke="#ECB22E" stroke-width="0.415949"/>
<rect x="167.11" y="14.7812" width="71.8062" height="166.082" rx="4.15949" transform="rotate(90 167.11 14.7812)" fill="#FFF6E2" stroke="#ECB22E" stroke-width="0.831898"/>
<path d="M58.6671 46.7081V44.2646H71.5052V46.7081H66.5318V60.3555H63.6405L63.6405 46.7081H58.6671ZM73.9801 44.2646H77.5471L82.3241 55.9242H82.5126L87.2896 44.2646H90.8566V60.3555H88.0596V49.3009H87.9103L83.4633 60.3083H81.3734L76.9264 49.2773H76.7771V60.3555H73.9801V44.2646ZM105.906 44.2646V60.3555H102.992V47.1009H102.897L99.1338 49.5051V46.8338L103.133 44.2646H105.906Z" fill="#ECB22E"/>
</svg>
