<svg width="81" height="131" viewBox="0 0 81 131" fill="none" xmlns="http://www.w3.org/2000/svg">
<circle cx="69.417" cy="110.865" r="10.4142" transform="rotate(-180 69.417 110.865)" fill="#FFF5E7" stroke="#ECB22E" stroke-width="0.323175"/>
<circle cx="10.9903" cy="113.407" r="10.4142" transform="rotate(-180 10.9903 113.407)" fill="#FFF5E7" stroke="#ECB22E" stroke-width="0.323175"/>
<circle cx="69.5889" cy="85.5512" r="10.4142" transform="rotate(-180 69.5889 85.5512)" fill="#FFF5E7" stroke="#ECB22E" stroke-width="0.323175"/>
<circle cx="10.8184" cy="87.8646" r="10.4142" transform="rotate(-180 10.8184 87.8646)" fill="#FFF5E7" stroke="#ECB22E" stroke-width="0.323175"/>
<circle cx="69.417" cy="62.6762" r="10.4142" transform="rotate(-180 69.417 62.6762)" fill="#FFF5E7" stroke="#ECB22E" stroke-width="0.323175"/>
<circle cx="10.6465" cy="64.9896" r="10.4142" transform="rotate(-180 10.6465 64.9896)" fill="#FFF5E7" stroke="#ECB22E" stroke-width="0.323175"/>
<circle cx="70.1748" cy="37.5375" r="10.4142" transform="rotate(-180 70.1748 37.5375)" fill="#FFF5E7" stroke="#ECB22E" stroke-width="0.323175"/>
<circle cx="10.9901" cy="42.7045" r="10.4142" transform="rotate(-180 10.9901 42.7045)" fill="#FFF5E7" stroke="#ECB22E" stroke-width="0.323175"/>
<circle cx="69.4178" cy="15.3666" r="10.4142" transform="rotate(-180 69.4178 15.3666)" fill="#FFF5E7" stroke="#ECB22E" stroke-width="0.323175"/>
<circle cx="10.8182" cy="15.3666" r="10.4142" transform="rotate(-180 10.8182 15.3666)" fill="#FFF5E7" stroke="#ECB22E" stroke-width="0.323175"/>
<rect x="69.8522" y="129.991" width="55.7905" height="129.039" rx="3.23175" transform="rotate(-180 69.8522 129.991)" fill="#FFF6E2" stroke="#ECB22E" stroke-width="0.646351"/>
<path d="M21.1406 60.8868V58.9883H31.1153V60.8868H27.2512V71.4902H25.0047V60.8868H21.1406ZM33.0382 58.9883H35.8096L39.5211 68.0473H39.6676L43.3792 58.9883H46.1506V71.4902H43.9774V62.9013H43.8614L40.4063 71.4536H38.7825L35.3274 62.8829H35.2114V71.4902H33.0382V58.9883ZM57.8437 58.9883V71.4902H55.5789V61.192H55.5057L52.5816 63.06V60.9845L55.6888 58.9883H57.8437Z" fill="#ECB22E"/>
</svg>
