<svg width="82" height="130" viewBox="0 0 82 130" fill="none" xmlns="http://www.w3.org/2000/svg">
<circle cx="70.516" cy="36.9271" r="10.4142" transform="rotate(-180 70.516 36.9271)" fill="#FFF5E7" stroke="#ECB22E" stroke-width="0.323175"/>
<circle cx="11.3312" cy="42.0941" r="10.4142" transform="rotate(-180 11.3312 42.0941)" fill="#FFF5E7" stroke="#ECB22E" stroke-width="0.323175"/>
<circle cx="69.759" cy="14.7562" r="10.4142" transform="rotate(-180 69.759 14.7562)" fill="#FFF5E7" stroke="#ECB22E" stroke-width="0.323175"/>
<circle cx="11.1594" cy="14.7562" r="10.4142" transform="rotate(-180 11.1594 14.7562)" fill="#FFF5E7" stroke="#ECB22E" stroke-width="0.323175"/>
<rect x="70.1934" y="129.381" width="55.7905" height="129.039" rx="3.23175" transform="rotate(-180 70.1934 129.381)" fill="#FFF6E2" stroke="#ECB22E" stroke-width="0.646351"/>
<path d="M21.4818 72.8507V70.9522H31.4565V72.8507H27.5924V83.4541H25.3459V72.8507H21.4818ZM33.3794 70.9522H36.1508L39.8623 80.0112H40.0088L43.7203 70.9522H46.4918V83.4541H44.3186V74.8651H44.2026L40.7475 83.4175H39.1237L35.6686 74.8468H35.5526V83.4541H33.3794V70.9522ZM57.5866 83.625C56.7076 83.625 55.9262 83.4744 55.2425 83.1733C54.5629 82.8721 54.0257 82.453 53.6309 81.9158C53.2362 81.3786 53.0266 80.758 53.0022 80.0539H55.2974C55.3178 80.3917 55.4297 80.6867 55.6332 80.9391C55.8367 81.1873 56.1073 81.3806 56.4451 81.519C56.7829 81.6574 57.1613 81.7265 57.5805 81.7265C58.0282 81.7265 58.425 81.6492 58.7709 81.4946C59.1168 81.3359 59.3874 81.1161 59.5828 80.8353C59.7781 80.5545 59.8738 80.2309 59.8697 79.8647C59.8738 79.4862 59.7761 79.1525 59.5767 78.8635C59.3773 78.5746 59.0883 78.3487 58.7098 78.186C58.3354 78.0232 57.8837 77.9418 57.3547 77.9418H56.2497V76.1959H57.3547C57.7901 76.1959 58.1706 76.1206 58.4962 75.97C58.8258 75.8195 59.0842 75.6078 59.2715 75.3352C59.4587 75.0584 59.5502 74.739 59.5462 74.3768C59.5502 74.0227 59.4709 73.7155 59.3081 73.455C59.1494 73.1905 58.9235 72.985 58.6305 72.8384C58.3415 72.6919 58.0017 72.6187 57.611 72.6187C57.2285 72.6187 56.8744 72.6879 56.5489 72.8262C56.2233 72.9646 55.9608 73.162 55.7614 73.4184C55.562 73.6707 55.4562 73.9718 55.444 74.3218H53.2647C53.2809 73.6219 53.4824 73.0073 53.869 72.4783C54.2597 71.9452 54.7806 71.5301 55.4317 71.233C56.0829 70.9318 56.8134 70.7812 57.6232 70.7812C58.4575 70.7812 59.1819 70.9379 59.7964 71.2513C60.415 71.5606 60.8932 71.9777 61.231 72.5027C61.5688 73.0277 61.7377 73.6076 61.7377 74.2425C61.7417 74.9465 61.5342 75.5366 61.115 76.0128C60.6999 76.4889 60.1546 76.8002 59.479 76.9467V77.0444C60.358 77.1665 61.0316 77.4921 61.4996 78.0211C61.9717 78.5461 62.2057 79.1993 62.2016 79.9807C62.2016 80.6806 62.0022 81.3074 61.6034 81.8608C61.2086 82.4102 60.6633 82.8416 59.9674 83.155C59.2755 83.4683 58.4819 83.625 57.5866 83.625Z" fill="#ECB22E"/>
</svg>
