<svg width="168" height="105" viewBox="0 0 168 105" fill="none" xmlns="http://www.w3.org/2000/svg">
<circle cx="142.733" cy="15.4047" r="13.4038" transform="rotate(90 142.733 15.4047)" fill="#FFF5E7" stroke="#ECB22E" stroke-width="0.415949"/>
<circle cx="146.005" cy="90.604" r="13.4038" transform="rotate(90 146.005 90.604)" fill="#FFF5E7" stroke="#ECB22E" stroke-width="0.415949"/>
<circle cx="110.152" cy="15.1831" r="13.4038" transform="rotate(90 110.152 15.1831)" fill="#FFF5E7" stroke="#ECB22E" stroke-width="0.415949"/>
<circle cx="113.13" cy="90.8247" r="13.4038" transform="rotate(90 113.13 90.8247)" fill="#FFF5E7" stroke="#ECB22E" stroke-width="0.415949"/>
<circle cx="80.7107" cy="15.4047" r="13.4038" transform="rotate(90 80.7107 15.4047)" fill="#FFF5E7" stroke="#ECB22E" stroke-width="0.415949"/>
<circle cx="83.6883" cy="91.0463" r="13.4038" transform="rotate(90 83.6883 91.0463)" fill="#FFF5E7" stroke="#ECB22E" stroke-width="0.415949"/>
<circle cx="48.3561" cy="14.4292" r="13.4038" transform="rotate(90 48.3561 14.4292)" fill="#FFF5E7" stroke="#ECB22E" stroke-width="0.415949"/>
<circle cx="55.0063" cy="90.604" r="13.4038" transform="rotate(90 55.0063 90.604)" fill="#FFF5E7" stroke="#ECB22E" stroke-width="0.415949"/>
<circle cx="19.8207" cy="15.4038" r="13.4038" transform="rotate(90 19.8207 15.4038)" fill="#FFF5E7" stroke="#ECB22E" stroke-width="0.415949"/>
<circle cx="19.8207" cy="90.8247" r="13.4038" transform="rotate(90 19.8207 90.8247)" fill="#FFF5E7" stroke="#ECB22E" stroke-width="0.415949"/>
<rect x="167.35" y="14.8447" width="71.8062" height="166.082" rx="4.15949" transform="rotate(90 167.35 14.8447)" fill="#FFF6E2" stroke="#ECB22E" stroke-width="0.831898"/>
<path d="M57.0683 44.6007V42.1572H69.9064V44.6007H64.933V58.248H62.0417L62.0417 44.6007H57.0683ZM72.3813 42.1572H75.9483L80.7253 53.8168H80.9138L85.6908 42.1572H89.2578V58.248H86.4608V47.1934H86.3115L81.8645 58.2009H79.7746L75.3276 47.1699H75.1783V58.248H72.3813V42.1572ZM103.538 58.468C102.406 58.468 101.401 58.2742 100.521 57.8866C99.6459 57.499 98.9545 56.9595 98.4464 56.2681C97.9383 55.5767 97.6686 54.7779 97.6372 53.8718H100.591C100.618 54.3065 100.762 54.6863 101.023 55.011C101.285 55.3305 101.634 55.5793 102.068 55.7574C102.503 55.9355 102.99 56.0246 103.53 56.0246C104.106 56.0246 104.617 55.925 105.062 55.726C105.507 55.5217 105.855 55.2389 106.107 54.8775C106.358 54.516 106.481 54.0996 106.476 53.6282C106.481 53.1411 106.356 52.7116 106.099 52.3397C105.842 51.9678 105.47 51.6771 104.983 51.4676C104.501 51.2581 103.92 51.1533 103.239 51.1533H101.817V48.9062H103.239C103.8 48.9062 104.289 48.8093 104.708 48.6155C105.133 48.4217 105.465 48.1494 105.706 47.7984C105.947 47.4422 106.065 47.0311 106.06 46.5649C106.065 46.1092 105.963 45.7137 105.753 45.3785C105.549 45.038 105.258 44.7735 104.881 44.585C104.509 44.3964 104.072 44.3021 103.569 44.3021C103.077 44.3021 102.621 44.3912 102.202 44.5693C101.783 44.7473 101.445 45.0014 101.188 45.3314C100.932 45.6561 100.796 46.0437 100.78 46.4942H97.975C97.9959 45.5933 98.2552 44.8023 98.7528 44.1214C99.2557 43.4352 99.9261 42.901 100.764 42.5186C101.602 42.131 102.542 41.9372 103.585 41.9372C104.659 41.9372 105.591 42.1389 106.382 42.5422C107.178 42.9403 107.793 43.4772 108.228 44.1528C108.663 44.8285 108.88 45.5749 108.88 46.392C108.886 47.2982 108.618 48.0577 108.079 48.6705C107.545 49.2834 106.843 49.6841 105.973 49.8726V49.9983C107.105 50.1555 107.972 50.5745 108.574 51.2554C109.181 51.9311 109.483 52.7718 109.477 53.7775C109.477 54.6784 109.221 55.4851 108.707 56.1974C108.199 56.9045 107.498 57.4597 106.602 57.8631C105.711 58.2664 104.69 58.468 103.538 58.468Z" fill="#ECB22E"/>
</svg>
